<svg width="32" height="32" viewBox="0 0 32 32" fill="none" xmlns="http://www.w3.org/2000/svg">
<path d="M25.38 6.70195C30.5382 11.8602 30.5382 20.2232 25.38 25.3813C20.2219 30.5396 11.8588 30.5396 6.70061 25.3813C1.54251 20.2232 1.54251 11.8602 6.70061 6.70195C11.8588 1.54385 20.2219 1.54385 25.38 6.70195Z" fill="#E03F3F"/>
<path d="M16.5273 12.8389C16.7392 12.7496 16.9795 12.6627 17.2032 12.6627C17.3344 12.6627 17.4599 12.6927 17.5706 12.7695C17.5935 12.7852 17.612 12.8032 17.6312 12.8208C17.2633 12.8269 16.8954 12.8328 16.5273 12.8389Z" fill="#D73D3D"/>
<path d="M16.8282 6.56254C16.4474 7.35353 15.54 7.65591 14.7334 7.75684C14.3301 7.75684 13.7252 7.45425 13.9267 6.95022C14.1284 5.94195 15.4391 5.43782 16.4824 5.94629C16.7356 6.09995 16.872 6.31995 16.8282 6.56254Z" fill="#C73232"/>
<path d="M21.3238 8.94551C20.7903 9.08687 20.3675 8.82885 20.0817 8.53635C19.966 8.3711 19.9544 8.00953 20.2827 7.90266C20.8814 7.60623 21.5281 7.95367 21.555 8.57215C21.5453 8.73367 21.4665 8.87231 21.3238 8.94551Z" fill="#C73232"/>
<path d="M13.2243 23.4076C13.4242 22.562 13.8752 22.2443 14.2732 22.1422C14.4715 22.1451 14.764 22.474 14.6569 23.0131C14.5415 24.093 13.889 24.624 13.3843 24.0711C13.2624 23.9043 13.1988 23.6673 13.2243 23.4076Z" fill="#D43535"/>
<path d="M22.6813 16.7317C22.8812 15.8863 23.3322 15.5685 23.7303 15.4663C23.9286 15.4692 24.2211 15.7981 24.1138 16.3374C23.9985 17.4173 23.346 17.9483 22.8413 17.3952C22.7193 17.2285 22.6559 16.9915 22.6813 16.7317Z" fill="#D43535"/>
<path d="M7.81642 21.9207C7.42552 21.2238 7.42501 20.8495 7.52332 20.6534C7.60217 20.5964 7.8984 20.7566 8.15561 21.1949C8.70935 22.0429 8.74978 22.6383 8.24655 22.3726C8.10671 22.2835 7.95052 22.124 7.81642 21.9207Z" fill="#C73232"/>
<path d="M21.721 19.3804C21.8149 18.587 22.0347 18.2841 22.2296 18.1835C22.327 18.1837 22.4722 18.4877 22.4222 18.9934C22.3708 20.005 22.0532 20.5099 21.8026 19.999C21.742 19.8447 21.7097 19.6237 21.721 19.3804Z" fill="#C73232"/>
<path d="M12.9581 26.3025C12.7325 25.6458 12.9017 25.2386 13.1272 24.9997C13.2624 24.9172 13.6006 25.0146 13.7581 25.4247C14.1408 26.2038 13.9265 26.8412 13.3494 26.6827C13.1959 26.6221 13.0518 26.489 12.9581 26.3025Z" fill="#D43535"/>
<path d="M10.3145 21.4624C9.80529 21.4246 9.58226 21.2009 9.4892 20.9877C9.47428 20.8769 9.64115 20.6851 9.9642 20.6979C10.6027 20.6681 10.9669 20.9856 10.6873 21.3153C10.6006 21.3978 10.4679 21.4539 10.3145 21.4624Z" fill="#C73232"/>
<path d="M21.0794 17.3606C20.7817 17.7754 20.4745 17.849 20.2441 17.8172C20.1417 17.7721 20.065 17.5297 20.2445 17.2608C20.552 16.7004 21.0129 16.5553 21.1484 16.9657C21.1736 17.0828 21.1522 17.2252 21.0794 17.3606Z" fill="#C73232"/>
<path d="M17.3672 12.0225C16.8398 12.0225 16.3115 11.8109 15.918 11.3847C15.9989 11.2885 16.0778 11.1909 16.1543 11.092C16.525 11.4137 16.984 11.5735 17.4425 11.5735C18.0874 11.5735 18.731 11.2569 19.1244 10.6294C19.173 10.5737 19.2117 10.5169 19.2418 10.4596C19.2731 10.6607 19.2253 10.8762 19.0491 11.0784C18.6558 11.7059 18.0121 12.0225 17.3672 12.0225Z" fill="#E14545"/>
<path d="M15.8205 9.83591C16.6484 8.99309 17.7784 9.00953 18.6933 9.23901C19.1238 9.41838 19.6085 10.0743 19.1246 10.6297C18.3722 11.8301 16.7043 11.8925 15.8615 10.7781C15.673 10.469 15.6446 10.1267 15.8205 9.83591Z" fill="#D43535"/>
<path d="M9.39938 12.9537C9.94203 12.2103 11.3536 12.0086 11.7569 12.7144C12.0594 13.4202 11.1519 14.0251 10.4462 14.126C10.0429 14.126 9.74037 13.9243 9.402 13.606C9.28312 13.3999 9.27284 13.1632 9.39938 12.9537Z" fill="#D43535"/>
<path d="M20.8582 14.5451C21.1899 14.0811 22.0361 13.943 22.2705 14.3747C22.4446 14.8075 21.896 15.1897 21.4729 15.2587C21.2316 15.2626 21.0528 15.1411 20.8534 14.9478C20.7844 14.8218 20.7805 14.6758 20.8582 14.5451Z" fill="#D43535"/>
<path d="M15.9445 23.6165C17.5557 22.9161 18.6032 23.2496 19.2378 23.7587C19.4661 24.0771 19.2749 24.9375 18.2712 25.4163C16.3779 26.5331 14.7463 26.1362 15.0529 24.6693C15.1807 24.275 15.4918 23.8887 15.9445 23.6165Z" fill="#D43535"/>
<path d="M8.08219 18.2809C8.535 18.6438 9.43669 19.3604 8.80582 19.6395C8.20146 19.9621 7.40967 19.3168 7.00455 18.8691C6.87216 18.651 6.57291 18.3777 6.89243 18.1349C7.09388 18.0274 7.37468 18.0506 7.6692 18.1083C7.80683 18.1466 7.94698 18.2046 8.08219 18.2809Z" fill="#D43535"/>
<path d="M28.0484 20.3789C28.0208 20.3188 27.992 20.2586 27.9626 20.1986C28.365 19.0947 28.6475 17.938 28.7591 16.7653C28.7755 16.5922 28.7882 16.4187 28.7971 16.245C28.7775 17.6462 28.5279 19.0445 28.0484 20.3789ZM27.0407 18.6129C26.266 17.3681 25.5104 16.1164 25.7269 14.7408C25.8075 14.2292 26.072 13.6966 26.5557 13.5117C26.6746 13.4663 26.7993 13.4445 26.9262 13.4356C26.9474 13.5365 26.9679 13.6376 26.9876 13.7389C27.1725 14.7055 27.2834 15.6841 27.325 16.6544C27.3043 16.9779 27.2708 17.3004 27.2255 17.6205C27.1769 17.9541 27.1154 18.2853 27.0407 18.6129ZM28.756 15.0219C28.6987 14.5058 28.6038 13.995 28.4769 13.4906C28.4972 13.4916 28.5174 13.4925 28.5376 13.4934C28.6413 13.999 28.714 14.5093 28.756 15.0219ZM23.4356 9.00472C23.0447 8.40128 22.6069 7.81608 22.127 7.26748C21.909 7.01833 21.6825 6.77665 21.4478 6.54435C19.6885 4.61795 17.0934 3.61169 14.4725 3.61169C14.3765 3.61169 14.2801 3.61301 14.1841 3.61573C13.956 3.62238 13.7283 3.6365 13.5005 3.65475C13.2743 3.67895 13.0488 3.71 12.8242 3.74801C13.0888 3.67874 13.3552 3.61805 13.6229 3.56602C13.627 3.56521 13.6311 3.56451 13.6353 3.5638C13.626 3.56562 13.6167 3.56743 13.6073 3.56925C14.2211 3.47417 14.841 3.42658 15.4605 3.42658C16.6903 3.42658 17.9198 3.61381 19.1031 3.98838C19.459 4.10101 19.8107 4.23067 20.157 4.37717C21.5511 4.92688 22.7097 5.81728 23.669 6.91055C23.2143 7.43757 23.6701 8.31275 23.4417 8.98708C23.4398 8.99303 23.4377 8.99888 23.4356 9.00472Z" fill="#CE3A3A"/>
<path d="M28.795 16.2451C28.8008 15.8372 28.7871 15.4288 28.7539 15.022C28.7812 15.2687 28.8 15.5166 28.8096 15.7654C28.8082 15.9254 28.8032 16.0854 28.795 16.2451Z" fill="#CE3A3A"/>
<path d="M27.9622 20.1987C27.6996 19.6655 27.3683 19.1399 27.0403 18.613C27.115 18.2854 27.1765 17.9542 27.2251 17.6206C27.2704 17.3005 27.3039 16.978 27.3247 16.6545C27.283 15.6842 27.1721 14.7056 26.9872 13.739C26.9675 13.6377 26.9471 13.5366 26.9258 13.4357C26.9804 13.4318 27.0356 13.4303 27.0907 13.4303C27.1819 13.4303 27.2733 13.4344 27.3638 13.4386C27.7347 13.4559 28.1057 13.4734 28.4765 13.4907C28.6034 13.9951 28.6983 14.5059 28.7556 15.022C28.7888 15.4288 28.8025 15.8372 28.7967 16.2451C28.7879 16.4188 28.7751 16.5923 28.7587 16.7654C28.6471 17.9381 28.3646 19.0948 27.9622 20.1987Z" fill="#BE3535"/>
<path d="M24.3994 6.57275C23.0381 5.44783 21.4973 4.56741 19.8609 4.00298C19.5668 3.90276 19.2696 3.81262 18.9701 3.73428C18.0029 3.47243 17.0154 3.33944 16.0068 3.33944C15.4868 3.33944 14.9613 3.37473 14.4301 3.44601C14.1636 3.47757 13.8979 3.5177 13.6328 3.56378C14.4349 3.40871 15.2489 3.33117 16.0629 3.33117C17.4221 3.33117 18.7816 3.54734 20.0847 3.97989C20.3837 4.0791 20.6796 4.18971 20.972 4.31171C22.2453 4.86414 23.4729 5.61732 24.4447 6.56549C24.4296 6.56781 24.4145 6.57023 24.3994 6.57275Z" fill="#CE3A3A"/>
<path d="M23.6671 6.91064C22.7078 5.81738 21.5492 4.92698 20.1551 4.37727C19.8088 4.23077 19.4572 4.1011 19.1012 3.98848C17.9179 3.61391 16.6885 3.42667 15.4587 3.42667C14.8391 3.42667 14.2192 3.47426 13.6055 3.56934C13.6148 3.56753 13.6241 3.56571 13.6334 3.5639C13.8985 3.51782 14.1641 3.47769 14.4307 3.44613C14.9619 3.37485 15.4874 3.33956 16.0074 3.33956C17.0159 3.33956 18.0034 3.47255 18.9707 3.7344C19.2702 3.81274 19.5674 3.90288 19.8615 4.0031C21.4979 4.56753 23.0387 5.44795 24.4 6.57287C24.1385 6.61633 23.8792 6.68963 23.6982 6.87657C23.6875 6.88776 23.6771 6.89915 23.6671 6.91064Z" fill="#BE3535"/>
<path d="M11.9022 14.2031C11.6893 14.0366 11.4269 13.9454 11.1389 13.8896C11.6103 13.6299 11.9665 13.1956 11.7603 12.7143C11.5887 12.4142 11.2348 12.278 10.8429 12.278C10.3134 12.278 9.71466 12.5264 9.4028 12.9536C9.27626 13.1631 9.28655 13.3998 9.40542 13.6059C9.44071 13.6392 9.4756 13.6711 9.51028 13.7016C9.29623 13.6615 9.09024 13.6036 8.90089 13.5139C7.94011 13.0586 7.56291 11.8539 6.67846 11.2639C6.36942 11.0577 6.01774 10.9431 5.65234 10.904C5.76981 10.678 5.89403 10.4494 6.0249 10.2199C6.45069 9.47344 6.94948 8.71693 7.51492 8.00711C7.72696 7.74093 7.94989 7.48211 8.18723 7.23558C8.45735 7.03817 8.7442 6.85446 9.04446 6.68456C9.34462 6.51477 9.6582 6.35879 9.98185 6.21693C10.8001 5.81776 11.6659 5.63909 12.5504 5.57386C12.8452 5.55208 13.1423 5.5429 13.4402 5.5423C13.5394 5.53534 13.6377 5.53211 13.7353 5.53211C13.9436 5.53211 14.1482 5.54683 14.3499 5.57093C14.6561 5.63899 14.9716 5.70906 15.287 5.77158C14.6228 5.87886 14.0546 6.31423 13.9273 6.95014C13.7258 7.45418 14.3306 7.75676 14.7339 7.75676C15.5405 7.65583 16.448 7.35345 16.8288 6.56246C16.8717 6.32492 16.7417 6.10884 16.4984 5.95569C16.6292 5.96718 16.7576 5.97484 16.883 5.97787C17.022 6.09987 17.1417 6.25494 17.2373 6.44077C17.5321 7.39166 17.4894 8.29447 17.2217 9.13557C16.7228 9.20867 16.2348 9.41526 15.822 9.83551C15.7246 9.99663 15.6899 10.1735 15.7103 10.3517C15.5761 10.6272 15.6137 10.9412 15.7878 11.2268C15.8298 11.2824 15.8738 11.3349 15.9197 11.3846C15.7087 11.6351 15.4833 11.8761 15.2481 12.1072C15.0277 12.324 14.7988 12.5321 14.5654 12.7309C14.0794 13.1176 13.676 13.5209 13.0711 13.7226C12.6695 13.8672 12.2806 14.0297 11.9022 14.2031ZM10.3453 7.26976C10.3231 7.26976 10.3006 7.27057 10.2776 7.27208C9.13884 7.67297 7.92891 7.87462 7.02147 8.78207C6.71899 9.18537 6.71899 9.68951 7.1223 9.99199C7.32395 10.0928 7.52561 10.1936 7.72726 10.1936C9.13884 9.89116 10.8529 9.08455 10.7193 7.37724C10.6236 7.30455 10.4959 7.26976 10.3453 7.26976Z" fill="#E14545"/>
<path d="M14.7334 7.75684C14.3301 7.75684 13.7252 7.45425 13.9267 6.95022C14.054 6.31431 14.6222 5.87893 15.2864 5.77165C15.6971 5.85302 16.1076 5.92148 16.4978 5.95576C16.7411 6.10892 16.8711 6.32499 16.8282 6.56254C16.4474 7.35353 15.54 7.65591 14.7334 7.75684Z" fill="#C93838"/>
<path d="M15.9192 11.3848C15.8732 11.3351 15.8293 11.2825 15.7872 11.227C15.6132 10.9413 15.5756 10.6274 15.7098 10.3519C15.7262 10.4955 15.7784 10.6401 15.8624 10.7779C15.9516 10.8958 16.05 11.0005 16.1555 11.0921C16.079 11.191 16.0002 11.2886 15.9192 11.3848Z" fill="#E24B4B"/>
<path d="M16.1545 11.0923C16.049 11.0007 15.9505 10.896 15.8614 10.7781C15.7774 10.6403 15.7252 10.4957 15.7088 10.3521C15.6883 10.1739 15.7231 9.997 15.8205 9.83588C16.2333 9.41563 16.7213 9.20904 17.2202 9.13594C16.9982 9.83296 16.6217 10.4878 16.1545 11.0923Z" fill="#D53B3B"/>
<path d="M11.1355 13.8896C10.6285 13.7913 10.0421 13.8021 9.50686 13.7017C9.47217 13.6712 9.43729 13.6393 9.402 13.606C9.28312 13.3999 9.27284 13.1632 9.39938 12.9537C9.71123 12.5265 10.3099 12.2781 10.8395 12.2781C11.2314 12.2781 11.5853 12.4142 11.7569 12.7144C11.9631 13.1957 11.6069 13.63 11.1355 13.8896Z" fill="#D53B3B"/>
<path d="M7.72609 10.1938C7.52443 10.1938 7.32278 10.093 7.12113 9.99219C6.71782 9.68971 6.71782 9.18558 7.0203 8.78227C7.92774 7.87483 9.13767 7.67318 10.2764 7.27229C10.2994 7.27077 10.322 7.26997 10.3442 7.26997C10.4947 7.26997 10.6224 7.30475 10.7181 7.37745C10.8517 9.08475 9.13766 9.89137 7.72609 10.1938Z" fill="#E34E4E"/>
<mask id="mask0_36_5059" style="mask-type:luminance" maskUnits="userSpaceOnUse" x="6" y="25" width="20" height="5">
<path d="M6.6998 25.3814C6.67963 25.3612 6.65957 25.341 6.63961 25.3208C6.65967 25.341 6.67963 25.3612 6.6998 25.3814ZM6.6386 25.3198C6.63406 25.3151 6.62942 25.3104 6.62479 25.3058C6.62952 25.3105 6.63396 25.315 6.6386 25.3198ZM6.62156 25.3024C6.61773 25.2986 6.6139 25.2947 6.61007 25.2907C6.6141 25.2949 6.61753 25.2983 6.62156 25.3024ZM6.60412 25.2848C6.60129 25.2819 6.59827 25.2787 6.59544 25.2758C6.59827 25.2787 6.60139 25.2819 6.60412 25.2848ZM6.58708 25.2673C6.58496 25.2651 6.58294 25.263 6.58083 25.2609C6.58304 25.2631 6.58496 25.2651 6.58708 25.2673ZM6.56943 25.2492C6.56842 25.2482 6.56741 25.2471 6.56641 25.2461C6.56731 25.247 6.56852 25.2483 6.56943 25.2492Z" fill="white"/>
</mask>
<g mask="url(#mask0_36_5059)">
<path d="M6.6998 25.3814C6.67963 25.3612 6.65957 25.341 6.63961 25.3208C6.65967 25.341 6.67963 25.3612 6.6998 25.3814ZM6.6386 25.3198C6.63406 25.3151 6.62942 25.3104 6.62479 25.3058C6.62952 25.3105 6.63396 25.315 6.6386 25.3198ZM6.62156 25.3024C6.61773 25.2986 6.6139 25.2947 6.61007 25.2907C6.6141 25.2949 6.61753 25.2983 6.62156 25.3024ZM6.60412 25.2848C6.60129 25.2819 6.59827 25.2787 6.59544 25.2758C6.59827 25.2787 6.60139 25.2819 6.60412 25.2848ZM6.58708 25.2673C6.58496 25.2651 6.58294 25.263 6.58083 25.2609C6.58304 25.2631 6.58496 25.2651 6.58708 25.2673ZM6.56943 25.2492C6.56842 25.2482 6.56741 25.2471 6.56641 25.2461C6.56731 25.247 6.56852 25.2483 6.56943 25.2492Z" fill="url(#paint0_linear_36_5059)"/>
</g>
<path d="M16.0411 29.25C12.6607 29.25 9.28042 27.9604 6.70137 25.3814C6.68121 25.3612 6.66124 25.341 6.64118 25.3208C6.64088 25.3205 6.64057 25.3202 6.64017 25.3198C6.63553 25.315 6.6311 25.3105 6.62636 25.3058C6.62525 25.3046 6.62424 25.3035 6.62313 25.3024C6.6191 25.2983 6.61567 25.2949 6.61164 25.2907C6.60962 25.2887 6.6077 25.2868 6.60569 25.2848C6.60296 25.2819 6.59984 25.2787 6.59702 25.2758C6.59419 25.273 6.59147 25.2702 6.58865 25.2673C6.58653 25.2651 6.58462 25.2631 6.5824 25.2609C6.57857 25.257 6.57483 25.2531 6.571 25.2492C6.5701 25.2483 6.56889 25.247 6.56798 25.2461C5.98641 24.6479 5.4731 24.0081 5.02734 23.3366C5.02744 23.3365 5.02755 23.3364 5.02755 23.3363C5.25057 23.6723 5.49074 24.0003 5.74775 24.3193C5.7532 24.3193 5.75874 24.3193 5.76419 24.3193C5.89819 24.3193 6.03249 24.3182 6.16689 24.3169C6.23243 24.3164 6.29806 24.3159 6.3636 24.3154C6.58361 24.5736 6.81551 24.8249 7.05951 25.0689C7.22376 25.2332 7.39133 25.392 7.56213 25.5453C7.93882 25.8982 8.3385 26.2271 8.76127 26.5285C9.0577 26.7343 9.3627 26.9261 9.67486 27.1028C9.98561 27.2786 10.3035 27.4394 10.6274 27.5837C10.9028 27.7137 11.1819 27.8332 11.4641 27.9423C12.2266 28.2371 13.0118 28.4558 13.808 28.5984C14.0858 28.7974 14.3678 28.9913 14.6551 29.1767C15.1158 29.225 15.5789 29.2492 16.0417 29.2492C19.4219 29.2493 22.8017 27.9604 25.3808 25.3814C22.8017 27.9604 19.4214 29.25 16.0411 29.25Z" fill="#D73D3D"/>
<path d="M13.8076 28.5986C13.0115 28.4561 12.2263 28.2374 11.4638 27.9426C11.1816 27.8335 10.9025 27.714 10.627 27.584C10.6286 27.5846 10.63 27.5853 10.6315 27.5859C10.8913 27.7085 11.1533 27.8213 11.4167 27.9225C12.1425 28.1559 12.8815 28.3395 13.6284 28.4692C13.688 28.5125 13.7477 28.5558 13.8076 28.5986ZM11.2579 26.588C10.8741 26.4877 10.4978 26.3601 10.1311 26.2077C9.80602 26.0714 9.48851 25.9157 9.18049 25.7397C8.57038 25.3274 8.00847 24.8592 7.49174 24.3481C7.98165 24.3913 8.45726 24.488 8.90241 24.6985C9.50344 24.983 9.99315 25.4524 10.4841 25.9008C10.7389 26.1335 10.9968 26.3626 11.2579 26.588ZM7.56181 25.5456C7.39101 25.3922 7.22344 25.2334 7.05919 25.0692C6.81519 24.8252 6.58329 24.5739 6.36328 24.3157C6.38062 24.3156 6.39787 24.3155 6.41521 24.3154C6.76982 24.7501 7.15225 25.162 7.56181 25.5456Z" fill="#C63838"/>
<path d="M25.3949 25.3667C25.3952 25.3665 25.3954 25.3663 25.3956 25.366C25.3954 25.3663 25.3951 25.3665 25.3949 25.3667ZM25.4097 25.3519C25.4101 25.3515 25.4105 25.351 25.4109 25.3506C25.4105 25.3511 25.4101 25.3514 25.4097 25.3519ZM25.4245 25.337C25.4251 25.3362 25.4257 25.3357 25.4263 25.335C25.4257 25.3357 25.4251 25.3364 25.4245 25.337ZM25.4392 25.3221C25.4401 25.3212 25.441 25.3203 25.4418 25.3194C25.4409 25.3204 25.4402 25.3211 25.4392 25.3221ZM25.4544 25.3067C25.4552 25.3059 25.4562 25.3049 25.457 25.3041C25.4561 25.305 25.4553 25.3058 25.4544 25.3067ZM25.4693 25.2915C25.4703 25.2905 25.4713 25.2895 25.4722 25.2885C25.4713 25.2895 25.4702 25.2906 25.4693 25.2915ZM25.4992 25.2608C25.5005 25.2596 25.5016 25.2585 25.5029 25.2572C25.5017 25.2584 25.5005 25.2597 25.4992 25.2608ZM25.5143 25.2454C25.5155 25.2442 25.5168 25.2428 25.518 25.2416C25.5168 25.2429 25.5156 25.2442 25.5143 25.2454ZM25.5291 25.2302C25.5305 25.2288 25.5318 25.2274 25.5332 25.2259C25.5319 25.2273 25.5304 25.2289 25.5291 25.2302ZM25.5567 25.2016C25.5591 25.1991 25.5617 25.1964 25.5641 25.1939C25.5617 25.1965 25.5591 25.1991 25.5567 25.2016ZM25.5711 25.1865C25.574 25.1836 25.5768 25.1807 25.5796 25.1777C25.5768 25.1808 25.5741 25.1836 25.5711 25.1865ZM25.5856 25.1716C25.5888 25.1682 25.5921 25.1647 25.5953 25.1613C25.5921 25.1647 25.5889 25.1682 25.5856 25.1716ZM25.6149 25.1407C25.6197 25.1357 25.6245 25.1308 25.6292 25.1257C25.6245 25.1308 25.6196 25.1358 25.6149 25.1407ZM25.6298 25.1251C26.8008 23.89 27.6873 22.484 28.2898 20.9902C28.2899 20.9904 28.2899 20.9905 28.29 20.9908C27.6874 22.4844 26.8007 23.8902 25.6298 25.1251ZM18.1417 21.417C17.6428 21.417 17.1504 21.3498 16.6908 21.16C15.8606 20.8172 15.1785 19.9716 15.292 19.0806C15.3173 18.8815 15.3799 18.6898 15.4426 18.4983C16.1191 18.3407 16.7633 18.0428 17.3182 17.6247C17.4192 17.5486 17.5215 17.4628 17.5654 17.3442C17.6778 17.04 17.333 16.743 17.01 16.7138C16.9753 16.7107 16.9406 16.7093 16.9059 16.7093C16.7725 16.7093 16.6393 16.7299 16.5061 16.7504C16.3728 16.771 16.2395 16.7917 16.1057 16.7917C16.0847 16.7917 16.0638 16.7912 16.0428 16.7901C15.1646 16.7445 14.6858 15.4424 15.325 14.8386C15.7771 14.4117 16.478 14.4265 17.0561 14.1978C17.6085 13.9793 18.0382 13.199 17.6303 12.8206C18.0922 12.8131 18.5541 12.8056 19.016 12.7981C19.1975 12.7952 19.385 12.7909 19.5499 12.7148C19.8695 12.5674 20.0151 12.198 20.0986 11.856C20.182 11.5142 20.2446 11.143 20.489 10.8898C20.6095 10.7647 20.7937 10.695 20.9667 10.695C21.1441 10.695 21.3098 10.7686 21.3825 10.9313C21.7507 10.0477 23.1141 9.90167 23.4348 9.00481C23.9317 9.7718 24.3527 10.5685 24.6872 11.3571C24.7927 11.685 24.8878 12.0165 24.9739 12.35C25.146 13.0172 25.2815 13.6928 25.3853 14.3659C25.3975 14.6672 25.3966 14.9729 25.3851 15.2784C25.3502 16.195 25.2207 17.1076 24.9836 17.9966C24.8667 18.3206 24.7261 18.6376 24.568 18.946C24.5421 18.9963 24.5157 19.0464 24.4889 19.0962C24.4041 18.9152 24.3475 18.7216 24.3257 18.5213C24.2878 18.1718 24.3436 17.8115 24.2539 17.4718C24.2337 17.3947 24.2062 17.3209 24.1727 17.2502C24.2862 17.0291 24.3693 16.7532 24.406 16.4339C24.5344 15.8373 24.1812 15.4729 23.9422 15.4692C23.9082 15.4772 23.8738 15.4864 23.8393 15.4969C23.8015 15.4771 23.764 15.4666 23.7294 15.4661C23.4074 15.5488 23.0508 15.7724 22.8205 16.3022C22.5485 16.2456 22.2696 16.2284 21.9893 16.2284C21.7746 16.2284 21.5592 16.2384 21.3457 16.2488C21.088 16.2613 20.767 16.3217 20.7013 16.5714C20.6838 16.6378 20.6892 16.7053 20.705 16.7722C20.5498 16.845 20.3829 17.012 20.2463 17.261C20.0668 17.5299 20.1435 17.7723 20.2459 17.8174C20.2761 17.8215 20.3077 17.8239 20.3404 17.8239C20.5132 17.8239 20.7174 17.7584 20.9244 17.5485C21.0623 18.3754 20.8951 19.2524 20.7252 20.087C20.6709 20.3542 20.6114 20.6324 20.4404 20.8448C20.1855 21.1613 19.7494 21.2552 19.3473 21.3147C18.9506 21.3731 18.544 21.4169 18.1417 21.417ZM21.7424 14.1144C21.422 14.1144 21.0527 14.2743 20.8589 14.5454C20.7813 14.676 20.7851 14.822 20.8542 14.9481C21.0503 15.1383 21.2267 15.259 21.4622 15.259C21.466 15.259 21.4698 15.259 21.4736 15.2589C21.8967 15.1899 22.4453 14.8077 22.2713 14.375C22.1738 14.1954 21.9705 14.1144 21.7424 14.1144Z" fill="#D73D3D"/>
<path d="M24.1732 17.2505C24.1207 17.1405 24.0534 17.0384 23.9742 16.945C24.0404 16.7705 24.089 16.5663 24.1134 16.3374C24.2019 15.8925 24.0182 15.5907 23.8398 15.4971C23.8743 15.4866 23.9087 15.4774 23.9427 15.4695C24.1817 15.4731 24.5349 15.8376 24.4065 16.4342C24.3698 16.7534 24.2867 17.0294 24.1732 17.2505Z" fill="#D94B4B"/>
<path d="M23.9736 16.9448C23.7384 16.6672 23.4002 16.4657 23.0477 16.3597C22.9726 16.3371 22.8966 16.3182 22.8203 16.3023C23.0506 15.7725 23.4072 15.5489 23.7293 15.4662C23.7639 15.4667 23.8014 15.4772 23.8392 15.4969C24.0175 15.5905 24.2012 15.8923 24.1127 16.3372C24.0883 16.5661 24.0397 16.7703 23.9736 16.9448Z" fill="#CC3333"/>
<path d="M20.3386 17.8237C20.3059 17.8237 20.2743 17.8213 20.2441 17.8172C20.1417 17.7721 20.065 17.5297 20.2445 17.2608C20.3811 17.0118 20.548 16.8448 20.7032 16.772C20.7197 16.8419 20.7474 16.9111 20.7723 16.9782C20.8417 17.1647 20.8905 17.3551 20.9226 17.5483C20.7156 17.7582 20.5114 17.8237 20.3386 17.8237Z" fill="#BF3030"/>
<path d="M21.4615 15.2593C21.226 15.2593 21.0495 15.1386 20.8534 14.9483C20.7844 14.8223 20.7805 14.6763 20.8582 14.5456C21.052 14.2746 21.4213 14.1147 21.7417 14.1147C21.9698 14.1147 22.173 14.1957 22.2705 14.3752C22.4446 14.808 21.896 15.1902 21.4729 15.2592C21.4691 15.2593 21.4652 15.2593 21.4615 15.2593Z" fill="#CC3333"/>
<path d="M26.2756 20.269C26.259 20.269 26.2424 20.2688 26.2259 20.2684C25.4878 20.251 24.7985 19.7592 24.4876 19.0962C24.5145 19.0464 24.5409 18.9963 24.5668 18.9461C24.7249 18.6377 24.8654 18.3207 24.9824 17.9966C25.2194 17.1076 25.349 16.195 25.3839 15.2784C25.3954 14.9729 25.3963 14.6673 25.3841 14.3659C25.2802 13.6928 25.1447 13.0173 24.9727 12.3501C24.8866 12.0166 24.7914 11.685 24.686 11.3572C24.3515 10.5686 23.9305 9.77185 23.4336 9.00486C23.4356 8.99902 23.4377 8.99317 23.4396 8.98722C23.668 8.31289 23.2123 7.43771 23.6669 6.91069C25.116 8.56203 26.1098 10.676 26.7718 12.7751C26.8269 12.9946 26.8775 13.2148 26.9241 13.4357C26.7973 13.4447 26.6726 13.4665 26.5537 13.5118C26.0699 13.6967 25.8054 14.2293 25.7249 14.7409C25.5083 16.1166 26.2639 17.3683 27.0387 18.6131C26.9108 19.1735 26.744 19.7232 26.5359 20.2564C26.4487 20.264 26.3618 20.269 26.2756 20.269Z" fill="#C63838"/>
<path d="M28.0651 20.4194C28.0565 20.4129 28.0478 20.4064 28.0391 20.4001C28.0416 20.393 28.0441 20.3861 28.0466 20.379C28.0529 20.3925 28.059 20.4059 28.0651 20.4194Z" fill="#D73D3D"/>
<path d="M28.0382 20.3999C27.9992 20.3716 27.9578 20.3459 27.9141 20.3228C27.9295 20.2813 27.9447 20.2401 27.9599 20.1986C27.9894 20.2585 28.0181 20.3187 28.0457 20.3788C28.0432 20.3859 28.0407 20.3928 28.0382 20.3999Z" fill="#C63838"/>
<mask id="mask1_36_5059" style="mask-type:luminance" maskUnits="userSpaceOnUse" x="25" y="6" width="2" height="3">
<path d="M26.5248 8.00784C26.5245 8.00754 26.5238 8.00653 26.5235 8.00623C26.5239 8.00673 26.5244 8.00734 26.5248 8.00784ZM26.4872 7.95914C26.4864 7.95813 26.4857 7.95723 26.4849 7.95622C26.4856 7.95712 26.4865 7.95823 26.4872 7.95914ZM26.4574 7.92093C26.4572 7.92052 26.4574 7.92093 26.4572 7.92052C26.4573 7.92073 26.4573 7.92073 26.4574 7.92093ZM26.4493 7.91044C26.4482 7.90913 26.4471 7.90782 26.4461 7.90641C26.4472 7.90782 26.4482 7.90903 26.4493 7.91044ZM26.4385 7.89683C26.4375 7.89542 26.4365 7.89421 26.4354 7.8929C26.4364 7.89411 26.4375 7.89552 26.4385 7.89683ZM26.421 7.87455C26.4201 7.87354 26.419 7.87202 26.4182 7.87102C26.4191 7.87213 26.42 7.87344 26.421 7.87455ZM26.4111 7.86204C26.4098 7.86033 26.4083 7.85841 26.4069 7.8567C26.4083 7.85831 26.4098 7.86033 26.4111 7.86204ZM26.4001 7.84803C26.3985 7.84601 26.3972 7.8444 26.3955 7.84238C26.3971 7.8443 26.3986 7.84611 26.4001 7.84803ZM26.3843 7.82817C26.3826 7.82615 26.3806 7.82353 26.3789 7.82151C26.3807 7.82363 26.3825 7.82605 26.3843 7.82817ZM26.3727 7.81365C26.371 7.81163 26.3692 7.80931 26.3676 7.8073C26.3693 7.80941 26.3709 7.81153 26.3727 7.81365ZM26.3613 7.79933C26.3594 7.79701 26.3577 7.79489 26.3558 7.79258C26.3576 7.79479 26.3595 7.79701 26.3613 7.79933ZM26.3462 7.78068C26.3438 7.77765 26.342 7.77543 26.3396 7.77231C26.3418 7.77513 26.344 7.77785 26.3462 7.78068ZM26.3339 7.76535C26.332 7.76303 26.3298 7.76031 26.3279 7.75789C26.33 7.76041 26.3319 7.76283 26.3339 7.76535ZM26.3222 7.75083C26.32 7.74811 26.3175 7.74498 26.3153 7.74226C26.3177 7.74518 26.3198 7.74791 26.3222 7.75083ZM26.3086 7.73399C26.3056 7.73026 26.303 7.72704 26.3 7.72331C26.3028 7.72684 26.3057 7.73047 26.3086 7.73399ZM26.295 7.71726C26.2928 7.71453 26.2902 7.71131 26.288 7.70859C26.2903 7.71141 26.2927 7.71443 26.295 7.71726ZM26.2829 7.70243C26.2802 7.69911 26.2776 7.69588 26.2748 7.69245C26.2775 7.69578 26.2803 7.69921 26.2829 7.70243ZM26.2556 7.66906C26.2531 7.66604 26.2504 7.66271 26.2478 7.65958C26.2505 7.66281 26.253 7.66594 26.2556 7.66906ZM26.2435 7.65434C26.2401 7.65021 26.237 7.64648 26.2337 7.64244C26.2369 7.64638 26.2403 7.65041 26.2435 7.65434ZM26.2316 7.63992C26.2277 7.63518 26.2237 7.63045 26.2198 7.62571C26.2237 7.63034 26.2277 7.63518 26.2316 7.63992ZM26.2161 7.62117C26.2133 7.61774 26.2103 7.61421 26.2075 7.61089C26.2104 7.61441 26.2131 7.61764 26.2161 7.62117ZM26.2036 7.60614C26.1999 7.60171 26.1962 7.59727 26.1926 7.59294C26.1962 7.59737 26.1999 7.60171 26.2036 7.60614ZM26.1916 7.59173C26.1873 7.58669 26.1837 7.58225 26.1795 7.57721C26.1836 7.58215 26.1874 7.58679 26.1916 7.59173ZM26.1761 7.57328C26.173 7.56955 26.1698 7.56571 26.1668 7.56198C26.1699 7.56581 26.173 7.56945 26.1761 7.57328ZM26.1635 7.55825C26.1551 7.54817 26.1472 7.53879 26.1387 7.52881C26.147 7.53859 26.1553 7.54847 26.1635 7.55825ZM26.123 7.51026C26.1145 7.50018 26.1063 7.4905 26.0978 7.48051C26.1062 7.4904 26.1146 7.50038 26.123 7.51026ZM26.0956 7.47789C26.0922 7.47396 26.0881 7.46922 26.0848 7.46529C26.0883 7.46952 26.092 7.47366 26.0956 7.47789ZM26.0824 7.46257C26.0739 7.45258 26.0652 7.4425 26.0567 7.43252C26.0653 7.4426 26.0738 7.45248 26.0824 7.46257ZM26.0546 7.4302C26.0506 7.42556 26.0474 7.42183 26.0434 7.41719C26.0472 7.42153 26.0509 7.42587 26.0546 7.4302ZM26.0414 7.41488C26.0329 7.40499 26.0238 7.39451 26.0152 7.38463C26.0239 7.39471 26.0328 7.40489 26.0414 7.41488ZM26.0137 7.38291C26.0097 7.37828 26.0058 7.37384 26.0018 7.3692C26.0057 7.37384 26.0097 7.37828 26.0137 7.38291ZM26.0002 7.36739C25.9915 7.35751 25.9823 7.34682 25.9736 7.33694C25.9825 7.34712 25.9913 7.3572 26.0002 7.36739ZM25.9722 7.33543C25.9681 7.33089 25.964 7.32615 25.96 7.32151C25.9641 7.32615 25.9681 7.33079 25.9722 7.33543ZM25.9587 7.32C25.9497 7.30982 25.9406 7.29963 25.9316 7.28945C25.9406 7.29963 25.9496 7.30982 25.9587 7.32ZM25.9305 7.28824C25.9265 7.2836 25.9221 7.27866 25.9179 7.27402C25.9221 7.27866 25.9264 7.2836 25.9305 7.28824ZM25.9167 7.27271C25.9077 7.26253 25.8984 7.25214 25.8893 7.24196C25.8985 7.25214 25.9076 7.26253 25.9167 7.27271ZM25.8747 7.22562C25.8653 7.21514 25.8563 7.20526 25.8469 7.19477C25.8562 7.20506 25.8654 7.21524 25.8747 7.22562ZM25.8322 7.17864C25.8229 7.16815 25.814 7.15837 25.8044 7.14799C25.8137 7.15807 25.8231 7.16846 25.8322 7.17864ZM25.8036 7.14708C25.7995 7.14244 25.7945 7.1371 25.7903 7.13256C25.7946 7.1373 25.7993 7.14224 25.8036 7.14708ZM25.7896 7.13176C25.78 7.12127 25.7711 7.11159 25.7615 7.1012C25.7708 7.11129 25.7803 7.12157 25.7896 7.13176ZM25.7606 7.1002C25.7564 7.09566 25.7518 7.09062 25.7476 7.08608C25.752 7.09082 25.7563 7.09546 25.7606 7.1002ZM25.7464 7.08477C25.7371 7.07469 25.7278 7.0646 25.7184 7.05452C25.7278 7.0646 25.737 7.07469 25.7464 7.08477ZM25.7174 7.05351C25.7133 7.04898 25.7085 7.04393 25.7043 7.0394C25.7087 7.04414 25.713 7.04877 25.7174 7.05351ZM25.7032 7.03819C25.6936 7.0279 25.6846 7.01833 25.6749 7.00804C25.6844 7.01812 25.6938 7.02821 25.7032 7.03819ZM25.674 7.00703C25.6698 7.00249 25.6651 6.99745 25.6608 6.99302C25.6653 6.99766 25.6696 7.00229 25.674 7.00703ZM25.6596 6.99181C25.6502 6.98182 25.6409 6.97184 25.6314 6.96186C25.6409 6.97184 25.6502 6.98172 25.6596 6.99181ZM25.6301 6.96045C25.6258 6.95601 25.6215 6.95138 25.6172 6.94694C25.6214 6.95138 25.6258 6.95601 25.6301 6.96045ZM25.6158 6.94533C25.6066 6.93575 25.5968 6.92546 25.5876 6.91578C25.597 6.92566 25.6064 6.93545 25.6158 6.94533ZM25.5859 6.91407C25.5816 6.90963 25.5777 6.9055 25.5734 6.90106C25.5776 6.9055 25.5817 6.90963 25.5859 6.91407ZM25.5715 6.89905C25.5623 6.88947 25.5528 6.87969 25.5437 6.87011C25.5529 6.87979 25.5622 6.88937 25.5715 6.89905ZM25.5412 6.86759C25.5375 6.86376 25.5332 6.85922 25.5294 6.85549C25.5334 6.85952 25.5373 6.86355 25.5412 6.86759ZM25.527 6.85287C25.5177 6.84329 25.5086 6.83391 25.4992 6.82433C25.5086 6.83391 25.5177 6.84339 25.527 6.85287ZM25.4966 6.82161C25.4928 6.81778 25.4888 6.81365 25.4851 6.80991C25.489 6.81385 25.4927 6.81768 25.4966 6.82161ZM25.4516 6.77574C25.4479 6.772 25.4442 6.76827 25.4405 6.76454C25.4441 6.76817 25.448 6.77211 25.4516 6.77574ZM25.4373 6.76112C25.4279 6.75164 25.4191 6.74287 25.4098 6.73339C25.4189 6.74266 25.4281 6.75194 25.4373 6.76112ZM25.4062 6.72986C25.4027 6.72633 25.3993 6.7228 25.3957 6.71937C25.3993 6.7229 25.4027 6.72623 25.4062 6.72986ZM25.3919 6.71544C25.3875 6.71111 25.3827 6.70626 25.3783 6.70183C25.3828 6.70647 25.3873 6.7109 25.3919 6.71544Z" fill="white"/>
</mask>
<g mask="url(#mask1_36_5059)">
<path d="M26.5248 8.00784C26.5245 8.00754 26.5238 8.00653 26.5235 8.00623C26.5239 8.00673 26.5244 8.00734 26.5248 8.00784ZM26.4872 7.95914C26.4864 7.95813 26.4857 7.95723 26.4849 7.95622C26.4856 7.95712 26.4865 7.95823 26.4872 7.95914ZM26.4574 7.92093C26.4572 7.92052 26.4574 7.92093 26.4572 7.92052C26.4573 7.92073 26.4573 7.92073 26.4574 7.92093ZM26.4493 7.91044C26.4482 7.90913 26.4471 7.90782 26.4461 7.90641C26.4472 7.90782 26.4482 7.90903 26.4493 7.91044ZM26.4385 7.89683C26.4375 7.89542 26.4365 7.89421 26.4354 7.8929C26.4364 7.89411 26.4375 7.89552 26.4385 7.89683ZM26.421 7.87455C26.4201 7.87354 26.419 7.87202 26.4182 7.87102C26.4191 7.87213 26.42 7.87344 26.421 7.87455ZM26.4111 7.86204C26.4098 7.86033 26.4083 7.85841 26.4069 7.8567C26.4083 7.85831 26.4098 7.86033 26.4111 7.86204ZM26.4001 7.84803C26.3985 7.84601 26.3972 7.8444 26.3955 7.84238C26.3971 7.8443 26.3986 7.84611 26.4001 7.84803ZM26.3843 7.82817C26.3826 7.82615 26.3806 7.82353 26.3789 7.82151C26.3807 7.82363 26.3825 7.82605 26.3843 7.82817ZM26.3727 7.81365C26.371 7.81163 26.3692 7.80931 26.3676 7.8073C26.3693 7.80941 26.3709 7.81153 26.3727 7.81365ZM26.3613 7.79933C26.3594 7.79701 26.3577 7.79489 26.3558 7.79258C26.3576 7.79479 26.3595 7.79701 26.3613 7.79933ZM26.3462 7.78068C26.3438 7.77765 26.342 7.77543 26.3396 7.77231C26.3418 7.77513 26.344 7.77785 26.3462 7.78068ZM26.3339 7.76535C26.332 7.76303 26.3298 7.76031 26.3279 7.75789C26.33 7.76041 26.3319 7.76283 26.3339 7.76535ZM26.3222 7.75083C26.32 7.74811 26.3175 7.74498 26.3153 7.74226C26.3177 7.74518 26.3198 7.74791 26.3222 7.75083ZM26.3086 7.73399C26.3056 7.73026 26.303 7.72704 26.3 7.72331C26.3028 7.72684 26.3057 7.73047 26.3086 7.73399ZM26.295 7.71726C26.2928 7.71453 26.2902 7.71131 26.288 7.70859C26.2903 7.71141 26.2927 7.71443 26.295 7.71726ZM26.2829 7.70243C26.2802 7.69911 26.2776 7.69588 26.2748 7.69245C26.2775 7.69578 26.2803 7.69921 26.2829 7.70243ZM26.2556 7.66906C26.2531 7.66604 26.2504 7.66271 26.2478 7.65958C26.2505 7.66281 26.253 7.66594 26.2556 7.66906ZM26.2435 7.65434C26.2401 7.65021 26.237 7.64648 26.2337 7.64244C26.2369 7.64638 26.2403 7.65041 26.2435 7.65434ZM26.2316 7.63992C26.2277 7.63518 26.2237 7.63045 26.2198 7.62571C26.2237 7.63034 26.2277 7.63518 26.2316 7.63992ZM26.2161 7.62117C26.2133 7.61774 26.2103 7.61421 26.2075 7.61089C26.2104 7.61441 26.2131 7.61764 26.2161 7.62117ZM26.2036 7.60614C26.1999 7.60171 26.1962 7.59727 26.1926 7.59294C26.1962 7.59737 26.1999 7.60171 26.2036 7.60614ZM26.1916 7.59173C26.1873 7.58669 26.1837 7.58225 26.1795 7.57721C26.1836 7.58215 26.1874 7.58679 26.1916 7.59173ZM26.1761 7.57328C26.173 7.56955 26.1698 7.56571 26.1668 7.56198C26.1699 7.56581 26.173 7.56945 26.1761 7.57328ZM26.1635 7.55825C26.1551 7.54817 26.1472 7.53879 26.1387 7.52881C26.147 7.53859 26.1553 7.54847 26.1635 7.55825ZM26.123 7.51026C26.1145 7.50018 26.1063 7.4905 26.0978 7.48051C26.1062 7.4904 26.1146 7.50038 26.123 7.51026ZM26.0956 7.47789C26.0922 7.47396 26.0881 7.46922 26.0848 7.46529C26.0883 7.46952 26.092 7.47366 26.0956 7.47789ZM26.0824 7.46257C26.0739 7.45258 26.0652 7.4425 26.0567 7.43252C26.0653 7.4426 26.0738 7.45248 26.0824 7.46257ZM26.0546 7.4302C26.0506 7.42556 26.0474 7.42183 26.0434 7.41719C26.0472 7.42153 26.0509 7.42587 26.0546 7.4302ZM26.0414 7.41488C26.0329 7.40499 26.0238 7.39451 26.0152 7.38463C26.0239 7.39471 26.0328 7.40489 26.0414 7.41488ZM26.0137 7.38291C26.0097 7.37828 26.0058 7.37384 26.0018 7.3692C26.0057 7.37384 26.0097 7.37828 26.0137 7.38291ZM26.0002 7.36739C25.9915 7.35751 25.9823 7.34682 25.9736 7.33694C25.9825 7.34712 25.9913 7.3572 26.0002 7.36739ZM25.9722 7.33543C25.9681 7.33089 25.964 7.32615 25.96 7.32151C25.9641 7.32615 25.9681 7.33079 25.9722 7.33543ZM25.9587 7.32C25.9497 7.30982 25.9406 7.29963 25.9316 7.28945C25.9406 7.29963 25.9496 7.30982 25.9587 7.32ZM25.9305 7.28824C25.9265 7.2836 25.9221 7.27866 25.9179 7.27402C25.9221 7.27866 25.9264 7.2836 25.9305 7.28824ZM25.9167 7.27271C25.9077 7.26253 25.8984 7.25214 25.8893 7.24196C25.8985 7.25214 25.9076 7.26253 25.9167 7.27271ZM25.8747 7.22562C25.8653 7.21514 25.8563 7.20526 25.8469 7.19477C25.8562 7.20506 25.8654 7.21524 25.8747 7.22562ZM25.8322 7.17864C25.8229 7.16815 25.814 7.15837 25.8044 7.14799C25.8137 7.15807 25.8231 7.16846 25.8322 7.17864ZM25.8036 7.14708C25.7995 7.14244 25.7945 7.1371 25.7903 7.13256C25.7946 7.1373 25.7993 7.14224 25.8036 7.14708ZM25.7896 7.13176C25.78 7.12127 25.7711 7.11159 25.7615 7.1012C25.7708 7.11129 25.7803 7.12157 25.7896 7.13176ZM25.7606 7.1002C25.7564 7.09566 25.7518 7.09062 25.7476 7.08608C25.752 7.09082 25.7563 7.09546 25.7606 7.1002ZM25.7464 7.08477C25.7371 7.07469 25.7278 7.0646 25.7184 7.05452C25.7278 7.0646 25.737 7.07469 25.7464 7.08477ZM25.7174 7.05351C25.7133 7.04898 25.7085 7.04393 25.7043 7.0394C25.7087 7.04414 25.713 7.04877 25.7174 7.05351ZM25.7032 7.03819C25.6936 7.0279 25.6846 7.01833 25.6749 7.00804C25.6844 7.01812 25.6938 7.02821 25.7032 7.03819ZM25.674 7.00703C25.6698 7.00249 25.6651 6.99745 25.6608 6.99302C25.6653 6.99766 25.6696 7.00229 25.674 7.00703ZM25.6596 6.99181C25.6502 6.98182 25.6409 6.97184 25.6314 6.96186C25.6409 6.97184 25.6502 6.98172 25.6596 6.99181ZM25.6301 6.96045C25.6258 6.95601 25.6215 6.95138 25.6172 6.94694C25.6214 6.95138 25.6258 6.95601 25.6301 6.96045ZM25.6158 6.94533C25.6066 6.93575 25.5968 6.92546 25.5876 6.91578C25.597 6.92566 25.6064 6.93545 25.6158 6.94533ZM25.5859 6.91407C25.5816 6.90963 25.5777 6.9055 25.5734 6.90106C25.5776 6.9055 25.5817 6.90963 25.5859 6.91407ZM25.5715 6.89905C25.5623 6.88947 25.5528 6.87969 25.5437 6.87011C25.5529 6.87979 25.5622 6.88937 25.5715 6.89905ZM25.5412 6.86759C25.5375 6.86376 25.5332 6.85922 25.5294 6.85549C25.5334 6.85952 25.5373 6.86355 25.5412 6.86759ZM25.527 6.85287C25.5177 6.84329 25.5086 6.83391 25.4992 6.82433C25.5086 6.83391 25.5177 6.84339 25.527 6.85287ZM25.4966 6.82161C25.4928 6.81778 25.4888 6.81365 25.4851 6.80991C25.489 6.81385 25.4927 6.81768 25.4966 6.82161ZM25.4516 6.77574C25.4479 6.772 25.4442 6.76827 25.4405 6.76454C25.4441 6.76817 25.448 6.77211 25.4516 6.77574ZM25.4373 6.76112C25.4279 6.75164 25.4191 6.74287 25.4098 6.73339C25.4189 6.74266 25.4281 6.75194 25.4373 6.76112ZM25.4062 6.72986C25.4027 6.72633 25.3993 6.7228 25.3957 6.71937C25.3993 6.7229 25.4027 6.72623 25.4062 6.72986ZM25.3919 6.71544C25.3875 6.71111 25.3827 6.70626 25.3783 6.70183C25.3828 6.70647 25.3873 6.7109 25.3919 6.71544Z" fill="url(#paint1_linear_36_5059)"/>
</g>
<path d="M29.0054 13.5156C28.8488 13.5083 28.6923 13.5009 28.5358 13.4935C28.4174 12.9167 28.2588 12.3462 28.0599 11.7871C27.937 11.442 27.7989 11.101 27.6454 10.7654C27.2079 9.87043 26.679 9.02762 26.067 8.25105C25.8626 7.99213 25.6488 7.74066 25.4229 7.49757C25.1921 7.2697 24.9546 7.04919 24.711 6.83675C24.6247 6.7447 24.5362 6.65435 24.4453 6.56563C24.4943 6.55806 24.5433 6.55141 24.5917 6.54506C24.7765 6.52076 24.9627 6.49737 25.1492 6.47781C25.2215 6.54667 25.2933 6.61624 25.3643 6.68712C25.3693 6.69206 25.3742 6.697 25.3793 6.70204C25.3837 6.70648 25.3884 6.71132 25.3929 6.71566C25.3941 6.71687 25.3956 6.71838 25.3967 6.71959C25.4002 6.72302 25.4037 6.72655 25.4072 6.73007C25.4083 6.73118 25.4095 6.7325 25.4107 6.7336C25.4201 6.74308 25.4289 6.75185 25.4383 6.76133C25.4394 6.76254 25.4404 6.76355 25.4415 6.76476C25.4452 6.76849 25.4488 6.77222 25.4526 6.77595C25.4536 6.77696 25.4546 6.77797 25.4555 6.77888C25.4649 6.78835 25.474 6.79763 25.4832 6.80721C25.4841 6.80812 25.4851 6.80912 25.486 6.81013C25.4898 6.81386 25.4938 6.818 25.4975 6.82183C25.4983 6.82263 25.4994 6.82374 25.5002 6.82455C25.5095 6.83413 25.5187 6.8435 25.528 6.85308C25.5288 6.85399 25.5296 6.8548 25.5304 6.8557C25.5341 6.85944 25.5385 6.86397 25.5422 6.8678C25.543 6.86861 25.5438 6.86942 25.5446 6.87032C25.5538 6.8799 25.5633 6.88968 25.5725 6.89926C25.5731 6.89987 25.5738 6.90067 25.5744 6.90128C25.5787 6.90572 25.5825 6.90985 25.5869 6.91429C25.5874 6.91479 25.5881 6.9156 25.5886 6.916C25.5978 6.92568 25.6075 6.93596 25.6167 6.94554C25.6172 6.94615 25.6176 6.94655 25.6181 6.94716C25.6225 6.95159 25.6268 6.95623 25.631 6.96067C25.6315 6.96117 25.6319 6.96157 25.6323 6.96208C25.6418 6.97206 25.6512 6.98204 25.6606 6.99202C25.661 6.99233 25.6614 6.99283 25.6618 6.99323C25.666 6.99767 25.6708 7.00271 25.675 7.00725C25.6753 7.00765 25.6756 7.00795 25.6759 7.00826C25.6856 7.01854 25.6946 7.02812 25.7041 7.0384C25.7045 7.03881 25.7049 7.03921 25.7052 7.03961C25.7095 7.04415 25.7142 7.04919 25.7184 7.05373C25.7188 7.05403 25.7191 7.05443 25.7194 7.05474C25.7287 7.06482 25.7381 7.0749 25.7474 7.08499C25.7477 7.08539 25.7482 7.08589 25.7486 7.0863C25.7527 7.09083 25.7574 7.09587 25.7616 7.10041C25.7619 7.10082 25.7622 7.10102 25.7625 7.10142C25.7721 7.11181 25.781 7.12149 25.7905 7.13197C25.7908 7.13227 25.7909 7.13237 25.7913 7.13278C25.7955 7.13731 25.8004 7.14266 25.8046 7.1473C25.8049 7.1476 25.8051 7.1478 25.8054 7.1482C25.8149 7.15859 25.8238 7.16837 25.8332 7.17886C25.8336 7.17916 25.8337 7.17926 25.834 7.17966C25.8384 7.1846 25.843 7.18964 25.8474 7.19448C25.8475 7.19459 25.8478 7.19489 25.8479 7.19499C25.8573 7.20547 25.8663 7.21535 25.8756 7.22584C25.8759 7.22614 25.8762 7.22655 25.8765 7.22685C25.881 7.23179 25.8853 7.23663 25.8898 7.24157C25.89 7.24177 25.8901 7.24187 25.8903 7.24218C25.8993 7.25236 25.9087 7.26274 25.9177 7.27293C25.9182 7.27343 25.9185 7.27373 25.9189 7.27424C25.923 7.27888 25.9275 7.28382 25.9315 7.28846C25.9319 7.28886 25.9322 7.28926 25.9326 7.28966C25.9416 7.29985 25.9507 7.31003 25.9596 7.32022C25.96 7.32072 25.9604 7.32122 25.9609 7.32173C25.965 7.32636 25.9691 7.3311 25.9731 7.33564C25.9736 7.33615 25.9741 7.33665 25.9746 7.33715C25.9832 7.34703 25.9925 7.35772 26.0012 7.3676C26.0016 7.36811 26.0023 7.36891 26.0028 7.36942C26.0068 7.37406 26.0107 7.37849 26.0147 7.38313C26.0152 7.38374 26.0156 7.38424 26.0162 7.38484C26.0248 7.39473 26.0338 7.40521 26.0424 7.41509C26.043 7.4159 26.0437 7.4166 26.0443 7.41741C26.0484 7.42205 26.0516 7.42578 26.0556 7.43042C26.0563 7.43122 26.057 7.43203 26.0576 7.43274C26.0662 7.44272 26.0749 7.4528 26.0833 7.46278C26.0842 7.46359 26.085 7.4646 26.0858 7.46551C26.0891 7.46944 26.0931 7.47418 26.0966 7.47811C26.0973 7.47902 26.098 7.47982 26.0988 7.48073C26.1072 7.49071 26.1155 7.50039 26.124 7.51048C26.125 7.51159 26.126 7.51279 26.1269 7.5139C26.1303 7.51794 26.1335 7.52167 26.1369 7.5256C26.1378 7.52681 26.1388 7.52792 26.1397 7.52903C26.1482 7.53901 26.156 7.54839 26.1645 7.55847C26.1655 7.55968 26.1666 7.56099 26.1677 7.5622C26.1708 7.56593 26.174 7.56976 26.1771 7.57349C26.1781 7.5747 26.1793 7.57621 26.1804 7.57742C26.1847 7.58247 26.1883 7.5869 26.1925 7.59194C26.1928 7.59235 26.1932 7.59275 26.1936 7.59315C26.1972 7.59749 26.2009 7.60192 26.2045 7.60636C26.2058 7.60787 26.2073 7.60959 26.2085 7.6111C26.2113 7.61443 26.2142 7.61796 26.217 7.62139C26.2183 7.6229 26.2196 7.62441 26.2208 7.62592C26.2247 7.63066 26.2286 7.6354 26.2326 7.64014C26.2333 7.64095 26.2339 7.64175 26.2347 7.64266C26.238 7.64669 26.241 7.65042 26.2445 7.65456C26.2459 7.65627 26.2474 7.65809 26.2488 7.6598C26.2513 7.66293 26.254 7.66625 26.2566 7.66928C26.2581 7.67119 26.2595 7.67281 26.261 7.67472C26.2643 7.67875 26.2679 7.68299 26.2711 7.68702C26.2727 7.68894 26.2742 7.69075 26.2757 7.69267C26.2785 7.6961 26.2812 7.69932 26.2839 7.70265C26.2857 7.70487 26.2872 7.70669 26.2889 7.7088C26.2912 7.71152 26.2938 7.71475 26.296 7.71747C26.2976 7.71949 26.2992 7.72151 26.3009 7.72352C26.304 7.72725 26.3066 7.73048 26.3096 7.73421C26.3118 7.73703 26.314 7.73975 26.3163 7.74248C26.3185 7.7452 26.321 7.74833 26.3232 7.75105C26.325 7.75337 26.327 7.75579 26.3289 7.75811C26.3308 7.76053 26.333 7.76325 26.3349 7.76557C26.3367 7.76789 26.3387 7.77031 26.3406 7.77253C26.343 7.77565 26.3448 7.77787 26.3472 7.78089C26.3504 7.78482 26.3536 7.78876 26.3568 7.79279C26.3587 7.79511 26.3603 7.79723 26.3622 7.79955C26.3643 7.80207 26.3665 7.80489 26.3686 7.80751C26.3702 7.80953 26.372 7.81185 26.3736 7.81386C26.3757 7.81659 26.3778 7.81901 26.3799 7.82173C26.3816 7.82374 26.3836 7.82637 26.3852 7.82838C26.389 7.83312 26.3928 7.83786 26.3965 7.8426C26.3981 7.84462 26.3994 7.84623 26.4011 7.84825C26.4034 7.85117 26.4056 7.85399 26.4079 7.85692C26.4092 7.85863 26.4107 7.86055 26.412 7.86226C26.4145 7.86529 26.4168 7.86811 26.4192 7.87123C26.42 7.87224 26.4211 7.87375 26.4219 7.87476C26.4268 7.88091 26.4315 7.88696 26.4363 7.89311C26.4375 7.89443 26.4385 7.89563 26.4395 7.89705C26.442 7.90027 26.4445 7.9034 26.447 7.90662C26.448 7.90804 26.4491 7.90935 26.4503 7.91066C26.4528 7.91399 26.4555 7.91741 26.4581 7.92074C26.4583 7.92114 26.4581 7.92074 26.4583 7.92114C26.4643 7.92871 26.4703 7.93647 26.4763 7.94403C26.4768 7.94474 26.4771 7.94514 26.4776 7.94585C26.4804 7.94938 26.4831 7.9529 26.4858 7.95643C26.4867 7.95744 26.4874 7.95835 26.4882 7.95936C26.5003 7.97508 26.5124 7.99071 26.5245 8.00644C26.5248 8.00675 26.5255 8.00775 26.5258 8.00806C26.5382 8.02429 26.5505 8.04032 26.5629 8.05666L26.5631 8.05686C27.815 9.70265 28.6291 11.575 29.0054 13.5156Z" fill="#D73D3D"/>
<path d="M28.5357 13.4937C28.5155 13.4927 28.4953 13.4918 28.475 13.4908C28.3029 12.8063 28.0718 12.1343 27.7961 11.4797C27.6782 11.2047 27.5529 10.9331 27.4172 10.6636C26.9826 9.4881 26.0751 8.68149 25.4411 7.61484C25.2629 7.41339 25.0757 7.21708 24.8821 7.02571C24.8262 6.96198 24.7691 6.89907 24.7109 6.83686C24.9545 7.0493 25.1921 7.26981 25.4229 7.49768C25.6487 7.74077 25.8626 7.99223 26.067 8.25116C26.679 9.02773 27.2078 9.87054 27.6453 10.7655C27.7989 11.1011 27.937 11.4421 28.0598 11.7873C28.2587 12.3463 28.4173 12.9168 28.5357 13.4937Z" fill="#C63838"/>
<path d="M10.6277 27.584C10.3039 27.4396 9.98597 27.2789 9.67523 27.103C9.36307 26.9264 9.05806 26.7345 8.76163 26.5287C8.33887 26.2274 7.93919 25.8985 7.5625 25.5456C7.93032 25.8761 8.31265 26.1813 8.70749 26.4614C8.99656 26.6664 9.29229 26.8579 9.59366 27.036C9.89513 27.2142 10.2022 27.3786 10.5144 27.5298C10.5521 27.5481 10.5899 27.5661 10.6277 27.584Z" fill="#C63838"/>
<path d="M13.6272 28.4692C12.8804 28.3396 12.1413 28.156 11.4156 27.9226C11.1521 27.8213 10.8902 27.7086 10.6303 27.586C10.6288 27.5854 10.6274 27.5847 10.6259 27.5841C10.5881 27.5662 10.5503 27.5482 10.5126 27.5299C10.2004 27.3787 9.8933 27.2142 9.59182 27.0361C9.29045 26.858 8.99473 26.6665 8.70566 26.4615C8.31082 26.1814 7.92848 25.8762 7.56067 25.5457C7.15111 25.1621 6.76867 24.7501 6.41406 24.3155C6.46387 24.3153 6.51358 24.3151 6.56329 24.3151C6.87535 24.3151 7.18579 24.3213 7.49059 24.3481C8.00733 24.8592 8.56924 25.3275 9.17934 25.7398C9.48737 25.9158 9.80487 26.0715 10.1299 26.2078C10.4966 26.3601 10.8729 26.4878 11.2568 26.5881C11.9771 27.2098 12.7217 27.8036 13.488 28.3674C13.5344 28.4015 13.5807 28.4355 13.6272 28.4692ZM27.9149 20.3232C27.8986 20.3146 27.8819 20.3064 27.8649 20.2985C27.6872 20.2166 27.4992 20.1905 27.3059 20.1905C27.1378 20.1905 26.9656 20.2102 26.7929 20.2299C26.7074 20.2396 26.6217 20.2493 26.5362 20.2567C26.7443 19.7234 26.9111 19.1737 27.0389 18.6133C27.3669 19.1402 27.6982 19.6657 27.9608 20.199C27.9455 20.2406 27.9303 20.2818 27.9149 20.3232Z" fill="#B73333"/>
<path d="M24.7133 6.83691C24.6107 6.74748 24.5071 6.65966 24.4023 6.57305C24.4175 6.57053 24.4325 6.56811 24.4476 6.56579C24.5385 6.65452 24.627 6.74486 24.7133 6.83691Z" fill="#C63838"/>
<path d="M28.4759 13.4907C28.1051 13.4734 27.7341 13.4559 27.3632 13.4386C27.2727 13.4344 27.1813 13.4303 27.0901 13.4303C27.035 13.4303 26.9798 13.4318 26.9252 13.4357C26.8786 13.2148 26.828 12.9946 26.7728 12.7751C26.1109 10.6759 25.1171 8.562 23.668 6.91066C23.678 6.89916 23.6883 6.88777 23.6991 6.87658C23.8801 6.68965 24.1393 6.61634 24.4009 6.57289C24.5056 6.6595 24.6092 6.74732 24.7118 6.83675C24.77 6.89896 24.8271 6.96188 24.883 7.0256C25.0766 7.21697 25.2638 7.41328 25.442 7.61473C26.076 8.68138 26.9835 9.488 27.4181 10.6635C27.5538 10.9329 27.6791 11.2046 27.797 11.4796C28.0727 12.1342 28.3038 12.8062 28.4759 13.4907Z" fill="#B73333"/>
<mask id="mask2_36_5059" style="mask-type:luminance" maskUnits="userSpaceOnUse" x="25" y="25" width="1" height="1">
<path d="M25.3789 25.3813C25.3836 25.3766 25.3884 25.3718 25.3931 25.367C25.3884 25.3719 25.3836 25.3765 25.3789 25.3813Z" fill="white"/>
</mask>
<g mask="url(#mask2_36_5059)">
<path d="M25.3789 25.3813C25.3836 25.3766 25.3884 25.3718 25.3931 25.367C25.3884 25.3719 25.3836 25.3765 25.3789 25.3813Z" fill="url(#paint2_linear_36_5059)"/>
</g>
<path d="M25.3789 25.3813C25.3837 25.3764 25.3887 25.3716 25.3935 25.3666C25.3934 25.3667 25.3932 25.367 25.3931 25.367C25.3884 25.3718 25.3836 25.3766 25.3789 25.3813Z" fill="#D73D3D"/>
<mask id="mask3_36_5059" style="mask-type:luminance" maskUnits="userSpaceOnUse" x="25" y="25" width="1" height="1">
<path d="M25.3945 25.3657C25.399 25.3614 25.4033 25.357 25.4077 25.3525C25.4033 25.357 25.399 25.3613 25.3945 25.3657Z" fill="white"/>
</mask>
<g mask="url(#mask3_36_5059)">
<path d="M25.3945 25.3657C25.399 25.3614 25.4033 25.357 25.4077 25.3525C25.4033 25.357 25.399 25.3613 25.3945 25.3657Z" fill="url(#paint3_linear_36_5059)"/>
</g>
<path d="M25.3945 25.3662C25.3992 25.3616 25.4039 25.3568 25.4086 25.3521C25.4083 25.3524 25.408 25.3527 25.4078 25.3529C25.4034 25.3573 25.3991 25.3618 25.3946 25.3661L25.3945 25.3662Z" fill="#D73D3D"/>
<mask id="mask4_36_5059" style="mask-type:luminance" maskUnits="userSpaceOnUse" x="25" y="25" width="1" height="1">
<path d="M25.4102 25.3506C25.4142 25.3465 25.4184 25.3422 25.4226 25.3381C25.4183 25.3423 25.4143 25.3464 25.4102 25.3506Z" fill="white"/>
</mask>
<g mask="url(#mask4_36_5059)">
<path d="M25.4102 25.3506C25.4142 25.3465 25.4184 25.3422 25.4226 25.3381C25.4183 25.3423 25.4143 25.3464 25.4102 25.3506Z" fill="url(#paint4_linear_36_5059)"/>
</g>
<path d="M25.4102 25.3506C25.4147 25.346 25.4192 25.3415 25.4238 25.337C25.4235 25.3372 25.4231 25.3376 25.4229 25.3379C25.4187 25.342 25.4145 25.3463 25.4105 25.3504C25.4104 25.3505 25.4103 25.3505 25.4102 25.3506Z" fill="#D73D3D"/>
<mask id="mask5_36_5059" style="mask-type:luminance" maskUnits="userSpaceOnUse" x="25" y="25" width="1" height="1">
<path d="M25.4258 25.335C25.4295 25.3312 25.4334 25.3272 25.4372 25.3235C25.4334 25.3273 25.4296 25.3311 25.4258 25.335Z" fill="white"/>
</mask>
<g mask="url(#mask5_36_5059)">
<path d="M25.4258 25.335C25.4295 25.3312 25.4334 25.3272 25.4372 25.3235C25.4334 25.3273 25.4296 25.3311 25.4258 25.335Z" fill="url(#paint5_linear_36_5059)"/>
</g>
<path d="M25.4258 25.335C25.43 25.3307 25.4344 25.3263 25.4386 25.3221C25.4382 25.3225 25.4379 25.3228 25.4375 25.3232C25.4337 25.3269 25.4298 25.3309 25.4261 25.3347C25.426 25.3348 25.4259 25.335 25.4258 25.335Z" fill="#D73D3D"/>
<mask id="mask6_36_5059" style="mask-type:luminance" maskUnits="userSpaceOnUse" x="25" y="25" width="1" height="1">
<path d="M25.4414 25.3188C25.4448 25.3154 25.4487 25.3115 25.4521 25.3081C25.4487 25.3116 25.4449 25.3153 25.4414 25.3188Z" fill="white"/>
</mask>
<g mask="url(#mask6_36_5059)">
<path d="M25.4414 25.3188C25.4448 25.3154 25.4487 25.3115 25.4521 25.3081C25.4487 25.3116 25.4449 25.3153 25.4414 25.3188Z" fill="url(#paint6_linear_36_5059)"/>
</g>
<path d="M25.4414 25.3193C25.4455 25.3152 25.4499 25.3109 25.454 25.3066C25.4535 25.3071 25.4531 25.3075 25.4526 25.308C25.4492 25.3115 25.4453 25.3154 25.4419 25.3188C25.4417 25.3191 25.4417 25.3191 25.4414 25.3193Z" fill="#D73D3D"/>
<mask id="mask7_36_5059" style="mask-type:luminance" maskUnits="userSpaceOnUse" x="25" y="25" width="1" height="1">
<path d="M25.457 25.3032C25.4602 25.3001 25.4639 25.2963 25.467 25.2931C25.4637 25.2965 25.4603 25.2999 25.457 25.3032Z" fill="white"/>
</mask>
<g mask="url(#mask7_36_5059)">
<path d="M25.457 25.3032C25.4602 25.3001 25.4639 25.2963 25.467 25.2931C25.4637 25.2965 25.4603 25.2999 25.457 25.3032Z" fill="url(#paint7_linear_36_5059)"/>
</g>
<path d="M25.457 25.3042C25.4612 25.3 25.4652 25.2958 25.4693 25.2916C25.4687 25.2922 25.4683 25.2926 25.4678 25.2932C25.4647 25.2963 25.461 25.3002 25.4578 25.3033C25.4575 25.3037 25.4573 25.3039 25.457 25.3042Z" fill="#D73D3D"/>
<mask id="mask8_36_5059" style="mask-type:luminance" maskUnits="userSpaceOnUse" x="25" y="25" width="1" height="1">
<path d="M25.4727 25.2876C25.4758 25.2845 25.4786 25.2815 25.4817 25.2783C25.4787 25.2814 25.4757 25.2846 25.4727 25.2876Z" fill="white"/>
</mask>
<g mask="url(#mask8_36_5059)">
<path d="M25.4727 25.2876C25.4758 25.2845 25.4786 25.2815 25.4817 25.2783C25.4787 25.2814 25.4757 25.2846 25.4727 25.2876Z" fill="url(#paint8_linear_36_5059)"/>
</g>
<path d="M25.4727 25.2886C25.4768 25.2844 25.4808 25.2804 25.4849 25.2762C25.4843 25.2768 25.4835 25.2776 25.4829 25.2781C25.4798 25.2813 25.477 25.2842 25.4739 25.2874C25.4735 25.2879 25.4732 25.2882 25.4727 25.2886Z" fill="#D73D3D"/>
<mask id="mask9_36_5059" style="mask-type:luminance" maskUnits="userSpaceOnUse" x="25" y="25" width="1" height="1">
<path d="M25.4883 25.271C25.4902 25.2691 25.4916 25.2677 25.4934 25.2658C25.4917 25.2675 25.49 25.2692 25.4883 25.271Z" fill="white"/>
</mask>
<g mask="url(#mask9_36_5059)">
<path d="M25.4883 25.271C25.4902 25.2691 25.4916 25.2677 25.4934 25.2658C25.4917 25.2675 25.49 25.2692 25.4883 25.271Z" fill="url(#paint9_linear_36_5059)"/>
</g>
<path d="M25.4883 25.2729C25.4922 25.2689 25.4961 25.265 25.5001 25.2608C25.4985 25.2626 25.4968 25.2643 25.4951 25.266C25.4933 25.2679 25.4919 25.2693 25.49 25.2712C25.4895 25.2718 25.4889 25.2724 25.4883 25.2729Z" fill="#D73D3D"/>
<mask id="mask10_36_5059" style="mask-type:luminance" maskUnits="userSpaceOnUse" x="25" y="25" width="1" height="1">
<path d="M25.5039 25.2554C25.5051 25.2541 25.5059 25.2533 25.5071 25.2519C25.506 25.2531 25.5049 25.2543 25.5039 25.2554Z" fill="white"/>
</mask>
<g mask="url(#mask10_36_5059)">
<path d="M25.5039 25.2554C25.5051 25.2541 25.5059 25.2533 25.5071 25.2519C25.506 25.2531 25.5049 25.2543 25.5039 25.2554Z" fill="url(#paint10_linear_36_5059)"/>
</g>
<path d="M25.5039 25.2573C25.5076 25.2534 25.5116 25.2495 25.5153 25.2455C25.5133 25.2476 25.5113 25.2498 25.5093 25.2518C25.508 25.2531 25.5072 25.2539 25.506 25.2552C25.5052 25.2559 25.5046 25.2566 25.5039 25.2573Z" fill="#D73D3D"/>
<path d="M25.5174 25.2417C25.5211 25.2379 25.5247 25.2341 25.5285 25.2303C25.5261 25.2327 25.5239 25.235 25.5215 25.2375C25.5212 25.2378 25.5209 25.2382 25.5206 25.2385C25.5195 25.2396 25.5185 25.2406 25.5174 25.2417ZM25.5478 25.2102C25.5507 25.2074 25.5533 25.2047 25.5561 25.2018C25.5533 25.2046 25.5507 25.2074 25.5478 25.2102ZM25.5635 25.194C25.5658 25.1916 25.5682 25.1891 25.5705 25.1866C25.5681 25.1892 25.5659 25.1915 25.5635 25.194ZM25.611 25.1443C25.6122 25.1432 25.6133 25.1421 25.6143 25.1409C25.6133 25.142 25.6122 25.1432 25.611 25.1443ZM25.6286 25.1258C25.6289 25.1256 25.6289 25.1255 25.6292 25.1252C25.629 25.1254 25.6288 25.1256 25.6286 25.1258ZM5.02643 23.3365C2.64681 19.752 2.20246 15.2624 3.6938 11.3398C3.74239 11.313 3.79129 11.2865 3.8411 11.2615C4.30521 11.0276 4.83566 10.8886 5.35431 10.8886C5.45353 10.8886 5.55234 10.8937 5.65014 10.9042C5.57664 11.0456 5.50575 11.1858 5.4375 11.3248C4.94233 13.1688 4.04316 16.9269 5.9015 16.9269C6.05335 16.9269 6.22384 16.9018 6.41431 16.8485C8.1943 16.3399 9.90302 15.1188 11.9 14.2034C12.0072 14.2873 12.1018 14.3902 12.1808 14.5174C12.2631 14.65 12.3182 14.8062 12.2997 14.9612C12.2642 15.2576 11.9856 15.4542 11.8182 15.7015C11.4336 16.2697 11.7226 17.1259 12.32 17.4634C12.5589 17.5983 12.8272 17.6595 13.0995 17.6595C13.5082 17.6594 13.9256 17.5215 14.2647 17.2879C14.4861 17.1355 14.7085 16.9368 14.9752 16.9368C14.9813 16.9368 14.9873 16.9369 14.9934 16.9371C15.4101 16.9511 15.6426 17.456 15.5996 17.8708C15.5775 18.0859 15.5095 18.2921 15.4419 18.4984C15.1128 18.5751 14.7761 18.6187 14.4382 18.6268C14.3887 18.6279 14.339 18.6284 14.2892 18.6284C14.1812 18.6284 14.0725 18.6261 13.9637 18.6239C13.8551 18.6216 13.7464 18.6194 13.6382 18.6194C13.2474 18.6194 12.8632 18.6486 12.5131 18.8126C11.6696 19.2075 11.2652 20.2735 10.5403 20.7903C10.4149 20.7314 10.2459 20.6961 10.0461 20.6961C10.0192 20.6961 9.99165 20.6968 9.96372 20.6981C9.95333 20.6977 9.94325 20.6975 9.93317 20.6975C9.63018 20.6975 9.4743 20.8806 9.48872 20.9879C9.50153 21.0173 9.51685 21.0469 9.535 21.0761C9.07079 21.0509 8.60094 20.8796 8.12907 20.8733C8.11959 20.8732 8.10991 20.8731 8.10044 20.8731C8.04186 20.8731 7.98378 20.8755 7.92651 20.8802C7.77718 20.7177 7.63976 20.6423 7.56424 20.6423C7.5474 20.6423 7.53359 20.646 7.5234 20.6534C7.48539 20.7292 7.4622 20.8316 7.47057 20.9691C6.98902 21.1179 6.56162 21.4275 6.1818 21.8117C6.15276 21.7779 6.12382 21.7437 6.09519 21.7094C5.88648 21.4547 5.69077 21.1931 5.50807 20.9251C3.86429 18.5132 3.27698 15.5969 3.74633 12.8247C2.86187 16.1999 3.38426 19.8678 5.31388 22.8976C5.24955 22.9927 5.18704 23.0877 5.12634 23.1821C5.09337 23.2333 5.0601 23.2849 5.02643 23.3365ZM7.24946 18.0598C7.11576 18.0598 6.99376 18.0808 6.89202 18.1351C6.5725 18.3779 6.87176 18.6511 7.00414 18.8692C7.33314 19.2328 7.91713 19.7267 8.44869 19.7267C8.5717 19.7267 8.69189 19.7003 8.80542 19.6397C9.43629 19.3606 8.5346 18.644 8.08178 18.2811C7.94657 18.2048 7.80642 18.1468 7.6688 18.1085C7.523 18.08 7.38063 18.0598 7.24946 18.0598Z" fill="#D73D3D"/>
<path d="M7.47046 20.9688C7.46209 20.8313 7.48528 20.7289 7.52329 20.6531C7.53347 20.6457 7.54729 20.642 7.56412 20.642C7.63964 20.642 7.77707 20.7174 7.9264 20.8799C7.76921 20.8929 7.61736 20.9234 7.47046 20.9688Z" fill="#BF3030"/>
<path d="M9.64619 21.0791C9.60928 21.0791 9.57248 21.0781 9.53548 21.0761C9.51733 21.0468 9.502 21.0172 9.4892 20.9879C9.47478 20.8806 9.63066 20.6975 9.93364 20.6975C9.94373 20.6975 9.95381 20.6977 9.96419 20.6981C9.99212 20.6968 10.0196 20.6961 10.0466 20.6961C10.2464 20.6961 10.4154 20.7313 10.5408 20.7902C10.3774 20.9068 10.1976 20.9954 9.99283 21.0422C9.87768 21.0684 9.76204 21.0791 9.64619 21.0791Z" fill="#BF3030"/>
<path d="M8.44909 19.7266C7.91754 19.7266 7.33355 19.2327 7.00455 18.8691C6.87216 18.651 6.57291 18.3778 6.89243 18.135C6.99416 18.0807 7.11616 18.0597 7.24986 18.0597C7.38104 18.0597 7.5234 18.0799 7.6692 18.1084C7.80683 18.1467 7.94698 18.2047 8.08219 18.281C8.535 18.6439 9.43669 19.3605 8.80582 19.6396C8.69229 19.7001 8.5721 19.7266 8.44909 19.7266Z" fill="#CC3333"/>
<path d="M5.3127 22.8975C3.38307 19.8677 2.86069 16.1998 3.74514 12.8245C3.27579 15.5968 3.86311 18.5131 5.50689 20.925C5.68959 21.193 5.8853 21.4546 6.09401 21.7093C6.12264 21.7436 6.15158 21.7778 6.18062 21.8116C6.03724 21.9565 5.90062 22.1122 5.77045 22.2738C4.96948 21.1044 4.32964 19.8347 3.82994 18.5655C3.75744 18.2967 3.69523 18.0249 3.6425 17.7516C3.37884 16.385 3.35353 14.9814 3.56638 13.6077C3.27952 15.0734 3.2519 16.5798 3.4834 18.0534C3.52968 18.3478 3.58634 18.6409 3.6547 18.9298C4.04097 20.2865 4.61014 21.6143 5.35898 22.8297C5.34345 22.8523 5.32802 22.8749 5.3127 22.8975Z" fill="#C63838"/>
<path d="M28.2902 20.9902C28.2275 20.7987 28.1519 20.6084 28.0664 20.4195C28.1916 20.516 28.2924 20.6384 28.3738 20.7776C28.3466 20.8487 28.3188 20.9195 28.2902 20.9902Z" fill="#D73D3D"/>
<path d="M5.35881 22.8296C4.60997 21.6142 4.0408 20.2864 3.65453 18.9297C3.58617 18.6407 3.52951 18.3477 3.48323 18.0533C3.25173 16.5797 3.27936 15.0733 3.56621 13.6076C3.35336 14.9813 3.37867 16.3848 3.64233 17.7514C3.69507 18.0248 3.75728 18.2966 3.82977 18.5654C4.32947 19.8346 4.96932 21.1042 5.77029 22.2737C5.6253 22.4537 5.48837 22.6411 5.35881 22.8296Z" fill="#B73333"/>
<path d="M5.90307 16.9268C4.04473 16.9268 4.94391 13.1686 5.43907 11.3246C5.50733 11.1857 5.57821 11.0454 5.65171 10.9041C6.01711 10.9432 6.36879 11.0578 6.67783 11.264C7.56228 11.854 7.93947 13.0587 8.90025 13.514C9.08961 13.6037 9.2956 13.6616 9.50965 13.7017C9.80729 13.9642 10.0877 14.126 10.449 14.126C10.6735 14.0939 10.9184 14.0108 11.1383 13.8896C11.4263 13.9455 11.6886 14.0367 11.9016 14.2032C9.90459 15.1186 8.19588 16.3397 6.41588 16.8483C6.22542 16.9017 6.05492 16.9268 5.90307 16.9268Z" fill="#D84242"/>
<path d="M10.4471 14.126C10.0859 14.126 9.80545 13.9641 9.50781 13.7017C10.0431 13.8021 10.6294 13.7913 11.1365 13.8896C10.9166 14.0108 10.6717 14.0939 10.4471 14.126Z" fill="#CD3939"/>
<path d="M16.0423 29.2495C15.5795 29.2495 15.1164 29.2253 14.6557 29.177C14.3685 28.9916 14.0865 28.7977 13.8086 28.5987C14.5541 28.7322 15.3095 28.799 16.0646 28.799C17.8754 28.799 19.6861 28.4152 21.3644 27.6475C22.3606 27.2378 23.2494 26.676 24.0403 26.0026C25.3342 24.9795 26.3261 23.7532 27.141 22.3536C27.3252 22.0299 27.494 21.6996 27.6475 21.3639C27.7924 21.0472 27.9237 20.7256 28.0411 20.4003C28.0499 20.4067 28.0586 20.4131 28.0671 20.4197C28.1526 20.6086 28.2283 20.7989 28.291 20.9905C27.6884 22.4842 26.802 23.8903 25.631 25.1254C25.6307 25.1257 25.6306 25.1258 25.6303 25.126C25.6256 25.131 25.6209 25.136 25.616 25.141C25.615 25.1422 25.6139 25.1433 25.6128 25.1444C25.609 25.1485 25.6052 25.1524 25.6014 25.1564C25.5998 25.1582 25.5981 25.1599 25.5965 25.1616C25.5932 25.165 25.5899 25.1684 25.5867 25.1719C25.5848 25.1739 25.5827 25.176 25.5807 25.178C25.5779 25.1809 25.5751 25.1839 25.5723 25.1868C25.57 25.1892 25.5675 25.1917 25.5652 25.1942C25.5628 25.1967 25.5603 25.1994 25.5579 25.2019C25.555 25.2048 25.5524 25.2076 25.5496 25.2104C25.5478 25.2123 25.546 25.2142 25.544 25.2161C25.5408 25.2196 25.5376 25.2229 25.5344 25.2262C25.5329 25.2276 25.5316 25.229 25.5302 25.2305C25.5265 25.2343 25.5229 25.238 25.5191 25.2418C25.5179 25.2431 25.5166 25.2445 25.5154 25.2457C25.5117 25.2496 25.5077 25.2535 25.504 25.2575C25.5027 25.2588 25.5016 25.2599 25.5004 25.2611C25.4965 25.2652 25.4925 25.2692 25.4886 25.2732C25.4876 25.2743 25.4866 25.2753 25.4856 25.2763C25.4815 25.2806 25.4775 25.2846 25.4734 25.2887C25.4725 25.2897 25.4714 25.2907 25.4704 25.2918C25.4663 25.296 25.4623 25.3001 25.4581 25.3044C25.4573 25.3052 25.4563 25.3062 25.4555 25.307C25.4514 25.3112 25.447 25.3155 25.4429 25.3197C25.4421 25.3206 25.4412 25.3215 25.4403 25.3224C25.4361 25.3266 25.4317 25.3311 25.4275 25.3353C25.4269 25.336 25.4263 25.3365 25.4257 25.3372C25.4211 25.3418 25.4166 25.3463 25.4121 25.3508C25.4117 25.3512 25.4112 25.3517 25.4108 25.3521C25.4061 25.3569 25.4014 25.3616 25.3967 25.3663C25.3965 25.3666 25.3963 25.3668 25.396 25.367C25.3912 25.3719 25.3862 25.3767 25.3814 25.3817C22.8024 27.9607 19.4225 29.2496 16.0423 29.2495Z" fill="#CF3B3B"/>
<path d="M16.0642 28.7988C15.3091 28.7988 14.5537 28.732 13.8082 28.5985C13.7483 28.5556 13.6885 28.5124 13.6289 28.469C14.4946 28.6195 15.3712 28.6975 16.2509 28.6976C17.2897 28.6976 18.3327 28.5887 19.3677 28.361C19.6967 28.2766 20.0211 28.1761 20.3416 28.0621C20.6867 27.9393 21.0277 27.8011 21.3632 27.6476C21.3635 27.6475 21.3636 27.6475 21.3639 27.6473C19.6857 28.415 17.875 28.7988 16.0642 28.7988ZM24.0399 26.0024C25.2097 25.0063 26.1657 23.7662 26.939 22.4142C27.1009 22.1309 27.255 21.8424 27.4006 21.5489C27.5877 21.1493 27.7606 20.7399 27.9166 20.323C27.9603 20.3461 28.0017 20.3718 28.0407 20.4001C27.9232 20.7254 27.792 21.0471 27.6471 21.3638C27.4936 21.6994 27.3248 22.0297 27.1406 22.3534C26.3256 23.753 25.3338 24.9793 24.0399 26.0024Z" fill="#BE3636"/>
<path d="M14.8402 25.4858C14.4731 25.4632 14.1048 25.4245 13.7374 25.373C13.6092 25.0877 13.39 24.9724 13.238 24.9724C13.1947 24.9724 13.1568 24.9818 13.128 24.9994C13.0641 25.0671 13.0047 25.1483 12.9575 25.2449C12.1208 25.0883 11.2979 24.8755 10.5145 24.6438C10.1753 24.5255 9.83917 24.3995 9.50725 24.2685C9.18088 24.1173 8.86307 23.9518 8.55504 23.7711C7.67069 23.2511 6.86609 22.6051 6.18359 21.8115C6.56341 21.4274 6.99081 21.1177 7.47236 20.9689C7.48557 21.187 7.57853 21.493 7.8183 21.9205C7.9524 22.1238 8.10858 22.2833 8.24843 22.3724C8.3309 22.416 8.39866 22.4363 8.4521 22.4363C8.72463 22.4363 8.62058 21.9039 8.15748 21.1947C8.08227 21.0666 8.00382 20.9622 7.9283 20.8801C7.98557 20.8753 8.04365 20.8729 8.10223 20.8729C8.11171 20.8729 8.12139 20.873 8.13086 20.8731C8.60273 20.8795 9.07259 21.0508 9.53679 21.076C9.65053 21.2591 9.87678 21.4298 10.3158 21.4624C10.4692 21.454 10.6019 21.3978 10.6886 21.3153C10.865 21.1074 10.7852 20.9044 10.5421 20.7901C11.267 20.2733 11.6714 19.2073 12.5149 18.8124C12.865 18.6485 13.2492 18.6192 13.6399 18.6192C13.7482 18.6192 13.8569 18.6214 13.9655 18.6238C14.0743 18.626 14.183 18.6282 14.291 18.6282C14.3408 18.6282 14.3905 18.6277 14.44 18.6266C14.7779 18.6185 15.1146 18.575 15.4437 18.4982C15.381 18.6898 15.3185 18.8815 15.2932 19.0806C15.1797 19.9715 15.8618 20.8172 16.692 21.16C17.1515 21.3497 17.644 21.417 18.1429 21.417C18.5452 21.4169 18.9518 21.3731 19.3485 21.3146C19.7506 21.2551 20.1866 21.1613 20.4415 20.8448C20.6125 20.6323 20.672 20.3542 20.7264 20.087C20.8963 19.2523 21.0634 18.3753 20.9256 17.5484C20.9778 17.4955 21.0303 17.4333 21.0824 17.3607C21.1552 17.2254 21.1766 17.0829 21.1513 16.9659C21.0987 16.8065 20.997 16.7308 20.8742 16.7308C20.8213 16.7308 20.7646 16.7449 20.7062 16.7722C20.6904 16.7052 20.6849 16.6378 20.7025 16.5713C20.7682 16.3217 21.0891 16.2613 21.3469 16.2488C21.5604 16.2384 21.7758 16.2283 21.9904 16.2283C22.2707 16.2283 22.5497 16.2456 22.8216 16.3021C22.7672 16.4274 22.7198 16.5697 22.6816 16.7314C22.676 16.7889 22.6746 16.8454 22.6775 16.9001C22.6559 17.1751 22.7325 17.425 22.8744 17.6029C23.0413 17.7709 23.2214 17.8487 23.3979 17.8487C23.6935 17.8487 23.9787 17.6301 24.1738 17.2502C24.2074 17.3209 24.2348 17.3947 24.2551 17.4717C24.3447 17.8115 24.289 18.1718 24.3269 18.5212C24.3487 18.7216 24.4052 18.9152 24.49 19.0961C24.3523 19.3518 24.2025 19.6014 24.0403 19.8437C23.8432 20.1521 23.6332 20.4546 23.4136 20.7495C22.5352 21.9298 21.5036 22.9917 20.4771 23.8956C20.2164 24.0899 19.9505 24.275 19.6797 24.449C19.4911 24.567 19.2983 24.6738 19.1017 24.7699C19.6382 24.2476 19.73 23.6504 19.5468 23.3949C19.1544 23.0923 18.6122 22.8562 17.884 22.8562C17.318 22.8562 16.6395 22.9988 15.8318 23.3639C15.31 23.6818 14.9438 24.1201 14.7843 24.5601C14.6912 24.9378 14.7175 25.2481 14.8402 25.4858ZM14.2755 22.142C13.8774 22.2442 13.4264 22.5619 13.2266 23.4074C13.201 23.6671 13.2647 23.9042 13.3866 24.0709C13.5247 24.2222 13.6737 24.2924 13.8198 24.2924C14.208 24.2924 14.5752 23.7975 14.6591 23.013C14.7663 22.4738 14.4738 22.1449 14.2755 22.142ZM22.2317 18.1834C22.0368 18.2841 21.817 18.587 21.723 19.3804C21.7117 19.6237 21.7441 19.8447 21.8047 19.9989C21.8723 20.1368 21.9448 20.2006 22.0155 20.2006C22.2072 20.2006 22.3867 19.7321 22.4243 18.9933C22.4743 18.4876 22.3291 18.1837 22.2317 18.1834Z" fill="#CF3B3B"/>
<path d="M13.8176 24.2925C13.6715 24.2925 13.5225 24.2223 13.3843 24.0711C13.2624 23.9043 13.1988 23.6673 13.2243 23.4075C13.4242 22.562 13.8752 22.2443 14.2732 22.1421C14.4715 22.1451 14.764 22.474 14.6569 23.0131C14.573 23.7976 14.2058 24.2925 13.8176 24.2925Z" fill="#C43131"/>
<path d="M23.3959 17.8486C23.2194 17.8486 23.0394 17.7708 22.8724 17.6028C22.7305 17.425 22.6539 17.175 22.6755 16.9001C22.6852 17.0927 22.7446 17.2651 22.8396 17.3949C22.9777 17.5462 23.1268 17.6163 23.273 17.6163C23.5478 17.6163 23.8123 17.3681 23.9729 16.9446C24.0521 17.0381 24.1194 17.1401 24.1718 17.2501C23.9767 17.63 23.6915 17.8486 23.3959 17.8486Z" fill="#D04848"/>
<path d="M23.2747 17.6167C23.1285 17.6167 22.9794 17.5465 22.8414 17.3953C22.7464 17.2655 22.6869 17.0931 22.6772 16.9004C22.6744 16.8457 22.6757 16.7892 22.6814 16.7317C22.7196 16.57 22.767 16.4277 22.8214 16.3024C22.8977 16.3184 22.9737 16.3373 23.0488 16.3599C23.4013 16.4659 23.7395 16.6674 23.9747 16.945C23.814 17.3685 23.5496 17.6167 23.2747 17.6167Z" fill="#C43131"/>
<path d="M8.45239 22.4365C8.39895 22.4365 8.3312 22.4162 8.24872 22.3726C8.10887 22.2835 7.95269 22.124 7.81859 21.9207C7.57883 21.4932 7.48586 21.1872 7.47266 20.9691C7.61956 20.9237 7.77141 20.8933 7.9286 20.8803C8.00412 20.9624 8.08256 21.0668 8.15778 21.1949C8.62087 21.9041 8.72493 22.4365 8.45239 22.4365Z" fill="#B82E2E"/>
<path d="M22.0135 20.2007C21.9427 20.2007 21.8702 20.1369 21.8026 19.999C21.742 19.8448 21.7097 19.6238 21.721 19.3805C21.8149 18.587 22.0347 18.2842 22.2296 18.1835C22.327 18.1837 22.4722 18.4877 22.4222 18.9934C22.3846 19.7321 22.2051 20.2007 22.0135 20.2007Z" fill="#B82E2E"/>
<path d="M13.7369 25.373C13.4762 25.3364 13.216 25.2934 12.957 25.2449C13.0042 25.1483 13.0636 25.0671 13.1275 24.9994C13.1563 24.9818 13.1942 24.9725 13.2375 24.9725C13.3895 24.9725 13.6087 25.0877 13.7369 25.373Z" fill="#C43131"/>
<path d="M10.3141 21.4624C9.87514 21.4297 9.64889 21.259 9.53516 21.0759C9.57216 21.0779 9.60896 21.079 9.64586 21.079C9.76171 21.079 9.87736 21.0683 9.99251 21.0421C10.1973 20.9953 10.3771 20.9066 10.5405 20.7901C10.7836 20.9043 10.8633 21.1074 10.687 21.3153C10.6003 21.3978 10.4676 21.4539 10.3141 21.4624Z" fill="#B82E2E"/>
<path d="M20.9225 17.5483C20.8904 17.3552 20.8416 17.1648 20.7722 16.9783C20.7473 16.9112 20.7196 16.8419 20.7031 16.7721C20.7615 16.7447 20.8183 16.7307 20.8711 16.7307C20.9939 16.7307 21.0956 16.8064 21.1483 16.9658C21.1735 17.0828 21.1521 17.2253 21.0793 17.3606C21.0272 17.4332 20.9748 17.4954 20.9225 17.5483Z" fill="#B82E2E"/>
<path d="M15.1267 25.5005C15.0306 25.4969 14.9346 25.4919 14.8384 25.486C14.7156 25.2482 14.6893 24.938 14.7825 24.5603C14.942 24.1203 15.3082 23.682 15.83 23.3641C16.6377 22.999 17.3162 22.8563 17.8821 22.8563C18.6104 22.8563 19.1525 23.0924 19.545 23.395C19.7282 23.6505 19.6364 24.2477 19.0999 24.77C19.0878 24.7758 19.0757 24.7818 19.0636 24.7875C19.3596 24.3839 19.3843 23.9616 19.239 23.7588C18.8631 23.4572 18.3425 23.2173 17.6455 23.2173C17.1658 23.2173 16.6025 23.331 15.9457 23.6165C15.493 23.8888 15.182 24.275 15.0541 24.6694C14.9843 25.0038 15.015 25.2826 15.1267 25.5005Z" fill="#D04848"/>
<path d="M15.5706 25.5093C15.4227 25.5094 15.2742 25.5064 15.1255 25.5006C15.0138 25.2827 14.983 25.0039 15.0529 24.6695C15.1807 24.2752 15.4918 23.8889 15.9445 23.6167C16.6013 23.3311 17.1646 23.2174 17.6442 23.2174C18.3413 23.2174 18.8618 23.4573 19.2378 23.7589C19.3831 23.9617 19.3584 24.384 19.0624 24.7877C17.9825 25.3073 16.791 25.5093 15.5706 25.5093Z" fill="#C43131"/>
<path d="M15.6076 26.9688C15.14 26.9688 14.6721 26.9553 14.2057 26.928C13.8777 26.9087 13.5502 26.8825 13.2236 26.849C12.5534 26.8454 11.8956 26.7544 11.2589 26.588C10.9978 26.3626 10.7399 26.1335 10.4851 25.9008C9.99415 25.4524 9.50444 24.983 8.90341 24.6985C8.45826 24.488 7.98266 24.3913 7.49274 24.3481C6.85168 23.7141 6.28019 23.014 5.77344 22.274C5.90361 22.1124 6.04023 21.9567 6.1836 21.8118C6.8661 22.6054 7.6707 23.2514 8.55505 23.7713C8.86308 23.952 9.18088 24.1176 9.50726 24.2687C9.83918 24.3998 10.1753 24.5257 10.5145 24.6441C11.2979 24.8758 12.1208 25.0885 12.9576 25.2451C12.8384 25.4894 12.7972 25.8318 12.959 26.3025C13.0526 26.4889 13.1967 26.622 13.3503 26.6826C13.4103 26.6991 13.4663 26.707 13.5183 26.707C13.9654 26.707 14.1018 26.1227 13.7589 25.4247C13.7521 25.4069 13.7449 25.3898 13.7375 25.3733C14.1048 25.4248 14.4731 25.4634 14.8402 25.4861C15.0304 25.8546 15.4519 26.0487 16.0181 26.0487C16.0321 26.0487 16.0462 26.0486 16.0604 26.0484C16.1285 26.0553 16.1991 26.0588 16.2722 26.0588C16.8324 26.0588 17.5335 25.8535 18.2743 25.4165C18.6093 25.2567 18.8538 25.0543 19.0224 24.8439C19.0498 24.8195 19.0763 24.7948 19.1017 24.7701C19.2983 24.674 19.4911 24.5673 19.6797 24.4493C19.9505 24.2753 20.2164 24.0901 20.4771 23.8958C21.5036 22.9919 22.5352 21.93 23.4136 20.7497C23.6332 20.4548 23.8432 20.1523 24.0404 19.8439C24.2025 19.6016 24.3523 19.3521 24.49 19.0964C24.8009 19.7593 25.4902 20.2512 26.2283 20.2686C26.2448 20.269 26.2614 20.2692 26.278 20.2692C26.3642 20.2692 26.4511 20.2642 26.5383 20.2566C26.2846 20.9072 25.9693 21.5334 25.5882 22.124C25.3907 22.4015 25.1817 22.6707 24.9623 22.931C23.8653 24.233 22.5101 25.3159 21.0603 26.1205C20.731 26.2868 20.3999 26.4407 20.0609 26.5746C18.615 26.8302 17.1125 26.9688 15.6076 26.9688Z" fill="#BE3636"/>
<path d="M13.5174 26.707C13.4655 26.707 13.4094 26.6992 13.3494 26.6826C13.1959 26.622 13.0518 26.4889 12.9581 26.3025C12.7964 25.8319 12.8375 25.4894 12.9567 25.2451C13.2156 25.2936 13.4759 25.3367 13.7366 25.3733C13.7441 25.3898 13.7512 25.407 13.7581 25.4247C14.101 26.1227 13.9646 26.707 13.5174 26.707Z" fill="#B42D2D"/>
<path d="M16.0177 26.0483C15.4516 26.0483 15.03 25.8542 14.8398 25.4857C14.9361 25.4917 15.0321 25.4966 15.1282 25.5002C15.2898 25.8154 15.6203 26.0034 16.0601 26.048C16.0458 26.0482 16.0317 26.0483 16.0177 26.0483ZM19.022 24.8436C19.037 24.8249 19.0514 24.8062 19.0651 24.7873C19.0772 24.7816 19.0893 24.7756 19.1014 24.7698C19.076 24.7945 19.0495 24.8192 19.022 24.8436Z" fill="#C04242"/>
<path d="M16.2726 26.0586C16.1995 26.0586 16.1288 26.0551 16.0608 26.0482C15.621 26.0035 15.2905 25.8156 15.1289 25.5004C15.2776 25.5062 15.4261 25.5092 15.5741 25.5091C16.7945 25.5091 17.9859 25.3071 19.0658 24.7875C19.0521 24.8063 19.0377 24.8251 19.0227 24.8437C18.8542 25.0542 18.6097 25.2565 18.2746 25.4163C17.5338 25.8533 16.8328 26.0586 16.2726 26.0586Z" fill="#B42D2D"/>
<path d="M5.76398 24.3193C5.75854 24.3193 5.75299 24.3193 5.74755 24.3193C5.49054 24.0004 5.25037 23.6723 5.02734 23.3364C5.06102 23.2848 5.09429 23.2332 5.12726 23.182C5.18796 23.0876 5.25047 22.9926 5.3148 22.8975C5.62736 23.3883 5.97693 23.8622 6.3634 24.3155C6.29786 24.316 6.23223 24.3165 6.16669 24.317C6.03229 24.3182 5.89798 24.3193 5.76398 24.3193Z" fill="#CF3B3B"/>
<path d="M6.3611 24.3154C5.97463 23.8621 5.62506 23.3882 5.3125 22.8974C5.32783 22.8748 5.34325 22.8522 5.35878 22.8296C5.6777 23.3474 6.02928 23.8448 6.41303 24.3151C6.39568 24.3152 6.37844 24.3153 6.3611 24.3154Z" fill="#BE3636"/>
<path d="M21.3633 27.6475C21.6987 27.4941 22.0286 27.3254 22.3525 27.1413C22.6765 26.9566 22.9941 26.7565 23.304 26.5395C23.5595 26.3674 23.8043 26.1883 24.0392 26.0026C23.2483 26.676 22.3596 27.2378 21.3633 27.6475Z" fill="#BE3636"/>
<path d="M16.2488 28.6978C15.3691 28.6977 14.4925 28.6196 13.6268 28.4692C13.5803 28.4354 13.5339 28.4014 13.4875 28.3673C12.7213 27.8035 11.9766 27.2098 11.2563 26.5881C11.8931 26.7544 12.5509 26.8455 13.2211 26.849C13.5476 26.8826 13.8751 26.9087 14.2031 26.928C14.6695 26.9554 15.1374 26.9688 15.605 26.9688C17.1099 26.9688 18.6124 26.8302 20.0583 26.5746C20.3973 26.4407 20.7284 26.2868 21.0577 26.1205C22.5075 25.3159 23.8627 24.233 24.9597 22.9311C25.1791 22.6707 25.3881 22.4015 25.5857 22.124C25.9667 21.5334 26.282 20.9073 26.5358 20.2566C26.6213 20.2493 26.707 20.2396 26.7925 20.2298C26.9652 20.2101 27.1374 20.1905 27.3055 20.1905C27.4987 20.1905 27.6868 20.2165 27.8644 20.2985C27.8815 20.3063 27.8981 20.3145 27.9145 20.3232C27.7585 20.7401 27.5856 21.1494 27.3984 21.549C27.2528 21.8425 27.0988 22.1311 26.9368 22.4143C26.1636 23.7663 25.2076 25.0065 24.0378 26.0026C23.8028 26.1883 23.558 26.3673 23.3025 26.5395C22.9926 26.7564 22.675 26.9566 22.351 27.1413C22.0272 27.3254 21.6973 27.4941 21.3618 27.6474C21.3615 27.6476 21.3614 27.6476 21.3611 27.6477C21.0256 27.8013 20.6846 27.9394 20.3394 28.0622C20.019 28.1763 19.6945 28.2768 19.3655 28.3612C18.3306 28.5889 17.2876 28.6978 16.2488 28.6978ZM7.49015 24.3481C7.18535 24.3213 6.8749 24.315 6.56284 24.315C6.51314 24.315 6.46343 24.3152 6.41362 24.3154C6.02987 23.8451 5.67829 23.3477 5.35938 22.8299C5.48894 22.6415 5.62586 22.454 5.77085 22.2741C6.27761 23.014 6.84909 23.7141 7.49015 24.3481Z" fill="#B03131"/>
<defs>
<linearGradient id="paint0_linear_36_5059" x1="3.96457" y1="3.96675" x2="23.267" y2="23.2692" gradientUnits="userSpaceOnUse">
<stop stop-color="#172030"/>
<stop offset="1" stop-color="#240F34"/>
</linearGradient>
<linearGradient id="paint1_linear_36_5059" x1="3.9637" y1="3.96659" x2="23.2661" y2="23.269" gradientUnits="userSpaceOnUse">
<stop stop-color="#1A2333"/>
<stop offset="1" stop-color="#261237"/>
</linearGradient>
<linearGradient id="paint2_linear_36_5059" x1="3.96561" y1="3.96606" x2="23.2686" y2="23.2673" gradientUnits="userSpaceOnUse">
<stop stop-color="#172030"/>
<stop offset="1" stop-color="#240F34"/>
</linearGradient>
<linearGradient id="paint3_linear_36_5059" x1="3.96751" y1="3.96567" x2="23.2708" y2="23.2653" gradientUnits="userSpaceOnUse">
<stop stop-color="#172030"/>
<stop offset="1" stop-color="#240F34"/>
</linearGradient>
<linearGradient id="paint4_linear_36_5059" x1="3.96066" y1="3.96718" x2="23.2629" y2="23.2731" gradientUnits="userSpaceOnUse">
<stop stop-color="#172030"/>
<stop offset="1" stop-color="#240F34"/>
</linearGradient>
<linearGradient id="paint5_linear_36_5059" x1="3.96236" y1="3.96674" x2="23.265" y2="23.2713" gradientUnits="userSpaceOnUse">
<stop stop-color="#172030"/>
<stop offset="1" stop-color="#240F34"/>
</linearGradient>
<linearGradient id="paint6_linear_36_5059" x1="3.96358" y1="3.96781" x2="23.265" y2="23.2713" gradientUnits="userSpaceOnUse">
<stop stop-color="#172030"/>
<stop offset="1" stop-color="#240F34"/>
</linearGradient>
<linearGradient id="paint7_linear_36_5059" x1="3.96508" y1="3.96684" x2="23.2675" y2="23.2691" gradientUnits="userSpaceOnUse">
<stop stop-color="#172030"/>
<stop offset="1" stop-color="#240F34"/>
</linearGradient>
<linearGradient id="paint8_linear_36_5059" x1="3.9672" y1="3.96896" x2="23.268" y2="23.2693" gradientUnits="userSpaceOnUse">
<stop stop-color="#172030"/>
<stop offset="1" stop-color="#240F34"/>
</linearGradient>
<linearGradient id="paint9_linear_36_5059" x1="3.96435" y1="3.96577" x2="23.2675" y2="23.2685" gradientUnits="userSpaceOnUse">
<stop stop-color="#172030"/>
<stop offset="1" stop-color="#240F34"/>
</linearGradient>
<linearGradient id="paint10_linear_36_5059" x1="3.95995" y1="3.96158" x2="23.2673" y2="23.2681" gradientUnits="userSpaceOnUse">
<stop stop-color="#172030"/>
<stop offset="1" stop-color="#240F34"/>
</linearGradient>
</defs>
</svg>
