<svg width="1920" height="1080" viewBox="0 0 1920 1080" fill="none" xmlns="http://www.w3.org/2000/svg">
<g clip-path="url(#clip0_36_4191)">
<rect width="1920" height="1080" fill="url(#paint0_linear_36_4191)"/>
<path d="M590.264 518.067C762.356 690.159 762.356 969.175 590.264 1141.26C418.175 1313.36 139.159 1313.36 -32.9334 1141.26C-205.022 969.175 -205.022 690.159 -32.9334 518.067C139.159 345.978 418.175 345.978 590.264 518.067Z" fill="#E03F3F"/>
<path d="M294.871 722.802C301.939 719.825 309.955 716.925 317.419 716.925C321.796 716.925 325.984 717.924 329.677 720.487C330.441 721.012 331.06 721.611 331.699 722.2C319.424 722.401 307.149 722.6 294.871 722.802Z" fill="#D73D3D"/>
<path d="M304.911 513.415C292.205 539.804 261.931 549.893 235.02 553.26C221.564 553.26 201.384 543.165 208.109 526.349C214.836 492.71 258.567 475.891 293.373 492.855C301.819 497.981 306.371 505.321 304.911 513.415Z" fill="#C73232"/>
<path d="M454.914 592.906C437.115 597.622 423.007 589.014 413.474 579.256C409.612 573.742 409.226 561.679 420.178 558.114C440.153 548.224 461.729 559.816 462.627 580.45C462.304 585.839 459.674 590.464 454.914 592.906Z" fill="#C73232"/>
<path d="M184.741 1075.41C191.408 1047.2 206.454 1036.6 219.735 1033.19C226.352 1033.29 236.11 1044.26 232.534 1062.25C228.686 1098.27 206.915 1115.99 190.079 1097.54C186.012 1091.98 183.889 1084.07 184.741 1075.41Z" fill="#D43535"/>
<path d="M500.185 852.677C506.852 824.471 521.899 813.868 535.183 810.461C541.796 810.558 551.555 821.531 547.975 839.521C544.131 875.551 522.36 893.266 505.523 874.815C501.453 869.251 499.337 861.346 500.185 852.677Z" fill="#D43535"/>
<path d="M4.30642 1025.8C-8.7353 1002.55 -8.75215 990.061 -5.47237 983.518C-2.84183 981.618 7.04125 986.963 15.6225 1001.59C34.0968 1029.88 35.4458 1049.74 18.6567 1040.88C13.991 1037.9 8.78036 1032.58 4.30642 1025.8Z" fill="#C73232"/>
<path d="M468.207 941.053C471.342 914.583 478.675 904.478 485.178 901.12C488.427 901.127 493.271 911.269 491.603 928.139C489.887 961.889 479.291 978.735 470.932 961.69C468.91 956.544 467.83 949.17 468.207 941.053Z" fill="#C73232"/>
<path d="M87.6304 1010.52C70.6428 1009.26 63.202 1001.79 60.0971 994.68C59.5993 990.983 65.1665 984.585 75.9443 985.012C97.2477 984.017 109.398 994.609 100.07 1005.61C97.177 1008.36 92.7502 1010.23 87.6304 1010.52Z" fill="#C73232"/>
<path d="M446.83 873.671C436.896 887.51 426.647 889.966 418.96 888.906C415.546 887.403 412.986 879.316 418.974 870.344C429.234 851.648 444.61 846.804 449.131 860.498C449.972 864.404 449.259 869.157 446.83 873.671Z" fill="#C73232"/>
<path d="M322.931 695.571C305.338 695.571 287.711 688.514 274.582 674.295C277.283 671.086 279.914 667.829 282.467 664.529C294.836 675.26 310.148 680.592 325.444 680.592C346.959 680.592 368.434 670.029 381.556 649.096C383.178 647.236 384.47 645.342 385.475 643.431C386.518 650.139 384.924 657.327 379.047 664.075C365.924 685.009 344.45 695.571 322.931 695.571Z" fill="#E14545"/>
<path d="M271.32 622.612C298.94 594.494 336.639 595.042 367.163 602.698C381.527 608.682 397.697 630.564 381.554 649.096C356.449 689.143 300.804 691.225 272.685 654.047C266.398 643.734 265.45 632.314 271.32 622.612Z" fill="#D43535"/>
<path d="M57.1538 726.64C75.2581 701.838 122.352 695.111 135.808 718.658C145.899 742.205 115.625 762.388 92.0774 765.752C78.622 765.752 68.5304 759.024 57.2412 748.404C53.2752 741.529 52.9321 733.63 57.1538 726.64Z" fill="#D43535"/>
<path d="M439.414 779.742C450.482 764.262 478.715 759.653 486.536 774.057C492.342 788.495 474.039 801.247 459.924 803.548C451.874 803.679 445.907 799.626 439.256 793.177C436.952 788.973 436.824 784.102 439.414 779.742Z" fill="#D43535"/>
<path d="M275.52 1082.38C329.275 1059.01 364.222 1070.14 385.394 1087.13C393.01 1097.75 386.632 1126.45 353.145 1142.43C289.981 1179.69 235.547 1166.45 245.773 1117.5C250.039 1104.35 260.416 1091.46 275.52 1082.38Z" fill="#D43535"/>
<path d="M13.1603 904.374C28.2674 916.48 58.3505 940.387 37.3028 949.699C17.1398 960.463 -9.27671 938.934 -22.7927 923.995C-27.2095 916.719 -37.1935 907.603 -26.5334 899.503C-19.8123 895.914 -10.444 896.691 -0.618091 898.615C3.97359 899.893 8.64935 901.827 13.1603 904.374Z" fill="#D43535"/>
<path d="M679.249 974.369C678.327 972.364 677.369 970.356 676.386 968.354C689.812 931.523 699.237 892.933 702.961 853.808C703.509 848.032 703.933 842.246 704.229 836.45C703.573 883.198 695.248 929.848 679.249 974.369ZM645.63 915.451C619.782 873.92 594.574 832.161 601.799 786.264C604.487 769.196 613.31 751.428 629.45 745.259C633.416 743.745 637.577 743.019 641.809 742.719C642.519 746.086 643.202 749.46 643.858 752.838C650.027 785.087 653.727 817.737 655.117 850.107C654.424 860.902 653.307 871.66 651.796 882.34C650.175 893.471 648.123 904.521 645.63 915.451ZM702.857 795.643C700.946 778.427 697.781 761.382 693.545 744.556C694.222 744.589 694.898 744.62 695.57 744.65C699.032 761.516 701.457 778.541 702.857 795.643ZM525.355 594.894C512.314 574.761 497.704 555.237 481.696 536.934C474.423 528.622 466.864 520.559 459.037 512.809C400.34 448.539 313.761 414.967 226.321 414.967C223.118 414.967 219.899 415.011 216.697 415.102C209.088 415.324 201.492 415.795 193.89 416.404C186.344 417.211 178.819 418.247 171.328 419.515C180.155 417.204 189.042 415.179 197.973 413.443C198.111 413.416 198.249 413.393 198.387 413.369C198.078 413.43 197.768 413.49 197.455 413.551C217.931 410.379 238.612 408.791 259.283 408.791C300.312 408.791 341.331 415.038 380.81 427.535C392.684 431.292 404.417 435.618 415.969 440.506C462.481 458.846 501.135 488.552 533.139 525.026C517.972 542.609 533.176 571.808 525.557 594.305C525.493 594.504 525.423 594.699 525.355 594.894Z" fill="#CE3A3A"/>
<path d="M704.228 836.45C704.42 822.839 703.962 809.216 702.855 795.643C703.767 803.874 704.393 812.146 704.712 820.444C704.665 825.783 704.5 831.121 704.228 836.45Z" fill="#CE3A3A"/>
<path d="M676.39 968.354C667.63 950.562 656.576 933.03 645.634 915.45C648.126 904.521 650.178 893.471 651.8 882.34C653.31 871.66 654.427 860.902 655.12 850.107C653.731 817.737 650.03 785.087 643.861 752.838C643.205 749.46 642.522 746.086 641.812 742.719C643.636 742.591 645.476 742.541 647.316 742.541C650.357 742.541 653.408 742.675 656.425 742.817C668.801 743.395 681.177 743.977 693.549 744.556C697.784 761.382 700.949 778.427 702.86 795.643C703.967 809.216 704.424 822.84 704.232 836.45C703.936 842.246 703.513 848.032 702.964 853.808C699.24 892.933 689.815 931.523 676.39 968.354Z" fill="#BE3535"/>
<path d="M557.595 513.757C512.179 476.227 460.772 446.853 406.177 428.022C396.364 424.679 386.451 421.671 376.457 419.058C344.187 410.322 311.242 405.885 277.593 405.885C260.245 405.885 242.713 407.062 224.992 409.44C216.098 410.493 207.234 411.832 198.391 413.369C225.15 408.196 252.307 405.609 279.467 405.609C324.811 405.609 370.17 412.821 413.645 427.252C423.618 430.562 433.491 434.252 443.247 438.323C485.729 456.753 526.684 481.881 559.105 513.515C558.6 513.593 558.099 513.673 557.595 513.757Z" fill="#CE3A3A"/>
<path d="M533.137 525.027C501.133 488.552 462.479 458.846 415.967 440.506C404.415 435.619 392.682 431.293 380.808 427.535C341.329 415.038 300.31 408.792 259.281 408.792C238.61 408.792 217.929 410.379 197.453 413.552C197.766 413.491 198.075 413.431 198.385 413.37C207.229 411.833 216.092 410.494 224.986 409.441C242.707 407.063 260.24 405.885 277.587 405.885C311.236 405.885 344.182 410.322 376.451 419.058C386.445 421.672 396.359 424.679 406.171 428.023C460.767 446.854 512.173 476.227 557.589 513.758C548.863 515.208 540.215 517.653 534.176 523.89C533.817 524.263 533.47 524.643 533.137 525.027Z" fill="#BE3535"/>
<path d="M140.544 768.329C133.44 762.772 124.687 759.731 115.08 757.867C130.806 749.205 142.69 734.713 135.811 718.658C130.086 708.644 118.279 704.102 105.203 704.102C87.5362 704.102 67.5615 712.387 57.1571 726.64C52.9354 733.63 53.2786 741.529 57.2446 748.404C58.4219 749.514 59.5858 750.577 60.743 751.597C53.6015 750.258 46.7291 748.327 40.4117 745.333C8.35743 730.145 -4.22678 689.95 -33.7346 670.268C-44.0449 663.389 -55.7781 659.565 -67.9688 658.259C-64.0498 650.721 -59.9056 643.095 -55.5393 635.436C-41.3336 610.533 -24.6926 585.294 -5.828 561.612C1.24622 552.731 8.68371 544.097 16.6023 535.872C25.6141 529.285 35.1843 523.156 45.2019 517.488C55.2161 511.823 65.6778 506.62 76.4758 501.887C103.774 488.569 132.659 482.608 162.17 480.432C172.006 479.705 181.916 479.399 191.856 479.379C195.167 479.147 198.446 479.039 201.703 479.039C208.652 479.039 215.478 479.53 222.205 480.334C232.421 482.605 242.947 484.943 253.469 487.028C231.311 490.608 212.353 505.133 208.107 526.349C201.383 543.165 221.563 553.26 235.018 553.26C261.929 549.892 292.204 539.804 304.909 513.415C306.339 505.489 302.003 498.281 293.886 493.171C298.249 493.554 302.535 493.81 306.719 493.911C311.355 497.981 315.348 503.155 318.536 509.354C328.372 541.079 326.95 571.199 318.018 599.261C301.374 601.699 285.093 608.592 271.321 622.613C268.072 627.988 266.911 633.888 267.594 639.836C263.117 649.026 264.371 659.501 270.177 669.031C271.58 670.884 273.047 672.637 274.581 674.295C267.54 682.651 260.019 690.694 252.174 698.404C244.821 705.636 237.181 712.579 229.397 719.209C213.18 732.113 199.725 745.569 179.541 752.296C166.143 757.12 153.169 762.543 140.544 768.329ZM88.6025 537.012C87.8625 537.012 87.109 537.039 86.342 537.09C48.3505 550.464 7.98403 557.192 -22.2908 587.467C-32.3824 600.922 -32.3824 617.742 -18.9269 627.833C-12.1992 631.197 -5.47145 634.561 1.25629 634.561C48.3505 624.469 105.536 597.558 101.079 540.598C97.8868 538.173 93.6248 537.012 88.6025 537.012Z" fill="#E14545"/>
<path d="M235.02 553.26C221.564 553.26 201.384 543.165 208.109 526.349C212.354 505.133 231.313 490.608 253.471 487.028C267.172 489.743 280.869 492.027 293.887 493.171C302.004 498.281 306.34 505.489 304.911 513.415C292.205 539.804 261.931 549.893 235.02 553.26Z" fill="#C93838"/>
<path d="M274.579 674.295C273.045 672.637 271.579 670.884 270.176 669.03C264.37 659.501 263.115 649.025 267.592 639.835C268.141 644.626 269.883 649.449 272.685 654.048C275.659 657.98 278.942 661.475 282.464 664.53C279.911 667.83 277.28 671.086 274.579 674.295Z" fill="#E24B4B"/>
<path d="M282.466 664.53C278.944 661.475 275.661 657.98 272.687 654.048C269.885 649.45 268.143 644.626 267.594 639.836C266.912 633.888 268.072 627.988 271.322 622.613C285.093 608.592 301.374 601.699 318.019 599.261C310.615 622.515 298.051 644.363 282.466 664.53Z" fill="#D53B3B"/>
<path d="M115.076 757.867C98.1593 754.587 78.5984 754.947 60.7397 751.596C59.5825 750.577 58.4186 749.514 57.2412 748.404C53.2752 741.528 52.9321 733.63 57.1538 726.64C67.5582 712.387 87.5328 704.102 105.2 704.102C118.275 704.102 130.082 708.643 135.808 718.657C142.687 734.713 130.802 749.205 115.076 757.867Z" fill="#D53B3B"/>
<path d="M1.25614 634.561C-5.4716 634.561 -12.1993 631.197 -18.9271 627.833C-32.3826 617.742 -32.3826 600.922 -22.2909 587.467C7.98388 557.192 48.3503 550.464 86.3419 537.09C87.1088 537.039 87.8623 537.012 88.6024 537.012C93.6246 537.012 97.8867 538.173 101.079 540.598C105.536 597.558 48.3503 624.469 1.25614 634.561Z" fill="#E34E4E"/>
<path d="M278.664 1270.33C165.887 1270.33 53.1095 1227.31 -32.9349 1141.26C-33.6076 1140.59 -34.2737 1139.92 -34.9431 1139.24C-34.9532 1139.23 -34.9633 1139.22 -34.9767 1139.21C-35.1315 1139.05 -35.2795 1138.9 -35.4376 1138.74C-35.4746 1138.7 -35.5082 1138.67 -35.5452 1138.63C-35.6797 1138.49 -35.7941 1138.38 -35.9287 1138.24C-35.996 1138.17 -36.0599 1138.11 -36.1272 1138.04C-36.218 1137.94 -36.3223 1137.84 -36.4165 1137.74C-36.5107 1137.65 -36.6015 1137.55 -36.6957 1137.46C-36.7663 1137.38 -36.8302 1137.32 -36.9042 1137.24C-37.032 1137.11 -37.1565 1136.98 -37.2843 1136.85C-37.3146 1136.82 -37.355 1136.78 -37.3853 1136.75C-56.7881 1116.79 -73.9135 1095.45 -88.7852 1073.04C-88.7818 1073.04 -88.7784 1073.04 -88.7784 1073.03C-81.3375 1084.24 -73.3248 1095.19 -64.7503 1105.83C-64.5687 1105.83 -64.3837 1105.83 -64.202 1105.83C-59.7314 1105.83 -55.2507 1105.79 -50.7667 1105.75C-48.5802 1105.73 -46.3903 1105.72 -44.2038 1105.7C-36.8639 1114.32 -29.127 1122.7 -20.9864 1130.84C-15.5067 1136.32 -9.91587 1141.62 -4.21748 1146.73C8.34994 1158.51 21.6843 1169.48 35.789 1179.53C45.6788 1186.4 55.8545 1192.8 66.269 1198.69C76.6365 1204.56 87.2427 1209.92 98.0475 1214.74C107.238 1219.08 116.549 1223.06 125.964 1226.7C151.402 1236.54 177.6 1243.83 204.161 1248.59C213.432 1255.23 222.84 1261.7 232.424 1267.89C247.794 1269.5 263.244 1270.3 278.684 1270.3C391.458 1270.31 504.218 1227.31 590.262 1141.26C504.218 1227.31 391.441 1270.33 278.664 1270.33Z" fill="#D73D3D"/>
<path d="M590.749 1140.77C590.759 1140.77 590.765 1140.76 590.772 1140.75C590.765 1140.76 590.755 1140.77 590.749 1140.77ZM591.243 1140.28C591.257 1140.26 591.27 1140.25 591.283 1140.23C591.27 1140.25 591.257 1140.26 591.243 1140.28ZM591.738 1139.78C591.758 1139.76 591.778 1139.74 591.798 1139.72C591.778 1139.74 591.758 1139.76 591.738 1139.78ZM592.225 1139.29C592.256 1139.26 592.286 1139.23 592.313 1139.19C592.282 1139.23 592.259 1139.25 592.225 1139.29ZM592.733 1138.77C592.76 1138.74 592.794 1138.71 592.821 1138.68C592.79 1138.71 592.764 1138.74 592.733 1138.77ZM593.231 1138.26C593.265 1138.23 593.298 1138.2 593.329 1138.16C593.298 1138.2 593.261 1138.23 593.231 1138.26ZM594.23 1137.24C594.271 1137.2 594.308 1137.16 594.351 1137.12C594.311 1137.16 594.271 1137.2 594.23 1137.24ZM594.731 1136.73C594.772 1136.69 594.815 1136.64 594.856 1136.6C594.815 1136.64 594.775 1136.69 594.731 1136.73ZM595.226 1136.22C595.273 1136.17 595.317 1136.12 595.364 1136.08C595.32 1136.12 595.27 1136.17 595.226 1136.22ZM596.148 1135.27C596.228 1135.18 596.312 1135.09 596.393 1135.01C596.312 1135.09 596.228 1135.18 596.148 1135.27ZM596.629 1134.76C596.723 1134.66 596.817 1134.57 596.911 1134.47C596.817 1134.57 596.726 1134.66 596.629 1134.76ZM597.11 1134.26C597.217 1134.15 597.328 1134.03 597.436 1133.92C597.328 1134.03 597.221 1134.15 597.11 1134.26ZM598.089 1133.23C598.25 1133.07 598.408 1132.9 598.566 1132.73C598.408 1132.9 598.247 1133.07 598.089 1133.23ZM598.586 1132.71C637.654 1091.51 667.229 1044.6 687.332 994.76C687.335 994.767 687.335 994.77 687.339 994.781C667.233 1044.61 637.651 1091.51 598.586 1132.71ZM348.762 1009C332.117 1009 315.688 1006.76 300.356 1000.43C272.658 988.988 249.901 960.775 253.689 931.052C254.533 924.408 256.619 918.014 258.711 911.622C281.283 906.365 302.774 896.428 321.286 882.478C324.656 879.938 328.071 877.075 329.534 873.119C333.285 862.971 321.78 853.061 311.006 852.088C309.849 851.984 308.688 851.937 307.531 851.937C303.081 851.937 298.637 852.623 294.193 853.31C289.746 853.996 285.299 854.685 280.835 854.685C280.136 854.685 279.436 854.669 278.736 854.632C249.437 853.111 233.462 809.67 254.789 789.524C269.872 775.281 293.255 775.776 312.543 768.147C330.974 760.857 345.307 734.824 331.7 722.199C347.11 721.951 362.52 721.698 377.93 721.449C383.985 721.352 390.242 721.207 395.742 718.671C406.405 713.753 411.263 701.428 414.048 690.017C416.833 678.614 418.919 666.231 427.073 657.781C431.096 653.61 437.238 651.282 443.011 651.282C448.931 651.282 454.458 653.738 456.883 659.167C469.168 629.686 514.655 624.815 525.355 594.894C541.932 620.483 555.98 647.064 567.138 673.373C570.656 684.312 573.832 695.373 576.704 706.5C582.443 728.759 586.964 751.297 590.429 773.754C590.836 783.809 590.806 794.005 590.422 804.197C589.258 834.778 584.936 865.224 577.027 894.884C573.125 905.695 568.436 916.271 563.162 926.561C562.297 928.236 561.416 929.908 560.521 931.57C557.692 925.532 555.805 919.073 555.078 912.389C553.813 900.73 555.674 888.711 552.683 877.375C552.007 874.805 551.092 872.342 549.972 869.984C553.76 862.607 556.531 853.4 557.756 842.75C562.041 822.846 550.258 810.686 542.282 810.565C541.148 810.831 540.001 811.137 538.851 811.487C537.589 810.827 536.338 810.477 535.184 810.461C524.44 813.219 512.542 820.68 504.859 838.354C495.787 836.467 486.479 835.891 477.127 835.891C469.966 835.891 462.78 836.228 455.656 836.574C447.058 836.991 436.35 839.006 434.157 847.335C433.572 849.552 433.753 851.803 434.282 854.036C429.101 856.465 423.534 862.035 418.976 870.344C412.988 879.316 415.548 887.402 418.963 888.906C419.972 889.044 421.025 889.125 422.118 889.125C427.88 889.125 434.695 886.938 441.601 879.935C446.2 907.522 440.623 936.781 434.954 964.627C433.141 973.541 431.157 982.822 425.451 989.91C416.948 1000.47 402.399 1003.6 388.984 1005.59C375.75 1007.54 362.184 1009 348.762 1009ZM468.892 765.365C458.202 765.365 445.88 770.7 439.415 779.742C436.825 784.101 436.952 788.972 439.257 793.177C445.799 799.525 451.686 803.551 459.544 803.551C459.669 803.551 459.797 803.551 459.924 803.548C474.039 801.247 492.342 788.495 486.536 774.057C483.283 768.066 476.502 765.365 468.892 765.365Z" fill="#D73D3D"/>
<path d="M549.976 869.985C548.227 866.315 545.98 862.911 543.34 859.792C545.546 853.969 547.168 847.158 547.982 839.522C550.935 824.677 544.806 814.609 538.855 811.487C540.006 811.137 541.153 810.831 542.287 810.565C550.262 810.687 562.046 822.847 557.76 842.751C556.536 853.401 553.764 862.608 549.976 869.985Z" fill="#D94B4B"/>
<path d="M543.335 859.792C535.491 850.531 524.205 843.807 512.445 840.271C509.939 839.518 507.406 838.886 504.859 838.354C512.542 820.68 524.441 813.219 535.185 810.461C536.339 810.478 537.59 810.827 538.851 811.487C544.802 814.608 550.931 824.677 547.978 839.521C547.163 847.157 545.542 853.969 543.335 859.792Z" fill="#CC3333"/>
<path d="M422.116 889.125C421.022 889.125 419.97 889.044 418.96 888.906C415.546 887.402 412.986 879.315 418.974 870.344C423.532 862.035 429.099 856.465 434.279 854.036C434.828 856.367 435.753 858.678 436.584 860.915C438.898 867.138 440.526 873.489 441.599 879.934C434.693 886.938 427.878 889.125 422.116 889.125Z" fill="#BF3030"/>
<path d="M459.544 803.552C451.686 803.552 445.799 799.525 439.256 793.178C436.952 788.973 436.824 784.102 439.414 779.742C445.88 770.7 458.202 765.365 468.892 765.365C476.501 765.365 483.283 768.066 486.536 774.057C492.342 788.495 474.039 801.248 459.924 803.548C459.796 803.552 459.668 803.552 459.544 803.552Z" fill="#CC3333"/>
<path d="M620.177 970.699C619.622 970.699 619.07 970.692 618.518 970.679C593.895 970.097 570.896 953.688 560.525 931.571C561.42 929.909 562.301 928.237 563.166 926.562C568.44 916.272 573.13 905.696 577.032 894.884C584.94 865.225 589.263 834.779 590.427 804.198C590.81 794.005 590.84 783.809 590.433 773.755C586.969 751.298 582.448 728.76 576.709 706.501C573.836 695.373 570.661 684.313 567.142 673.374C555.984 647.065 541.937 620.483 525.359 594.895C525.427 594.699 525.497 594.504 525.561 594.306C533.18 571.808 517.976 542.61 533.143 525.027C581.489 580.12 614.647 650.647 636.73 720.68C638.57 728.003 640.259 735.349 641.813 742.72C637.581 743.019 633.42 743.746 629.454 745.259C613.314 751.429 604.491 769.197 601.803 786.265C594.578 832.162 619.786 873.921 645.634 915.451C641.369 934.147 635.805 952.487 628.862 970.279C625.953 970.531 623.053 970.699 620.177 970.699Z" fill="#C63838"/>
<path d="M679.868 975.718C679.582 975.499 679.293 975.284 679 975.072C679.084 974.836 679.168 974.604 679.252 974.369C679.461 974.82 679.666 975.267 679.868 975.718Z" fill="#D73D3D"/>
<path d="M678.996 975.072C677.695 974.127 676.315 973.269 674.855 972.499C675.37 971.116 675.878 969.741 676.386 968.355C677.368 970.356 678.327 972.364 679.249 974.369C679.165 974.605 679.081 974.837 678.996 975.072Z" fill="#C63838"/>
<mask id="mask0_36_4191" style="mask-type:luminance" maskUnits="userSpaceOnUse" x="589" y="517" width="41" height="47">
<path d="M628.513 561.638C628.503 561.628 628.48 561.595 628.47 561.585C628.483 561.601 628.5 561.622 628.513 561.638ZM627.259 560.014C627.232 559.98 627.208 559.95 627.181 559.916C627.205 559.946 627.235 559.983 627.259 560.014ZM626.263 558.739C626.256 558.725 626.263 558.739 626.256 558.725C626.26 558.732 626.26 558.732 626.263 558.739ZM625.994 558.389C625.957 558.345 625.92 558.301 625.886 558.254C625.923 558.301 625.957 558.342 625.994 558.389ZM625.634 557.935C625.6 557.888 625.567 557.847 625.53 557.804C625.563 557.844 625.6 557.891 625.634 557.935ZM625.049 557.191C625.022 557.158 624.985 557.107 624.958 557.074C624.988 557.111 625.018 557.154 625.049 557.191ZM624.719 556.774C624.675 556.717 624.625 556.653 624.581 556.596C624.625 556.65 624.675 556.717 624.719 556.774ZM624.352 556.307C624.299 556.239 624.255 556.186 624.201 556.118C624.251 556.182 624.302 556.243 624.352 556.307ZM623.824 555.644C623.77 555.577 623.703 555.489 623.646 555.422C623.707 555.493 623.767 555.573 623.824 555.644ZM623.437 555.16C623.384 555.092 623.323 555.015 623.269 554.948C623.326 555.018 623.38 555.089 623.437 555.16ZM623.057 554.682C622.993 554.605 622.94 554.534 622.876 554.457C622.936 554.531 622.997 554.605 623.057 554.682ZM622.556 554.06C622.475 553.959 622.415 553.885 622.334 553.781C622.408 553.875 622.482 553.965 622.556 554.06ZM622.146 553.548C622.082 553.471 622.008 553.38 621.944 553.299C622.014 553.384 622.078 553.464 622.146 553.548ZM621.755 553.064C621.681 552.973 621.597 552.869 621.523 552.778C621.604 552.876 621.675 552.966 621.755 553.064ZM621.301 552.502C621.2 552.378 621.113 552.27 621.012 552.146C621.106 552.263 621.204 552.384 621.301 552.502ZM620.847 551.944C620.773 551.853 620.686 551.745 620.612 551.655C620.689 551.749 620.77 551.85 620.847 551.944ZM620.444 551.449C620.353 551.338 620.265 551.231 620.171 551.116C620.262 551.227 620.356 551.342 620.444 551.449ZM619.532 550.336C619.448 550.235 619.357 550.124 619.273 550.02C619.36 550.127 619.445 550.232 619.532 550.336ZM619.128 549.845C619.014 549.707 618.913 549.582 618.802 549.448C618.91 549.579 619.021 549.714 619.128 549.845ZM618.731 549.364C618.6 549.206 618.469 549.048 618.338 548.889C618.469 549.044 618.6 549.206 618.731 549.364ZM618.213 548.738C618.119 548.624 618.022 548.506 617.927 548.395C618.025 548.513 618.116 548.62 618.213 548.738ZM617.796 548.237C617.675 548.089 617.551 547.941 617.43 547.796C617.551 547.944 617.675 548.089 617.796 548.237ZM617.396 547.756C617.255 547.588 617.134 547.44 616.992 547.271C617.13 547.436 617.258 547.591 617.396 547.756ZM616.881 547.14C616.777 547.016 616.669 546.888 616.568 546.763C616.673 546.891 616.777 547.012 616.881 547.14ZM616.461 546.639C616.178 546.303 615.916 545.99 615.633 545.657C615.909 545.983 616.185 546.313 616.461 546.639ZM615.108 545.038C614.826 544.701 614.55 544.378 614.267 544.045C614.547 544.375 614.829 544.708 615.108 545.038ZM614.193 543.958C614.079 543.827 613.945 543.669 613.834 543.537C613.951 543.679 614.072 543.817 614.193 543.958ZM613.753 543.447C613.47 543.114 613.181 542.777 612.895 542.444C613.184 542.781 613.467 543.11 613.753 543.447ZM612.828 542.367C612.693 542.212 612.586 542.088 612.451 541.933C612.579 542.078 612.703 542.222 612.828 542.367ZM612.387 541.856C612.101 541.526 611.798 541.176 611.512 540.846C611.802 541.183 612.098 541.522 612.387 541.856ZM611.462 540.789C611.327 540.634 611.2 540.486 611.065 540.332C611.196 540.486 611.327 540.634 611.462 540.789ZM611.011 540.271C610.722 539.941 610.413 539.585 610.123 539.255C610.419 539.595 610.715 539.931 611.011 540.271ZM610.076 539.205C609.942 539.053 609.804 538.895 609.669 538.741C609.807 538.895 609.942 539.05 610.076 539.205ZM609.625 538.69C609.326 538.35 609.023 538.011 608.724 537.671C609.023 538.011 609.323 538.35 609.625 538.69ZM608.687 537.631C608.552 537.476 608.404 537.311 608.266 537.156C608.404 537.311 608.549 537.476 608.687 537.631ZM608.226 537.113C607.927 536.773 607.614 536.426 607.311 536.087C607.617 536.426 607.923 536.773 608.226 537.113ZM606.823 535.542C606.51 535.192 606.211 534.862 605.898 534.512C606.208 534.855 606.514 535.195 606.823 535.542ZM605.407 533.974C605.094 533.624 604.798 533.298 604.479 532.951C604.788 533.288 605.101 533.634 605.407 533.974ZM604.452 532.921C604.314 532.766 604.149 532.588 604.008 532.437C604.152 532.595 604.307 532.76 604.452 532.921ZM603.984 532.41C603.665 532.06 603.369 531.737 603.049 531.391C603.358 531.727 603.675 532.07 603.984 532.41ZM603.019 531.357C602.877 531.206 602.723 531.037 602.585 530.886C602.729 531.044 602.874 531.199 603.019 531.357ZM602.544 530.842C602.235 530.506 601.922 530.169 601.609 529.833C601.922 530.169 602.232 530.506 602.544 530.842ZM601.576 529.799C601.438 529.648 601.28 529.48 601.138 529.328C601.286 529.487 601.431 529.641 601.576 529.799ZM601.101 529.288C600.782 528.945 600.482 528.625 600.159 528.282C600.476 528.619 600.788 528.955 601.101 529.288ZM600.129 528.249C599.988 528.097 599.83 527.929 599.689 527.781C599.837 527.936 599.981 528.091 600.129 528.249ZM599.648 527.741C599.335 527.408 599.022 527.075 598.706 526.742C599.022 527.075 599.335 527.404 599.648 527.741ZM598.663 526.695C598.521 526.547 598.377 526.392 598.232 526.244C598.373 526.392 598.521 526.547 598.663 526.695ZM598.185 526.19C597.879 525.87 597.552 525.527 597.246 525.204C597.559 525.534 597.872 525.86 598.185 526.19ZM597.189 525.147C597.044 524.999 596.917 524.861 596.772 524.713C596.913 524.861 597.048 524.999 597.189 525.147ZM596.708 524.646C596.402 524.326 596.086 524 595.78 523.681C596.089 524.003 596.399 524.323 596.708 524.646ZM595.699 523.596C595.574 523.469 595.43 523.317 595.305 523.193C595.437 523.327 595.568 523.462 595.699 523.596ZM595.225 523.105C594.915 522.786 594.609 522.473 594.296 522.153C594.609 522.473 594.915 522.789 595.225 523.105ZM594.209 522.063C594.084 521.935 593.95 521.797 593.825 521.672C593.956 521.803 594.081 521.931 594.209 522.063ZM592.708 520.532C592.584 520.408 592.463 520.283 592.338 520.159C592.46 520.28 592.587 520.411 592.708 520.532ZM592.231 520.044C591.918 519.728 591.625 519.435 591.312 519.119C591.619 519.429 591.925 519.738 592.231 520.044ZM591.195 519.001C591.077 518.884 590.963 518.766 590.845 518.652C590.963 518.769 591.077 518.88 591.195 519.001ZM590.717 518.52C590.569 518.376 590.411 518.214 590.263 518.066C590.414 518.221 590.562 518.369 590.717 518.52Z" fill="white"/>
</mask>
<g mask="url(#mask0_36_4191)">
<path d="M628.513 561.638C628.503 561.628 628.48 561.595 628.47 561.585C628.483 561.601 628.5 561.622 628.513 561.638ZM627.259 560.014C627.232 559.98 627.208 559.95 627.181 559.916C627.205 559.946 627.235 559.983 627.259 560.014ZM626.263 558.739C626.256 558.725 626.263 558.739 626.256 558.725C626.26 558.732 626.26 558.732 626.263 558.739ZM625.994 558.389C625.957 558.345 625.92 558.301 625.886 558.254C625.923 558.301 625.957 558.342 625.994 558.389ZM625.634 557.935C625.6 557.888 625.567 557.847 625.53 557.804C625.563 557.844 625.6 557.891 625.634 557.935ZM625.049 557.191C625.022 557.158 624.985 557.107 624.958 557.074C624.988 557.111 625.018 557.154 625.049 557.191ZM624.719 556.774C624.675 556.717 624.625 556.653 624.581 556.596C624.625 556.65 624.675 556.717 624.719 556.774ZM624.352 556.307C624.299 556.239 624.255 556.186 624.201 556.118C624.251 556.182 624.302 556.243 624.352 556.307ZM623.824 555.644C623.77 555.577 623.703 555.489 623.646 555.422C623.707 555.493 623.767 555.573 623.824 555.644ZM623.437 555.16C623.384 555.092 623.323 555.015 623.269 554.948C623.326 555.018 623.38 555.089 623.437 555.16ZM623.057 554.682C622.993 554.605 622.94 554.534 622.876 554.457C622.936 554.531 622.997 554.605 623.057 554.682ZM622.556 554.06C622.475 553.959 622.415 553.885 622.334 553.781C622.408 553.875 622.482 553.965 622.556 554.06ZM622.146 553.548C622.082 553.471 622.008 553.38 621.944 553.299C622.014 553.384 622.078 553.464 622.146 553.548ZM621.755 553.064C621.681 552.973 621.597 552.869 621.523 552.778C621.604 552.876 621.675 552.966 621.755 553.064ZM621.301 552.502C621.2 552.378 621.113 552.27 621.012 552.146C621.106 552.263 621.204 552.384 621.301 552.502ZM620.847 551.944C620.773 551.853 620.686 551.745 620.612 551.655C620.689 551.749 620.77 551.85 620.847 551.944ZM620.444 551.449C620.353 551.338 620.265 551.231 620.171 551.116C620.262 551.227 620.356 551.342 620.444 551.449ZM619.532 550.336C619.448 550.235 619.357 550.124 619.273 550.02C619.36 550.127 619.445 550.232 619.532 550.336ZM619.128 549.845C619.014 549.707 618.913 549.582 618.802 549.448C618.91 549.579 619.021 549.714 619.128 549.845ZM618.731 549.364C618.6 549.206 618.469 549.048 618.338 548.889C618.469 549.044 618.6 549.206 618.731 549.364ZM618.213 548.738C618.119 548.624 618.022 548.506 617.927 548.395C618.025 548.513 618.116 548.62 618.213 548.738ZM617.796 548.237C617.675 548.089 617.551 547.941 617.43 547.796C617.551 547.944 617.675 548.089 617.796 548.237ZM617.396 547.756C617.255 547.588 617.134 547.44 616.992 547.271C617.13 547.436 617.258 547.591 617.396 547.756ZM616.881 547.14C616.777 547.016 616.669 546.888 616.568 546.763C616.673 546.891 616.777 547.012 616.881 547.14ZM616.461 546.639C616.178 546.303 615.916 545.99 615.633 545.657C615.909 545.983 616.185 546.313 616.461 546.639ZM615.108 545.038C614.826 544.701 614.55 544.378 614.267 544.045C614.547 544.375 614.829 544.708 615.108 545.038ZM614.193 543.958C614.079 543.827 613.945 543.669 613.834 543.537C613.951 543.679 614.072 543.817 614.193 543.958ZM613.753 543.447C613.47 543.114 613.181 542.777 612.895 542.444C613.184 542.781 613.467 543.11 613.753 543.447ZM612.828 542.367C612.693 542.212 612.586 542.088 612.451 541.933C612.579 542.078 612.703 542.222 612.828 542.367ZM612.387 541.856C612.101 541.526 611.798 541.176 611.512 540.846C611.802 541.183 612.098 541.522 612.387 541.856ZM611.462 540.789C611.327 540.634 611.2 540.486 611.065 540.332C611.196 540.486 611.327 540.634 611.462 540.789ZM611.011 540.271C610.722 539.941 610.413 539.585 610.123 539.255C610.419 539.595 610.715 539.931 611.011 540.271ZM610.076 539.205C609.942 539.053 609.804 538.895 609.669 538.741C609.807 538.895 609.942 539.05 610.076 539.205ZM609.625 538.69C609.326 538.35 609.023 538.011 608.724 537.671C609.023 538.011 609.323 538.35 609.625 538.69ZM608.687 537.631C608.552 537.476 608.404 537.311 608.266 537.156C608.404 537.311 608.549 537.476 608.687 537.631ZM608.226 537.113C607.927 536.773 607.614 536.426 607.311 536.087C607.617 536.426 607.923 536.773 608.226 537.113ZM606.823 535.542C606.51 535.192 606.211 534.862 605.898 534.512C606.208 534.855 606.514 535.195 606.823 535.542ZM605.407 533.974C605.094 533.624 604.798 533.298 604.479 532.951C604.788 533.288 605.101 533.634 605.407 533.974ZM604.452 532.921C604.314 532.766 604.149 532.588 604.008 532.437C604.152 532.595 604.307 532.76 604.452 532.921ZM603.984 532.41C603.665 532.06 603.369 531.737 603.049 531.391C603.358 531.727 603.675 532.07 603.984 532.41ZM603.019 531.357C602.877 531.206 602.723 531.037 602.585 530.886C602.729 531.044 602.874 531.199 603.019 531.357ZM602.544 530.842C602.235 530.506 601.922 530.169 601.609 529.833C601.922 530.169 602.232 530.506 602.544 530.842ZM601.576 529.799C601.438 529.648 601.28 529.48 601.138 529.328C601.286 529.487 601.431 529.641 601.576 529.799ZM601.101 529.288C600.782 528.945 600.482 528.625 600.159 528.282C600.476 528.619 600.788 528.955 601.101 529.288ZM600.129 528.249C599.988 528.097 599.83 527.929 599.689 527.781C599.837 527.936 599.981 528.091 600.129 528.249ZM599.648 527.741C599.335 527.408 599.022 527.075 598.706 526.742C599.022 527.075 599.335 527.404 599.648 527.741ZM598.663 526.695C598.521 526.547 598.377 526.392 598.232 526.244C598.373 526.392 598.521 526.547 598.663 526.695ZM598.185 526.19C597.879 525.87 597.552 525.527 597.246 525.204C597.559 525.534 597.872 525.86 598.185 526.19ZM597.189 525.147C597.044 524.999 596.917 524.861 596.772 524.713C596.913 524.861 597.048 524.999 597.189 525.147ZM596.708 524.646C596.402 524.326 596.086 524 595.78 523.681C596.089 524.003 596.399 524.323 596.708 524.646ZM595.699 523.596C595.574 523.469 595.43 523.317 595.305 523.193C595.437 523.327 595.568 523.462 595.699 523.596ZM595.225 523.105C594.915 522.786 594.609 522.473 594.296 522.153C594.609 522.473 594.915 522.789 595.225 523.105ZM594.209 522.063C594.084 521.935 593.95 521.797 593.825 521.672C593.956 521.803 594.081 521.931 594.209 522.063ZM592.708 520.532C592.584 520.408 592.463 520.283 592.338 520.159C592.46 520.28 592.587 520.411 592.708 520.532ZM592.231 520.044C591.918 519.728 591.625 519.435 591.312 519.119C591.619 519.429 591.925 519.738 592.231 520.044ZM591.195 519.001C591.077 518.884 590.963 518.766 590.845 518.652C590.963 518.769 591.077 518.88 591.195 519.001ZM590.717 518.52C590.569 518.376 590.411 518.214 590.263 518.066C590.414 518.221 590.562 518.369 590.717 518.52Z" fill="url(#paint1_linear_36_4191)"/>
</g>
<path d="M711.239 745.387C706.015 745.142 700.795 744.896 695.57 744.651C691.621 725.406 686.33 706.373 679.693 687.72C675.596 676.206 670.987 664.829 665.864 653.631C651.268 623.773 633.625 595.655 613.206 569.746C606.388 561.108 599.253 552.718 591.718 544.608C584.018 537.006 576.093 529.649 567.965 522.561C565.086 519.49 562.132 516.476 559.102 513.516C560.736 513.263 562.371 513.041 563.986 512.829C570.152 512.019 576.362 511.238 582.585 510.586C584.997 512.883 587.392 515.204 589.76 517.569C589.928 517.734 590.093 517.899 590.261 518.067C590.409 518.215 590.567 518.376 590.715 518.521C590.756 518.561 590.806 518.612 590.843 518.652C590.961 518.767 591.075 518.884 591.193 519.002C591.23 519.039 591.27 519.083 591.311 519.12C591.623 519.436 591.916 519.729 592.229 520.045C592.266 520.085 592.3 520.119 592.337 520.159C592.461 520.284 592.582 520.408 592.707 520.533C592.74 520.566 592.774 520.6 592.804 520.63C593.117 520.946 593.42 521.256 593.729 521.576C593.76 521.606 593.793 521.639 593.823 521.673C593.948 521.797 594.082 521.935 594.207 522.063C594.234 522.09 594.267 522.127 594.294 522.154C594.607 522.474 594.913 522.786 595.223 523.106C595.25 523.136 595.277 523.163 595.304 523.194C595.428 523.318 595.573 523.469 595.697 523.597C595.724 523.624 595.751 523.651 595.778 523.681C596.084 524.001 596.4 524.327 596.706 524.647C596.726 524.667 596.75 524.694 596.77 524.714C596.915 524.862 597.043 525 597.187 525.148C597.204 525.165 597.228 525.192 597.245 525.205C597.551 525.528 597.877 525.871 598.183 526.191C598.2 526.211 598.213 526.224 598.23 526.245C598.375 526.393 598.519 526.547 598.661 526.695C598.678 526.712 598.691 526.726 598.704 526.742C599.021 527.075 599.333 527.408 599.646 527.741C599.66 527.752 599.673 527.768 599.687 527.782C599.828 527.93 599.986 528.098 600.127 528.249C600.137 528.263 600.148 528.273 600.158 528.283C600.481 528.626 600.78 528.946 601.1 529.289C601.113 529.302 601.126 529.316 601.136 529.329C601.278 529.481 601.436 529.649 601.574 529.8C601.587 529.81 601.597 529.824 601.607 529.834C601.92 530.17 602.233 530.507 602.543 530.843C602.553 530.856 602.569 530.873 602.583 530.887C602.721 531.038 602.876 531.206 603.017 531.358C603.027 531.371 603.037 531.378 603.047 531.391C603.367 531.738 603.663 532.061 603.982 532.411C603.992 532.421 603.996 532.424 604.006 532.437C604.147 532.589 604.312 532.767 604.45 532.922C604.46 532.932 604.467 532.939 604.477 532.952C604.796 533.299 605.092 533.625 605.405 533.975C605.419 533.985 605.422 533.988 605.432 534.002C605.58 534.166 605.732 534.335 605.88 534.496C605.883 534.5 605.893 534.51 605.896 534.513C606.209 534.863 606.509 535.192 606.821 535.542C606.832 535.552 606.842 535.566 606.852 535.576C607 535.741 607.144 535.902 607.292 536.067C607.299 536.074 607.302 536.077 607.309 536.087C607.612 536.427 607.925 536.773 608.224 537.113C608.241 537.13 608.251 537.14 608.265 537.157C608.402 537.312 608.55 537.477 608.685 537.631C608.699 537.645 608.709 537.658 608.722 537.672C609.021 538.011 609.324 538.351 609.624 538.691C609.637 538.708 609.65 538.724 609.667 538.741C609.802 538.896 609.94 539.054 610.074 539.206C610.091 539.222 610.105 539.239 610.121 539.256C610.411 539.586 610.72 539.942 611.009 540.272C611.023 540.289 611.046 540.316 611.063 540.332C611.198 540.487 611.326 540.635 611.46 540.79C611.477 540.81 611.49 540.827 611.511 540.847C611.797 541.177 612.099 541.527 612.385 541.856C612.405 541.883 612.429 541.907 612.449 541.934C612.584 542.088 612.691 542.213 612.826 542.368C612.849 542.394 612.873 542.421 612.893 542.445C613.179 542.778 613.468 543.114 613.751 543.447C613.778 543.474 613.805 543.508 613.832 543.538C613.943 543.669 614.077 543.827 614.192 543.959C614.215 543.989 614.239 544.016 614.266 544.046C614.548 544.379 614.824 544.702 615.107 545.039C615.14 545.076 615.174 545.116 615.204 545.153C615.319 545.287 615.423 545.412 615.537 545.543C615.567 545.583 615.601 545.62 615.631 545.657C615.914 545.99 616.176 546.303 616.459 546.64C616.493 546.68 616.53 546.724 616.567 546.764C616.667 546.889 616.775 547.016 616.879 547.141C616.913 547.181 616.953 547.232 616.99 547.272C617.132 547.44 617.253 547.588 617.394 547.756C617.404 547.77 617.418 547.783 617.428 547.797C617.549 547.942 617.673 548.089 617.794 548.238C617.835 548.288 617.885 548.345 617.926 548.396C618.02 548.507 618.117 548.624 618.211 548.739C618.252 548.789 618.296 548.84 618.336 548.89C618.467 549.048 618.598 549.206 618.73 549.364C618.753 549.391 618.773 549.418 618.8 549.449C618.911 549.583 619.012 549.708 619.127 549.845C619.174 549.903 619.224 549.963 619.271 550.02C619.355 550.125 619.446 550.236 619.53 550.337C619.581 550.401 619.628 550.454 619.678 550.518C619.789 550.653 619.907 550.794 620.015 550.929C620.068 550.993 620.119 551.053 620.169 551.117C620.263 551.231 620.351 551.339 620.442 551.45C620.502 551.524 620.553 551.585 620.61 551.655C620.684 551.746 620.771 551.854 620.845 551.944C620.899 552.012 620.953 552.079 621.01 552.146C621.111 552.271 621.199 552.378 621.3 552.503C621.374 552.597 621.448 552.688 621.522 552.779C621.596 552.87 621.68 552.974 621.754 553.065C621.814 553.142 621.881 553.223 621.942 553.3C622.006 553.381 622.08 553.472 622.144 553.549C622.204 553.626 622.272 553.707 622.332 553.781C622.413 553.886 622.474 553.959 622.554 554.06C622.662 554.192 622.766 554.323 622.874 554.457C622.938 554.535 622.992 554.605 623.055 554.683C623.123 554.767 623.197 554.861 623.267 554.948C623.321 555.016 623.382 555.093 623.436 555.16C623.506 555.251 623.574 555.332 623.644 555.423C623.701 555.49 623.769 555.577 623.822 555.645C623.947 555.803 624.075 555.961 624.199 556.119C624.253 556.186 624.297 556.24 624.351 556.308C624.428 556.405 624.502 556.499 624.579 556.597C624.623 556.654 624.673 556.718 624.717 556.775C624.798 556.876 624.875 556.97 624.956 557.074C624.983 557.108 625.02 557.159 625.047 557.192C625.208 557.397 625.366 557.599 625.528 557.804C625.565 557.848 625.599 557.888 625.632 557.936C625.716 558.043 625.8 558.147 625.884 558.255C625.918 558.302 625.955 558.346 625.992 558.39C626.076 558.501 626.167 558.615 626.255 558.726C626.261 558.74 626.255 558.726 626.261 558.74C626.46 558.992 626.662 559.251 626.86 559.503C626.877 559.527 626.887 559.54 626.904 559.564C626.998 559.681 627.089 559.799 627.18 559.917C627.207 559.951 627.23 559.981 627.257 560.014C627.661 560.539 628.064 561.061 628.468 561.585C628.478 561.595 628.502 561.629 628.512 561.639C628.925 562.181 629.336 562.716 629.75 563.261L629.756 563.267C671.525 618.176 698.685 680.643 711.239 745.387Z" fill="#D73D3D"/>
<path d="M695.57 744.65C694.897 744.62 694.221 744.59 693.545 744.556C687.803 721.719 680.093 699.299 670.896 677.46C666.96 668.284 662.782 659.222 658.254 650.233C643.753 611.014 613.478 584.103 592.326 548.517C586.379 541.796 580.135 535.246 573.677 528.862C571.81 526.736 569.906 524.637 567.965 522.561C576.092 529.649 584.017 537.005 591.717 544.608C599.252 552.718 606.387 561.108 613.206 569.746C633.624 595.655 651.268 623.773 665.864 653.631C670.987 664.829 675.595 676.206 679.692 687.72C686.329 706.373 691.621 725.406 695.57 744.65Z" fill="#C63838"/>
<path d="M198.179 1244.27C173.262 1239.95 148.605 1233.82 124.392 1226.03C115.602 1222.66 106.863 1218.9 98.1943 1214.8C98.1438 1214.78 98.0967 1214.76 98.0463 1214.74C96.7848 1214.15 95.5234 1213.54 94.2653 1212.93C83.8507 1207.89 73.6044 1202.4 63.5464 1196.46C53.4918 1190.52 43.6256 1184.13 33.9814 1177.29C20.8085 1167.94 8.05269 1157.76 -4.2187 1146.73C-17.8827 1133.94 -30.6419 1120.19 -42.4727 1105.69C-40.8109 1105.68 -39.1525 1105.68 -37.4941 1105.68C-27.0829 1105.68 -16.7256 1105.89 -6.55662 1106.78C10.6832 1123.83 29.4301 1139.45 49.7848 1153.21C60.0615 1159.08 70.6543 1164.28 81.4994 1168.82C93.7338 1173.91 106.288 1178.17 119.094 1181.51C143.125 1202.25 167.968 1222.06 193.533 1240.87C195.08 1242.01 196.628 1243.15 198.179 1244.27ZM674.856 972.499C674.311 972.209 673.756 971.937 673.187 971.675C667.26 968.94 660.986 968.072 654.538 968.072C648.93 968.072 643.185 968.728 637.423 969.384C634.57 969.71 631.711 970.033 628.858 970.279C635.801 952.487 641.365 934.147 645.63 915.451C656.573 933.03 667.627 950.563 676.386 968.354C675.878 969.74 675.37 971.116 674.856 972.499Z" fill="#B73333"/>
<path d="M567.968 522.561C564.544 519.577 561.089 516.647 557.594 513.758C558.098 513.674 558.6 513.593 559.104 513.516C562.135 516.476 565.088 519.49 567.968 522.561Z" fill="#C63838"/>
<path d="M693.547 744.556C681.174 743.978 668.799 743.396 656.423 742.817C653.406 742.676 650.355 742.541 647.314 742.541C645.474 742.541 643.634 742.592 641.81 742.719C640.256 735.349 638.568 728.003 636.728 720.679C614.644 650.647 581.486 580.12 533.141 525.027C533.474 524.643 533.82 524.263 534.18 523.89C540.218 517.653 548.867 515.208 557.593 513.758C561.088 516.647 564.542 519.577 567.967 522.561C569.908 524.636 571.812 526.736 573.679 528.862C580.137 535.246 586.381 541.796 592.328 548.517C613.48 584.103 643.755 611.014 658.256 650.233C662.784 659.222 666.962 668.284 670.898 677.46C680.095 699.299 687.805 721.719 693.547 744.556Z" fill="#B73333"/>
<path d="M594.855 1136.6C594.979 1136.47 595.1 1136.35 595.225 1136.22C595.147 1136.3 595.073 1136.38 594.993 1136.46C594.983 1136.47 594.973 1136.48 594.962 1136.49C594.925 1136.53 594.892 1136.56 594.855 1136.6ZM595.871 1135.55C595.965 1135.45 596.052 1135.36 596.147 1135.27C596.052 1135.36 595.965 1135.45 595.871 1135.55ZM596.392 1135.01C596.469 1134.93 596.55 1134.84 596.628 1134.76C596.547 1134.85 596.473 1134.92 596.392 1135.01ZM597.98 1133.35C598.017 1133.31 598.054 1133.27 598.088 1133.23C598.054 1133.27 598.017 1133.31 597.98 1133.35ZM598.565 1132.73C598.575 1132.73 598.575 1132.72 598.585 1132.71C598.579 1132.72 598.572 1132.73 598.565 1132.73ZM-88.781 1073.03C-168.172 953.446 -182.996 803.659 -133.241 672.791C-131.62 671.896 -129.988 671.015 -128.327 670.181C-112.843 662.377 -95.1455 657.738 -77.8418 657.738C-74.5317 657.738 -71.2351 657.909 -67.9721 658.259C-70.4244 662.975 -72.7892 667.655 -75.0666 672.29C-91.5865 733.812 -121.586 859.193 -59.586 859.193C-54.5201 859.193 -48.8318 858.356 -42.4774 856.576C16.9083 839.609 73.9158 798.869 140.541 768.328C144.116 771.127 147.272 774.562 149.909 778.807C152.654 783.23 154.494 788.441 153.875 793.611C152.691 803.501 143.397 810.061 137.813 818.309C124.979 837.268 134.624 865.834 154.555 877.092C162.524 881.593 171.475 883.635 180.561 883.635C194.194 883.632 208.121 879.03 219.433 871.236C226.821 866.153 234.241 859.523 243.139 859.523C243.34 859.523 243.542 859.526 243.744 859.533C257.647 860.001 265.404 876.847 263.971 890.686C263.231 897.861 260.964 904.74 258.71 911.623C247.73 914.182 236.495 915.636 225.223 915.905C223.571 915.942 221.913 915.959 220.251 915.959C216.648 915.959 213.022 915.885 209.392 915.811C205.769 915.733 202.143 915.659 198.53 915.659C185.495 915.659 172.676 916.635 160.996 922.104C132.854 935.281 119.362 970.843 95.1789 988.087C90.9942 986.122 85.3564 984.945 78.6892 984.945C77.7911 984.945 76.8727 984.968 75.9409 985.012C75.5944 984.999 75.258 984.992 74.9216 984.992C64.8132 984.992 59.6127 991.101 60.0937 994.68C60.5209 995.659 61.0322 996.648 61.6377 997.623C46.1505 996.782 30.4749 991.067 14.732 990.855C14.4157 990.852 14.0928 990.848 13.7766 990.848C11.8222 990.848 9.88462 990.929 7.97394 991.087C2.99205 985.665 -1.59292 983.149 -4.11246 983.149C-4.67423 983.149 -5.13509 983.273 -5.47484 983.519C-6.74302 986.048 -7.51671 989.466 -7.23751 994.051C-23.3033 999.016 -37.5628 1009.35 -50.2345 1022.16C-51.2033 1021.04 -52.1687 1019.9 -53.124 1018.75C-60.0872 1010.25 -66.6165 1001.53 -72.7119 992.584C-127.553 912.117 -147.148 814.821 -131.489 722.331C-160.997 834.94 -143.568 957.311 -79.1907 1058.39C-81.3368 1061.56 -83.4224 1064.74 -85.4475 1067.88C-86.5475 1069.59 -87.6575 1071.31 -88.781 1073.03ZM-14.6145 896.99C-19.0749 896.99 -23.1452 897.689 -26.5394 899.503C-37.1995 907.603 -27.2155 916.719 -22.7988 923.995C-11.8225 936.125 7.66108 952.601 25.3954 952.601C29.4993 952.601 33.5091 951.72 37.2968 949.698C58.3445 940.387 28.2614 916.48 13.1543 904.373C8.64333 901.827 3.96755 899.893 -0.62413 898.615C-5.48829 897.663 -10.2381 896.99 -14.6145 896.99Z" fill="#D73D3D"/>
<path d="M-7.23216 994.051C-7.51136 989.466 -6.73767 986.048 -5.46949 983.518C-5.12974 983.273 -4.66888 983.148 -4.10711 983.148C-1.58757 983.148 2.9974 985.665 7.97929 991.087C2.73502 991.521 -2.331 992.537 -7.23216 994.051Z" fill="#BF3030"/>
<path d="M65.3345 997.724C64.1034 997.724 62.8756 997.691 61.641 997.623C61.0355 996.648 60.5242 995.659 60.097 994.68C59.616 991.101 64.8165 984.992 74.9249 984.992C75.2613 984.992 75.5977 984.999 75.9442 985.012C76.876 984.968 77.7943 984.945 78.6925 984.945C85.3597 984.945 90.9975 986.122 95.1822 988.087C89.7294 991.975 83.7315 994.932 76.8995 996.493C73.058 997.368 69.1996 997.724 65.3345 997.724Z" fill="#BF3030"/>
<path d="M25.4014 952.602C7.66711 952.602 -11.8164 936.125 -22.7927 923.995C-27.2095 916.719 -37.1935 907.603 -26.5334 899.503C-23.1392 897.69 -19.0689 896.99 -14.6084 896.99C-10.232 896.99 -5.48225 897.663 -0.618091 898.615C3.97359 899.893 8.64935 901.827 13.1603 904.374C28.2674 916.48 58.3505 940.387 37.3028 949.699C33.5151 951.72 29.5053 952.602 25.4014 952.602Z" fill="#CC3333"/>
<path d="M687.335 994.761C685.243 988.369 682.72 982.022 679.867 975.718C684.045 978.94 687.406 983.024 690.124 987.666C689.215 990.038 688.287 992.399 687.335 994.761Z" fill="#D73D3D"/>
<path d="M-59.5845 859.193C-121.584 859.193 -91.585 733.812 -75.0651 672.29C-72.7877 667.655 -70.4229 662.975 -67.9707 658.259C-55.78 659.564 -44.0468 663.389 -33.7365 670.268C-4.22869 689.95 8.35552 730.145 40.4098 745.333C46.7272 748.327 53.5996 750.258 60.7411 751.597C70.6712 760.353 80.0261 765.752 92.0789 765.752C99.5702 764.682 107.741 761.91 115.078 757.867C124.685 759.73 133.438 762.771 140.542 768.328C73.9173 798.869 16.9098 839.609 -42.4759 856.576C-48.8303 858.356 -54.5186 859.193 -59.5845 859.193Z" fill="#D84242"/>
<path d="M92.0761 765.752C80.0233 765.752 70.6684 760.353 60.7383 751.597C78.5971 754.947 98.1579 754.587 115.075 757.867C107.738 761.91 99.5674 764.682 92.0761 765.752Z" fill="#CD3939"/>
<path d="M278.683 1270.31C263.243 1270.31 247.793 1269.5 232.423 1267.89C222.84 1261.7 213.431 1255.23 204.16 1248.59C229.033 1253.05 254.235 1255.28 279.427 1255.28C339.842 1255.28 400.25 1242.47 456.242 1216.86C489.48 1203.19 519.133 1184.45 545.519 1161.98C588.687 1127.85 621.778 1086.93 648.968 1040.24C655.114 1029.44 660.745 1018.42 665.865 1007.22C670.699 996.654 675.078 985.924 678.997 975.072C679.29 975.284 679.579 975.499 679.865 975.718C682.718 982.021 685.241 988.369 687.333 994.761C667.23 1044.6 637.655 1091.51 598.587 1132.71C598.577 1132.72 598.577 1132.73 598.567 1132.73C598.409 1132.9 598.251 1133.07 598.089 1133.23C598.056 1133.27 598.019 1133.31 597.982 1133.35C597.854 1133.48 597.729 1133.61 597.602 1133.75C597.548 1133.81 597.491 1133.86 597.437 1133.92C597.329 1134.03 597.218 1134.15 597.111 1134.26C597.047 1134.33 596.976 1134.4 596.912 1134.47C596.818 1134.57 596.724 1134.66 596.63 1134.76C596.552 1134.84 596.471 1134.93 596.394 1135.01C596.313 1135.09 596.229 1135.18 596.149 1135.27C596.054 1135.36 595.967 1135.45 595.873 1135.55C595.812 1135.61 595.752 1135.68 595.688 1135.74C595.58 1135.85 595.472 1135.97 595.365 1136.08C595.318 1136.12 595.274 1136.17 595.227 1136.22C595.102 1136.35 594.981 1136.47 594.857 1136.6C594.816 1136.64 594.773 1136.69 594.732 1136.73C594.608 1136.86 594.477 1136.99 594.352 1137.12C594.308 1137.16 594.271 1137.2 594.231 1137.24C594.1 1137.38 593.969 1137.51 593.837 1137.64C593.804 1137.68 593.77 1137.71 593.737 1137.75C593.602 1137.89 593.467 1138.02 593.33 1138.16C593.299 1138.2 593.266 1138.23 593.232 1138.26C593.094 1138.4 592.96 1138.54 592.822 1138.68C592.795 1138.71 592.761 1138.74 592.734 1138.77C592.596 1138.91 592.452 1139.06 592.314 1139.19C592.287 1139.23 592.256 1139.26 592.226 1139.29C592.085 1139.43 591.94 1139.58 591.799 1139.72C591.779 1139.74 591.759 1139.76 591.738 1139.78C591.587 1139.93 591.436 1140.08 591.284 1140.23C591.271 1140.25 591.257 1140.26 591.244 1140.28C591.086 1140.44 590.928 1140.59 590.773 1140.75C590.766 1140.76 590.76 1140.77 590.749 1140.77C590.588 1140.94 590.423 1141.1 590.262 1141.26C504.217 1227.31 391.457 1270.31 278.683 1270.31Z" fill="#CF3B3B"/>
<path d="M279.427 1255.28C254.235 1255.28 229.033 1253.05 204.161 1248.59C202.163 1247.16 200.168 1245.72 198.18 1244.27C227.062 1249.29 256.307 1251.9 285.657 1251.9C320.315 1251.9 355.111 1248.27 389.641 1240.67C400.617 1237.85 411.442 1234.5 422.133 1230.7C433.647 1226.6 445.024 1221.99 456.219 1216.87C456.229 1216.86 456.232 1216.86 456.242 1216.86C400.251 1242.47 339.842 1255.28 279.427 1255.28ZM545.519 1161.98C584.547 1128.75 616.443 1087.37 642.241 1042.27C647.643 1032.82 652.783 1023.19 657.641 1013.4C663.884 1000.07 669.653 986.409 674.857 972.499C676.317 973.269 677.696 974.127 678.998 975.072C675.079 985.924 670.699 996.655 665.865 1007.22C660.745 1018.42 655.114 1029.44 648.968 1040.24C621.778 1086.93 588.688 1127.85 545.519 1161.98Z" fill="#BE3636"/>
<path d="M238.574 1144.75C226.326 1143.99 214.038 1142.7 201.783 1140.98C197.505 1131.47 190.191 1127.62 185.122 1127.62C183.676 1127.62 182.411 1127.93 181.452 1128.52C179.319 1130.78 177.338 1133.49 175.764 1136.71C147.847 1131.49 120.395 1124.39 94.2573 1116.66C82.9412 1112.71 71.7261 1108.51 60.6522 1104.13C49.7634 1099.09 39.1604 1093.57 28.8838 1087.54C-0.62068 1070.19 -27.4643 1048.64 -50.2344 1022.16C-37.5627 1009.35 -23.3033 999.016 -7.23741 994.051C-6.79675 1001.33 -3.69524 1011.54 4.30404 1025.8C8.77799 1032.58 13.9886 1037.9 18.6543 1040.88C21.406 1042.33 23.6665 1043.01 25.4493 1043.01C34.5419 1043.01 31.0704 1025.24 15.6201 1001.59C13.1107 997.311 10.4936 993.829 7.97404 991.087C9.88471 990.929 11.8223 990.849 13.7767 990.849C14.0929 990.849 14.4158 990.852 14.732 990.855C30.4749 991.067 46.1506 996.782 61.6378 997.623C65.4323 1003.73 72.9808 1009.43 87.6271 1010.52C92.7469 1010.23 97.1737 1008.36 100.067 1005.61C105.95 998.673 103.289 991.898 95.179 988.087C119.362 970.844 132.854 935.281 160.996 922.105C172.676 916.635 185.496 915.659 198.531 915.659C202.143 915.659 205.77 915.733 209.392 915.811C213.022 915.885 216.648 915.959 220.251 915.959C221.913 915.959 223.571 915.942 225.223 915.905C236.495 915.636 247.73 914.183 258.71 911.623C256.618 918.014 254.532 924.409 253.688 931.052C249.9 960.776 272.657 988.988 300.355 1000.43C315.687 1006.76 332.116 1009 348.761 1009C362.183 1009 375.749 1007.54 388.983 1005.59C402.398 1003.6 416.947 1000.47 425.45 989.91C431.156 982.822 433.14 973.541 434.953 964.627C440.621 936.781 446.199 907.522 441.6 879.935C443.343 878.169 445.092 876.094 446.831 873.672C449.26 869.157 449.973 864.404 449.132 860.499C447.376 855.18 443.982 852.658 439.885 852.658C438.122 852.658 436.228 853.125 434.281 854.037C433.752 851.803 433.571 849.553 434.156 847.336C436.349 839.007 447.057 836.992 455.655 836.575C462.779 836.228 469.964 835.892 477.126 835.892C486.478 835.892 495.786 836.467 504.858 838.354C503.041 842.536 501.46 847.282 500.186 852.678C499.997 854.595 499.953 856.479 500.048 858.305C499.328 867.479 501.884 875.818 506.617 881.752C512.188 887.356 518.196 889.953 524.082 889.953C533.945 889.953 543.462 882.66 549.971 869.985C551.091 872.343 552.006 874.805 552.682 877.375C555.673 888.711 553.812 900.731 555.077 912.39C555.804 919.074 557.691 925.532 560.52 931.57C555.925 940.101 550.926 948.427 545.517 956.51C538.941 966.8 531.934 976.892 524.607 986.731C495.301 1026.11 460.885 1061.54 426.638 1091.69C417.939 1098.18 409.068 1104.35 400.033 1110.16C393.743 1114.09 387.307 1117.66 380.751 1120.86C398.65 1103.44 401.712 1083.51 395.599 1074.99C382.507 1064.89 364.42 1057.02 340.122 1057.02C321.241 1057.02 298.606 1061.78 271.658 1073.96C254.25 1084.56 242.032 1099.19 236.71 1113.87C233.602 1126.47 234.48 1136.82 238.574 1144.75ZM219.733 1033.19C206.452 1036.6 191.406 1047.2 184.739 1075.41C183.888 1084.07 186.01 1091.98 190.077 1097.54C194.686 1102.59 199.657 1104.93 204.532 1104.93C217.482 1104.93 229.734 1088.42 232.533 1062.25C236.108 1044.26 226.35 1033.29 219.733 1033.19ZM485.176 901.121C478.674 904.478 471.34 914.583 468.205 941.053C467.828 949.17 468.908 956.544 470.93 961.691C473.184 966.289 475.602 968.418 477.964 968.418C484.358 968.418 490.346 952.786 491.601 928.139C493.269 911.27 488.425 901.127 485.176 901.121Z" fill="#CF3B3B"/>
<path d="M204.533 1104.93C199.659 1104.93 194.687 1102.59 190.079 1097.54C186.012 1091.98 183.889 1084.07 184.741 1075.41C191.408 1047.2 206.454 1036.6 219.735 1033.19C226.352 1033.29 236.11 1044.26 232.534 1062.25C229.736 1088.42 217.484 1104.93 204.533 1104.93Z" fill="#C43131"/>
<path d="M524.085 889.953C518.198 889.953 512.19 887.356 506.619 881.752C501.886 875.818 499.33 867.479 500.05 858.305C500.373 864.734 502.357 870.486 505.526 874.815C510.131 879.861 515.106 882.202 519.984 882.202C529.154 882.202 537.977 873.92 543.336 859.792C545.977 862.911 548.224 866.315 549.973 869.985C543.464 882.66 533.948 889.953 524.085 889.953Z" fill="#D04848"/>
<path d="M519.982 882.202C515.105 882.202 510.129 879.861 505.524 874.815C502.356 870.486 500.371 864.734 500.048 858.305C499.954 856.479 499.998 854.595 500.186 852.677C501.461 847.282 503.042 842.535 504.858 838.354C507.405 838.886 509.938 839.518 512.444 840.272C524.204 843.807 535.49 850.531 543.334 859.792C537.976 873.92 529.152 882.202 519.982 882.202Z" fill="#C43131"/>
<path d="M25.4524 1043.01C23.6695 1043.01 21.409 1042.33 18.6574 1040.88C13.9917 1037.9 8.78103 1032.58 4.30708 1025.8C-3.6922 1011.54 -6.79371 1001.33 -7.23438 994.051C-2.33322 992.537 2.7328 991.521 7.97708 991.087C10.4966 993.829 13.1137 997.311 15.6231 1001.59C31.0734 1025.24 34.5449 1043.01 25.4524 1043.01Z" fill="#B82E2E"/>
<path d="M477.966 968.418C475.604 968.418 473.186 966.289 470.932 961.69C468.91 956.544 467.83 949.17 468.207 941.053C471.342 914.583 478.675 904.478 485.178 901.12C488.427 901.127 493.271 911.269 491.603 928.139C490.348 952.786 484.36 968.418 477.966 968.418Z" fill="#B82E2E"/>
<path d="M87.6299 1010.52C72.9836 1009.43 65.4351 1003.73 61.6406 997.623C62.8752 997.691 64.103 997.724 65.3341 997.724C69.1992 997.724 73.0576 997.368 76.8991 996.493C83.7312 994.932 89.729 991.975 95.1818 988.087C103.292 991.898 105.953 998.673 100.069 1005.61C97.1765 1008.36 92.7497 1010.23 87.6299 1010.52Z" fill="#B82E2E"/>
<path d="M441.601 879.935C440.528 873.489 438.9 867.138 436.585 860.915C435.755 858.678 434.83 856.367 434.281 854.036C436.229 853.125 438.123 852.657 439.885 852.657C443.983 852.657 447.377 855.18 449.133 860.498C449.974 864.404 449.26 869.157 446.832 873.671C445.093 876.093 443.343 878.169 441.601 879.935Z" fill="#B82E2E"/>
<path d="M248.194 1145.23C244.988 1145.11 241.786 1144.95 238.574 1144.75C234.48 1136.82 233.602 1126.47 236.71 1113.86C242.032 1099.18 254.249 1084.56 271.657 1073.96C298.605 1061.78 321.241 1057.02 340.122 1057.02C364.419 1057.02 382.507 1064.89 395.599 1074.99C401.711 1083.51 398.65 1103.44 380.751 1120.86C380.347 1121.06 379.943 1121.26 379.54 1121.45C389.416 1107.98 390.24 1093.89 385.393 1087.13C372.849 1077.06 355.481 1069.06 332.227 1069.06C316.225 1069.06 297.431 1072.85 275.519 1082.38C260.415 1091.46 250.038 1104.35 245.772 1117.5C243.441 1128.66 244.467 1137.96 248.194 1145.23Z" fill="#D04848"/>
<path d="M263.048 1145.52C258.113 1145.53 253.158 1145.42 248.196 1145.23C244.469 1137.96 243.443 1128.66 245.774 1117.5C250.04 1104.35 260.417 1091.46 275.521 1082.38C297.433 1072.85 316.227 1069.06 332.229 1069.06C355.483 1069.06 372.851 1077.06 385.395 1087.13C390.242 1093.89 389.418 1107.98 379.542 1121.45C343.515 1138.78 303.764 1145.52 263.048 1145.52Z" fill="#C43131"/>
<path d="M264.177 1194.21C248.575 1194.21 232.967 1193.77 217.406 1192.86C206.463 1192.21 195.537 1191.34 184.642 1190.22C162.282 1190.1 140.336 1187.06 119.093 1181.51C110.381 1173.99 101.776 1166.35 93.2757 1158.58C76.897 1143.63 60.5587 1127.96 40.5066 1118.47C25.6552 1111.45 9.78778 1108.22 -6.55726 1106.78C-27.9447 1085.63 -47.0112 1062.27 -63.918 1037.59C-59.5752 1032.19 -55.0172 1027 -50.2337 1022.16C-27.4637 1048.64 -0.620035 1070.19 28.8845 1087.54C39.1611 1093.57 49.764 1099.09 60.6529 1104.13C71.7267 1108.51 82.9419 1112.71 94.2579 1116.66C120.395 1124.39 147.848 1131.49 175.765 1136.71C171.788 1144.86 170.416 1156.28 175.812 1171.99C178.937 1178.21 183.744 1182.65 188.867 1184.67C190.868 1185.22 192.739 1185.48 194.471 1185.48C209.39 1185.48 213.941 1165.99 202.501 1142.7C202.272 1142.11 202.033 1141.54 201.784 1140.98C214.039 1142.7 226.327 1143.99 238.575 1144.75C244.919 1157.04 258.983 1163.52 277.871 1163.52C278.339 1163.52 278.81 1163.52 279.284 1163.51C281.555 1163.74 283.913 1163.86 286.352 1163.86C305.041 1163.86 328.43 1157.01 353.145 1142.43C364.323 1137.1 372.48 1130.35 378.105 1123.32C379.02 1122.51 379.904 1121.69 380.752 1120.86C387.308 1117.66 393.743 1114.09 400.034 1110.16C409.069 1104.35 417.939 1098.18 426.638 1091.69C460.886 1061.54 495.302 1026.11 524.608 986.731C531.934 976.892 538.941 966.8 545.518 956.51C550.927 948.427 555.925 940.101 560.52 931.571C570.891 953.688 593.89 970.097 618.514 970.679C619.065 970.692 619.617 970.699 620.172 970.699C623.048 970.699 625.948 970.531 628.857 970.279C620.391 991.986 609.872 1012.88 597.16 1032.58C590.57 1041.84 583.597 1050.82 576.277 1059.51C539.678 1102.94 494.464 1139.07 446.095 1165.91C435.109 1171.46 424.062 1176.6 412.752 1181.07C364.511 1189.59 314.386 1194.21 264.177 1194.21Z" fill="#BE3636"/>
<path d="M285.657 1251.9C256.307 1251.89 227.062 1249.29 198.179 1244.27C196.629 1243.15 195.081 1242.01 193.534 1240.87C167.968 1222.06 143.126 1202.25 119.095 1181.51C140.338 1187.06 162.283 1190.1 184.643 1190.22C195.539 1191.34 206.465 1192.21 217.407 1192.86C232.968 1193.77 248.577 1194.21 264.178 1194.21C314.388 1194.21 364.513 1189.59 412.754 1181.06C424.063 1176.6 435.11 1171.46 446.097 1165.91C494.466 1139.07 539.679 1102.94 576.278 1059.5C583.598 1050.82 590.571 1041.84 597.161 1032.58C609.873 1012.87 620.392 991.985 628.859 970.278C631.712 970.033 634.571 969.71 637.423 969.383C643.186 968.727 648.931 968.071 654.539 968.071C660.987 968.071 667.261 968.939 673.188 971.674C673.757 971.937 674.312 972.209 674.857 972.498C669.653 986.408 663.884 1000.07 657.64 1013.4C652.783 1023.19 647.643 1032.82 642.24 1042.26C616.443 1087.37 584.547 1128.75 545.519 1161.98C537.681 1168.17 529.514 1174.15 520.99 1179.89C510.649 1187.13 500.053 1193.81 489.245 1199.97C478.44 1206.11 467.434 1211.74 456.242 1216.86C456.232 1216.86 456.229 1216.86 456.218 1216.87C445.023 1221.99 433.647 1226.6 422.132 1230.7C411.442 1234.5 400.617 1237.85 389.641 1240.67C355.111 1248.26 320.315 1251.9 285.657 1251.9ZM-6.55589 1106.78C-16.7249 1105.89 -27.0822 1105.68 -37.4934 1105.68C-39.1518 1105.68 -40.8102 1105.68 -42.4719 1105.69C-55.2748 1090 -67.0046 1073.4 -77.6445 1056.13C-73.322 1049.84 -68.7538 1043.59 -63.9166 1037.59C-47.0098 1062.27 -27.9434 1085.63 -6.55589 1106.78Z" fill="#B03131"/>
<path d="M2112.26 211.067C2284.36 383.159 2284.36 662.175 2112.26 834.264C1940.18 1006.36 1661.16 1006.36 1489.07 834.264C1316.98 662.175 1316.98 383.159 1489.07 211.067C1661.16 38.9778 1940.18 38.9778 2112.26 211.067Z" fill="#E03F3F"/>
<path d="M1816.87 415.802C1823.94 412.825 1831.95 409.925 1839.42 409.925C1843.8 409.925 1847.98 410.924 1851.68 413.487C1852.44 414.012 1853.06 414.611 1853.7 415.2C1841.42 415.401 1829.15 415.6 1816.87 415.802Z" fill="#D73D3D"/>
<path d="M1826.91 206.415C1814.21 232.804 1783.93 242.893 1757.02 246.26C1743.56 246.26 1723.38 236.165 1730.11 219.349C1736.84 185.71 1780.57 168.891 1815.37 185.855C1823.82 190.981 1828.37 198.321 1826.91 206.415Z" fill="#C73232"/>
<path d="M1706.74 768.406C1713.41 740.197 1728.45 729.597 1741.73 726.19C1748.35 726.287 1758.11 737.26 1754.53 755.247C1750.69 791.274 1728.92 808.991 1712.08 790.544C1708.01 784.98 1705.89 777.072 1706.74 768.406Z" fill="#D43535"/>
<path d="M1526.31 718.799C1513.26 695.548 1513.25 683.061 1516.53 676.518C1519.16 674.618 1529.04 679.963 1537.62 694.586C1556.1 722.876 1557.45 742.74 1540.66 733.876C1535.99 730.902 1530.78 725.58 1526.31 718.799Z" fill="#C73232"/>
<path d="M1697.82 864.986C1690.29 843.074 1695.93 829.49 1703.46 821.518C1707.97 818.766 1719.25 822.016 1724.51 835.7C1737.28 861.693 1730.12 882.956 1710.87 877.668C1705.75 875.646 1700.94 871.206 1697.82 864.986Z" fill="#D43535"/>
<path d="M1609.63 703.517C1592.64 702.256 1585.2 694.791 1582.1 687.68C1581.6 683.983 1587.17 677.585 1597.94 678.012C1619.25 677.017 1631.4 687.609 1622.07 698.609C1619.18 701.361 1614.75 703.235 1609.63 703.517Z" fill="#C73232"/>
<path d="M1844.93 388.571C1827.34 388.571 1809.71 381.514 1796.58 367.295C1799.28 364.086 1801.91 360.829 1804.47 357.529C1816.84 368.26 1832.15 373.592 1847.44 373.592C1868.96 373.592 1890.43 363.029 1903.56 342.096C1905.18 340.236 1906.47 338.342 1907.48 336.431C1908.52 343.139 1906.92 350.327 1901.05 357.075C1887.92 378.009 1866.45 388.571 1844.93 388.571Z" fill="#E14545"/>
<path d="M1793.32 315.612C1820.94 287.494 1858.64 288.042 1889.16 295.698C1903.53 301.682 1919.7 323.564 1903.55 342.096C1878.45 382.143 1822.8 384.225 1794.69 347.047C1788.4 336.734 1787.45 325.314 1793.32 315.612Z" fill="#D43535"/>
<path d="M1579.15 419.64C1597.26 394.838 1644.35 388.111 1657.81 411.658C1667.9 435.205 1637.62 455.388 1614.08 458.752C1600.62 458.752 1590.53 452.024 1579.24 441.404C1575.28 434.529 1574.93 426.63 1579.15 419.64Z" fill="#D43535"/>
<path d="M1797.52 775.379C1851.27 752.014 1886.22 763.138 1907.39 780.126C1915.01 790.749 1908.63 819.453 1875.14 835.428C1811.98 872.686 1757.55 859.446 1767.77 810.505C1772.04 797.349 1782.42 784.462 1797.52 775.379Z" fill="#D43535"/>
<path d="M1535.16 597.374C1550.27 609.48 1580.35 633.387 1559.3 642.699C1539.14 653.463 1512.72 631.934 1499.21 616.995C1494.79 609.719 1484.81 600.603 1495.47 592.503C1502.19 588.914 1511.56 589.691 1521.38 591.615C1525.97 592.893 1530.65 594.827 1535.16 597.374Z" fill="#D43535"/>
<path d="M2201.25 667.369C2200.33 665.364 2199.37 663.356 2198.39 661.354C2211.81 624.523 2221.24 585.933 2224.96 546.808C2225.51 541.032 2225.93 535.246 2226.23 529.45C2225.57 576.198 2217.25 622.848 2201.25 667.369ZM2167.63 608.451C2141.78 566.92 2116.57 525.161 2123.8 479.264C2126.49 462.196 2135.31 444.428 2151.45 438.259C2155.42 436.745 2159.58 436.019 2163.81 435.719C2164.52 439.086 2165.2 442.46 2165.86 445.838C2172.03 478.087 2175.73 510.737 2177.12 543.107C2176.42 553.902 2175.31 564.66 2173.8 575.34C2172.18 586.471 2170.12 597.521 2167.63 608.451ZM2224.86 488.643C2222.95 471.427 2219.78 454.382 2215.55 437.556C2216.22 437.589 2216.9 437.62 2217.57 437.65C2221.03 454.516 2223.46 471.541 2224.86 488.643ZM2047.36 287.894C2034.31 267.761 2019.7 248.237 2003.7 229.934C1996.42 221.622 1988.86 213.559 1981.04 205.809C1922.34 141.539 1835.76 107.967 1748.32 107.967C1745.12 107.967 1741.9 108.011 1738.7 108.102C1731.09 108.324 1723.49 108.795 1715.89 109.404C1708.34 110.211 1700.82 111.247 1693.33 112.515C1702.15 110.204 1711.04 108.179 1719.97 106.443C1720.11 106.416 1720.25 106.393 1720.39 106.369C1720.08 106.43 1719.77 106.49 1719.46 106.551C1739.93 103.379 1760.61 101.791 1781.28 101.791C1822.31 101.791 1863.33 108.038 1902.81 120.535C1914.68 124.292 1926.42 128.618 1937.97 133.506C1984.48 151.846 2023.14 181.552 2055.14 218.026C2039.97 235.609 2055.18 264.808 2047.56 287.305C2047.49 287.504 2047.42 287.699 2047.36 287.894Z" fill="#CE3A3A"/>
<path d="M2079.59 206.757C2034.18 169.227 1982.77 139.853 1928.18 121.022C1918.36 117.679 1908.45 114.671 1898.46 112.058C1866.19 103.322 1833.24 98.8848 1799.59 98.8848C1782.25 98.8848 1764.71 100.062 1746.99 102.44C1738.1 103.493 1729.23 104.832 1720.39 106.369C1747.15 101.196 1774.31 98.6089 1801.47 98.6089C1846.81 98.6089 1892.17 105.821 1935.64 120.252C1945.62 123.562 1955.49 127.252 1965.25 131.323C2007.73 149.753 2048.68 174.881 2081.1 206.515C2080.6 206.593 2080.1 206.673 2079.59 206.757Z" fill="#CE3A3A"/>
<path d="M2055.14 218.027C2023.13 181.552 1984.48 151.846 1937.97 133.506C1926.42 128.619 1914.68 124.293 1902.81 120.535C1863.33 108.038 1822.31 101.792 1781.28 101.792C1760.61 101.792 1739.93 103.379 1719.45 106.552C1719.77 106.491 1720.08 106.431 1720.38 106.37C1729.23 104.833 1738.09 103.494 1746.99 102.441C1764.71 100.063 1782.24 98.8853 1799.59 98.8853C1833.24 98.8853 1866.18 103.322 1898.45 112.058C1908.45 114.672 1918.36 117.679 1928.17 121.023C1982.77 139.854 2034.17 169.227 2079.59 206.758C2070.86 208.208 2062.21 210.653 2056.18 216.89C2055.82 217.263 2055.47 217.643 2055.14 218.027Z" fill="#BE3535"/>
<path d="M1662.54 461.329C1655.44 455.772 1646.69 452.731 1637.08 450.867C1652.81 442.205 1664.69 427.713 1657.81 411.658C1652.09 401.644 1640.28 397.102 1627.2 397.102C1609.54 397.102 1589.56 405.387 1579.16 419.64C1574.94 426.63 1575.28 434.529 1579.24 441.404C1580.42 442.514 1581.59 443.577 1582.74 444.597C1575.6 443.258 1568.73 441.327 1562.41 438.333C1530.36 423.145 1517.77 382.95 1488.27 363.268C1477.96 356.389 1466.22 352.565 1454.03 351.259C1457.95 343.721 1462.09 336.095 1466.46 328.436C1480.67 303.533 1497.31 278.294 1516.17 254.612C1523.25 245.731 1530.68 237.097 1538.6 228.872C1547.61 222.285 1557.18 216.156 1567.2 210.488C1577.22 204.823 1587.68 199.62 1598.48 194.887C1625.77 181.569 1654.66 175.608 1684.17 173.432C1694.01 172.705 1703.92 172.399 1713.86 172.379C1717.17 172.147 1720.45 172.039 1723.7 172.039C1730.65 172.039 1737.48 172.53 1744.21 173.334C1754.42 175.605 1764.95 177.943 1775.47 180.028C1753.31 183.608 1734.35 198.133 1730.11 219.349C1723.38 236.165 1743.56 246.26 1757.02 246.26C1783.93 242.892 1814.2 232.804 1826.91 206.415C1828.34 198.489 1824 191.281 1815.89 186.171C1820.25 186.554 1824.53 186.81 1828.72 186.911C1833.35 190.981 1837.35 196.155 1840.54 202.354C1850.37 234.079 1848.95 264.199 1840.02 292.261C1823.37 294.699 1807.09 301.592 1793.32 315.613C1790.07 320.988 1788.91 326.888 1789.59 332.836C1785.12 342.026 1786.37 352.501 1792.18 362.031C1793.58 363.884 1795.05 365.637 1796.58 367.295C1789.54 375.651 1782.02 383.694 1774.17 391.404C1766.82 398.636 1759.18 405.579 1751.4 412.209C1735.18 425.113 1721.72 438.569 1701.54 445.296C1688.14 450.12 1675.17 455.543 1662.54 461.329ZM1610.6 230.012C1609.86 230.012 1609.11 230.039 1608.34 230.09C1570.35 243.464 1529.98 250.192 1499.71 280.467C1489.62 293.922 1489.62 310.742 1503.07 320.833C1509.8 324.197 1516.53 327.561 1523.26 327.561C1570.35 317.469 1627.54 290.558 1623.08 233.598C1619.89 231.173 1615.62 230.012 1610.6 230.012Z" fill="#E14545"/>
<path d="M1757.02 246.26C1743.56 246.26 1723.38 236.165 1730.11 219.349C1734.35 198.133 1753.31 183.608 1775.47 180.028C1789.17 182.743 1802.87 185.027 1815.89 186.171C1824 191.281 1828.34 198.489 1826.91 206.415C1814.21 232.804 1783.93 242.893 1757.02 246.26Z" fill="#C93838"/>
<path d="M1796.58 367.295C1795.05 365.637 1793.58 363.884 1792.18 362.03C1786.37 352.501 1785.12 342.025 1789.59 332.835C1790.14 337.626 1791.88 342.449 1794.69 347.048C1797.66 350.98 1800.94 354.475 1804.46 357.53C1801.91 360.83 1799.28 364.086 1796.58 367.295Z" fill="#E24B4B"/>
<path d="M1804.47 357.53C1800.94 354.475 1797.66 350.98 1794.69 347.048C1791.89 342.45 1790.14 337.626 1789.59 332.836C1788.91 326.888 1790.07 320.988 1793.32 315.613C1807.09 301.592 1823.37 294.699 1840.02 292.261C1832.61 315.515 1820.05 337.363 1804.47 357.53Z" fill="#D53B3B"/>
<path d="M1637.08 450.867C1620.16 447.587 1600.6 447.947 1582.74 444.596C1581.58 443.577 1580.42 442.514 1579.24 441.404C1575.28 434.528 1574.93 426.63 1579.15 419.64C1589.56 405.387 1609.53 397.102 1627.2 397.102C1640.28 397.102 1652.08 401.643 1657.81 411.657C1664.69 427.713 1652.8 442.205 1637.08 450.867Z" fill="#D53B3B"/>
<path d="M1523.26 327.561C1516.53 327.561 1509.8 324.197 1503.07 320.833C1489.62 310.742 1489.62 293.922 1499.71 280.467C1529.98 250.192 1570.35 243.464 1608.34 230.09C1609.11 230.039 1609.86 230.012 1610.6 230.012C1615.62 230.012 1619.89 231.173 1623.08 233.598C1627.54 290.558 1570.35 317.469 1523.26 327.561Z" fill="#E34E4E"/>
<mask id="mask1_36_4191" style="mask-type:luminance" maskUnits="userSpaceOnUse" x="1484" y="829" width="629" height="135">
<path d="M1489.06 834.263C1488.39 833.59 1487.72 832.918 1487.06 832.242C1487.72 832.918 1488.39 833.59 1489.06 834.263ZM1487.02 832.208C1486.87 832.053 1486.72 831.895 1486.56 831.74C1486.72 831.898 1486.87 832.05 1487.02 832.208ZM1486.45 831.629C1486.33 831.501 1486.2 831.37 1486.07 831.239C1486.2 831.377 1486.32 831.491 1486.45 831.629ZM1485.87 831.041C1485.78 830.943 1485.68 830.839 1485.58 830.741C1485.68 830.839 1485.78 830.943 1485.87 831.041ZM1485.3 830.459C1485.23 830.385 1485.16 830.314 1485.09 830.243C1485.17 830.317 1485.23 830.385 1485.3 830.459ZM1484.71 829.853C1484.68 829.82 1484.65 829.783 1484.61 829.749C1484.64 829.779 1484.68 829.823 1484.71 829.853Z" fill="white"/>
</mask>
<g mask="url(#mask1_36_4191)">
<path d="M1489.06 834.263C1488.39 833.59 1487.72 832.918 1487.06 832.242C1487.72 832.918 1488.39 833.59 1489.06 834.263ZM1487.02 832.208C1486.87 832.053 1486.72 831.895 1486.56 831.74C1486.72 831.898 1486.87 832.05 1487.02 832.208ZM1486.45 831.629C1486.33 831.501 1486.2 831.37 1486.07 831.239C1486.2 831.377 1486.32 831.491 1486.45 831.629ZM1485.87 831.041C1485.78 830.943 1485.68 830.839 1485.58 830.741C1485.68 830.839 1485.78 830.943 1485.87 831.041ZM1485.3 830.459C1485.23 830.385 1485.16 830.314 1485.09 830.243C1485.17 830.317 1485.23 830.385 1485.3 830.459ZM1484.71 829.853C1484.68 829.82 1484.65 829.783 1484.61 829.749C1484.64 829.779 1484.68 829.823 1484.71 829.853Z" fill="url(#paint2_linear_36_4191)"/>
</g>
<path d="M1800.66 963.332C1687.89 963.332 1575.11 920.308 1489.07 834.263C1488.39 833.59 1487.73 832.918 1487.06 832.242C1487.05 832.231 1487.04 832.221 1487.02 832.208C1486.87 832.05 1486.72 831.898 1486.56 831.74C1486.53 831.703 1486.49 831.666 1486.45 831.629C1486.32 831.491 1486.21 831.377 1486.07 831.239C1486 831.172 1485.94 831.108 1485.87 831.041C1485.78 830.943 1485.68 830.839 1485.58 830.741C1485.49 830.647 1485.4 830.553 1485.3 830.459C1485.23 830.385 1485.17 830.317 1485.1 830.243C1484.97 830.112 1484.84 829.984 1484.72 829.853C1484.69 829.823 1484.65 829.779 1484.61 829.749C1465.21 809.791 1448.09 788.447 1433.21 766.044C1433.22 766.041 1433.22 766.037 1433.22 766.034C1440.66 777.242 1448.68 788.188 1457.25 798.828C1457.43 798.828 1457.62 798.828 1457.8 798.828C1462.27 798.828 1466.75 798.791 1471.23 798.751C1473.42 798.734 1475.61 798.717 1477.8 798.7C1485.14 807.315 1492.87 815.698 1501.01 823.839C1506.49 829.318 1512.08 834.616 1517.78 839.733C1530.35 851.506 1543.68 862.479 1557.79 872.534C1567.68 879.4 1577.85 885.801 1588.27 891.695C1598.64 897.561 1609.24 902.923 1620.05 907.74C1629.24 912.076 1638.55 916.062 1647.96 919.702C1673.4 929.538 1699.6 936.834 1726.16 941.591C1735.43 948.231 1744.84 954.7 1754.42 960.886C1769.79 962.497 1785.24 963.305 1800.68 963.305C1913.46 963.308 2026.22 920.308 2112.26 834.263C2026.22 920.308 1913.44 963.332 1800.66 963.332Z" fill="#D73D3D"/>
<path d="M1726.16 941.591C1699.6 936.835 1673.4 929.539 1647.96 919.703C1638.55 916.063 1629.24 912.077 1620.05 907.741C1620.1 907.761 1620.15 907.784 1620.2 907.805C1628.86 911.895 1637.6 915.656 1646.39 919.033C1670.61 926.821 1695.26 932.946 1720.18 937.272C1722.17 938.719 1724.16 940.162 1726.16 941.591ZM1641.1 874.512C1628.29 871.165 1615.74 866.907 1603.5 861.824C1592.66 857.276 1582.06 852.082 1571.79 846.209C1551.43 832.454 1532.69 816.832 1515.45 799.781C1531.79 801.224 1547.66 804.45 1562.51 811.473C1582.56 820.963 1598.9 836.625 1615.28 851.584C1623.78 859.348 1632.38 866.991 1641.1 874.512ZM1517.78 839.733C1512.08 834.617 1506.49 829.319 1501.01 823.839C1492.87 815.698 1485.14 807.316 1477.8 798.701C1478.38 798.697 1478.95 798.694 1479.53 798.691C1491.36 813.192 1504.12 826.937 1517.78 839.733Z" fill="#C63838"/>
<path d="M2112.75 833.772C2112.76 833.766 2112.77 833.759 2112.77 833.749C2112.77 833.759 2112.76 833.766 2112.75 833.772ZM2113.24 833.278C2113.26 833.265 2113.27 833.248 2113.28 833.234C2113.27 833.251 2113.26 833.261 2113.24 833.278ZM2113.74 832.78C2113.76 832.757 2113.78 832.74 2113.8 832.716C2113.78 832.74 2113.76 832.76 2113.74 832.78ZM2114.23 832.286C2114.26 832.255 2114.29 832.225 2114.31 832.195C2114.28 832.228 2114.26 832.252 2114.23 832.286ZM2114.73 831.771C2114.76 831.744 2114.79 831.71 2114.82 831.684C2114.79 831.714 2114.76 831.741 2114.73 831.771ZM2115.23 831.263C2115.26 831.229 2115.3 831.196 2115.33 831.162C2115.3 831.196 2115.26 831.233 2115.23 831.263ZM2116.23 830.24C2116.27 830.2 2116.31 830.163 2116.35 830.119C2116.31 830.16 2116.27 830.203 2116.23 830.24ZM2116.73 829.726C2116.77 829.685 2116.82 829.638 2116.86 829.598C2116.82 829.642 2116.78 829.685 2116.73 829.726ZM2117.23 829.218C2117.27 829.171 2117.32 829.124 2117.36 829.077C2117.32 829.12 2117.27 829.174 2117.23 829.218ZM2118.15 828.266C2118.23 828.182 2118.31 828.091 2118.39 828.007C2118.31 828.094 2118.23 828.182 2118.15 828.266ZM2118.63 827.761C2118.72 827.664 2118.82 827.566 2118.91 827.469C2118.82 827.569 2118.73 827.664 2118.63 827.761ZM2119.11 827.263C2119.22 827.149 2119.33 827.035 2119.44 826.92C2119.33 827.035 2119.22 827.149 2119.11 827.263ZM2120.09 826.234C2120.25 826.066 2120.41 825.901 2120.57 825.733C2120.41 825.901 2120.25 826.069 2120.09 826.234ZM2120.59 825.713C2159.65 784.505 2189.23 737.596 2209.33 687.76C2209.34 687.767 2209.34 687.77 2209.34 687.781C2189.23 737.61 2159.65 784.512 2120.59 825.713ZM1870.76 702C1854.12 702 1837.69 699.756 1822.36 693.425C1794.66 681.988 1771.9 653.775 1775.69 624.052C1776.53 617.408 1778.62 611.014 1780.71 604.622C1803.28 599.365 1824.77 589.428 1843.29 575.478C1846.66 572.938 1850.07 570.075 1851.53 566.119C1855.28 555.971 1843.78 546.061 1833.01 545.088C1831.85 544.984 1830.69 544.937 1829.53 544.937C1825.08 544.937 1820.64 545.623 1816.19 546.31C1811.75 546.996 1807.3 547.685 1802.84 547.685C1802.14 547.685 1801.44 547.669 1800.74 547.632C1771.44 546.111 1755.46 502.67 1776.79 482.524C1791.87 468.281 1815.25 468.776 1834.54 461.147C1852.97 453.857 1867.31 427.824 1853.7 415.199C1869.11 414.951 1884.52 414.698 1899.93 414.449C1905.99 414.352 1912.24 414.207 1917.74 411.671C1928.41 406.753 1933.26 394.428 1936.05 383.017C1938.83 371.614 1940.92 359.231 1949.07 350.781C1953.1 346.61 1959.24 344.282 1965.01 344.282C1970.93 344.282 1976.46 346.738 1978.88 352.167C1991.17 322.686 2036.65 317.815 2047.36 287.894C2063.93 313.483 2077.98 340.064 2089.14 366.373C2092.66 377.312 2095.83 388.373 2098.7 399.5C2104.44 421.759 2108.96 444.297 2112.43 466.754C2112.84 476.809 2112.81 487.005 2112.42 497.197C2111.26 527.778 2106.94 558.224 2099.03 587.884C2095.13 598.695 2090.44 609.271 2085.16 619.561C2084.3 621.236 2083.42 622.908 2082.52 624.57C2079.69 618.532 2077.8 612.073 2077.08 605.389C2075.81 593.73 2077.67 581.711 2074.68 570.375C2074.01 567.805 2073.09 565.342 2071.97 562.984C2075.76 555.607 2078.53 546.4 2079.76 535.75C2084.04 515.846 2072.26 503.686 2064.28 503.565C2063.15 503.831 2062 504.137 2060.85 504.487C2059.59 503.827 2058.34 503.477 2057.18 503.461C2046.44 506.219 2034.54 513.68 2026.86 531.354C2017.79 529.467 2008.48 528.891 1999.13 528.891C1991.97 528.891 1984.78 529.228 1977.66 529.574C1969.06 529.991 1958.35 532.006 1956.16 540.335C1955.57 542.552 1955.75 544.803 1956.28 547.036C1951.1 549.465 1945.53 555.035 1940.98 563.344C1934.99 572.316 1937.55 580.402 1940.96 581.906C1941.97 582.044 1943.02 582.125 1944.12 582.125C1949.88 582.125 1956.7 579.938 1963.6 572.935C1968.2 600.522 1962.62 629.781 1956.95 657.627C1955.14 666.541 1953.16 675.822 1947.45 682.91C1938.95 693.469 1924.4 696.601 1910.98 698.585C1897.75 700.536 1884.18 701.996 1870.76 702ZM1990.89 458.365C1980.2 458.365 1967.88 463.7 1961.41 472.742C1958.82 477.101 1958.95 481.972 1961.26 486.177C1967.8 492.525 1973.69 496.551 1981.54 496.551C1981.67 496.551 1981.8 496.551 1981.92 496.548C1996.04 494.247 2014.34 481.495 2008.54 467.057C2005.28 461.066 1998.5 458.365 1990.89 458.365Z" fill="#D73D3D"/>
<path d="M1620.05 907.741C1609.24 902.924 1598.64 897.562 1588.27 891.696C1577.85 885.802 1567.68 879.401 1557.79 872.535C1543.68 862.48 1530.35 851.507 1517.78 839.734C1530.05 850.761 1542.81 860.943 1555.98 870.288C1565.63 877.127 1575.49 883.518 1585.55 889.459C1595.6 895.403 1605.85 900.889 1616.27 905.935C1617.52 906.544 1618.78 907.146 1620.05 907.741Z" fill="#C63838"/>
<path d="M1720.18 937.272C1695.26 932.947 1670.61 926.821 1646.39 919.034C1637.6 915.656 1628.86 911.895 1620.19 907.805C1620.14 907.785 1620.1 907.761 1620.05 907.741C1618.78 907.146 1617.52 906.544 1616.27 905.935C1605.85 900.889 1595.6 895.402 1585.55 889.458C1575.49 883.518 1565.63 877.126 1555.98 870.288C1542.81 860.943 1530.05 850.76 1517.78 839.734C1504.12 826.938 1491.36 813.193 1479.53 798.691C1481.19 798.684 1482.85 798.678 1484.51 798.678C1494.92 798.678 1505.27 798.886 1515.44 799.781C1532.68 816.832 1551.43 832.454 1571.78 846.209C1582.06 852.082 1592.65 857.276 1603.5 861.824C1615.73 866.907 1628.29 871.166 1641.09 874.513C1665.13 895.254 1689.97 915.064 1715.53 933.875C1717.08 935.012 1718.63 936.146 1720.18 937.272ZM2196.86 665.499C2196.31 665.209 2195.76 664.937 2195.19 664.675C2189.26 661.94 2182.99 661.072 2176.54 661.072C2170.93 661.072 2165.18 661.728 2159.42 662.384C2156.57 662.71 2153.71 663.033 2150.86 663.279C2157.8 645.487 2163.36 627.147 2167.63 608.451C2178.57 626.03 2189.63 643.563 2198.39 661.354C2197.88 662.74 2197.37 664.116 2196.86 665.499Z" fill="#B73333"/>
<path d="M2116.85 829.598C2116.98 829.47 2117.1 829.346 2117.22 829.218C2117.15 829.299 2117.07 829.376 2116.99 829.457C2116.98 829.467 2116.97 829.48 2116.96 829.491C2116.93 829.528 2116.89 829.561 2116.85 829.598ZM2117.87 828.549C2117.96 828.454 2118.05 828.364 2118.15 828.266C2118.05 828.36 2117.96 828.454 2117.87 828.549ZM2118.39 828.007C2118.47 827.926 2118.55 827.842 2118.63 827.761C2118.55 827.846 2118.47 827.923 2118.39 828.007ZM2119.98 826.349C2120.02 826.312 2120.05 826.275 2120.09 826.234C2120.05 826.271 2120.02 826.312 2119.98 826.349ZM2120.57 825.733C2120.58 825.726 2120.58 825.723 2120.59 825.713C2120.58 825.72 2120.57 825.726 2120.57 825.733ZM1433.22 766.034C1353.83 646.446 1339 496.659 1388.76 365.791C1390.38 364.896 1392.01 364.015 1393.67 363.181C1409.16 355.377 1426.85 350.738 1444.16 350.738C1447.47 350.738 1450.76 350.909 1454.03 351.259C1451.58 355.975 1449.21 360.655 1446.93 365.29C1430.41 426.812 1400.41 552.193 1462.41 552.193C1467.48 552.193 1473.17 551.356 1479.52 549.576C1538.91 532.609 1595.92 491.869 1662.54 461.328C1666.12 464.127 1669.27 467.562 1671.91 471.807C1674.65 476.23 1676.49 481.441 1675.88 486.611C1674.69 496.501 1665.4 503.061 1659.81 511.309C1646.98 530.268 1656.62 558.834 1676.55 570.092C1684.52 574.593 1693.47 576.635 1702.56 576.635C1716.19 576.632 1730.12 572.03 1741.43 564.236C1748.82 559.153 1756.24 552.523 1765.14 552.523C1765.34 552.523 1765.54 552.526 1765.74 552.533C1779.65 553.001 1787.4 569.847 1785.97 583.686C1785.23 590.861 1782.96 597.74 1780.71 604.623C1769.73 607.182 1758.49 608.636 1747.22 608.905C1745.57 608.942 1743.91 608.959 1742.25 608.959C1738.65 608.959 1735.02 608.885 1731.39 608.811C1727.77 608.733 1724.14 608.659 1720.53 608.659C1707.5 608.659 1694.68 609.635 1683 615.104C1654.85 628.281 1641.36 663.843 1617.18 681.087C1612.99 679.122 1607.36 677.945 1600.69 677.945C1599.79 677.945 1598.87 677.968 1597.94 678.012C1597.59 677.999 1597.26 677.992 1596.92 677.992C1586.81 677.992 1581.61 684.101 1582.09 687.68C1582.52 688.659 1583.03 689.648 1583.64 690.623C1568.15 689.782 1552.47 684.067 1536.73 683.855C1536.42 683.852 1536.09 683.848 1535.78 683.848C1533.82 683.848 1531.88 683.929 1529.97 684.087C1524.99 678.665 1520.41 676.149 1517.89 676.149C1517.33 676.149 1516.86 676.273 1516.53 676.519C1515.26 679.048 1514.48 682.466 1514.76 687.051C1498.7 692.016 1484.44 702.346 1471.77 715.163C1470.8 714.036 1469.83 712.895 1468.88 711.752C1461.91 703.255 1455.38 694.525 1449.29 685.584C1394.45 605.117 1374.85 507.821 1390.51 415.331C1361 527.94 1378.43 650.311 1442.81 751.392C1440.66 754.564 1438.58 757.736 1436.55 760.884C1435.45 762.593 1434.34 764.312 1433.22 766.034ZM1507.39 589.99C1502.93 589.99 1498.85 590.689 1495.46 592.503C1484.8 600.603 1494.78 609.719 1499.2 616.995C1510.18 629.125 1529.66 645.601 1547.4 645.601C1551.5 645.601 1555.51 644.72 1559.3 642.698C1580.34 633.387 1550.26 609.48 1535.15 597.373C1530.64 594.827 1525.97 592.893 1521.38 591.615C1516.51 590.663 1511.76 589.99 1507.39 589.99Z" fill="#D73D3D"/>
<path d="M1514.77 687.051C1514.49 682.466 1515.26 679.048 1516.53 676.518C1516.87 676.273 1517.33 676.148 1517.89 676.148C1520.41 676.148 1525 678.665 1529.98 684.087C1524.74 684.521 1519.67 685.537 1514.77 687.051Z" fill="#BF3030"/>
<path d="M1587.33 690.724C1586.1 690.724 1584.88 690.691 1583.64 690.623C1583.04 689.648 1582.52 688.659 1582.1 687.68C1581.62 684.101 1586.82 677.992 1596.92 677.992C1597.26 677.992 1597.6 677.999 1597.94 678.012C1598.88 677.968 1599.79 677.945 1600.69 677.945C1607.36 677.945 1613 679.122 1617.18 681.087C1611.73 684.975 1605.73 687.932 1598.9 689.493C1595.06 690.368 1591.2 690.724 1587.33 690.724Z" fill="#BF3030"/>
<path d="M1547.4 645.602C1529.67 645.602 1510.18 629.125 1499.21 616.995C1494.79 609.719 1484.81 600.603 1495.47 592.503C1498.86 590.69 1502.93 589.99 1507.39 589.99C1511.77 589.99 1516.52 590.663 1521.38 591.615C1525.97 592.893 1530.65 594.827 1535.16 597.374C1550.27 609.48 1580.35 633.387 1559.3 642.699C1555.52 644.72 1551.51 645.602 1547.4 645.602Z" fill="#CC3333"/>
<path d="M1442.81 751.392C1378.43 650.311 1361.01 527.94 1390.51 415.331C1374.86 507.821 1394.45 605.117 1449.29 685.584C1455.39 694.525 1461.92 703.255 1468.88 711.752C1469.83 712.895 1470.8 714.036 1471.77 715.163C1466.99 720 1462.43 725.194 1458.08 730.586C1431.36 691.569 1410.01 649.211 1393.34 606.866C1390.92 597.898 1388.85 588.829 1387.09 579.71C1378.29 534.116 1377.45 487.291 1384.55 441.458C1374.98 490.359 1374.06 540.618 1381.78 589.781C1383.33 599.604 1385.22 609.379 1387.5 619.02C1400.38 664.284 1419.37 708.583 1444.36 749.131C1443.84 749.885 1443.32 750.638 1442.81 751.392Z" fill="#C63838"/>
<path d="M1444.35 749.131C1419.37 708.583 1400.38 664.284 1387.5 619.02C1385.21 609.379 1383.32 599.604 1381.78 589.781C1374.06 540.618 1374.98 490.359 1384.55 441.458C1377.45 487.291 1378.29 534.116 1387.09 579.71C1388.85 588.829 1390.92 597.898 1393.34 606.866C1410.01 649.211 1431.36 691.568 1458.08 730.586C1453.25 736.59 1448.68 742.844 1444.35 749.131Z" fill="#B73333"/>
<path d="M1462.42 552.193C1400.42 552.193 1430.41 426.812 1446.93 365.29C1449.21 360.655 1451.58 355.975 1454.03 351.259C1466.22 352.564 1477.95 356.389 1488.26 363.268C1517.77 382.95 1530.36 423.145 1562.41 438.333C1568.73 441.327 1575.6 443.258 1582.74 444.597C1592.67 453.353 1602.03 458.752 1614.08 458.752C1621.57 457.682 1629.74 454.91 1637.08 450.867C1646.68 452.73 1655.44 455.771 1662.54 461.328C1595.92 491.869 1538.91 532.609 1479.52 549.576C1473.17 551.356 1467.48 552.193 1462.42 552.193Z" fill="#D84242"/>
<path d="M1614.08 458.752C1602.02 458.752 1592.67 453.353 1582.74 444.597C1600.6 447.947 1620.16 447.587 1637.07 450.867C1629.74 454.91 1621.57 457.682 1614.08 458.752Z" fill="#CD3939"/>
<path d="M1800.68 963.305C1785.24 963.305 1769.79 962.498 1754.42 960.887C1744.84 954.7 1735.43 948.232 1726.16 941.591C1751.03 946.045 1776.23 948.275 1801.43 948.275C1861.84 948.275 1922.25 935.469 1978.24 909.857C2011.48 896.189 2041.13 877.446 2067.52 854.978C2110.69 820.845 2143.78 779.934 2170.97 733.237C2177.11 722.439 2182.74 711.419 2187.86 700.22C2192.7 689.654 2197.08 678.924 2201 668.072C2201.29 668.284 2201.58 668.499 2201.87 668.718C2204.72 675.021 2207.24 681.369 2209.33 687.761C2189.23 737.596 2159.66 784.505 2120.59 825.713C2120.58 825.723 2120.58 825.726 2120.57 825.733C2120.41 825.901 2120.25 826.066 2120.09 826.234C2120.06 826.275 2120.02 826.312 2119.98 826.349C2119.85 826.483 2119.73 826.614 2119.6 826.749C2119.55 826.806 2119.49 826.863 2119.44 826.92C2119.33 827.035 2119.22 827.149 2119.11 827.264C2119.05 827.331 2118.98 827.401 2118.91 827.469C2118.82 827.566 2118.72 827.664 2118.63 827.761C2118.55 827.842 2118.47 827.926 2118.39 828.007C2118.31 828.091 2118.23 828.182 2118.15 828.266C2118.05 828.364 2117.97 828.454 2117.87 828.549C2117.81 828.612 2117.75 828.676 2117.69 828.74C2117.58 828.855 2117.47 828.966 2117.36 829.077C2117.32 829.124 2117.27 829.171 2117.23 829.218C2117.1 829.346 2116.98 829.47 2116.86 829.598C2116.82 829.638 2116.77 829.686 2116.73 829.726C2116.61 829.857 2116.48 829.988 2116.35 830.119C2116.31 830.163 2116.27 830.2 2116.23 830.241C2116.1 830.378 2115.97 830.51 2115.84 830.644C2115.8 830.681 2115.77 830.715 2115.74 830.749C2115.6 830.89 2115.47 831.024 2115.33 831.162C2115.3 831.196 2115.27 831.23 2115.23 831.263C2115.09 831.404 2114.96 831.542 2114.82 831.684C2114.79 831.711 2114.76 831.744 2114.73 831.771C2114.6 831.912 2114.45 832.057 2114.31 832.195C2114.29 832.225 2114.26 832.256 2114.23 832.286C2114.08 832.427 2113.94 832.575 2113.8 832.716C2113.78 832.74 2113.76 832.757 2113.74 832.78C2113.59 832.932 2113.44 833.083 2113.28 833.234C2113.27 833.248 2113.26 833.265 2113.24 833.278C2113.09 833.436 2112.93 833.594 2112.77 833.749C2112.77 833.759 2112.76 833.766 2112.75 833.773C2112.59 833.937 2112.42 834.099 2112.26 834.264C2026.22 920.308 1913.46 963.309 1800.68 963.305Z" fill="#CF3B3B"/>
<path d="M1801.43 948.276C1776.24 948.276 1751.03 946.046 1726.16 941.592C1724.16 940.162 1722.17 938.719 1720.18 937.273C1749.06 942.292 1778.31 944.895 1807.66 944.899C1842.32 944.899 1877.11 941.266 1911.64 933.67C1922.62 930.854 1933.44 927.501 1944.13 923.696C1955.65 919.599 1967.02 914.99 1978.22 909.867C1978.23 909.864 1978.23 909.864 1978.24 909.857C1922.25 935.47 1861.84 948.276 1801.43 948.276ZM2067.52 854.979C2106.55 821.747 2138.44 780.372 2164.24 735.266C2169.64 725.816 2174.78 716.189 2179.64 706.397C2185.88 693.066 2191.65 679.409 2196.86 665.499C2198.32 666.269 2199.7 667.127 2201 668.072C2197.08 678.924 2192.7 689.655 2187.87 700.221C2182.75 711.419 2177.11 722.439 2170.97 733.237C2143.78 779.934 2110.69 820.846 2067.52 854.979Z" fill="#BE3636"/>
<path d="M1760.57 837.749C1748.33 836.992 1736.04 835.704 1723.78 833.985C1719.5 824.465 1712.19 820.62 1707.12 820.62C1705.68 820.62 1704.41 820.933 1703.45 821.518C1701.32 823.779 1699.34 826.487 1697.76 829.709C1669.85 824.485 1642.39 817.388 1616.26 809.657C1604.94 805.708 1593.73 801.507 1582.65 797.134C1571.76 792.091 1561.16 786.568 1550.88 780.54C1521.38 763.192 1494.54 741.64 1471.77 715.163C1484.44 702.347 1498.7 692.016 1514.76 687.051C1515.2 694.327 1518.3 704.536 1526.3 718.799C1530.78 725.581 1535.99 730.902 1540.65 733.876C1543.41 735.329 1545.67 736.009 1547.45 736.009C1556.54 736.009 1553.07 718.244 1537.62 694.586C1535.11 690.311 1532.49 686.829 1529.97 684.087C1531.88 683.929 1533.82 683.849 1535.78 683.849C1536.09 683.849 1536.42 683.852 1536.73 683.855C1552.47 684.067 1568.15 689.782 1583.64 690.623C1587.43 696.732 1594.98 702.427 1609.63 703.517C1614.75 703.235 1619.17 701.361 1622.07 698.609C1627.95 691.673 1625.29 684.898 1617.18 681.087C1641.36 663.844 1654.85 628.281 1683 615.105C1694.68 609.635 1707.5 608.659 1720.53 608.659C1724.14 608.659 1727.77 608.733 1731.39 608.811C1735.02 608.885 1738.65 608.959 1742.25 608.959C1743.91 608.959 1745.57 608.942 1747.22 608.905C1758.5 608.636 1769.73 607.183 1780.71 604.623C1778.62 611.014 1776.53 617.409 1775.69 624.052C1771.9 653.776 1794.66 681.988 1822.35 693.426C1837.69 699.756 1854.12 702 1870.76 702C1884.18 701.997 1897.75 700.537 1910.98 698.586C1924.4 696.601 1938.95 693.469 1947.45 682.91C1953.16 675.822 1955.14 666.541 1956.95 657.627C1962.62 629.781 1968.2 600.522 1963.6 572.935C1965.34 571.169 1967.09 569.094 1968.83 566.672C1971.26 562.157 1971.97 557.404 1971.13 553.499C1969.38 548.18 1965.98 545.658 1961.88 545.658C1960.12 545.658 1958.23 546.125 1956.28 547.037C1955.75 544.803 1955.57 542.553 1956.16 540.336C1958.35 532.007 1969.06 529.992 1977.65 529.575C1984.78 529.228 1991.96 528.892 1999.13 528.892C2008.48 528.892 2017.79 529.467 2026.86 531.354C2025.04 535.536 2023.46 540.282 2022.19 545.678C2022 547.595 2021.95 549.479 2022.05 551.305C2021.33 560.479 2023.88 568.818 2028.62 574.752C2034.19 580.356 2040.2 582.953 2046.08 582.953C2055.95 582.953 2065.46 575.66 2071.97 562.985C2073.09 565.343 2074.01 567.805 2074.68 570.375C2077.67 581.711 2075.81 593.731 2077.08 605.39C2077.8 612.074 2079.69 618.532 2082.52 624.57C2077.92 633.101 2072.93 641.427 2067.52 649.51C2060.94 659.8 2053.93 669.892 2046.61 679.731C2017.3 719.109 1982.89 754.537 1948.64 784.694C1939.94 791.176 1931.07 797.352 1922.03 803.158C1915.74 807.094 1909.31 810.656 1902.75 813.862C1920.65 796.437 1923.71 776.513 1917.6 767.989C1904.51 757.894 1886.42 750.016 1862.12 750.016C1843.24 750.016 1820.61 754.776 1793.66 766.956C1776.25 777.563 1764.03 792.185 1758.71 806.865C1755.6 819.466 1756.48 829.817 1760.57 837.749ZM1741.73 726.19C1728.45 729.597 1713.41 740.197 1706.74 768.406C1705.89 777.072 1708.01 784.98 1712.08 790.544C1716.69 795.59 1721.66 797.931 1726.53 797.931C1739.48 797.931 1751.73 781.421 1754.53 755.247C1758.11 737.26 1748.35 726.287 1741.73 726.19ZM2007.18 594.121C2000.67 597.478 1993.34 607.583 1990.21 634.053C1989.83 642.17 1990.91 649.544 1992.93 654.691C1995.18 659.289 1997.6 661.418 1999.96 661.418C2006.36 661.418 2012.35 645.786 2013.6 621.139C2015.27 604.27 2010.43 594.127 2007.18 594.121Z" fill="#CF3B3B"/>
<path d="M1726.53 797.931C1721.66 797.931 1716.69 795.589 1712.08 790.544C1708.01 784.98 1705.89 777.071 1706.74 768.406C1713.41 740.197 1728.45 729.597 1741.73 726.189C1748.35 726.287 1758.11 737.26 1754.53 755.247C1751.74 781.421 1739.48 797.931 1726.53 797.931Z" fill="#C43131"/>
<path d="M1547.45 736.009C1545.67 736.009 1543.41 735.329 1540.66 733.876C1535.99 730.902 1530.78 725.581 1526.31 718.799C1518.31 704.536 1515.21 694.327 1514.77 687.051C1519.67 685.537 1524.73 684.521 1529.98 684.087C1532.5 686.829 1535.11 690.311 1537.62 694.586C1553.07 718.244 1556.54 736.009 1547.45 736.009Z" fill="#B82E2E"/>
<path d="M1723.79 833.985C1715.09 832.764 1706.41 831.327 1697.77 829.709C1699.34 826.487 1701.33 823.779 1703.46 821.518C1704.42 820.933 1705.68 820.62 1707.13 820.62C1712.2 820.62 1719.51 824.465 1723.79 833.985Z" fill="#C43131"/>
<path d="M1609.63 703.517C1594.98 702.427 1587.44 696.732 1583.64 690.623C1584.88 690.691 1586.1 690.724 1587.33 690.724C1591.2 690.724 1595.06 690.368 1598.9 689.493C1605.73 687.932 1611.73 684.975 1617.18 681.087C1625.29 684.898 1627.95 691.673 1622.07 698.609C1619.18 701.361 1614.75 703.235 1609.63 703.517Z" fill="#B82E2E"/>
<path d="M1770.19 838.233C1766.99 838.112 1763.79 837.947 1760.57 837.749C1756.48 829.817 1755.6 819.466 1758.71 806.865C1764.03 792.185 1776.25 777.562 1793.66 766.956C1820.61 754.775 1843.24 750.015 1862.12 750.015C1886.42 750.015 1904.51 757.894 1917.6 767.989C1923.71 776.513 1920.65 796.437 1902.75 813.862C1902.35 814.057 1901.94 814.255 1901.54 814.447C1911.42 800.981 1912.24 786.89 1907.39 780.125C1894.85 770.064 1877.48 762.058 1854.23 762.058C1838.23 762.058 1819.43 765.853 1797.52 775.379C1782.42 784.461 1772.04 797.348 1767.77 810.505C1765.44 821.663 1766.47 830.964 1770.19 838.233Z" fill="#D04848"/>
<path d="M1785.05 838.522C1780.11 838.526 1775.16 838.425 1770.2 838.233C1766.47 830.964 1765.44 821.663 1767.77 810.505C1772.04 797.349 1782.42 784.462 1797.52 775.379C1819.43 765.853 1838.23 762.058 1854.23 762.058C1877.48 762.058 1894.85 770.064 1907.4 780.126C1912.24 786.89 1911.42 800.982 1901.54 814.447C1865.51 831.785 1825.76 838.522 1785.05 838.522Z" fill="#C43131"/>
<path d="M1786.18 887.215C1770.58 887.215 1754.97 886.767 1739.41 885.856C1728.46 885.21 1717.54 884.339 1706.64 883.219C1684.28 883.101 1662.34 880.063 1641.09 874.513C1632.38 866.991 1623.78 859.349 1615.28 851.585C1598.9 836.626 1582.56 820.963 1562.51 811.474C1547.66 804.45 1531.79 801.224 1515.44 799.781C1494.06 778.629 1474.99 755.274 1458.08 730.586C1462.42 725.194 1466.98 720 1471.77 715.163C1494.54 741.64 1521.38 763.192 1550.88 780.54C1561.16 786.568 1571.76 792.091 1582.65 797.134C1593.73 801.507 1604.94 805.708 1616.26 809.657C1642.4 817.388 1669.85 824.485 1697.76 829.71C1693.79 837.86 1692.42 849.284 1697.81 864.986C1700.94 871.206 1705.74 875.646 1710.87 877.668C1712.87 878.22 1714.74 878.482 1716.47 878.482C1731.39 878.482 1735.94 858.989 1724.5 835.701C1724.27 835.108 1724.03 834.537 1723.78 833.985C1736.04 835.704 1748.33 836.992 1760.57 837.749C1766.92 850.044 1780.98 856.52 1799.87 856.52C1800.34 856.52 1800.81 856.516 1801.28 856.509C1803.55 856.738 1805.91 856.856 1808.35 856.856C1827.04 856.856 1850.43 850.007 1875.14 835.428C1886.32 830.096 1894.48 823.345 1900.1 816.325C1901.02 815.511 1901.9 814.686 1902.75 813.862C1909.31 810.657 1915.74 807.094 1922.03 803.158C1931.07 797.352 1939.94 791.176 1948.64 784.694C1982.89 754.537 2017.3 719.109 2046.61 679.731C2053.93 669.892 2060.94 659.8 2067.52 649.51C2072.93 641.427 2077.93 633.101 2082.52 624.571C2092.89 646.688 2115.89 663.097 2140.51 663.679C2141.07 663.692 2141.62 663.699 2142.17 663.699C2145.05 663.699 2147.95 663.531 2150.86 663.279C2142.39 684.986 2131.87 705.875 2119.16 725.581C2112.57 734.838 2105.6 743.82 2098.28 752.505C2061.68 795.943 2016.46 832.071 1968.1 858.915C1957.11 864.462 1946.06 869.598 1934.75 874.065C1886.51 882.593 1836.39 887.215 1786.18 887.215Z" fill="#BE3636"/>
<path d="M1716.48 878.482C1714.74 878.482 1712.87 878.22 1710.87 877.668C1705.75 875.646 1700.94 871.206 1697.82 864.986C1692.42 849.284 1693.79 837.86 1697.77 829.709C1706.41 831.327 1715.09 832.764 1723.79 833.985C1724.04 834.536 1724.28 835.108 1724.51 835.7C1735.95 858.988 1731.4 878.482 1716.48 878.482Z" fill="#B42D2D"/>
<path d="M1799.87 856.519C1780.98 856.519 1766.92 850.044 1760.57 837.749C1763.79 837.947 1766.99 838.112 1770.19 838.233C1775.59 848.749 1786.61 855.019 1801.28 856.509C1800.81 856.516 1800.34 856.519 1799.87 856.519ZM1900.1 816.324C1900.6 815.702 1901.08 815.076 1901.54 814.447C1901.94 814.255 1902.35 814.057 1902.75 813.862C1901.9 814.686 1901.02 815.51 1900.1 816.324Z" fill="#C04242"/>
<path d="M1808.36 856.855C1805.92 856.855 1803.56 856.738 1801.29 856.509C1786.62 855.019 1775.59 848.749 1770.2 838.233C1775.16 838.425 1780.12 838.526 1785.05 838.522C1825.77 838.522 1865.52 831.785 1901.54 814.447C1901.09 815.076 1900.61 815.702 1900.11 816.324C1894.48 823.345 1886.33 830.096 1875.15 835.428C1850.43 850.007 1827.05 856.855 1808.36 856.855Z" fill="#B42D2D"/>
<path d="M1457.8 798.829C1457.62 798.829 1457.43 798.829 1457.25 798.829C1448.68 788.189 1440.66 777.243 1433.22 766.034C1434.35 764.312 1435.46 762.593 1436.56 760.884C1438.58 757.736 1440.67 754.563 1442.81 751.391C1453.24 767.767 1464.9 783.577 1477.8 798.701C1475.61 798.718 1473.42 798.734 1471.23 798.751C1466.75 798.792 1462.27 798.829 1457.8 798.829Z" fill="#CF3B3B"/>
<path d="M1477.8 798.701C1464.9 783.577 1453.24 767.767 1442.81 751.392C1443.32 750.638 1443.84 749.885 1444.36 749.131C1455 766.405 1466.73 782.999 1479.53 798.691C1478.95 798.694 1478.38 798.698 1477.8 798.701Z" fill="#BE3636"/>
<path d="M1807.66 944.898C1778.31 944.895 1749.06 942.291 1720.18 937.272C1718.63 936.145 1717.08 935.012 1715.53 933.875C1689.97 915.064 1665.13 895.254 1641.09 874.512C1662.34 880.063 1684.28 883.1 1706.64 883.218C1717.54 884.338 1728.46 885.209 1739.41 885.855C1754.97 886.767 1770.58 887.214 1786.18 887.214C1836.39 887.214 1886.51 882.592 1934.75 874.065C1946.06 869.598 1957.11 864.461 1968.1 858.914C2016.47 832.07 2061.68 795.942 2098.28 752.505C2105.6 743.819 2112.57 734.838 2119.16 725.58C2131.87 705.875 2142.39 684.985 2150.86 663.278C2153.71 663.033 2156.57 662.71 2159.42 662.383C2165.19 661.727 2170.93 661.071 2176.54 661.071C2182.99 661.071 2189.26 661.939 2195.19 664.674C2195.76 664.937 2196.31 665.209 2196.86 665.498C2191.65 679.408 2185.88 693.065 2179.64 706.396C2174.78 716.188 2169.64 725.816 2164.24 735.265C2138.44 780.371 2106.55 821.747 2067.52 854.978C2059.68 861.175 2051.51 867.149 2042.99 872.891C2032.65 880.13 2022.05 886.807 2011.24 892.97C2000.44 899.112 1989.43 904.74 1978.24 909.857C1978.23 909.863 1978.23 909.863 1978.22 909.867C1967.02 914.99 1955.65 919.598 1944.13 923.696C1933.44 927.5 1922.62 930.854 1911.64 933.669C1877.11 941.265 1842.31 944.898 1807.66 944.898ZM1515.44 799.781C1505.28 798.886 1494.92 798.677 1484.51 798.677C1482.85 798.677 1481.19 798.684 1479.53 798.691C1466.73 782.998 1455 766.404 1444.36 749.131C1448.68 742.844 1453.25 736.59 1458.08 730.586C1474.99 755.273 1494.06 778.629 1515.44 799.781Z" fill="#B03131"/>
</g>
<defs>
<linearGradient id="paint0_linear_36_4191" x1="321.5" y1="-6.01699e-05" x2="1515" y2="592.5" gradientUnits="userSpaceOnUse">
<stop stop-color="#AC1D39" stop-opacity="0.59"/>
<stop offset="1" stop-color="#9B1C2B" stop-opacity="0.5"/>
</linearGradient>
<linearGradient id="paint1_linear_36_4191" x1="-124.189" y1="426.811" x2="519.794" y2="1070.79" gradientUnits="userSpaceOnUse">
<stop stop-color="#1A2333"/>
<stop offset="1" stop-color="#261237"/>
</linearGradient>
<linearGradient id="paint2_linear_36_4191" x1="1397.81" y1="119.811" x2="2041.79" y2="763.794" gradientUnits="userSpaceOnUse">
<stop stop-color="#172030"/>
<stop offset="1" stop-color="#240F34"/>
</linearGradient>
<clipPath id="clip0_36_4191">
<rect width="1920" height="1080" fill="white"/>
</clipPath>
</defs>
</svg>
