<svg width="1019" height="265" viewBox="0 0 1019 265" fill="none" xmlns="http://www.w3.org/2000/svg">
<path d="M941.5 1H81.5L1 133.5L81.5 264H941.5L1017.5 133.5L941.5 1Z" fill="white" stroke="#AC1D39"/>
<path d="M278.088 164V95.008H256.328V84.128H313.288V95.008H290.504V164H278.088ZM351.688 165.408C347.421 165.408 343.496 164.725 339.912 163.36C336.328 161.995 333.213 160.032 330.568 157.472C328.008 154.827 326.003 151.584 324.552 147.744C323.101 143.904 322.376 139.552 322.376 134.688C322.376 129.739 323.101 125.344 324.552 121.504C326.003 117.579 327.965 114.293 330.44 111.648C333 109.003 335.944 106.955 339.272 105.504C342.685 104.053 346.312 103.328 350.152 103.328C353.48 103.328 356.637 103.925 359.624 105.12C362.696 106.315 365.341 108.107 367.56 110.496C369.864 112.8 371.656 115.744 372.936 119.328C374.301 122.912 374.984 127.093 374.984 131.872C374.984 132.725 374.984 133.707 374.984 134.816C374.984 135.84 374.941 136.736 374.856 137.504H334.664C334.835 140.576 335.432 143.264 336.456 145.568C337.48 147.787 338.76 149.621 340.296 151.072C341.917 152.523 343.752 153.589 345.8 154.272C347.848 154.955 349.981 155.296 352.2 155.296C354.163 155.296 355.955 155.125 357.576 154.784C359.283 154.357 360.904 153.717 362.44 152.864C363.976 152.011 365.384 150.859 366.664 149.408L373.32 155.936C371.528 158.069 369.523 159.861 367.304 161.312C365.085 162.677 362.653 163.701 360.008 164.384C357.448 165.067 354.675 165.408 351.688 165.408ZM334.92 127.904H362.568C362.568 125.515 362.269 123.424 361.672 121.632C361.075 119.84 360.179 118.304 358.984 117.024C357.875 115.744 356.509 114.805 354.888 114.208C353.267 113.525 351.475 113.184 349.512 113.184C347.635 113.184 345.885 113.483 344.264 114.08C342.728 114.677 341.32 115.573 340.04 116.768C338.76 117.963 337.651 119.499 336.712 121.376C335.859 123.168 335.261 125.344 334.92 127.904ZM389.704 164V153.888H406.6V88.48H390.472V78.368H419.528V153.888H436.296V164H389.704ZM479.688 165.408C475.421 165.408 471.496 164.725 467.912 163.36C464.328 161.995 461.213 160.032 458.568 157.472C456.008 154.827 454.003 151.584 452.552 147.744C451.101 143.904 450.376 139.552 450.376 134.688C450.376 129.739 451.101 125.344 452.552 121.504C454.003 117.579 455.965 114.293 458.44 111.648C461 109.003 463.944 106.955 467.272 105.504C470.685 104.053 474.312 103.328 478.152 103.328C481.48 103.328 484.637 103.925 487.624 105.12C490.696 106.315 493.341 108.107 495.56 110.496C497.864 112.8 499.656 115.744 500.936 119.328C502.301 122.912 502.984 127.093 502.984 131.872C502.984 132.725 502.984 133.707 502.984 134.816C502.984 135.84 502.941 136.736 502.856 137.504H462.664C462.835 140.576 463.432 143.264 464.456 145.568C465.48 147.787 466.76 149.621 468.296 151.072C469.917 152.523 471.752 153.589 473.8 154.272C475.848 154.955 477.981 155.296 480.2 155.296C482.163 155.296 483.955 155.125 485.576 154.784C487.283 154.357 488.904 153.717 490.44 152.864C491.976 152.011 493.384 150.859 494.664 149.408L501.32 155.936C499.528 158.069 497.523 159.861 495.304 161.312C493.085 162.677 490.653 163.701 488.008 164.384C485.448 165.067 482.675 165.408 479.688 165.408ZM462.92 127.904H490.568C490.568 125.515 490.269 123.424 489.672 121.632C489.075 119.84 488.179 118.304 486.984 117.024C485.875 115.744 484.509 114.805 482.888 114.208C481.267 113.525 479.475 113.184 477.512 113.184C475.635 113.184 473.885 113.483 472.264 114.08C470.728 114.677 469.32 115.573 468.04 116.768C466.76 117.963 465.651 119.499 464.712 121.376C463.859 123.168 463.261 125.344 462.92 127.904ZM539.848 186.528C535.752 186.528 532.04 186.187 528.712 185.504C525.384 184.821 522.525 183.797 520.136 182.432C517.832 181.152 516.083 179.531 514.888 177.568C513.693 175.691 513.096 173.557 513.096 171.168C513.096 168.949 513.608 166.944 514.632 165.152C515.656 163.36 517.021 161.824 518.728 160.544C520.435 159.179 522.312 158.155 524.36 157.472L529.992 160.032C528.627 160.885 527.432 161.739 526.408 162.592C525.384 163.445 524.573 164.384 523.976 165.408C523.464 166.517 523.208 167.797 523.208 169.248C523.208 170.528 523.635 171.637 524.488 172.576C525.341 173.515 526.536 174.283 528.072 174.88C529.608 175.477 531.443 175.947 533.576 176.288C535.709 176.629 538.099 176.8 540.744 176.8C544.243 176.8 547.144 176.459 549.448 175.776C551.752 175.179 553.459 174.283 554.568 173.088C555.763 171.893 556.36 170.528 556.36 168.992C556.36 167.456 556.019 166.219 555.336 165.28C554.653 164.427 553.373 163.787 551.496 163.36C549.619 162.848 546.888 162.592 543.304 162.592C540.403 162.592 537.629 162.507 534.984 162.336C532.424 162.08 530.035 161.653 527.816 161.056C525.683 160.459 523.805 159.691 522.184 158.752C520.563 157.813 519.283 156.661 518.344 155.296C517.491 153.845 517.064 152.139 517.064 150.176C517.064 147.616 517.832 145.312 519.368 143.264C520.904 141.131 522.824 139.211 525.128 137.504L530.888 141.088C530.12 141.941 529.437 142.667 528.84 143.264C528.243 143.861 527.773 144.459 527.432 145.056C527.091 145.568 526.92 146.208 526.92 146.976C526.92 148.085 527.56 149.024 528.84 149.792C530.12 150.56 532.168 151.115 534.984 151.456C537.885 151.797 541.725 151.968 546.504 151.968C550.515 151.968 553.843 152.395 556.488 153.248C559.219 154.016 561.352 155.125 562.888 156.576C564.424 158.027 565.491 159.691 566.088 161.568C566.771 163.36 567.112 165.365 567.112 167.584C567.112 169.973 566.6 172.277 565.576 174.496C564.552 176.8 562.931 178.848 560.712 180.64C558.579 182.432 555.763 183.84 552.264 184.864C548.851 185.973 544.712 186.528 539.848 186.528ZM538.184 144.032C534.003 144.032 530.291 143.136 527.048 141.344C523.805 139.467 521.245 136.992 519.368 133.92C517.576 130.848 516.68 127.392 516.68 123.552C516.68 119.712 517.576 116.256 519.368 113.184C521.245 110.027 523.805 107.552 527.048 105.76C530.291 103.883 534.003 102.944 538.184 102.944C542.451 102.944 546.205 103.883 549.448 105.76C552.691 107.552 555.208 110.027 557 113.184C558.877 116.256 559.816 119.712 559.816 123.552C559.816 127.392 558.877 130.848 557 133.92C555.208 136.992 552.691 139.467 549.448 141.344C546.205 143.136 542.451 144.032 538.184 144.032ZM538.184 134.432C540.317 134.432 542.195 133.963 543.816 133.024C545.437 132.085 546.717 130.805 547.656 129.184C548.595 127.477 549.064 125.6 549.064 123.552C549.064 121.419 548.595 119.584 547.656 118.048C546.717 116.427 545.395 115.147 543.688 114.208C542.067 113.269 540.232 112.8 538.184 112.8C536.221 112.8 534.429 113.269 532.808 114.208C531.187 115.147 529.864 116.427 528.84 118.048C527.901 119.669 527.432 121.504 527.432 123.552C527.432 125.515 527.901 127.349 528.84 129.056C529.779 130.677 531.059 132 532.68 133.024C534.301 133.963 536.136 134.432 538.184 134.432ZM556.232 115.232L551.368 109.216C553.843 107.168 556.531 105.632 559.432 104.608C562.419 103.499 565.704 103.072 569.288 103.328L570.568 112.416C567.923 112.075 565.363 112.117 562.888 112.544C560.413 112.885 558.195 113.781 556.232 115.232ZM585.672 104.736H598.856L598.6 121.632L597.064 120.224C597.491 117.664 598.301 115.36 599.496 113.312C600.691 111.179 602.141 109.387 603.848 107.936C605.64 106.485 607.603 105.376 609.736 104.608C611.869 103.755 614.088 103.328 616.392 103.328C619.635 103.328 622.579 103.883 625.224 104.992C627.869 106.101 630.259 107.765 632.392 109.984L627.016 120.48L626.504 121.632L625.48 121.12C625.224 120.437 624.968 119.755 624.712 119.072C624.456 118.389 623.816 117.579 622.792 116.64C621.512 115.787 620.232 115.147 618.952 114.72C617.757 114.293 616.349 114.08 614.728 114.08C612.68 114.08 610.675 114.464 608.712 115.232C606.835 115.915 605.128 117.024 603.592 118.56C602.056 120.096 600.819 122.059 599.88 124.448C599.027 126.752 598.6 129.568 598.6 132.896V164.128H585.672V104.736ZM662.856 165.408C656.285 165.408 651.165 163.915 647.496 160.928C643.912 157.856 642.12 153.888 642.12 149.024C642.12 145.781 642.845 142.88 644.296 140.32C645.832 137.675 647.965 135.413 650.696 133.536C653.512 131.659 656.883 130.208 660.808 129.184C664.733 128.075 669.171 127.52 674.12 127.52C675.144 127.52 676.211 127.563 677.32 127.648C678.515 127.648 679.752 127.691 681.032 127.776C682.397 127.861 683.763 127.947 685.128 128.032L685.512 137.12C684.317 136.949 683.037 136.821 681.672 136.736C680.392 136.651 679.112 136.608 677.832 136.608C676.552 136.608 675.357 136.608 674.248 136.608C670.92 136.608 668.019 136.864 665.544 137.376C663.155 137.803 661.149 138.485 659.528 139.424C657.992 140.363 656.84 141.515 656.072 142.88C655.304 144.245 654.92 145.824 654.92 147.616C654.92 149.067 655.176 150.347 655.688 151.456C656.2 152.48 656.883 153.291 657.736 153.888C658.675 154.485 659.741 154.955 660.936 155.296C662.216 155.552 663.581 155.68 665.032 155.68C667.848 155.68 670.323 155.211 672.456 154.272C674.589 153.333 676.381 151.968 677.832 150.176C679.368 148.299 680.52 145.995 681.288 143.264C682.056 140.448 682.44 137.163 682.44 133.408C682.44 128.203 681.843 124.149 680.648 121.248C679.539 118.347 677.875 116.341 675.656 115.232C673.437 114.123 670.664 113.568 667.336 113.568C664.605 113.568 661.96 114.037 659.4 114.976C656.925 115.829 654.493 117.451 652.104 119.84L645.32 112.16C648.563 109.088 652.104 106.869 655.944 105.504C659.869 104.139 663.88 103.456 667.976 103.456C671.731 103.456 675.187 103.925 678.344 104.864C681.587 105.717 684.403 107.168 686.792 109.216C689.267 111.264 691.144 114.037 692.424 117.536C693.789 121.035 694.472 125.472 694.472 130.848V164H681.16V156.704C680.051 158.411 678.813 159.861 677.448 161.056C676.083 162.165 674.589 163.061 672.968 163.744C671.432 164.341 669.811 164.768 668.104 165.024C666.397 165.28 664.648 165.408 662.856 165.408ZM705.224 164V104.736H716.104V109.6C717.043 108.235 718.067 107.125 719.176 106.272C720.371 105.333 721.608 104.608 722.888 104.096C724.253 103.584 725.619 103.328 726.984 103.328C728.52 103.328 729.971 103.627 731.336 104.224C732.701 104.821 733.896 105.675 734.92 106.784C735.944 107.893 736.712 109.344 737.224 111.136C738.077 109.429 739.101 108.021 740.296 106.912C741.576 105.803 743.027 104.949 744.648 104.352C746.355 103.669 748.147 103.328 750.024 103.328C752.072 103.328 753.821 103.755 755.272 104.608C756.808 105.376 758.045 106.485 758.984 107.936C760.008 109.301 760.733 111.008 761.16 113.056C761.672 115.019 761.885 117.237 761.8 119.712V164H750.664V123.04C750.664 120.053 750.493 117.835 750.152 116.384C749.811 114.933 749.299 113.952 748.616 113.44C748.019 112.928 747.293 112.672 746.44 112.672C745.16 112.672 743.923 113.269 742.728 114.464C741.619 115.573 740.68 117.109 739.912 119.072C739.229 121.035 738.888 123.211 738.888 125.6V164H728.136V123.552C728.136 119.115 727.752 116.171 726.984 114.72C726.301 113.269 725.064 112.544 723.272 112.544C722.419 112.544 721.565 112.843 720.712 113.44C719.944 113.952 719.219 114.763 718.536 115.872C717.853 116.896 717.299 118.176 716.872 119.712C716.531 121.248 716.36 123.04 716.36 125.088V164H705.224Z" fill="#AC1D39"/>
</svg>
