<svg width="1019" height="265" viewBox="0 0 1019 265" fill="none" xmlns="http://www.w3.org/2000/svg">
<path d="M941.5 1H81.5L1 133.5L81.5 264H941.5L1017.5 133.5L941.5 1Z" fill="white" stroke="#AC1D39"/>
<path d="M258.888 164.128V84.256H278.728C283.421 84.256 287.347 84.6827 290.504 85.536C293.747 86.3893 296.477 87.6267 298.696 89.248C301 90.8693 303.005 92.8747 304.712 95.264C306.504 97.6533 307.997 100.341 309.192 103.328C310.472 106.315 311.411 109.6 312.008 113.184C312.605 116.683 312.904 120.48 312.904 124.576C312.819 130.72 312.051 136.224 310.6 141.088C309.235 145.952 307.101 150.091 304.2 153.504C301.384 156.917 297.757 159.563 293.32 161.44C288.883 163.232 283.507 164.128 277.192 164.128H258.888ZM271.048 154.144H276.936C282.653 154.144 287.219 152.992 290.632 150.688C294.131 148.299 296.648 144.928 298.184 140.576C299.805 136.139 300.616 130.933 300.616 124.96C300.616 118.645 299.891 113.227 298.44 108.704C296.989 104.181 294.643 100.683 291.4 98.208C288.243 95.648 283.848 94.368 278.216 94.368H271.048V154.144ZM351.688 165.408C347.421 165.408 343.496 164.725 339.912 163.36C336.328 161.995 333.213 160.032 330.568 157.472C328.008 154.827 326.003 151.584 324.552 147.744C323.101 143.904 322.376 139.552 322.376 134.688C322.376 129.739 323.101 125.344 324.552 121.504C326.003 117.579 327.965 114.293 330.44 111.648C333 109.003 335.944 106.955 339.272 105.504C342.685 104.053 346.312 103.328 350.152 103.328C353.48 103.328 356.637 103.925 359.624 105.12C362.696 106.315 365.341 108.107 367.56 110.496C369.864 112.8 371.656 115.744 372.936 119.328C374.301 122.912 374.984 127.093 374.984 131.872C374.984 132.725 374.984 133.707 374.984 134.816C374.984 135.84 374.941 136.736 374.856 137.504H334.664C334.835 140.576 335.432 143.264 336.456 145.568C337.48 147.787 338.76 149.621 340.296 151.072C341.917 152.523 343.752 153.589 345.8 154.272C347.848 154.955 349.981 155.296 352.2 155.296C354.163 155.296 355.955 155.125 357.576 154.784C359.283 154.357 360.904 153.717 362.44 152.864C363.976 152.011 365.384 150.859 366.664 149.408L373.32 155.936C371.528 158.069 369.523 159.861 367.304 161.312C365.085 162.677 362.653 163.701 360.008 164.384C357.448 165.067 354.675 165.408 351.688 165.408ZM334.92 127.904H362.568C362.568 125.515 362.269 123.424 361.672 121.632C361.075 119.84 360.179 118.304 358.984 117.024C357.875 115.744 356.509 114.805 354.888 114.208C353.267 113.525 351.475 113.184 349.512 113.184C347.635 113.184 345.885 113.483 344.264 114.08C342.728 114.677 341.32 115.573 340.04 116.768C338.76 117.963 337.651 119.499 336.712 121.376C335.859 123.168 335.261 125.344 334.92 127.904ZM385.352 164L405.96 134.304L385.736 104.736H399.304L412.872 124.32L425.672 104.736H438.6L419.656 133.664L441.032 164H427.208L412.744 143.776L399.304 164H385.352ZM483.272 165.152C479.773 165.152 476.744 164.597 474.184 163.488C471.709 162.293 469.704 160.416 468.168 157.856C466.717 155.296 465.693 151.968 465.096 147.872C464.499 143.776 464.285 138.784 464.456 132.896L466.12 90.4L479.176 88.736L480.456 88.608L480.584 89.76C480.157 90.3573 479.773 90.9547 479.432 91.552C479.176 92.1493 478.963 93.1733 478.792 94.624L477.512 111.136L478.024 112.544L477.128 132.896C476.872 138.699 477.043 143.221 477.64 146.464C478.237 149.621 479.261 151.84 480.712 153.12C482.163 154.315 483.912 154.912 485.96 154.912C488.691 154.912 491.123 154.357 493.256 153.248C495.475 152.139 497.651 150.773 499.784 149.152L502.6 158.624C499.699 160.757 496.669 162.379 493.512 163.488C490.355 164.597 486.941 165.152 483.272 165.152ZM452.936 104.736H497.608L497.48 114.976H452.936V104.736ZM541 165.28C535.624 165.28 530.845 164 526.664 161.44C522.483 158.795 519.155 155.168 516.68 150.56C514.205 145.867 512.968 140.491 512.968 134.432C512.968 128.459 514.205 123.168 516.68 118.56C519.155 113.867 522.483 110.197 526.664 107.552C530.845 104.821 535.624 103.456 541 103.456C546.291 103.456 551.027 104.821 555.208 107.552C559.475 110.197 562.845 113.867 565.32 118.56C567.795 123.168 569.032 128.459 569.032 134.432C569.032 140.405 567.795 145.739 565.32 150.432C562.845 155.04 559.475 158.667 555.208 161.312C551.027 163.957 546.291 165.28 541 165.28ZM541 154.912C543.901 154.912 546.461 154.059 548.68 152.352C550.984 150.56 552.776 148.128 554.056 145.056C555.336 141.984 555.976 138.4 555.976 134.304C555.976 130.123 555.336 126.496 554.056 123.424C552.776 120.352 550.984 117.963 548.68 116.256C546.461 114.549 543.901 113.696 541 113.696C538.099 113.696 535.496 114.549 533.192 116.256C530.973 117.963 529.224 120.352 527.944 123.424C526.664 126.496 526.024 130.123 526.024 134.304C526.024 138.4 526.664 141.984 527.944 145.056C529.224 148.128 530.973 150.56 533.192 152.352C535.496 154.059 538.099 154.912 541 154.912ZM605 165.28C599.624 165.28 594.845 164 590.664 161.44C586.483 158.795 583.155 155.168 580.68 150.56C578.205 145.867 576.968 140.491 576.968 134.432C576.968 128.459 578.205 123.168 580.68 118.56C583.155 113.867 586.483 110.197 590.664 107.552C594.845 104.821 599.624 103.456 605 103.456C610.291 103.456 615.027 104.821 619.208 107.552C623.475 110.197 626.845 113.867 629.32 118.56C631.795 123.168 633.032 128.459 633.032 134.432C633.032 140.405 631.795 145.739 629.32 150.432C626.845 155.04 623.475 158.667 619.208 161.312C615.027 163.957 610.291 165.28 605 165.28ZM605 154.912C607.901 154.912 610.461 154.059 612.68 152.352C614.984 150.56 616.776 148.128 618.056 145.056C619.336 141.984 619.976 138.4 619.976 134.304C619.976 130.123 619.336 126.496 618.056 123.424C616.776 120.352 614.984 117.963 612.68 116.256C610.461 114.549 607.901 113.696 605 113.696C602.099 113.696 599.496 114.549 597.192 116.256C594.973 117.963 593.224 120.352 591.944 123.424C590.664 126.496 590.024 130.123 590.024 134.304C590.024 138.4 590.664 141.984 591.944 145.056C593.224 148.128 594.973 150.56 597.192 152.352C599.496 154.059 602.099 154.912 605 154.912ZM645.704 164V153.888H662.6V88.48H646.472V78.368H675.528V153.888H692.296V164H645.704ZM733.896 165.408C730.312 165.408 726.941 165.067 723.784 164.384C720.627 163.701 717.64 162.677 714.824 161.312C712.093 159.947 709.576 158.197 707.272 156.064L713.16 145.312L713.928 144.16L714.824 144.672C714.995 145.355 715.208 146.08 715.464 146.848C715.72 147.531 716.317 148.384 717.256 149.408C719.304 151.2 721.651 152.651 724.296 153.76C726.941 154.784 730.184 155.296 734.024 155.296C736.669 155.296 738.888 154.997 740.68 154.4C742.557 153.717 744.008 152.821 745.032 151.712C746.056 150.517 746.568 149.195 746.568 147.744C746.568 146.635 746.269 145.696 745.672 144.928C745.16 144.075 744.349 143.307 743.24 142.624C742.131 141.856 740.68 141.131 738.888 140.448C737.096 139.68 734.92 138.955 732.36 138.272C728.008 136.992 724.211 135.541 720.968 133.92C717.725 132.213 715.208 130.208 713.416 127.904C711.624 125.6 710.728 122.869 710.728 119.712C710.728 116.555 711.624 113.781 713.416 111.392C715.293 108.917 717.939 106.955 721.352 105.504C724.765 104.053 728.819 103.328 733.512 103.328C736.072 103.328 738.461 103.541 740.68 103.968C742.984 104.309 745.075 104.864 746.952 105.632C748.915 106.4 750.749 107.381 752.456 108.576C754.163 109.685 755.784 111.008 757.32 112.544L750.792 121.248L750.024 122.272L749.128 121.504C749.043 120.821 748.829 120.181 748.488 119.584C748.232 118.987 747.635 118.219 746.696 117.28C744.819 115.915 742.771 114.891 740.552 114.208C738.333 113.525 736.072 113.184 733.768 113.184C730.781 113.184 728.136 113.696 725.832 114.72C723.613 115.744 722.504 117.28 722.504 119.328C722.504 120.523 722.973 121.632 723.912 122.656C724.936 123.68 726.557 124.704 728.776 125.728C730.995 126.667 734.024 127.648 737.864 128.672C742.728 129.952 746.653 131.445 749.64 133.152C752.627 134.773 754.803 136.693 756.168 138.912C757.619 141.131 758.344 143.733 758.344 146.72C758.344 150.048 757.405 153.163 755.528 156.064C753.736 158.88 751.005 161.141 747.336 162.848C743.667 164.555 739.187 165.408 733.896 165.408Z" fill="#AC1D39"/>
</svg>
