<svg width="1019" height="594" viewBox="0 0 1019 594" fill="none" xmlns="http://www.w3.org/2000/svg">
<path d="M941.5 330H81.5L1 462.5L81.5 593H941.5L1017.5 462.5L941.5 330Z" fill="#AC1D39" stroke="#AC1D39"/>
<path d="M161.424 404.416H150.048L150.768 401.008H160.608L161.424 404.416ZM156 391.024L149.328 412H144.672L155.088 381.76H156.96L167.376 412H162.576L156 391.024ZM193.68 412V382.096H197.712L204.048 396.112L210.48 382.048H214.464V412H210.288V390.544L205.008 401.92H202.8L197.808 390.64V412H193.68ZM225.696 412.528C223.232 412.528 221.312 411.968 219.936 410.848C218.592 409.696 217.92 408.208 217.92 406.384C217.92 405.168 218.192 404.08 218.736 403.12C219.312 402.128 220.112 401.28 221.136 400.576C222.192 399.872 223.456 399.328 224.928 398.944C226.4 398.528 228.064 398.32 229.92 398.32C230.304 398.32 230.704 398.336 231.12 398.368C231.568 398.368 232.032 398.384 232.512 398.416C233.024 398.448 233.536 398.48 234.048 398.512L234.192 401.92C233.744 401.856 233.264 401.808 232.752 401.776C232.272 401.744 231.792 401.728 231.312 401.728C230.832 401.728 230.384 401.728 229.968 401.728C228.72 401.728 227.632 401.824 226.704 402.016C225.808 402.176 225.056 402.432 224.448 402.784C223.872 403.136 223.44 403.568 223.152 404.08C222.864 404.592 222.72 405.184 222.72 405.856C222.72 406.4 222.816 406.88 223.008 407.296C223.2 407.68 223.456 407.984 223.776 408.208C224.128 408.432 224.528 408.608 224.976 408.736C225.456 408.832 225.968 408.88 226.512 408.88C227.568 408.88 228.496 408.704 229.296 408.352C230.096 408 230.768 407.488 231.312 406.816C231.888 406.112 232.32 405.248 232.608 404.224C232.896 403.168 233.04 401.936 233.04 400.528C233.04 398.576 232.816 397.056 232.368 395.968C231.952 394.88 231.328 394.128 230.496 393.712C229.664 393.296 228.624 393.088 227.376 393.088C226.352 393.088 225.36 393.264 224.4 393.616C223.472 393.936 222.56 394.544 221.664 395.44L219.12 392.56C220.336 391.408 221.664 390.576 223.104 390.064C224.576 389.552 226.08 389.296 227.616 389.296C229.024 389.296 230.32 389.472 231.504 389.824C232.72 390.144 233.776 390.688 234.672 391.456C235.6 392.224 236.304 393.264 236.784 394.576C237.296 395.888 237.552 397.552 237.552 399.568V412H232.56V409.264C232.144 409.904 231.68 410.448 231.168 410.896C230.656 411.312 230.096 411.648 229.488 411.904C228.912 412.128 228.304 412.288 227.664 412.384C227.024 412.48 226.368 412.528 225.696 412.528ZM244.752 389.776H249.696L249.6 396.112L249.024 395.584C249.184 394.624 249.488 393.76 249.936 392.992C250.384 392.192 250.928 391.52 251.568 390.976C252.24 390.432 252.976 390.016 253.776 389.728C254.576 389.408 255.408 389.248 256.272 389.248C257.488 389.248 258.592 389.456 259.584 389.872C260.576 390.288 261.472 390.912 262.272 391.744L260.256 395.68L260.064 396.112L259.68 395.92C259.584 395.664 259.488 395.408 259.392 395.152C259.296 394.896 259.056 394.592 258.672 394.24C258.192 393.92 257.712 393.68 257.232 393.52C256.784 393.36 256.256 393.28 255.648 393.28C254.88 393.28 254.128 393.424 253.392 393.712C252.688 393.968 252.048 394.384 251.472 394.96C250.896 395.536 250.432 396.272 250.08 397.168C249.76 398.032 249.6 399.088 249.6 400.336V412.048H244.752V389.776ZM278.352 412.432C277.04 412.432 275.904 412.224 274.944 411.808C274.016 411.36 273.264 410.656 272.688 409.696C272.144 408.736 271.76 407.488 271.536 405.952C271.312 404.416 271.232 402.544 271.296 400.336L271.92 384.4L276.816 383.776L277.296 383.728L277.344 384.16C277.184 384.384 277.04 384.608 276.912 384.832C276.816 385.056 276.736 385.44 276.672 385.984L276.192 392.176L276.384 392.704L276.048 400.336C275.952 402.512 276.016 404.208 276.24 405.424C276.464 406.608 276.848 407.44 277.392 407.92C277.936 408.368 278.592 408.592 279.36 408.592C280.384 408.592 281.296 408.384 282.096 407.968C282.928 407.552 283.744 407.04 284.544 406.432L285.6 409.984C284.512 410.784 283.376 411.392 282.192 411.808C281.008 412.224 279.728 412.432 278.352 412.432ZM266.976 389.776H283.728L283.68 393.616H266.976V389.776ZM292.32 412V408.208H297.84V393.568H292.56V389.776H302.64V408.208H307.68V412H292.32ZM299.952 385.792C299.088 385.792 298.352 385.504 297.744 384.928C297.168 384.32 296.88 383.616 296.88 382.816C296.88 381.952 297.168 381.232 297.744 380.656C298.32 380.08 299.056 379.792 299.952 379.792C300.784 379.792 301.504 380.096 302.112 380.704C302.752 381.312 303.072 382.016 303.072 382.816C303.072 383.616 302.752 384.32 302.112 384.928C301.504 385.504 300.784 385.792 299.952 385.792ZM321.696 412.528C319.232 412.528 317.312 411.968 315.936 410.848C314.592 409.696 313.92 408.208 313.92 406.384C313.92 405.168 314.192 404.08 314.736 403.12C315.312 402.128 316.112 401.28 317.136 400.576C318.192 399.872 319.456 399.328 320.928 398.944C322.4 398.528 324.064 398.32 325.92 398.32C326.304 398.32 326.704 398.336 327.12 398.368C327.568 398.368 328.032 398.384 328.512 398.416C329.024 398.448 329.536 398.48 330.048 398.512L330.192 401.92C329.744 401.856 329.264 401.808 328.752 401.776C328.272 401.744 327.792 401.728 327.312 401.728C326.832 401.728 326.384 401.728 325.968 401.728C324.72 401.728 323.632 401.824 322.704 402.016C321.808 402.176 321.056 402.432 320.448 402.784C319.872 403.136 319.44 403.568 319.152 404.08C318.864 404.592 318.72 405.184 318.72 405.856C318.72 406.4 318.816 406.88 319.008 407.296C319.2 407.68 319.456 407.984 319.776 408.208C320.128 408.432 320.528 408.608 320.976 408.736C321.456 408.832 321.968 408.88 322.512 408.88C323.568 408.88 324.496 408.704 325.296 408.352C326.096 408 326.768 407.488 327.312 406.816C327.888 406.112 328.32 405.248 328.608 404.224C328.896 403.168 329.04 401.936 329.04 400.528C329.04 398.576 328.816 397.056 328.368 395.968C327.952 394.88 327.328 394.128 326.496 393.712C325.664 393.296 324.624 393.088 323.376 393.088C322.352 393.088 321.36 393.264 320.4 393.616C319.472 393.936 318.56 394.544 317.664 395.44L315.12 392.56C316.336 391.408 317.664 390.576 319.104 390.064C320.576 389.552 322.08 389.296 323.616 389.296C325.024 389.296 326.32 389.472 327.504 389.824C328.72 390.144 329.776 390.688 330.672 391.456C331.6 392.224 332.304 393.264 332.784 394.576C333.296 395.888 333.552 397.552 333.552 399.568V412H328.56V409.264C328.144 409.904 327.68 410.448 327.168 410.896C326.656 411.312 326.096 411.648 325.488 411.904C324.912 412.128 324.304 412.288 323.664 412.384C323.024 412.48 322.368 412.528 321.696 412.528ZM338.88 412V389.776H343.68V393.184C344.224 392.384 344.832 391.696 345.504 391.12C346.176 390.544 346.928 390.096 347.76 389.776C348.592 389.424 349.488 389.248 350.448 389.248C351.696 389.248 352.848 389.568 353.904 390.208C354.96 390.848 355.808 391.856 356.448 393.232C357.088 394.576 357.408 396.368 357.408 398.608V412H352.656V398.656C352.656 397.344 352.512 396.272 352.224 395.44C351.936 394.608 351.52 394 350.976 393.616C350.464 393.232 349.84 393.04 349.104 393.04C348.464 393.04 347.824 393.184 347.184 393.472C346.544 393.76 345.952 394.16 345.408 394.672C344.896 395.152 344.48 395.76 344.16 396.496C343.84 397.2 343.68 398 343.68 398.896V412H338.88ZM385.584 412V389.776H389.664V391.6C390.016 391.088 390.4 390.672 390.816 390.352C391.264 390 391.728 389.728 392.208 389.536C392.72 389.344 393.232 389.248 393.744 389.248C394.32 389.248 394.864 389.36 395.376 389.584C395.888 389.808 396.336 390.128 396.72 390.544C397.104 390.96 397.392 391.504 397.584 392.176C397.904 391.536 398.288 391.008 398.736 390.592C399.216 390.176 399.76 389.856 400.368 389.632C401.008 389.376 401.68 389.248 402.384 389.248C403.152 389.248 403.808 389.408 404.352 389.728C404.928 390.016 405.392 390.432 405.744 390.976C406.128 391.488 406.4 392.128 406.56 392.896C406.752 393.632 406.832 394.464 406.8 395.392V412H402.624V396.64C402.624 395.52 402.56 394.688 402.432 394.144C402.304 393.6 402.112 393.232 401.856 393.04C401.632 392.848 401.36 392.752 401.04 392.752C400.56 392.752 400.096 392.976 399.648 393.424C399.232 393.84 398.88 394.416 398.592 395.152C398.336 395.888 398.208 396.704 398.208 397.6V412H394.176V396.832C394.176 395.168 394.032 394.064 393.744 393.52C393.488 392.976 393.024 392.704 392.352 392.704C392.032 392.704 391.712 392.816 391.392 393.04C391.104 393.232 390.832 393.536 390.576 393.952C390.32 394.336 390.112 394.816 389.952 395.392C389.824 395.968 389.76 396.64 389.76 397.408V412H385.584ZM418.32 412.528C417.424 412.528 416.576 412.4 415.776 412.144C415.008 411.92 414.304 411.552 413.664 411.04C413.024 410.528 412.464 409.888 411.984 409.12C411.536 408.352 411.184 407.424 410.928 406.336C410.704 405.248 410.592 404.016 410.592 402.64L410.64 389.776H415.344V402.64C415.344 403.76 415.44 404.72 415.632 405.52C415.856 406.288 416.144 406.912 416.496 407.392C416.88 407.872 417.312 408.224 417.792 408.448C418.272 408.64 418.784 408.736 419.328 408.736C420.032 408.736 420.688 408.608 421.296 408.352C421.904 408.096 422.432 407.712 422.88 407.2C423.36 406.656 423.712 405.984 423.936 405.184C424.192 404.352 424.32 403.392 424.32 402.304V389.776H429.12V408.496C429.12 409.136 429.136 409.744 429.168 410.32C429.232 410.864 429.376 411.424 429.6 412H425.136C424.976 411.648 424.864 411.312 424.8 410.992C424.736 410.64 424.688 410.304 424.656 409.984C424.656 409.632 424.656 409.28 424.656 408.928C424.336 409.536 423.936 410.064 423.456 410.512C423.008 410.96 422.496 411.344 421.92 411.664C421.376 411.952 420.8 412.16 420.192 412.288C419.616 412.448 418.992 412.528 418.32 412.528ZM446.352 412.432C445.04 412.432 443.904 412.224 442.944 411.808C442.016 411.36 441.264 410.656 440.688 409.696C440.144 408.736 439.76 407.488 439.536 405.952C439.312 404.416 439.232 402.544 439.296 400.336L439.92 384.4L444.816 383.776L445.296 383.728L445.344 384.16C445.184 384.384 445.04 384.608 444.912 384.832C444.816 385.056 444.736 385.44 444.672 385.984L444.192 392.176L444.384 392.704L444.048 400.336C443.952 402.512 444.016 404.208 444.24 405.424C444.464 406.608 444.848 407.44 445.392 407.92C445.936 408.368 446.592 408.592 447.36 408.592C448.384 408.592 449.296 408.384 450.096 407.968C450.928 407.552 451.744 407.04 452.544 406.432L453.6 409.984C452.512 410.784 451.376 411.392 450.192 411.808C449.008 412.224 447.728 412.432 446.352 412.432ZM434.976 389.776H451.728L451.68 393.616H434.976V389.776ZM470.352 412.432C469.04 412.432 467.904 412.224 466.944 411.808C466.016 411.36 465.264 410.656 464.688 409.696C464.144 408.736 463.76 407.488 463.536 405.952C463.312 404.416 463.232 402.544 463.296 400.336L463.92 384.4L468.816 383.776L469.296 383.728L469.344 384.16C469.184 384.384 469.04 384.608 468.912 384.832C468.816 385.056 468.736 385.44 468.672 385.984L468.192 392.176L468.384 392.704L468.048 400.336C467.952 402.512 468.016 404.208 468.24 405.424C468.464 406.608 468.848 407.44 469.392 407.92C469.936 408.368 470.592 408.592 471.36 408.592C472.384 408.592 473.296 408.384 474.096 407.968C474.928 407.552 475.744 407.04 476.544 406.432L477.6 409.984C476.512 410.784 475.376 411.392 474.192 411.808C473.008 412.224 471.728 412.432 470.352 412.432ZM458.976 389.776H475.728L475.68 393.616H458.976V389.776ZM508.752 412.048L504.576 389.776H508.656L511.536 405.856L514.944 392.128H517.536L521.568 405.76C521.888 403.392 522.16 401.424 522.384 399.856C522.608 398.256 522.768 396.928 522.864 395.872C522.96 394.784 523.024 393.872 523.056 393.136C523.088 392.368 523.104 391.616 523.104 390.88V389.776H527.28C527.056 392.176 526.768 394.64 526.416 397.168C526.064 399.696 525.664 402.224 525.216 404.752C524.768 407.248 524.304 409.68 523.824 412.048H519.6L516.192 399.232L512.976 412.048H508.752ZM532.32 412V408.208H537.84V393.568H532.56V389.776H542.64V408.208H547.68V412H532.32ZM539.952 385.792C539.088 385.792 538.352 385.504 537.744 384.928C537.168 384.32 536.88 383.616 536.88 382.816C536.88 381.952 537.168 381.232 537.744 380.656C538.32 380.08 539.056 379.792 539.952 379.792C540.784 379.792 541.504 380.096 542.112 380.704C542.752 381.312 543.072 382.016 543.072 382.816C543.072 383.616 542.752 384.32 542.112 384.928C541.504 385.504 540.784 385.792 539.952 385.792ZM566.352 412.432C565.04 412.432 563.904 412.224 562.944 411.808C562.016 411.36 561.264 410.656 560.688 409.696C560.144 408.736 559.76 407.488 559.536 405.952C559.312 404.416 559.232 402.544 559.296 400.336L559.92 384.4L564.816 383.776L565.296 383.728L565.344 384.16C565.184 384.384 565.04 384.608 564.912 384.832C564.816 385.056 564.736 385.44 564.672 385.984L564.192 392.176L564.384 392.704L564.048 400.336C563.952 402.512 564.016 404.208 564.24 405.424C564.464 406.608 564.848 407.44 565.392 407.92C565.936 408.368 566.592 408.592 567.36 408.592C568.384 408.592 569.296 408.384 570.096 407.968C570.928 407.552 571.744 407.04 572.544 406.432L573.6 409.984C572.512 410.784 571.376 411.392 570.192 411.808C569.008 412.224 567.728 412.432 566.352 412.432ZM554.976 389.776H571.728L571.68 393.616H554.976V389.776ZM578.928 379.888H583.632H584.112V380.32C583.92 380.512 583.792 380.72 583.728 380.944C583.696 381.168 583.68 381.552 583.68 382.096V393.04C584.224 392.24 584.864 391.568 585.6 391.024C586.368 390.448 587.152 390.016 587.952 389.728C588.784 389.408 589.616 389.248 590.448 389.248C591.856 389.248 593.072 389.568 594.096 390.208C595.152 390.848 595.968 391.856 596.544 393.232C597.12 394.576 597.408 396.368 597.408 398.608V412H592.704V398.656C592.704 397.28 592.56 396.192 592.272 395.392C591.984 394.56 591.584 393.968 591.072 393.616C590.56 393.232 589.952 393.04 589.248 393.04C588.672 393.04 588.112 393.136 587.568 393.328C587.056 393.52 586.56 393.792 586.08 394.144C585.6 394.464 585.184 394.88 584.832 395.392C584.48 395.904 584.192 396.48 583.968 397.12C583.776 397.76 583.68 398.464 583.68 399.232V412H578.928V379.888ZM633.696 412.528C631.232 412.528 629.312 411.968 627.936 410.848C626.592 409.696 625.92 408.208 625.92 406.384C625.92 405.168 626.192 404.08 626.736 403.12C627.312 402.128 628.112 401.28 629.136 400.576C630.192 399.872 631.456 399.328 632.928 398.944C634.4 398.528 636.064 398.32 637.92 398.32C638.304 398.32 638.704 398.336 639.12 398.368C639.568 398.368 640.032 398.384 640.512 398.416C641.024 398.448 641.536 398.48 642.048 398.512L642.192 401.92C641.744 401.856 641.264 401.808 640.752 401.776C640.272 401.744 639.792 401.728 639.312 401.728C638.832 401.728 638.384 401.728 637.968 401.728C636.72 401.728 635.632 401.824 634.704 402.016C633.808 402.176 633.056 402.432 632.448 402.784C631.872 403.136 631.44 403.568 631.152 404.08C630.864 404.592 630.72 405.184 630.72 405.856C630.72 406.4 630.816 406.88 631.008 407.296C631.2 407.68 631.456 407.984 631.776 408.208C632.128 408.432 632.528 408.608 632.976 408.736C633.456 408.832 633.968 408.88 634.512 408.88C635.568 408.88 636.496 408.704 637.296 408.352C638.096 408 638.768 407.488 639.312 406.816C639.888 406.112 640.32 405.248 640.608 404.224C640.896 403.168 641.04 401.936 641.04 400.528C641.04 398.576 640.816 397.056 640.368 395.968C639.952 394.88 639.328 394.128 638.496 393.712C637.664 393.296 636.624 393.088 635.376 393.088C634.352 393.088 633.36 393.264 632.4 393.616C631.472 393.936 630.56 394.544 629.664 395.44L627.12 392.56C628.336 391.408 629.664 390.576 631.104 390.064C632.576 389.552 634.08 389.296 635.616 389.296C637.024 389.296 638.32 389.472 639.504 389.824C640.72 390.144 641.776 390.688 642.672 391.456C643.6 392.224 644.304 393.264 644.784 394.576C645.296 395.888 645.552 397.552 645.552 399.568V412H640.56V409.264C640.144 409.904 639.68 410.448 639.168 410.896C638.656 411.312 638.096 411.648 637.488 411.904C636.912 412.128 636.304 412.288 635.664 412.384C635.024 412.48 634.368 412.528 633.696 412.528ZM673.584 412V389.776H677.664V391.6C678.016 391.088 678.4 390.672 678.816 390.352C679.264 390 679.728 389.728 680.208 389.536C680.72 389.344 681.232 389.248 681.744 389.248C682.32 389.248 682.864 389.36 683.376 389.584C683.888 389.808 684.336 390.128 684.72 390.544C685.104 390.96 685.392 391.504 685.584 392.176C685.904 391.536 686.288 391.008 686.736 390.592C687.216 390.176 687.76 389.856 688.368 389.632C689.008 389.376 689.68 389.248 690.384 389.248C691.152 389.248 691.808 389.408 692.352 389.728C692.928 390.016 693.392 390.432 693.744 390.976C694.128 391.488 694.4 392.128 694.56 392.896C694.752 393.632 694.832 394.464 694.8 395.392V412H690.624V396.64C690.624 395.52 690.56 394.688 690.432 394.144C690.304 393.6 690.112 393.232 689.856 393.04C689.632 392.848 689.36 392.752 689.04 392.752C688.56 392.752 688.096 392.976 687.648 393.424C687.232 393.84 686.88 394.416 686.592 395.152C686.336 395.888 686.208 396.704 686.208 397.6V412H682.176V396.832C682.176 395.168 682.032 394.064 681.744 393.52C681.488 392.976 681.024 392.704 680.352 392.704C680.032 392.704 679.712 392.816 679.392 393.04C679.104 393.232 678.832 393.536 678.576 393.952C678.32 394.336 678.112 394.816 677.952 395.392C677.824 395.968 677.76 396.64 677.76 397.408V412H673.584ZM700.32 412V408.208H705.84V393.568H700.56V389.776H710.64V408.208H715.68V412H700.32ZM707.952 385.792C707.088 385.792 706.352 385.504 705.744 384.928C705.168 384.32 704.88 383.616 704.88 382.816C704.88 381.952 705.168 381.232 705.744 380.656C706.32 380.08 707.056 379.792 707.952 379.792C708.784 379.792 709.504 380.096 710.112 380.704C710.752 381.312 711.072 382.016 711.072 382.816C711.072 383.616 710.752 384.32 710.112 384.928C709.504 385.504 708.784 385.792 707.952 385.792ZM732.336 412.528C730.992 412.528 729.728 412.4 728.544 412.144C727.36 411.888 726.24 411.504 725.184 410.992C724.16 410.48 723.216 409.824 722.352 409.024L724.56 404.992L724.848 404.56L725.184 404.752C725.248 405.008 725.328 405.28 725.424 405.568C725.52 405.824 725.744 406.144 726.096 406.528C726.864 407.2 727.744 407.744 728.736 408.16C729.728 408.544 730.944 408.736 732.384 408.736C733.376 408.736 734.208 408.624 734.88 408.4C735.584 408.144 736.128 407.808 736.512 407.392C736.896 406.944 737.088 406.448 737.088 405.904C737.088 405.488 736.976 405.136 736.752 404.848C736.56 404.528 736.256 404.24 735.84 403.984C735.424 403.696 734.88 403.424 734.208 403.168C733.536 402.88 732.72 402.608 731.76 402.352C730.128 401.872 728.704 401.328 727.488 400.72C726.272 400.08 725.328 399.328 724.656 398.464C723.984 397.6 723.648 396.576 723.648 395.392C723.648 394.208 723.984 393.168 724.656 392.272C725.36 391.344 726.352 390.608 727.632 390.064C728.912 389.52 730.432 389.248 732.192 389.248C733.152 389.248 734.048 389.328 734.88 389.488C735.744 389.616 736.528 389.824 737.232 390.112C737.968 390.4 738.656 390.768 739.296 391.216C739.936 391.632 740.544 392.128 741.12 392.704L738.672 395.968L738.384 396.352L738.048 396.064C738.016 395.808 737.936 395.568 737.808 395.344C737.712 395.12 737.488 394.832 737.136 394.48C736.432 393.968 735.664 393.584 734.832 393.328C734 393.072 733.152 392.944 732.288 392.944C731.168 392.944 730.176 393.136 729.312 393.52C728.48 393.904 728.064 394.48 728.064 395.248C728.064 395.696 728.24 396.112 728.592 396.496C728.976 396.88 729.584 397.264 730.416 397.648C731.248 398 732.384 398.368 733.824 398.752C735.648 399.232 737.12 399.792 738.24 400.432C739.36 401.04 740.176 401.76 740.688 402.592C741.232 403.424 741.504 404.4 741.504 405.52C741.504 406.768 741.152 407.936 740.448 409.024C739.776 410.08 738.752 410.928 737.376 411.568C736 412.208 734.32 412.528 732.336 412.528ZM756.336 412.528C754.992 412.528 753.728 412.4 752.544 412.144C751.36 411.888 750.24 411.504 749.184 410.992C748.16 410.48 747.216 409.824 746.352 409.024L748.56 404.992L748.848 404.56L749.184 404.752C749.248 405.008 749.328 405.28 749.424 405.568C749.52 405.824 749.744 406.144 750.096 406.528C750.864 407.2 751.744 407.744 752.736 408.16C753.728 408.544 754.944 408.736 756.384 408.736C757.376 408.736 758.208 408.624 758.88 408.4C759.584 408.144 760.128 407.808 760.512 407.392C760.896 406.944 761.088 406.448 761.088 405.904C761.088 405.488 760.976 405.136 760.752 404.848C760.56 404.528 760.256 404.24 759.84 403.984C759.424 403.696 758.88 403.424 758.208 403.168C757.536 402.88 756.72 402.608 755.76 402.352C754.128 401.872 752.704 401.328 751.488 400.72C750.272 400.08 749.328 399.328 748.656 398.464C747.984 397.6 747.648 396.576 747.648 395.392C747.648 394.208 747.984 393.168 748.656 392.272C749.36 391.344 750.352 390.608 751.632 390.064C752.912 389.52 754.432 389.248 756.192 389.248C757.152 389.248 758.048 389.328 758.88 389.488C759.744 389.616 760.528 389.824 761.232 390.112C761.968 390.4 762.656 390.768 763.296 391.216C763.936 391.632 764.544 392.128 765.12 392.704L762.672 395.968L762.384 396.352L762.048 396.064C762.016 395.808 761.936 395.568 761.808 395.344C761.712 395.12 761.488 394.832 761.136 394.48C760.432 393.968 759.664 393.584 758.832 393.328C758 393.072 757.152 392.944 756.288 392.944C755.168 392.944 754.176 393.136 753.312 393.52C752.48 393.904 752.064 394.48 752.064 395.248C752.064 395.696 752.24 396.112 752.592 396.496C752.976 396.88 753.584 397.264 754.416 397.648C755.248 398 756.384 398.368 757.824 398.752C759.648 399.232 761.12 399.792 762.24 400.432C763.36 401.04 764.176 401.76 764.688 402.592C765.232 403.424 765.504 404.4 765.504 405.52C765.504 406.768 765.152 407.936 764.448 409.024C763.776 410.08 762.752 410.928 761.376 411.568C760 412.208 758.32 412.528 756.336 412.528ZM772.32 412V408.208H777.84V393.568H772.56V389.776H782.64V408.208H787.68V412H772.32ZM779.952 385.792C779.088 385.792 778.352 385.504 777.744 384.928C777.168 384.32 776.88 383.616 776.88 382.816C776.88 381.952 777.168 381.232 777.744 380.656C778.32 380.08 779.056 379.792 779.952 379.792C780.784 379.792 781.504 380.096 782.112 380.704C782.752 381.312 783.072 382.016 783.072 382.816C783.072 383.616 782.752 384.32 782.112 384.928C781.504 385.504 780.784 385.792 779.952 385.792ZM804 412.48C801.984 412.48 800.192 412 798.624 411.04C797.056 410.048 795.808 408.688 794.88 406.96C793.952 405.2 793.488 403.184 793.488 400.912C793.488 398.672 793.952 396.688 794.88 394.96C795.808 393.2 797.056 391.824 798.624 390.832C800.192 389.808 801.984 389.296 804 389.296C805.984 389.296 807.76 389.808 809.328 390.832C810.928 391.824 812.192 393.2 813.12 394.96C814.048 396.688 814.512 398.672 814.512 400.912C814.512 403.152 814.048 405.152 813.12 406.912C812.192 408.64 810.928 410 809.328 410.992C807.76 411.984 805.984 412.48 804 412.48ZM804 408.592C805.088 408.592 806.048 408.272 806.88 407.632C807.744 406.96 808.416 406.048 808.896 404.896C809.376 403.744 809.616 402.4 809.616 400.864C809.616 399.296 809.376 397.936 808.896 396.784C808.416 395.632 807.744 394.736 806.88 394.096C806.048 393.456 805.088 393.136 804 393.136C802.912 393.136 801.936 393.456 801.072 394.096C800.24 394.736 799.584 395.632 799.104 396.784C798.624 397.936 798.384 399.296 798.384 400.864C798.384 402.4 798.624 403.744 799.104 404.896C799.584 406.048 800.24 406.96 801.072 407.632C801.936 408.272 802.912 408.592 804 408.592ZM818.88 412V389.776H823.68V393.184C824.224 392.384 824.832 391.696 825.504 391.12C826.176 390.544 826.928 390.096 827.76 389.776C828.592 389.424 829.488 389.248 830.448 389.248C831.696 389.248 832.848 389.568 833.904 390.208C834.96 390.848 835.808 391.856 836.448 393.232C837.088 394.576 837.408 396.368 837.408 398.608V412H832.656V398.656C832.656 397.344 832.512 396.272 832.224 395.44C831.936 394.608 831.52 394 830.976 393.616C830.464 393.232 829.84 393.04 829.104 393.04C828.464 393.04 827.824 393.184 827.184 393.472C826.544 393.76 825.952 394.16 825.408 394.672C824.896 395.152 824.48 395.76 824.16 396.496C823.84 397.2 823.68 398 823.68 398.896V412H818.88ZM158.352 462.432C157.04 462.432 155.904 462.224 154.944 461.808C154.016 461.36 153.264 460.656 152.688 459.696C152.144 458.736 151.76 457.488 151.536 455.952C151.312 454.416 151.232 452.544 151.296 450.336L151.92 434.4L156.816 433.776L157.296 433.728L157.344 434.16C157.184 434.384 157.04 434.608 156.912 434.832C156.816 435.056 156.736 435.44 156.672 435.984L156.192 442.176L156.384 442.704L156.048 450.336C155.952 452.512 156.016 454.208 156.24 455.424C156.464 456.608 156.848 457.44 157.392 457.92C157.936 458.368 158.592 458.592 159.36 458.592C160.384 458.592 161.296 458.384 162.096 457.968C162.928 457.552 163.744 457.04 164.544 456.432L165.6 459.984C164.512 460.784 163.376 461.392 162.192 461.808C161.008 462.224 159.728 462.432 158.352 462.432ZM146.976 439.776H163.728L163.68 443.616H146.976V439.776ZM180 462.48C177.984 462.48 176.192 462 174.624 461.04C173.056 460.048 171.808 458.688 170.88 456.96C169.952 455.2 169.488 453.184 169.488 450.912C169.488 448.672 169.952 446.688 170.88 444.96C171.808 443.2 173.056 441.824 174.624 440.832C176.192 439.808 177.984 439.296 180 439.296C181.984 439.296 183.76 439.808 185.328 440.832C186.928 441.824 188.192 443.2 189.12 444.96C190.048 446.688 190.512 448.672 190.512 450.912C190.512 453.152 190.048 455.152 189.12 456.912C188.192 458.64 186.928 460 185.328 460.992C183.76 461.984 181.984 462.48 180 462.48ZM180 458.592C181.088 458.592 182.048 458.272 182.88 457.632C183.744 456.96 184.416 456.048 184.896 454.896C185.376 453.744 185.616 452.4 185.616 450.864C185.616 449.296 185.376 447.936 184.896 446.784C184.416 445.632 183.744 444.736 182.88 444.096C182.048 443.456 181.088 443.136 180 443.136C178.912 443.136 177.936 443.456 177.072 444.096C176.24 444.736 175.584 445.632 175.104 446.784C174.624 447.936 174.384 449.296 174.384 450.864C174.384 452.4 174.624 453.744 175.104 454.896C175.584 456.048 176.24 456.96 177.072 457.632C177.936 458.272 178.912 458.592 180 458.592ZM229.488 462.528C227.856 462.528 226.336 462.256 224.928 461.712C223.552 461.136 222.352 460.336 221.328 459.312C220.336 458.256 219.552 457.04 218.976 455.664C218.432 454.256 218.16 452.72 218.16 451.056C218.16 449.392 218.432 447.856 218.976 446.448C219.552 445.008 220.336 443.76 221.328 442.704C222.352 441.648 223.552 440.832 224.928 440.256C226.336 439.648 227.84 439.344 229.44 439.344C231.424 439.344 233.152 439.712 234.624 440.448C236.128 441.184 237.344 442.224 238.272 443.568L235.536 446.448L235.2 446.784L234.912 446.496C234.88 446.24 234.816 446 234.72 445.776C234.656 445.52 234.448 445.184 234.096 444.768C233.456 444.192 232.752 443.792 231.984 443.568C231.216 443.312 230.336 443.184 229.344 443.184C228.512 443.184 227.712 443.36 226.944 443.712C226.208 444.064 225.536 444.576 224.928 445.248C224.352 445.92 223.888 446.736 223.536 447.696C223.184 448.656 223.008 449.728 223.008 450.912C223.008 452.064 223.184 453.12 223.536 454.08C223.888 455.008 224.368 455.808 224.976 456.48C225.584 457.12 226.288 457.632 227.088 458.016C227.92 458.368 228.784 458.544 229.68 458.544C230.384 458.544 231.056 458.464 231.696 458.304C232.368 458.112 233.008 457.824 233.616 457.44C234.224 457.024 234.8 456.496 235.344 455.856L237.984 458.928C236.832 460.176 235.504 461.088 234 461.664C232.528 462.24 231.024 462.528 229.488 462.528ZM242.928 429.888H247.632H248.112V430.32C247.92 430.512 247.792 430.72 247.728 430.944C247.696 431.168 247.68 431.552 247.68 432.096V443.04C248.224 442.24 248.864 441.568 249.6 441.024C250.368 440.448 251.152 440.016 251.952 439.728C252.784 439.408 253.616 439.248 254.448 439.248C255.856 439.248 257.072 439.568 258.096 440.208C259.152 440.848 259.968 441.856 260.544 443.232C261.12 444.576 261.408 446.368 261.408 448.608V462H256.704V448.656C256.704 447.28 256.56 446.192 256.272 445.392C255.984 444.56 255.584 443.968 255.072 443.616C254.56 443.232 253.952 443.04 253.248 443.04C252.672 443.04 252.112 443.136 251.568 443.328C251.056 443.52 250.56 443.792 250.08 444.144C249.6 444.464 249.184 444.88 248.832 445.392C248.48 445.904 248.192 446.48 247.968 447.12C247.776 447.76 247.68 448.464 247.68 449.232V462H242.928V429.888ZM273.696 462.528C271.232 462.528 269.312 461.968 267.936 460.848C266.592 459.696 265.92 458.208 265.92 456.384C265.92 455.168 266.192 454.08 266.736 453.12C267.312 452.128 268.112 451.28 269.136 450.576C270.192 449.872 271.456 449.328 272.928 448.944C274.4 448.528 276.064 448.32 277.92 448.32C278.304 448.32 278.704 448.336 279.12 448.368C279.568 448.368 280.032 448.384 280.512 448.416C281.024 448.448 281.536 448.48 282.048 448.512L282.192 451.92C281.744 451.856 281.264 451.808 280.752 451.776C280.272 451.744 279.792 451.728 279.312 451.728C278.832 451.728 278.384 451.728 277.968 451.728C276.72 451.728 275.632 451.824 274.704 452.016C273.808 452.176 273.056 452.432 272.448 452.784C271.872 453.136 271.44 453.568 271.152 454.08C270.864 454.592 270.72 455.184 270.72 455.856C270.72 456.4 270.816 456.88 271.008 457.296C271.2 457.68 271.456 457.984 271.776 458.208C272.128 458.432 272.528 458.608 272.976 458.736C273.456 458.832 273.968 458.88 274.512 458.88C275.568 458.88 276.496 458.704 277.296 458.352C278.096 458 278.768 457.488 279.312 456.816C279.888 456.112 280.32 455.248 280.608 454.224C280.896 453.168 281.04 451.936 281.04 450.528C281.04 448.576 280.816 447.056 280.368 445.968C279.952 444.88 279.328 444.128 278.496 443.712C277.664 443.296 276.624 443.088 275.376 443.088C274.352 443.088 273.36 443.264 272.4 443.616C271.472 443.936 270.56 444.544 269.664 445.44L267.12 442.56C268.336 441.408 269.664 440.576 271.104 440.064C272.576 439.552 274.08 439.296 275.616 439.296C277.024 439.296 278.32 439.472 279.504 439.824C280.72 440.144 281.776 440.688 282.672 441.456C283.6 442.224 284.304 443.264 284.784 444.576C285.296 445.888 285.552 447.552 285.552 449.568V462H280.56V459.264C280.144 459.904 279.68 460.448 279.168 460.896C278.656 461.312 278.096 461.648 277.488 461.904C276.912 462.128 276.304 462.288 275.664 462.384C275.024 462.48 274.368 462.528 273.696 462.528ZM290.88 462V439.776H295.68V443.184C296.224 442.384 296.832 441.696 297.504 441.12C298.176 440.544 298.928 440.096 299.76 439.776C300.592 439.424 301.488 439.248 302.448 439.248C303.696 439.248 304.848 439.568 305.904 440.208C306.96 440.848 307.808 441.856 308.448 443.232C309.088 444.576 309.408 446.368 309.408 448.608V462H304.656V448.656C304.656 447.344 304.512 446.272 304.224 445.44C303.936 444.608 303.52 444 302.976 443.616C302.464 443.232 301.84 443.04 301.104 443.04C300.464 443.04 299.824 443.184 299.184 443.472C298.544 443.76 297.952 444.16 297.408 444.672C296.896 445.152 296.48 445.76 296.16 446.496C295.84 447.2 295.68 448 295.68 448.896V462H290.88ZM323.568 470.448C322.032 470.448 320.64 470.32 319.392 470.064C318.144 469.808 317.072 469.424 316.176 468.912C315.312 468.432 314.656 467.824 314.208 467.088C313.76 466.384 313.536 465.584 313.536 464.688C313.536 463.856 313.728 463.104 314.112 462.432C314.496 461.76 315.008 461.184 315.648 460.704C316.288 460.192 316.992 459.808 317.76 459.552L319.872 460.512C319.36 460.832 318.912 461.152 318.528 461.472C318.144 461.792 317.84 462.144 317.616 462.528C317.424 462.944 317.328 463.424 317.328 463.968C317.328 464.448 317.488 464.864 317.808 465.216C318.128 465.568 318.576 465.856 319.152 466.08C319.728 466.304 320.416 466.48 321.216 466.608C322.016 466.736 322.912 466.8 323.904 466.8C325.216 466.8 326.304 466.672 327.168 466.416C328.032 466.192 328.672 465.856 329.088 465.408C329.536 464.96 329.76 464.448 329.76 463.872C329.76 463.296 329.632 462.832 329.376 462.48C329.12 462.16 328.64 461.92 327.936 461.76C327.232 461.568 326.208 461.472 324.864 461.472C323.776 461.472 322.736 461.44 321.744 461.376C320.784 461.28 319.888 461.12 319.056 460.896C318.256 460.672 317.552 460.384 316.944 460.032C316.336 459.68 315.856 459.248 315.504 458.736C315.184 458.192 315.024 457.552 315.024 456.816C315.024 455.856 315.312 454.992 315.888 454.224C316.464 453.424 317.184 452.704 318.048 452.064L320.208 453.408C319.92 453.728 319.664 454 319.44 454.224C319.216 454.448 319.04 454.672 318.912 454.896C318.784 455.088 318.72 455.328 318.72 455.616C318.72 456.032 318.96 456.384 319.44 456.672C319.92 456.96 320.688 457.168 321.744 457.296C322.832 457.424 324.272 457.488 326.064 457.488C327.568 457.488 328.816 457.648 329.808 457.968C330.832 458.256 331.632 458.672 332.208 459.216C332.784 459.76 333.184 460.384 333.408 461.088C333.664 461.76 333.792 462.512 333.792 463.344C333.792 464.24 333.6 465.104 333.216 465.936C332.832 466.8 332.224 467.568 331.392 468.24C330.592 468.912 329.536 469.44 328.224 469.824C326.944 470.24 325.392 470.448 323.568 470.448ZM322.944 454.512C321.376 454.512 319.984 454.176 318.768 453.504C317.552 452.8 316.592 451.872 315.888 450.72C315.216 449.568 314.88 448.272 314.88 446.832C314.88 445.392 315.216 444.096 315.888 442.944C316.592 441.76 317.552 440.832 318.768 440.16C319.984 439.456 321.376 439.104 322.944 439.104C324.544 439.104 325.952 439.456 327.168 440.16C328.384 440.832 329.328 441.76 330 442.944C330.704 444.096 331.056 445.392 331.056 446.832C331.056 448.272 330.704 449.568 330 450.72C329.328 451.872 328.384 452.8 327.168 453.504C325.952 454.176 324.544 454.512 322.944 454.512ZM322.944 450.912C323.744 450.912 324.448 450.736 325.056 450.384C325.664 450.032 326.144 449.552 326.496 448.944C326.848 448.304 327.024 447.6 327.024 446.832C327.024 446.032 326.848 445.344 326.496 444.768C326.144 444.16 325.648 443.68 325.008 443.328C324.4 442.976 323.712 442.8 322.944 442.8C322.208 442.8 321.536 442.976 320.928 443.328C320.32 443.68 319.824 444.16 319.44 444.768C319.088 445.376 318.912 446.064 318.912 446.832C318.912 447.568 319.088 448.256 319.44 448.896C319.792 449.504 320.272 450 320.88 450.384C321.488 450.736 322.176 450.912 322.944 450.912ZM329.712 443.712L327.888 441.456C328.816 440.688 329.824 440.112 330.912 439.728C332.032 439.312 333.264 439.152 334.608 439.248L335.088 442.656C334.096 442.528 333.136 442.544 332.208 442.704C331.28 442.832 330.448 443.168 329.712 443.712ZM349.008 462.528C347.408 462.528 345.936 462.272 344.592 461.76C343.248 461.248 342.08 460.512 341.088 459.552C340.128 458.56 339.376 457.344 338.832 455.904C338.288 454.464 338.016 452.832 338.016 451.008C338.016 449.152 338.288 447.504 338.832 446.064C339.376 444.592 340.112 443.36 341.04 442.368C342 441.376 343.104 440.608 344.352 440.064C345.632 439.52 346.992 439.248 348.432 439.248C349.68 439.248 350.864 439.472 351.984 439.92C353.136 440.368 354.128 441.04 354.96 441.936C355.824 442.8 356.496 443.904 356.976 445.248C357.488 446.592 357.744 448.16 357.744 449.952C357.744 450.272 357.744 450.64 357.744 451.056C357.744 451.44 357.728 451.776 357.696 452.064H342.624C342.688 453.216 342.912 454.224 343.296 455.088C343.68 455.92 344.16 456.608 344.736 457.152C345.344 457.696 346.032 458.096 346.8 458.352C347.568 458.608 348.368 458.736 349.2 458.736C349.936 458.736 350.608 458.672 351.216 458.544C351.856 458.384 352.464 458.144 353.04 457.824C353.616 457.504 354.144 457.072 354.624 456.528L357.12 458.976C356.448 459.776 355.696 460.448 354.864 460.992C354.032 461.504 353.12 461.888 352.128 462.144C351.168 462.4 350.128 462.528 349.008 462.528ZM342.72 448.464H353.088C353.088 447.568 352.976 446.784 352.752 446.112C352.528 445.44 352.192 444.864 351.744 444.384C351.328 443.904 350.816 443.552 350.208 443.328C349.6 443.072 348.928 442.944 348.192 442.944C347.488 442.944 346.832 443.056 346.224 443.28C345.648 443.504 345.12 443.84 344.64 444.288C344.16 444.736 343.744 445.312 343.392 446.016C343.072 446.688 342.848 447.504 342.72 448.464ZM398.352 462.432C397.04 462.432 395.904 462.224 394.944 461.808C394.016 461.36 393.264 460.656 392.688 459.696C392.144 458.736 391.76 457.488 391.536 455.952C391.312 454.416 391.232 452.544 391.296 450.336L391.92 434.4L396.816 433.776L397.296 433.728L397.344 434.16C397.184 434.384 397.04 434.608 396.912 434.832C396.816 435.056 396.736 435.44 396.672 435.984L396.192 442.176L396.384 442.704L396.048 450.336C395.952 452.512 396.016 454.208 396.24 455.424C396.464 456.608 396.848 457.44 397.392 457.92C397.936 458.368 398.592 458.592 399.36 458.592C400.384 458.592 401.296 458.384 402.096 457.968C402.928 457.552 403.744 457.04 404.544 456.432L405.6 459.984C404.512 460.784 403.376 461.392 402.192 461.808C401.008 462.224 399.728 462.432 398.352 462.432ZM386.976 439.776H403.728L403.68 443.616H386.976V439.776ZM410.928 429.888H415.632H416.112V430.32C415.92 430.512 415.792 430.72 415.728 430.944C415.696 431.168 415.68 431.552 415.68 432.096V443.04C416.224 442.24 416.864 441.568 417.6 441.024C418.368 440.448 419.152 440.016 419.952 439.728C420.784 439.408 421.616 439.248 422.448 439.248C423.856 439.248 425.072 439.568 426.096 440.208C427.152 440.848 427.968 441.856 428.544 443.232C429.12 444.576 429.408 446.368 429.408 448.608V462H424.704V448.656C424.704 447.28 424.56 446.192 424.272 445.392C423.984 444.56 423.584 443.968 423.072 443.616C422.56 443.232 421.952 443.04 421.248 443.04C420.672 443.04 420.112 443.136 419.568 443.328C419.056 443.52 418.56 443.792 418.08 444.144C417.6 444.464 417.184 444.88 416.832 445.392C416.48 445.904 416.192 446.48 415.968 447.12C415.776 447.76 415.68 448.464 415.68 449.232V462H410.928V429.888ZM445.008 462.528C443.408 462.528 441.936 462.272 440.592 461.76C439.248 461.248 438.08 460.512 437.088 459.552C436.128 458.56 435.376 457.344 434.832 455.904C434.288 454.464 434.016 452.832 434.016 451.008C434.016 449.152 434.288 447.504 434.832 446.064C435.376 444.592 436.112 443.36 437.04 442.368C438 441.376 439.104 440.608 440.352 440.064C441.632 439.52 442.992 439.248 444.432 439.248C445.68 439.248 446.864 439.472 447.984 439.92C449.136 440.368 450.128 441.04 450.96 441.936C451.824 442.8 452.496 443.904 452.976 445.248C453.488 446.592 453.744 448.16 453.744 449.952C453.744 450.272 453.744 450.64 453.744 451.056C453.744 451.44 453.728 451.776 453.696 452.064H438.624C438.688 453.216 438.912 454.224 439.296 455.088C439.68 455.92 440.16 456.608 440.736 457.152C441.344 457.696 442.032 458.096 442.8 458.352C443.568 458.608 444.368 458.736 445.2 458.736C445.936 458.736 446.608 458.672 447.216 458.544C447.856 458.384 448.464 458.144 449.04 457.824C449.616 457.504 450.144 457.072 450.624 456.528L453.12 458.976C452.448 459.776 451.696 460.448 450.864 460.992C450.032 461.504 449.12 461.888 448.128 462.144C447.168 462.4 446.128 462.528 445.008 462.528ZM438.72 448.464H449.088C449.088 447.568 448.976 446.784 448.752 446.112C448.528 445.44 448.192 444.864 447.744 444.384C447.328 443.904 446.816 443.552 446.208 443.328C445.6 443.072 444.928 442.944 444.192 442.944C443.488 442.944 442.832 443.056 442.224 443.28C441.648 443.504 441.12 443.84 440.64 444.288C440.16 444.736 439.744 445.312 439.392 446.016C439.072 446.688 438.848 447.504 438.72 448.464ZM484.752 462.048L480.576 439.776H484.656L487.536 455.856L490.944 442.128H493.536L497.568 455.76C497.888 453.392 498.16 451.424 498.384 449.856C498.608 448.256 498.768 446.928 498.864 445.872C498.96 444.784 499.024 443.872 499.056 443.136C499.088 442.368 499.104 441.616 499.104 440.88V439.776H503.28C503.056 442.176 502.768 444.64 502.416 447.168C502.064 449.696 501.664 452.224 501.216 454.752C500.768 457.248 500.304 459.68 499.824 462.048H495.6L492.192 449.232L488.976 462.048H484.752ZM516 462.48C513.984 462.48 512.192 462 510.624 461.04C509.056 460.048 507.808 458.688 506.88 456.96C505.952 455.2 505.488 453.184 505.488 450.912C505.488 448.672 505.952 446.688 506.88 444.96C507.808 443.2 509.056 441.824 510.624 440.832C512.192 439.808 513.984 439.296 516 439.296C517.984 439.296 519.76 439.808 521.328 440.832C522.928 441.824 524.192 443.2 525.12 444.96C526.048 446.688 526.512 448.672 526.512 450.912C526.512 453.152 526.048 455.152 525.12 456.912C524.192 458.64 522.928 460 521.328 460.992C519.76 461.984 517.984 462.48 516 462.48ZM516 458.592C517.088 458.592 518.048 458.272 518.88 457.632C519.744 456.96 520.416 456.048 520.896 454.896C521.376 453.744 521.616 452.4 521.616 450.864C521.616 449.296 521.376 447.936 520.896 446.784C520.416 445.632 519.744 444.736 518.88 444.096C518.048 443.456 517.088 443.136 516 443.136C514.912 443.136 513.936 443.456 513.072 444.096C512.24 444.736 511.584 445.632 511.104 446.784C510.624 447.936 510.384 449.296 510.384 450.864C510.384 452.4 510.624 453.744 511.104 454.896C511.584 456.048 512.24 456.96 513.072 457.632C513.936 458.272 514.912 458.592 516 458.592ZM532.752 439.776H537.696L537.6 446.112L537.024 445.584C537.184 444.624 537.488 443.76 537.936 442.992C538.384 442.192 538.928 441.52 539.568 440.976C540.24 440.432 540.976 440.016 541.776 439.728C542.576 439.408 543.408 439.248 544.272 439.248C545.488 439.248 546.592 439.456 547.584 439.872C548.576 440.288 549.472 440.912 550.272 441.744L548.256 445.68L548.064 446.112L547.68 445.92C547.584 445.664 547.488 445.408 547.392 445.152C547.296 444.896 547.056 444.592 546.672 444.24C546.192 443.92 545.712 443.68 545.232 443.52C544.784 443.36 544.256 443.28 543.648 443.28C542.88 443.28 542.128 443.424 541.392 443.712C540.688 443.968 540.048 444.384 539.472 444.96C538.896 445.536 538.432 446.272 538.08 447.168C537.76 448.032 537.6 449.088 537.6 450.336V462.048H532.752V439.776ZM555.264 462V458.208H561.6V433.68H555.552V429.888H566.448V458.208H572.736V462H555.264ZM586.944 462.528C585.76 462.528 584.608 462.288 583.488 461.808C582.4 461.296 581.424 460.56 580.56 459.6C579.696 458.64 579.008 457.424 578.496 455.952C578.016 454.448 577.776 452.72 577.776 450.768C577.776 448.784 578.016 447.072 578.496 445.632C579.008 444.192 579.696 443.008 580.56 442.08C581.424 441.12 582.416 440.416 583.536 439.968C584.656 439.488 585.824 439.248 587.04 439.248C587.904 439.248 588.688 439.36 589.392 439.584C590.128 439.808 590.784 440.144 591.36 440.592C591.936 441.04 592.4 441.6 592.752 442.272V429.888H597.408H597.84V430.32C597.68 430.512 597.568 430.72 597.504 430.944C597.44 431.168 597.424 431.552 597.456 432.096V458.88C597.456 459.392 597.472 459.92 597.504 460.464C597.568 460.976 597.712 461.488 597.936 462H593.232C593.072 461.648 592.96 461.328 592.896 461.04C592.832 460.752 592.8 460.464 592.8 460.176C592.8 459.888 592.8 459.584 592.8 459.264C592.352 459.936 591.84 460.528 591.264 461.04C590.688 461.52 590.032 461.888 589.296 462.144C588.56 462.4 587.776 462.528 586.944 462.528ZM587.76 458.592C588.624 458.592 589.36 458.416 589.968 458.064C590.576 457.712 591.072 457.2 591.456 456.528C591.84 455.856 592.128 455.04 592.32 454.08C592.512 453.12 592.608 452.032 592.608 450.816C592.608 449.184 592.432 447.792 592.08 446.64C591.728 445.456 591.168 444.56 590.4 443.952C589.664 443.312 588.72 442.992 587.568 442.992C586.736 442.992 586 443.168 585.36 443.52C584.72 443.872 584.176 444.384 583.728 445.056C583.312 445.696 582.992 446.48 582.768 447.408C582.544 448.336 582.432 449.376 582.432 450.528C582.432 452.16 582.656 453.584 583.104 454.8C583.584 456.016 584.224 456.96 585.024 457.632C585.824 458.272 586.736 458.592 587.76 458.592ZM633.696 462.528C631.232 462.528 629.312 461.968 627.936 460.848C626.592 459.696 625.92 458.208 625.92 456.384C625.92 455.168 626.192 454.08 626.736 453.12C627.312 452.128 628.112 451.28 629.136 450.576C630.192 449.872 631.456 449.328 632.928 448.944C634.4 448.528 636.064 448.32 637.92 448.32C638.304 448.32 638.704 448.336 639.12 448.368C639.568 448.368 640.032 448.384 640.512 448.416C641.024 448.448 641.536 448.48 642.048 448.512L642.192 451.92C641.744 451.856 641.264 451.808 640.752 451.776C640.272 451.744 639.792 451.728 639.312 451.728C638.832 451.728 638.384 451.728 637.968 451.728C636.72 451.728 635.632 451.824 634.704 452.016C633.808 452.176 633.056 452.432 632.448 452.784C631.872 453.136 631.44 453.568 631.152 454.08C630.864 454.592 630.72 455.184 630.72 455.856C630.72 456.4 630.816 456.88 631.008 457.296C631.2 457.68 631.456 457.984 631.776 458.208C632.128 458.432 632.528 458.608 632.976 458.736C633.456 458.832 633.968 458.88 634.512 458.88C635.568 458.88 636.496 458.704 637.296 458.352C638.096 458 638.768 457.488 639.312 456.816C639.888 456.112 640.32 455.248 640.608 454.224C640.896 453.168 641.04 451.936 641.04 450.528C641.04 448.576 640.816 447.056 640.368 445.968C639.952 444.88 639.328 444.128 638.496 443.712C637.664 443.296 636.624 443.088 635.376 443.088C634.352 443.088 633.36 443.264 632.4 443.616C631.472 443.936 630.56 444.544 629.664 445.44L627.12 442.56C628.336 441.408 629.664 440.576 631.104 440.064C632.576 439.552 634.08 439.296 635.616 439.296C637.024 439.296 638.32 439.472 639.504 439.824C640.72 440.144 641.776 440.688 642.672 441.456C643.6 442.224 644.304 443.264 644.784 444.576C645.296 445.888 645.552 447.552 645.552 449.568V462H640.56V459.264C640.144 459.904 639.68 460.448 639.168 460.896C638.656 461.312 638.096 461.648 637.488 461.904C636.912 462.128 636.304 462.288 635.664 462.384C635.024 462.48 634.368 462.528 633.696 462.528ZM650.88 462V439.776H655.68V443.184C656.224 442.384 656.832 441.696 657.504 441.12C658.176 440.544 658.928 440.096 659.76 439.776C660.592 439.424 661.488 439.248 662.448 439.248C663.696 439.248 664.848 439.568 665.904 440.208C666.96 440.848 667.808 441.856 668.448 443.232C669.088 444.576 669.408 446.368 669.408 448.608V462H664.656V448.656C664.656 447.344 664.512 446.272 664.224 445.44C663.936 444.608 663.52 444 662.976 443.616C662.464 443.232 661.84 443.04 661.104 443.04C660.464 443.04 659.824 443.184 659.184 443.472C658.544 443.76 657.952 444.16 657.408 444.672C656.896 445.152 656.48 445.76 656.16 446.496C655.84 447.2 655.68 448 655.68 448.896V462H650.88ZM682.944 462.528C681.76 462.528 680.608 462.288 679.488 461.808C678.4 461.296 677.424 460.56 676.56 459.6C675.696 458.64 675.008 457.424 674.496 455.952C674.016 454.448 673.776 452.72 673.776 450.768C673.776 448.784 674.016 447.072 674.496 445.632C675.008 444.192 675.696 443.008 676.56 442.08C677.424 441.12 678.416 440.416 679.536 439.968C680.656 439.488 681.824 439.248 683.04 439.248C683.904 439.248 684.688 439.36 685.392 439.584C686.128 439.808 686.784 440.144 687.36 440.592C687.936 441.04 688.4 441.6 688.752 442.272V429.888H693.408H693.84V430.32C693.68 430.512 693.568 430.72 693.504 430.944C693.44 431.168 693.424 431.552 693.456 432.096V458.88C693.456 459.392 693.472 459.92 693.504 460.464C693.568 460.976 693.712 461.488 693.936 462H689.232C689.072 461.648 688.96 461.328 688.896 461.04C688.832 460.752 688.8 460.464 688.8 460.176C688.8 459.888 688.8 459.584 688.8 459.264C688.352 459.936 687.84 460.528 687.264 461.04C686.688 461.52 686.032 461.888 685.296 462.144C684.56 462.4 683.776 462.528 682.944 462.528ZM683.76 458.592C684.624 458.592 685.36 458.416 685.968 458.064C686.576 457.712 687.072 457.2 687.456 456.528C687.84 455.856 688.128 455.04 688.32 454.08C688.512 453.12 688.608 452.032 688.608 450.816C688.608 449.184 688.432 447.792 688.08 446.64C687.728 445.456 687.168 444.56 686.4 443.952C685.664 443.312 684.72 442.992 683.568 442.992C682.736 442.992 682 443.168 681.36 443.52C680.72 443.872 680.176 444.384 679.728 445.056C679.312 445.696 678.992 446.48 678.768 447.408C678.544 448.336 678.432 449.376 678.432 450.528C678.432 452.16 678.656 453.584 679.104 454.8C679.584 456.016 680.224 456.96 681.024 457.632C681.824 458.272 682.736 458.592 683.76 458.592ZM733.008 462.528C731.408 462.528 729.936 462.272 728.592 461.76C727.248 461.248 726.08 460.512 725.088 459.552C724.128 458.56 723.376 457.344 722.832 455.904C722.288 454.464 722.016 452.832 722.016 451.008C722.016 449.152 722.288 447.504 722.832 446.064C723.376 444.592 724.112 443.36 725.04 442.368C726 441.376 727.104 440.608 728.352 440.064C729.632 439.52 730.992 439.248 732.432 439.248C733.68 439.248 734.864 439.472 735.984 439.92C737.136 440.368 738.128 441.04 738.96 441.936C739.824 442.8 740.496 443.904 740.976 445.248C741.488 446.592 741.744 448.16 741.744 449.952C741.744 450.272 741.744 450.64 741.744 451.056C741.744 451.44 741.728 451.776 741.696 452.064H726.624C726.688 453.216 726.912 454.224 727.296 455.088C727.68 455.92 728.16 456.608 728.736 457.152C729.344 457.696 730.032 458.096 730.8 458.352C731.568 458.608 732.368 458.736 733.2 458.736C733.936 458.736 734.608 458.672 735.216 458.544C735.856 458.384 736.464 458.144 737.04 457.824C737.616 457.504 738.144 457.072 738.624 456.528L741.12 458.976C740.448 459.776 739.696 460.448 738.864 460.992C738.032 461.504 737.12 461.888 736.128 462.144C735.168 462.4 734.128 462.528 733.008 462.528ZM726.72 448.464H737.088C737.088 447.568 736.976 446.784 736.752 446.112C736.528 445.44 736.192 444.864 735.744 444.384C735.328 443.904 734.816 443.552 734.208 443.328C733.6 443.072 732.928 442.944 732.192 442.944C731.488 442.944 730.832 443.056 730.224 443.28C729.648 443.504 729.12 443.84 728.64 444.288C728.16 444.736 727.744 445.312 727.392 446.016C727.072 446.688 726.848 447.504 726.72 448.464ZM745.632 462L753.36 450.864L745.776 439.776H750.864L755.952 447.12L760.752 439.776H765.6L758.496 450.624L766.512 462H761.328L755.904 454.416L750.864 462H745.632ZM770.496 470.016V439.776H775.248V443.328C775.664 442.368 776.192 441.6 776.832 441.024C777.504 440.416 778.24 439.984 779.04 439.728C779.84 439.44 780.704 439.296 781.632 439.296C782.848 439.296 783.984 439.552 785.04 440.064C786.128 440.544 787.088 441.264 787.92 442.224C788.752 443.184 789.408 444.384 789.888 445.824C790.368 447.264 790.608 448.944 790.608 450.864C790.608 452.816 790.352 454.528 789.84 456C789.328 457.472 788.64 458.704 787.776 459.696C786.944 460.656 785.984 461.376 784.896 461.856C783.808 462.336 782.688 462.576 781.536 462.576C780.736 462.576 779.936 462.464 779.136 462.24C778.368 462.048 777.664 461.744 777.024 461.328C776.384 460.88 775.824 460.368 775.344 459.792V470.016H770.496ZM780.336 458.736C781.072 458.736 781.76 458.608 782.4 458.352C783.04 458.064 783.616 457.632 784.128 457.056C784.64 456.448 785.04 455.632 785.328 454.608C785.616 453.552 785.76 452.272 785.76 450.768C785.76 449.168 785.552 447.808 785.136 446.688C784.752 445.568 784.176 444.704 783.408 444.096C782.672 443.488 781.776 443.168 780.72 443.136C779.92 443.104 779.184 443.248 778.512 443.568C777.84 443.856 777.264 444.336 776.784 445.008C776.304 445.648 775.936 446.512 775.68 447.6C775.456 448.656 775.344 449.92 775.344 451.392C775.344 452.384 775.408 453.28 775.536 454.08C775.696 454.848 775.92 455.536 776.208 456.144C776.496 456.72 776.832 457.2 777.216 457.584C777.632 457.968 778.096 458.256 778.608 458.448C779.152 458.64 779.728 458.736 780.336 458.736ZM801.696 462.528C799.232 462.528 797.312 461.968 795.936 460.848C794.592 459.696 793.92 458.208 793.92 456.384C793.92 455.168 794.192 454.08 794.736 453.12C795.312 452.128 796.112 451.28 797.136 450.576C798.192 449.872 799.456 449.328 800.928 448.944C802.4 448.528 804.064 448.32 805.92 448.32C806.304 448.32 806.704 448.336 807.12 448.368C807.568 448.368 808.032 448.384 808.512 448.416C809.024 448.448 809.536 448.48 810.048 448.512L810.192 451.92C809.744 451.856 809.264 451.808 808.752 451.776C808.272 451.744 807.792 451.728 807.312 451.728C806.832 451.728 806.384 451.728 805.968 451.728C804.72 451.728 803.632 451.824 802.704 452.016C801.808 452.176 801.056 452.432 800.448 452.784C799.872 453.136 799.44 453.568 799.152 454.08C798.864 454.592 798.72 455.184 798.72 455.856C798.72 456.4 798.816 456.88 799.008 457.296C799.2 457.68 799.456 457.984 799.776 458.208C800.128 458.432 800.528 458.608 800.976 458.736C801.456 458.832 801.968 458.88 802.512 458.88C803.568 458.88 804.496 458.704 805.296 458.352C806.096 458 806.768 457.488 807.312 456.816C807.888 456.112 808.32 455.248 808.608 454.224C808.896 453.168 809.04 451.936 809.04 450.528C809.04 448.576 808.816 447.056 808.368 445.968C807.952 444.88 807.328 444.128 806.496 443.712C805.664 443.296 804.624 443.088 803.376 443.088C802.352 443.088 801.36 443.264 800.4 443.616C799.472 443.936 798.56 444.544 797.664 445.44L795.12 442.56C796.336 441.408 797.664 440.576 799.104 440.064C800.576 439.552 802.08 439.296 803.616 439.296C805.024 439.296 806.32 439.472 807.504 439.824C808.72 440.144 809.776 440.688 810.672 441.456C811.6 442.224 812.304 443.264 812.784 444.576C813.296 445.888 813.552 447.552 813.552 449.568V462H808.56V459.264C808.144 459.904 807.68 460.448 807.168 460.896C806.656 461.312 806.096 461.648 805.488 461.904C804.912 462.128 804.304 462.288 803.664 462.384C803.024 462.48 802.368 462.528 801.696 462.528ZM818.88 462V439.776H823.68V443.184C824.224 442.384 824.832 441.696 825.504 441.12C826.176 440.544 826.928 440.096 827.76 439.776C828.592 439.424 829.488 439.248 830.448 439.248C831.696 439.248 832.848 439.568 833.904 440.208C834.96 440.848 835.808 441.856 836.448 443.232C837.088 444.576 837.408 446.368 837.408 448.608V462H832.656V448.656C832.656 447.344 832.512 446.272 832.224 445.44C831.936 444.608 831.52 444 830.976 443.616C830.464 443.232 829.84 443.04 829.104 443.04C828.464 443.04 827.824 443.184 827.184 443.472C826.544 443.76 825.952 444.16 825.408 444.672C824.896 445.152 824.48 445.76 824.16 446.496C823.84 447.2 823.68 448 823.68 448.896V462H818.88ZM850.944 462.528C849.76 462.528 848.608 462.288 847.488 461.808C846.4 461.296 845.424 460.56 844.56 459.6C843.696 458.64 843.008 457.424 842.496 455.952C842.016 454.448 841.776 452.72 841.776 450.768C841.776 448.784 842.016 447.072 842.496 445.632C843.008 444.192 843.696 443.008 844.56 442.08C845.424 441.12 846.416 440.416 847.536 439.968C848.656 439.488 849.824 439.248 851.04 439.248C851.904 439.248 852.688 439.36 853.392 439.584C854.128 439.808 854.784 440.144 855.36 440.592C855.936 441.04 856.4 441.6 856.752 442.272V429.888H861.408H861.84V430.32C861.68 430.512 861.568 430.72 861.504 430.944C861.44 431.168 861.424 431.552 861.456 432.096V458.88C861.456 459.392 861.472 459.92 861.504 460.464C861.568 460.976 861.712 461.488 861.936 462H857.232C857.072 461.648 856.96 461.328 856.896 461.04C856.832 460.752 856.8 460.464 856.8 460.176C856.8 459.888 856.8 459.584 856.8 459.264C856.352 459.936 855.84 460.528 855.264 461.04C854.688 461.52 854.032 461.888 853.296 462.144C852.56 462.4 851.776 462.528 850.944 462.528ZM851.76 458.592C852.624 458.592 853.36 458.416 853.968 458.064C854.576 457.712 855.072 457.2 855.456 456.528C855.84 455.856 856.128 455.04 856.32 454.08C856.512 453.12 856.608 452.032 856.608 450.816C856.608 449.184 856.432 447.792 856.08 446.64C855.728 445.456 855.168 444.56 854.4 443.952C853.664 443.312 852.72 442.992 851.568 442.992C850.736 442.992 850 443.168 849.36 443.52C848.72 443.872 848.176 444.384 847.728 445.056C847.312 445.696 846.992 446.48 846.768 447.408C846.544 448.336 846.432 449.376 846.432 450.528C846.432 452.16 846.656 453.584 847.104 454.8C847.584 456.016 848.224 456.96 849.024 457.632C849.824 458.272 850.736 458.592 851.76 458.592ZM146.928 479.888H151.632H152.112V480.32C151.92 480.512 151.792 480.72 151.728 480.944C151.696 481.168 151.68 481.552 151.68 482.096V493.04C152.224 492.24 152.864 491.568 153.6 491.024C154.368 490.448 155.152 490.016 155.952 489.728C156.784 489.408 157.616 489.248 158.448 489.248C159.856 489.248 161.072 489.568 162.096 490.208C163.152 490.848 163.968 491.856 164.544 493.232C165.12 494.576 165.408 496.368 165.408 498.608V512H160.704V498.656C160.704 497.28 160.56 496.192 160.272 495.392C159.984 494.56 159.584 493.968 159.072 493.616C158.56 493.232 157.952 493.04 157.248 493.04C156.672 493.04 156.112 493.136 155.568 493.328C155.056 493.52 154.56 493.792 154.08 494.144C153.6 494.464 153.184 494.88 152.832 495.392C152.48 495.904 152.192 496.48 151.968 497.12C151.776 497.76 151.68 498.464 151.68 499.232V512H146.928V479.888ZM178.32 512.528C177.424 512.528 176.576 512.4 175.776 512.144C175.008 511.92 174.304 511.552 173.664 511.04C173.024 510.528 172.464 509.888 171.984 509.12C171.536 508.352 171.184 507.424 170.928 506.336C170.704 505.248 170.592 504.016 170.592 502.64L170.64 489.776H175.344V502.64C175.344 503.76 175.44 504.72 175.632 505.52C175.856 506.288 176.144 506.912 176.496 507.392C176.88 507.872 177.312 508.224 177.792 508.448C178.272 508.64 178.784 508.736 179.328 508.736C180.032 508.736 180.688 508.608 181.296 508.352C181.904 508.096 182.432 507.712 182.88 507.2C183.36 506.656 183.712 505.984 183.936 505.184C184.192 504.352 184.32 503.392 184.32 502.304V489.776H189.12V508.496C189.12 509.136 189.136 509.744 189.168 510.32C189.232 510.864 189.376 511.424 189.6 512H185.136C184.976 511.648 184.864 511.312 184.8 510.992C184.736 510.64 184.688 510.304 184.656 509.984C184.656 509.632 184.656 509.28 184.656 508.928C184.336 509.536 183.936 510.064 183.456 510.512C183.008 510.96 182.496 511.344 181.92 511.664C181.376 511.952 180.8 512.16 180.192 512.288C179.616 512.448 178.992 512.528 178.32 512.528ZM193.584 512V489.776H197.664V491.6C198.016 491.088 198.4 490.672 198.816 490.352C199.264 490 199.728 489.728 200.208 489.536C200.72 489.344 201.232 489.248 201.744 489.248C202.32 489.248 202.864 489.36 203.376 489.584C203.888 489.808 204.336 490.128 204.72 490.544C205.104 490.96 205.392 491.504 205.584 492.176C205.904 491.536 206.288 491.008 206.736 490.592C207.216 490.176 207.76 489.856 208.368 489.632C209.008 489.376 209.68 489.248 210.384 489.248C211.152 489.248 211.808 489.408 212.352 489.728C212.928 490.016 213.392 490.432 213.744 490.976C214.128 491.488 214.4 492.128 214.56 492.896C214.752 493.632 214.832 494.464 214.8 495.392V512H210.624V496.64C210.624 495.52 210.56 494.688 210.432 494.144C210.304 493.6 210.112 493.232 209.856 493.04C209.632 492.848 209.36 492.752 209.04 492.752C208.56 492.752 208.096 492.976 207.648 493.424C207.232 493.84 206.88 494.416 206.592 495.152C206.336 495.888 206.208 496.704 206.208 497.6V512H202.176V496.832C202.176 495.168 202.032 494.064 201.744 493.52C201.488 492.976 201.024 492.704 200.352 492.704C200.032 492.704 199.712 492.816 199.392 493.04C199.104 493.232 198.832 493.536 198.576 493.952C198.32 494.336 198.112 494.816 197.952 495.392C197.824 495.968 197.76 496.64 197.76 497.408V512H193.584ZM225.696 512.528C223.232 512.528 221.312 511.968 219.936 510.848C218.592 509.696 217.92 508.208 217.92 506.384C217.92 505.168 218.192 504.08 218.736 503.12C219.312 502.128 220.112 501.28 221.136 500.576C222.192 499.872 223.456 499.328 224.928 498.944C226.4 498.528 228.064 498.32 229.92 498.32C230.304 498.32 230.704 498.336 231.12 498.368C231.568 498.368 232.032 498.384 232.512 498.416C233.024 498.448 233.536 498.48 234.048 498.512L234.192 501.92C233.744 501.856 233.264 501.808 232.752 501.776C232.272 501.744 231.792 501.728 231.312 501.728C230.832 501.728 230.384 501.728 229.968 501.728C228.72 501.728 227.632 501.824 226.704 502.016C225.808 502.176 225.056 502.432 224.448 502.784C223.872 503.136 223.44 503.568 223.152 504.08C222.864 504.592 222.72 505.184 222.72 505.856C222.72 506.4 222.816 506.88 223.008 507.296C223.2 507.68 223.456 507.984 223.776 508.208C224.128 508.432 224.528 508.608 224.976 508.736C225.456 508.832 225.968 508.88 226.512 508.88C227.568 508.88 228.496 508.704 229.296 508.352C230.096 508 230.768 507.488 231.312 506.816C231.888 506.112 232.32 505.248 232.608 504.224C232.896 503.168 233.04 501.936 233.04 500.528C233.04 498.576 232.816 497.056 232.368 495.968C231.952 494.88 231.328 494.128 230.496 493.712C229.664 493.296 228.624 493.088 227.376 493.088C226.352 493.088 225.36 493.264 224.4 493.616C223.472 493.936 222.56 494.544 221.664 495.44L219.12 492.56C220.336 491.408 221.664 490.576 223.104 490.064C224.576 489.552 226.08 489.296 227.616 489.296C229.024 489.296 230.32 489.472 231.504 489.824C232.72 490.144 233.776 490.688 234.672 491.456C235.6 492.224 236.304 493.264 236.784 494.576C237.296 495.888 237.552 497.552 237.552 499.568V512H232.56V509.264C232.144 509.904 231.68 510.448 231.168 510.896C230.656 511.312 230.096 511.648 229.488 511.904C228.912 512.128 228.304 512.288 227.664 512.384C227.024 512.48 226.368 512.528 225.696 512.528ZM242.88 512V489.776H247.68V493.184C248.224 492.384 248.832 491.696 249.504 491.12C250.176 490.544 250.928 490.096 251.76 489.776C252.592 489.424 253.488 489.248 254.448 489.248C255.696 489.248 256.848 489.568 257.904 490.208C258.96 490.848 259.808 491.856 260.448 493.232C261.088 494.576 261.408 496.368 261.408 498.608V512H256.656V498.656C256.656 497.344 256.512 496.272 256.224 495.44C255.936 494.608 255.52 494 254.976 493.616C254.464 493.232 253.84 493.04 253.104 493.04C252.464 493.04 251.824 493.184 251.184 493.472C250.544 493.76 249.952 494.16 249.408 494.672C248.896 495.152 248.48 495.76 248.16 496.496C247.84 497.2 247.68 498 247.68 498.896V512H242.88ZM268.32 512V508.208H273.84V493.568H268.56V489.776H278.64V508.208H283.68V512H268.32ZM275.952 485.792C275.088 485.792 274.352 485.504 273.744 484.928C273.168 484.32 272.88 483.616 272.88 482.816C272.88 481.952 273.168 481.232 273.744 480.656C274.32 480.08 275.056 479.792 275.952 479.792C276.784 479.792 277.504 480.096 278.112 480.704C278.752 481.312 279.072 482.016 279.072 482.816C279.072 483.616 278.752 484.32 278.112 484.928C277.504 485.504 276.784 485.792 275.952 485.792ZM302.352 512.432C301.04 512.432 299.904 512.224 298.944 511.808C298.016 511.36 297.264 510.656 296.688 509.696C296.144 508.736 295.76 507.488 295.536 505.952C295.312 504.416 295.232 502.544 295.296 500.336L295.92 484.4L300.816 483.776L301.296 483.728L301.344 484.16C301.184 484.384 301.04 484.608 300.912 484.832C300.816 485.056 300.736 485.44 300.672 485.984L300.192 492.176L300.384 492.704L300.048 500.336C299.952 502.512 300.016 504.208 300.24 505.424C300.464 506.608 300.848 507.44 301.392 507.92C301.936 508.368 302.592 508.592 303.36 508.592C304.384 508.592 305.296 508.384 306.096 507.968C306.928 507.552 307.744 507.04 308.544 506.432L309.6 509.984C308.512 510.784 307.376 511.392 306.192 511.808C305.008 512.224 303.728 512.432 302.352 512.432ZM290.976 489.776H307.728L307.68 493.616H290.976V489.776ZM318.048 520.4C316.992 520.4 316.048 520.224 315.216 519.872C314.384 519.552 313.584 519.056 312.816 518.384L314.592 515.12L314.832 514.736L315.168 514.928C315.264 515.152 315.376 515.36 315.504 515.552C315.664 515.776 315.968 516.048 316.416 516.368C316.672 516.464 316.944 516.528 317.232 516.56C317.52 516.624 317.808 516.656 318.096 516.656C318.832 516.656 319.456 516.464 319.968 516.08C320.48 515.728 320.928 515.168 321.312 514.4C321.728 513.632 322.144 512.64 322.56 511.424L327.168 497.984C327.648 496.576 328.064 495.216 328.416 493.904C328.8 492.56 329.04 491.184 329.136 489.776H333.648C333.52 491.248 333.184 492.768 332.64 494.336C332.128 495.904 331.6 497.424 331.056 498.896L325.536 514.112C324.704 516.448 323.664 518.08 322.416 519.008C321.168 519.936 319.712 520.4 318.048 520.4ZM313.728 489.776H318.576L325.296 507.248L322.896 512.528L313.728 489.776ZM345.696 480.08H350.304C350.304 482 350.272 483.536 350.208 484.688C350.176 485.84 350.112 486.816 350.016 487.616C349.952 488.384 349.856 489.136 349.728 489.872C349.632 490.576 349.536 491.44 349.44 492.464H346.56C346.464 491.44 346.352 490.576 346.224 489.872C346.128 489.136 346.032 488.384 345.936 487.616C345.872 486.848 345.808 485.888 345.744 484.736C345.712 483.552 345.696 482 345.696 480.08ZM372.336 512.528C370.992 512.528 369.728 512.4 368.544 512.144C367.36 511.888 366.24 511.504 365.184 510.992C364.16 510.48 363.216 509.824 362.352 509.024L364.56 504.992L364.848 504.56L365.184 504.752C365.248 505.008 365.328 505.28 365.424 505.568C365.52 505.824 365.744 506.144 366.096 506.528C366.864 507.2 367.744 507.744 368.736 508.16C369.728 508.544 370.944 508.736 372.384 508.736C373.376 508.736 374.208 508.624 374.88 508.4C375.584 508.144 376.128 507.808 376.512 507.392C376.896 506.944 377.088 506.448 377.088 505.904C377.088 505.488 376.976 505.136 376.752 504.848C376.56 504.528 376.256 504.24 375.84 503.984C375.424 503.696 374.88 503.424 374.208 503.168C373.536 502.88 372.72 502.608 371.76 502.352C370.128 501.872 368.704 501.328 367.488 500.72C366.272 500.08 365.328 499.328 364.656 498.464C363.984 497.6 363.648 496.576 363.648 495.392C363.648 494.208 363.984 493.168 364.656 492.272C365.36 491.344 366.352 490.608 367.632 490.064C368.912 489.52 370.432 489.248 372.192 489.248C373.152 489.248 374.048 489.328 374.88 489.488C375.744 489.616 376.528 489.824 377.232 490.112C377.968 490.4 378.656 490.768 379.296 491.216C379.936 491.632 380.544 492.128 381.12 492.704L378.672 495.968L378.384 496.352L378.048 496.064C378.016 495.808 377.936 495.568 377.808 495.344C377.712 495.12 377.488 494.832 377.136 494.48C376.432 493.968 375.664 493.584 374.832 493.328C374 493.072 373.152 492.944 372.288 492.944C371.168 492.944 370.176 493.136 369.312 493.52C368.48 493.904 368.064 494.48 368.064 495.248C368.064 495.696 368.24 496.112 368.592 496.496C368.976 496.88 369.584 497.264 370.416 497.648C371.248 498 372.384 498.368 373.824 498.752C375.648 499.232 377.12 499.792 378.24 500.432C379.36 501.04 380.176 501.76 380.688 502.592C381.232 503.424 381.504 504.4 381.504 505.52C381.504 506.768 381.152 507.936 380.448 509.024C379.776 510.08 378.752 510.928 377.376 511.568C376 512.208 374.32 512.528 372.336 512.528ZM410.928 479.888H415.632H416.112V480.32C415.92 480.512 415.792 480.72 415.728 480.944C415.696 481.168 415.68 481.552 415.68 482.096V493.04C416.224 492.24 416.864 491.568 417.6 491.024C418.368 490.448 419.152 490.016 419.952 489.728C420.784 489.408 421.616 489.248 422.448 489.248C423.856 489.248 425.072 489.568 426.096 490.208C427.152 490.848 427.968 491.856 428.544 493.232C429.12 494.576 429.408 496.368 429.408 498.608V512H424.704V498.656C424.704 497.28 424.56 496.192 424.272 495.392C423.984 494.56 423.584 493.968 423.072 493.616C422.56 493.232 421.952 493.04 421.248 493.04C420.672 493.04 420.112 493.136 419.568 493.328C419.056 493.52 418.56 493.792 418.08 494.144C417.6 494.464 417.184 494.88 416.832 495.392C416.48 495.904 416.192 496.48 415.968 497.12C415.776 497.76 415.68 498.464 415.68 499.232V512H410.928V479.888ZM444 512.48C441.984 512.48 440.192 512 438.624 511.04C437.056 510.048 435.808 508.688 434.88 506.96C433.952 505.2 433.488 503.184 433.488 500.912C433.488 498.672 433.952 496.688 434.88 494.96C435.808 493.2 437.056 491.824 438.624 490.832C440.192 489.808 441.984 489.296 444 489.296C445.984 489.296 447.76 489.808 449.328 490.832C450.928 491.824 452.192 493.2 453.12 494.96C454.048 496.688 454.512 498.672 454.512 500.912C454.512 503.152 454.048 505.152 453.12 506.912C452.192 508.64 450.928 510 449.328 510.992C447.76 511.984 445.984 512.48 444 512.48ZM444 508.592C445.088 508.592 446.048 508.272 446.88 507.632C447.744 506.96 448.416 506.048 448.896 504.896C449.376 503.744 449.616 502.4 449.616 500.864C449.616 499.296 449.376 497.936 448.896 496.784C448.416 495.632 447.744 494.736 446.88 494.096C446.048 493.456 445.088 493.136 444 493.136C442.912 493.136 441.936 493.456 441.072 494.096C440.24 494.736 439.584 495.632 439.104 496.784C438.624 497.936 438.384 499.296 438.384 500.864C438.384 502.4 438.624 503.744 439.104 504.896C439.584 506.048 440.24 506.96 441.072 507.632C441.936 508.272 442.912 508.592 444 508.592ZM460.752 489.776H465.696L465.6 496.112L465.024 495.584C465.184 494.624 465.488 493.76 465.936 492.992C466.384 492.192 466.928 491.52 467.568 490.976C468.24 490.432 468.976 490.016 469.776 489.728C470.576 489.408 471.408 489.248 472.272 489.248C473.488 489.248 474.592 489.456 475.584 489.872C476.576 490.288 477.472 490.912 478.272 491.744L476.256 495.68L476.064 496.112L475.68 495.92C475.584 495.664 475.488 495.408 475.392 495.152C475.296 494.896 475.056 494.592 474.672 494.24C474.192 493.92 473.712 493.68 473.232 493.52C472.784 493.36 472.256 493.28 471.648 493.28C470.88 493.28 470.128 493.424 469.392 493.712C468.688 493.968 468.048 494.384 467.472 494.96C466.896 495.536 466.432 496.272 466.08 497.168C465.76 498.032 465.6 499.088 465.6 500.336V512.048H460.752V489.776ZM484.32 512V508.208H489.84V493.568H484.56V489.776H494.64V508.208H499.68V512H484.32ZM491.952 485.792C491.088 485.792 490.352 485.504 489.744 484.928C489.168 484.32 488.88 483.616 488.88 482.816C488.88 481.952 489.168 481.232 489.744 480.656C490.32 480.08 491.056 479.792 491.952 479.792C492.784 479.792 493.504 480.096 494.112 480.704C494.752 481.312 495.072 482.016 495.072 482.816C495.072 483.616 494.752 484.32 494.112 484.928C493.504 485.504 492.784 485.792 491.952 485.792ZM506.064 509.072L518.832 493.808H507.024V489.776H524.832V492.896L512.304 508.016H523.728C524.272 508.016 524.656 507.984 524.88 507.92C525.104 507.856 525.312 507.744 525.504 507.584H525.936V508.016V512H506.064V509.072ZM540 512.48C537.984 512.48 536.192 512 534.624 511.04C533.056 510.048 531.808 508.688 530.88 506.96C529.952 505.2 529.488 503.184 529.488 500.912C529.488 498.672 529.952 496.688 530.88 494.96C531.808 493.2 533.056 491.824 534.624 490.832C536.192 489.808 537.984 489.296 540 489.296C541.984 489.296 543.76 489.808 545.328 490.832C546.928 491.824 548.192 493.2 549.12 494.96C550.048 496.688 550.512 498.672 550.512 500.912C550.512 503.152 550.048 505.152 549.12 506.912C548.192 508.64 546.928 510 545.328 510.992C543.76 511.984 541.984 512.48 540 512.48ZM540 508.592C541.088 508.592 542.048 508.272 542.88 507.632C543.744 506.96 544.416 506.048 544.896 504.896C545.376 503.744 545.616 502.4 545.616 500.864C545.616 499.296 545.376 497.936 544.896 496.784C544.416 495.632 543.744 494.736 542.88 494.096C542.048 493.456 541.088 493.136 540 493.136C538.912 493.136 537.936 493.456 537.072 494.096C536.24 494.736 535.584 495.632 535.104 496.784C534.624 497.936 534.384 499.296 534.384 500.864C534.384 502.4 534.624 503.744 535.104 504.896C535.584 506.048 536.24 506.96 537.072 507.632C537.936 508.272 538.912 508.592 540 508.592ZM554.88 512V489.776H559.68V493.184C560.224 492.384 560.832 491.696 561.504 491.12C562.176 490.544 562.928 490.096 563.76 489.776C564.592 489.424 565.488 489.248 566.448 489.248C567.696 489.248 568.848 489.568 569.904 490.208C570.96 490.848 571.808 491.856 572.448 493.232C573.088 494.576 573.408 496.368 573.408 498.608V512H568.656V498.656C568.656 497.344 568.512 496.272 568.224 495.44C567.936 494.608 567.52 494 566.976 493.616C566.464 493.232 565.84 493.04 565.104 493.04C564.464 493.04 563.824 493.184 563.184 493.472C562.544 493.76 561.952 494.16 561.408 494.672C560.896 495.152 560.48 495.76 560.16 496.496C559.84 497.2 559.68 498 559.68 498.896V512H554.88ZM588.336 512.528C586.992 512.528 585.728 512.4 584.544 512.144C583.36 511.888 582.24 511.504 581.184 510.992C580.16 510.48 579.216 509.824 578.352 509.024L580.56 504.992L580.848 504.56L581.184 504.752C581.248 505.008 581.328 505.28 581.424 505.568C581.52 505.824 581.744 506.144 582.096 506.528C582.864 507.2 583.744 507.744 584.736 508.16C585.728 508.544 586.944 508.736 588.384 508.736C589.376 508.736 590.208 508.624 590.88 508.4C591.584 508.144 592.128 507.808 592.512 507.392C592.896 506.944 593.088 506.448 593.088 505.904C593.088 505.488 592.976 505.136 592.752 504.848C592.56 504.528 592.256 504.24 591.84 503.984C591.424 503.696 590.88 503.424 590.208 503.168C589.536 502.88 588.72 502.608 587.76 502.352C586.128 501.872 584.704 501.328 583.488 500.72C582.272 500.08 581.328 499.328 580.656 498.464C579.984 497.6 579.648 496.576 579.648 495.392C579.648 494.208 579.984 493.168 580.656 492.272C581.36 491.344 582.352 490.608 583.632 490.064C584.912 489.52 586.432 489.248 588.192 489.248C589.152 489.248 590.048 489.328 590.88 489.488C591.744 489.616 592.528 489.824 593.232 490.112C593.968 490.4 594.656 490.768 595.296 491.216C595.936 491.632 596.544 492.128 597.12 492.704L594.672 495.968L594.384 496.352L594.048 496.064C594.016 495.808 593.936 495.568 593.808 495.344C593.712 495.12 593.488 494.832 593.136 494.48C592.432 493.968 591.664 493.584 590.832 493.328C590 493.072 589.152 492.944 588.288 492.944C587.168 492.944 586.176 493.136 585.312 493.52C584.48 493.904 584.064 494.48 584.064 495.248C584.064 495.696 584.24 496.112 584.592 496.496C584.976 496.88 585.584 497.264 586.416 497.648C587.248 498 588.384 498.368 589.824 498.752C591.648 499.232 593.12 499.792 594.24 500.432C595.36 501.04 596.176 501.76 596.688 502.592C597.232 503.424 597.504 504.4 597.504 505.52C597.504 506.768 597.152 507.936 596.448 509.024C595.776 510.08 594.752 510.928 593.376 511.568C592 512.208 590.32 512.528 588.336 512.528Z" fill="white"/>
<path d="M12 235.5L83.5 288.5H945L1005.5 235.5V54L945 1H66.5L12 54V235.5Z" fill="#AC1D39" stroke="black"/>
<path d="M84 221.027V66.4769H115.564L139.976 134.201L164.142 66.2288H195.952V221.027H166.608V118.82L148.607 172.156H130.359L113.098 118.82V221.027H84Z" fill="white"/>
<path d="M292.863 191.01H229.982L234.174 166.699H287.931L292.863 191.01ZM262.779 126.511L237.873 221.027H203.35L252.175 66.4769H273.135L321.961 221.027H286.945L262.779 126.511Z" fill="white"/>
<path d="M333.304 221.027V66.4769H384.348C397.171 66.4769 407.692 68.3788 415.912 72.1826C424.296 75.9864 430.461 81.3613 434.406 88.3074C438.516 95.2535 440.571 103.357 440.571 112.619C440.571 118.242 439.42 123.865 437.119 129.488C434.982 134.945 431.858 139.989 427.748 144.62C423.638 149.086 418.789 152.641 413.199 155.287L444.763 221.027H408.761L379.416 159.505H368.813V221.027H333.304ZM368.813 130.976H386.074C391.828 130.976 396.349 129.488 399.637 126.511C403.089 123.369 404.815 119.151 404.815 113.859C404.815 110.551 404.075 107.574 402.596 104.928C401.116 102.282 398.979 100.132 396.185 98.4784C393.39 96.8246 390.02 95.9977 386.074 95.9977H368.813V130.976Z" fill="white"/>
<path d="M506.411 224.004C496.054 224.004 486.026 222.598 476.327 219.787C466.792 216.81 459.065 212.262 453.147 206.143L469.915 178.11L471.148 176.126L473.614 177.614C473.943 178.772 474.354 180.012 474.847 181.335C475.505 182.493 476.902 183.981 479.039 185.8C482.985 188.447 487.259 190.679 491.862 192.498C496.465 194.318 501.232 195.31 506.164 195.475C509.616 195.475 512.658 195.227 515.288 194.731C518.083 194.235 520.466 193.408 522.439 192.25C524.412 191.093 525.891 189.522 526.878 187.537C528.029 185.387 528.604 182.824 528.604 179.847C528.604 178.358 528.357 176.87 527.864 175.381C527.535 173.728 526.878 172.156 525.892 170.668C524.905 169.014 523.343 167.36 521.206 165.706C519.234 164.053 516.685 162.233 513.562 160.249C510.438 158.264 506.493 156.197 501.726 154.047C491.204 148.92 482.82 144.041 476.573 139.411C470.491 134.78 466.052 129.736 463.257 124.278C460.627 118.655 459.312 111.957 459.312 104.184C459.312 96.5765 461.531 89.7132 465.97 83.594C470.573 77.4748 476.738 72.5961 484.464 68.9576C492.191 65.3192 500.657 63.5 509.863 63.5C516.932 63.5 523.343 64.2442 529.097 65.7327C535.015 67.2211 540.44 69.4538 545.372 72.4307C550.468 75.4076 555.154 79.2114 559.428 83.8421L538.468 106.665L536.988 108.401L534.769 106.417C534.604 105.094 534.358 103.853 534.029 102.696C533.7 101.373 532.632 99.7188 530.823 97.7342C528.193 95.4189 525.398 93.9304 522.439 93.2689C519.48 92.442 516.028 92.0285 512.082 92.0285C509.288 92.0285 506.74 92.3593 504.438 93.0208C502.137 93.517 500.164 94.3439 498.52 95.5015C496.876 96.4938 495.561 97.6515 494.574 98.9746C493.752 100.298 493.341 101.703 493.341 103.192C493.341 104.68 493.506 106.086 493.835 107.409C494.163 108.567 494.821 109.807 495.807 111.13C496.794 112.453 498.273 113.859 500.246 115.347C502.383 116.836 505.096 118.572 508.383 120.557C511.836 122.376 516.11 124.526 521.206 127.007C529.097 130.976 535.755 134.78 541.18 138.418C546.605 142.057 550.879 145.861 554.003 149.83C557.291 153.634 559.592 157.851 560.907 162.482C562.387 167.112 563.127 172.404 563.127 178.358C563.127 186.131 561.154 193.491 557.209 200.437C553.263 207.383 547.098 213.089 538.714 217.554C530.33 221.854 519.562 224.004 506.411 224.004Z" fill="white"/>
<path d="M586.306 221.027V192.995H616.144V94.5092H587.786V66.4769H678.531V94.5092H648.694V192.995H679.764V221.027H586.306Z" fill="white"/>
<path d="M700.971 66.4769H738.207L782.1 159.753L779.634 66.4769H812.43V69.2057C811.609 70.198 811.033 71.273 810.704 72.4307C810.54 73.5883 810.458 75.5729 810.458 78.3844V221.027H776.428L731.795 121.549V221.027H700.971V66.4769Z" fill="white"/>
<path d="M878.764 224.5C861.667 224.5 848.268 219.373 838.569 209.119C828.87 198.7 824.02 184.477 824.02 166.451V66.4769H861.009V69.2057C860.187 70.198 859.612 71.273 859.283 72.4307C859.118 73.5883 859.036 75.5729 859.036 78.3844V166.699C859.036 175.96 860.434 183.237 863.228 188.529C866.187 193.822 871.448 196.468 879.01 196.468C886.737 196.468 892.079 193.822 895.039 188.529C897.998 183.072 899.477 175.547 899.477 165.955V66.4769H934V165.706C934 179.102 931.616 190.183 926.849 198.948C922.081 207.548 915.506 213.998 907.122 218.298C898.902 222.433 889.449 224.5 878.764 224.5Z" fill="white"/>
</svg>
