<svg width="256" height="256" viewBox="0 0 256 256" fill="none" xmlns="http://www.w3.org/2000/svg">
<path d="M203.052 53.6156C244.317 94.8812 244.317 161.786 203.052 203.051C161.787 244.316 94.8822 244.316 53.6166 203.051C12.3518 161.786 12.3518 94.8812 53.6166 53.6156C94.8822 12.3508 161.787 12.3508 203.052 53.6156Z" fill="#E03F3F"/>
<path d="M132.219 102.708C133.913 101.995 135.836 101.299 137.625 101.299C138.675 101.299 139.679 101.539 140.565 102.154C140.748 102.279 140.896 102.423 141.05 102.564C138.106 102.613 135.163 102.66 132.219 102.708Z" fill="#D73D3D"/>
<path d="M134.626 52.5003C131.579 58.8282 124.32 61.2473 117.867 62.0547C114.64 62.0547 109.802 59.634 111.414 55.6018C113.027 47.5356 123.513 43.5025 131.859 47.5703C133.885 48.7996 134.976 50.5596 134.626 52.5003Z" fill="#C73232"/>
<path d="M170.598 71.5611C166.331 72.692 162.948 70.6279 160.662 68.2879C159.736 66.9659 159.643 64.0733 162.269 63.2183C167.059 60.8469 172.233 63.6265 172.448 68.5742C172.371 69.8664 171.74 70.9755 170.598 71.5611Z" fill="#C73232"/>
<path d="M105.81 187.259C107.409 180.495 111.017 177.953 114.201 177.136C115.788 177.159 118.128 179.791 117.271 184.104C116.348 192.742 111.127 196.991 107.09 192.567C106.115 191.233 105.606 189.337 105.81 187.259Z" fill="#D43535"/>
<path d="M181.451 133.851C183.049 127.088 186.657 124.545 189.843 123.728C191.428 123.752 193.768 126.383 192.91 130.697C191.988 139.336 186.768 143.584 182.731 139.16C181.755 137.825 181.247 135.93 181.451 133.851Z" fill="#D43535"/>
<path d="M62.547 175.364C59.4198 169.788 59.4157 166.794 60.2022 165.225C60.833 164.77 63.2028 166.051 65.2605 169.558C69.6904 176.341 70.0139 181.104 65.988 178.979C64.8693 178.266 63.6198 176.99 62.547 175.364Z" fill="#C73232"/>
<path d="M173.783 155.042C174.535 148.695 176.294 146.272 177.853 145.467C178.632 145.469 179.794 147.901 179.393 151.946C178.982 160.039 176.441 164.078 174.437 159.991C173.952 158.757 173.693 156.989 173.783 155.042Z" fill="#C73232"/>
<path d="M103.673 210.417C101.868 205.163 103.221 201.906 105.026 199.994C106.107 199.335 108.813 200.114 110.073 203.395C113.135 209.628 111.42 214.726 106.803 213.458C105.575 212.974 104.422 211.909 103.673 210.417Z" fill="#D43535"/>
<path d="M82.5275 171.699C78.4541 171.397 76.6698 169.607 75.9253 167.902C75.806 167.015 77.1409 165.481 79.7253 165.583C84.8336 165.345 87.7471 167.885 85.5103 170.522C84.8166 171.182 83.7551 171.631 82.5275 171.699Z" fill="#C73232"/>
<path d="M168.659 138.885C166.277 142.204 163.819 142.793 161.976 142.539C161.157 142.178 160.543 140.239 161.979 138.088C164.439 133.605 168.126 132.443 169.211 135.727C169.412 136.663 169.241 137.803 168.659 138.885Z" fill="#C73232"/>
<path d="M138.949 96.1787C134.73 96.1787 130.504 94.4864 127.355 91.0769C128.003 90.3074 128.634 89.5266 129.246 88.7353C132.212 91.3084 135.884 92.5869 139.551 92.5869C144.711 92.5869 149.86 90.0541 153.007 85.0345C153.395 84.5884 153.705 84.1343 153.946 83.6762C154.196 85.2846 153.814 87.0083 152.405 88.6264C149.258 93.6459 144.109 96.1787 138.949 96.1787Z" fill="#E14545"/>
<path d="M126.572 78.6843C133.195 71.9418 142.235 72.0733 149.554 73.9092C152.998 75.3441 156.876 80.5912 153.005 85.0348C146.985 94.6376 133.642 95.1368 126.9 86.2221C125.392 83.7491 125.165 81.0106 126.572 78.6843Z" fill="#D43535"/>
<path d="M75.2184 103.629C79.5597 97.6816 90.8523 96.0684 94.0787 101.715C96.4986 107.361 89.239 112.201 83.5927 113.007C80.3663 113.007 77.9464 111.394 75.2394 108.848C74.2884 107.199 74.2061 105.305 75.2184 103.629Z" fill="#D43535"/>
<path d="M166.877 116.362C169.531 112.65 176.301 111.545 178.176 114.999C179.568 118.461 175.18 121.519 171.795 122.071C169.865 122.102 168.434 121.13 166.839 119.584C166.287 118.575 166.256 117.408 166.877 116.362Z" fill="#D43535"/>
<path d="M127.579 188.931C140.469 183.328 148.849 185.996 153.926 190.069C155.752 192.616 154.222 199.499 146.193 203.33C131.047 212.264 117.994 209.089 120.446 197.353C121.469 194.199 123.957 191.109 127.579 188.931Z" fill="#D43535"/>
<path d="M64.6692 146.247C68.2917 149.151 75.5053 154.883 70.4583 157.116C65.6234 159.697 59.2891 154.535 56.0481 150.952C54.989 149.208 52.595 147.022 55.1511 145.08C56.7628 144.219 59.0092 144.405 61.3653 144.867C62.4663 145.173 63.5875 145.637 64.6692 146.247Z" fill="#D43535"/>
<path d="M224.391 163.031C224.17 162.551 223.94 162.069 223.705 161.589C226.924 152.757 229.184 143.504 230.077 134.122C230.208 132.737 230.31 131.35 230.381 129.96C230.224 141.17 228.227 152.356 224.391 163.031ZM216.33 148.903C210.132 138.945 204.087 128.932 205.819 117.926C206.464 113.833 208.58 109.573 212.45 108.094C213.401 107.731 214.399 107.556 215.413 107.485C215.584 108.292 215.747 109.101 215.905 109.911C217.384 117.644 218.271 125.473 218.604 133.235C218.438 135.823 218.17 138.403 217.808 140.964C217.419 143.633 216.927 146.283 216.33 148.903ZM230.052 120.175C229.594 116.047 228.835 111.96 227.819 107.925C227.981 107.933 228.143 107.94 228.305 107.948C229.135 111.992 229.716 116.074 230.052 120.175ZM187.489 72.0378C184.362 67.2102 180.859 62.5286 177.02 58.1398C175.276 56.1467 173.464 54.2132 171.587 52.3548C157.512 36.9436 136.751 28.8936 115.784 28.8936C115.016 28.8936 114.244 28.904 113.476 28.9258C111.652 28.9791 109.831 29.092 108.008 29.238C106.198 29.4316 104.394 29.68 102.598 29.9841C104.714 29.43 106.845 28.9444 108.987 28.5282C109.02 28.5217 109.053 28.5161 109.086 28.5104C109.012 28.5249 108.938 28.5395 108.863 28.554C113.773 27.7933 118.732 27.4126 123.688 27.4126C133.527 27.4126 143.362 28.9105 152.829 31.9071C155.676 32.8081 158.49 33.8454 161.26 35.0174C172.413 39.4151 181.681 46.5383 189.356 55.2844C185.719 59.5006 189.364 66.502 187.537 71.8966C187.522 71.9442 187.505 71.991 187.489 72.0378Z" fill="#CE3A3A"/>
<path d="M230.38 129.96C230.426 126.696 230.316 123.43 230.051 120.175C230.269 122.149 230.419 124.132 230.496 126.122C230.485 127.402 230.445 128.682 230.38 129.96Z" fill="#CE3A3A"/>
<path d="M223.701 161.589C221.601 157.323 218.95 153.119 216.326 148.904C216.924 146.283 217.416 143.633 217.805 140.964C218.167 138.403 218.435 135.824 218.601 133.235C218.268 125.473 217.381 117.644 215.901 109.911C215.744 109.101 215.58 108.292 215.41 107.485C215.847 107.454 216.289 107.442 216.73 107.442C217.459 107.442 218.191 107.474 218.914 107.508C221.882 107.647 224.849 107.786 227.816 107.925C228.831 111.96 229.59 116.047 230.049 120.175C230.314 123.43 230.424 126.697 230.378 129.96C230.307 131.35 230.205 132.738 230.074 134.122C229.181 143.504 226.921 152.758 223.701 161.589Z" fill="#BE3535"/>
<path d="M195.219 52.5825C184.329 43.5831 172.002 36.5398 158.911 32.0243C156.558 31.2225 154.181 30.5014 151.784 29.8747C144.046 27.7799 136.146 26.716 128.078 26.716C123.918 26.716 119.714 26.9983 115.465 27.5686C113.332 27.8211 111.207 28.1421 109.086 28.5107C115.503 27.2701 122.014 26.6498 128.527 26.6498C139.4 26.6498 150.277 28.3792 160.701 31.8396C163.093 32.6333 165.46 33.5182 167.799 34.4942C177.986 38.9136 187.807 44.939 195.581 52.5244C195.46 52.543 195.34 52.5624 195.219 52.5825Z" fill="#CE3A3A"/>
<path d="M189.352 55.2847C181.678 46.5385 172.409 39.4153 161.256 35.0177C158.486 33.8457 155.673 32.8083 152.826 31.9074C143.359 28.9108 133.523 27.4129 123.685 27.4129C118.728 27.4129 113.769 27.7936 108.859 28.5543C108.934 28.5397 109.009 28.5252 109.083 28.5107C111.203 28.1421 113.329 27.821 115.462 27.5686C119.711 26.9983 123.915 26.716 128.075 26.716C136.143 26.716 144.043 27.7799 151.781 29.8747C154.177 30.5014 156.555 31.2225 158.907 32.0243C171.999 36.5397 184.325 43.5831 195.216 52.5825C193.123 52.9302 191.049 53.5166 189.602 55.012C189.515 55.1016 189.432 55.1927 189.352 55.2847Z" fill="#BE3535"/>
<path d="M95.2137 113.625C93.5101 112.293 91.4113 111.564 89.1076 111.117C92.8785 109.04 95.7283 105.565 94.0788 101.715C92.7059 99.3137 89.8747 98.2248 86.7394 98.2248C82.503 98.2248 77.7134 100.211 75.2185 103.629C74.2062 105.305 74.2885 107.199 75.2395 108.848C75.5218 109.114 75.8009 109.369 76.0784 109.613C74.3659 109.292 72.718 108.829 71.2032 108.111C63.5169 104.47 60.4994 94.8314 53.4238 90.1118C50.9515 88.4623 48.138 87.5452 45.2148 87.2322C46.1546 85.4246 47.1483 83.596 48.1953 81.7594C51.6016 75.788 55.5919 69.7359 60.1154 64.0574C61.8118 61.9279 63.5952 59.8573 65.4939 57.8852C67.6549 56.3058 69.9497 54.8362 72.3518 53.477C74.7531 52.1187 77.2617 50.8708 79.8509 49.7359C86.3966 46.5425 93.323 45.1132 100.399 44.5913C102.758 44.4171 105.134 44.3437 107.518 44.3389C108.312 44.2832 109.098 44.2574 109.879 44.2574C111.545 44.2574 113.182 44.3752 114.795 44.5679C117.245 45.1124 119.769 45.673 122.292 46.1731C116.979 47.0313 112.433 50.5143 111.415 55.6016C109.802 59.6339 114.641 62.0546 117.867 62.0546C124.32 61.2471 131.58 58.8281 134.627 52.5002C134.969 50.5998 133.93 48.8712 131.983 47.646C133.029 47.7379 134.057 47.7992 135.06 47.8234C136.172 48.7994 137.129 50.04 137.894 51.5266C140.253 59.1338 139.911 66.3562 137.77 73.085C133.779 73.6698 129.875 75.3226 126.572 78.6845C125.793 79.9735 125.515 81.3883 125.679 82.8144C124.605 85.0181 124.906 87.5299 126.298 89.815C126.635 90.2595 126.986 90.6797 127.354 91.0774C125.666 93.081 123.862 95.0096 121.981 96.8584C120.218 98.5926 118.386 100.257 116.52 101.847C112.631 104.941 109.404 108.168 104.565 109.781C101.352 110.938 98.2409 112.238 95.2137 113.625ZM82.7587 58.1586C82.5813 58.1586 82.4006 58.1651 82.2167 58.1772C73.1068 61.3843 63.4274 62.9975 56.1679 70.257C53.748 73.4835 53.748 77.5166 56.9745 79.9364C58.5877 80.743 60.2009 81.5496 61.8142 81.5496C73.1068 79.1298 86.8192 72.6769 85.7505 59.0184C84.985 58.4369 83.963 58.1586 82.7587 58.1586Z" fill="#E14545"/>
<path d="M117.867 62.0547C114.64 62.0547 109.802 59.634 111.414 55.6018C112.432 50.5144 116.978 47.0315 122.291 46.1732C125.576 46.8242 128.861 47.3719 131.983 47.6461C133.929 48.8714 134.969 50.5999 134.626 52.5003C131.579 58.8282 124.32 61.2473 117.867 62.0547Z" fill="#C93838"/>
<path d="M127.354 91.0771C126.986 90.6795 126.634 90.2592 126.298 89.8148C124.905 87.5296 124.605 85.0178 125.678 82.8142C125.81 83.9628 126.227 85.1195 126.899 86.2221C127.612 87.165 128.4 88.0031 129.244 88.7355C128.632 89.5268 128.001 90.3076 127.354 91.0771Z" fill="#E24B4B"/>
<path d="M129.244 88.7358C128.399 88.0034 127.612 87.1653 126.899 86.2224C126.227 85.1198 125.809 83.9631 125.678 82.8145C125.514 81.3884 125.792 79.9736 126.572 78.6846C129.874 75.3226 133.778 73.6699 137.769 73.0851C135.994 78.6612 132.981 83.9002 129.244 88.7358Z" fill="#D53B3B"/>
<path d="M89.1076 111.117C85.0511 110.33 80.3606 110.417 76.0783 109.613C75.8008 109.369 75.5217 109.114 75.2394 108.848C74.2884 107.199 74.2061 105.305 75.2184 103.629C77.7133 100.211 82.503 98.2246 86.7393 98.2246C89.8746 98.2246 92.7059 99.3135 94.0787 101.715C95.7283 105.565 92.8785 109.04 89.1076 111.117Z" fill="#D53B3B"/>
<path d="M61.8165 81.5493C60.2033 81.5493 58.5901 80.7427 56.9768 79.9361C53.7504 77.5162 53.7504 73.4832 56.1702 70.2567C63.4297 62.9972 73.1091 61.3839 82.219 58.1768C82.403 58.1647 82.5836 58.1583 82.7611 58.1583C83.9654 58.1583 84.9873 58.4366 85.7528 59.0181C86.8216 72.6765 73.1091 79.1295 61.8165 81.5493Z" fill="#E34E4E"/>
<mask id="mask0_36_5058" style="mask-type:luminance" maskUnits="userSpaceOnUse" x="52" y="201" width="152" height="33">
<path d="M53.614 203.05C53.4527 202.889 53.2922 202.727 53.1325 202.565C53.293 202.727 53.4527 202.889 53.614 203.05ZM53.1244 202.557C53.0881 202.52 53.051 202.482 53.0139 202.445C53.0518 202.483 53.0873 202.519 53.1244 202.557ZM52.9881 202.418C52.9574 202.388 52.9268 202.356 52.8961 202.325C52.9284 202.358 52.9558 202.385 52.9881 202.418ZM52.8485 202.277C52.826 202.254 52.8018 202.229 52.7792 202.205C52.8018 202.229 52.8268 202.254 52.8485 202.277ZM52.7122 202.138C52.6953 202.12 52.6792 202.103 52.6622 202.086C52.68 202.104 52.6953 202.12 52.7122 202.138ZM52.5711 201.993C52.563 201.984 52.5549 201.976 52.5469 201.968C52.5541 201.975 52.5638 201.985 52.5711 201.993Z" fill="white"/>
</mask>
<g mask="url(#mask0_36_5058)">
<path d="M53.614 203.05C53.4527 202.889 53.2922 202.727 53.1325 202.565C53.293 202.727 53.4527 202.889 53.614 203.05ZM53.1244 202.557C53.0881 202.52 53.051 202.482 53.0139 202.445C53.0518 202.483 53.0873 202.519 53.1244 202.557ZM52.9881 202.418C52.9574 202.388 52.9268 202.356 52.8961 202.325C52.9284 202.358 52.9558 202.385 52.9881 202.418ZM52.8485 202.277C52.826 202.254 52.8018 202.229 52.7792 202.205C52.8018 202.229 52.8268 202.254 52.8485 202.277ZM52.7122 202.138C52.6953 202.12 52.6792 202.103 52.6622 202.086C52.68 202.104 52.6953 202.12 52.7122 202.138ZM52.5711 201.993C52.563 201.984 52.5549 201.976 52.5469 201.968C52.5541 201.975 52.5638 201.985 52.5711 201.993Z" fill="url(#paint0_linear_36_5058)"/>
</g>
<path d="M128.336 234C101.294 234 74.2512 223.683 53.6188 203.05C53.4575 202.889 53.2978 202.728 53.1372 202.566C53.1348 202.563 53.1324 202.561 53.1292 202.558C53.0921 202.52 53.0566 202.483 53.0187 202.446C53.0098 202.437 53.0017 202.428 52.9929 202.419C52.9606 202.386 52.9332 202.358 52.9009 202.325C52.8848 202.309 52.8694 202.294 52.8533 202.278C52.8315 202.254 52.8065 202.229 52.7839 202.206C52.7614 202.183 52.7396 202.161 52.717 202.138C52.7001 202.12 52.6847 202.104 52.667 202.087C52.6363 202.055 52.6065 202.024 52.5758 201.993C52.5686 201.986 52.5589 201.975 52.5516 201.968C47.8991 197.182 43.7926 192.064 40.2266 186.692C40.2274 186.692 40.2282 186.691 40.2282 186.69C42.0124 189.378 43.9338 192.002 45.9898 194.554C46.0334 194.554 46.0777 194.554 46.1213 194.554C47.1933 194.554 48.2677 194.545 49.3429 194.535C49.8672 194.531 50.3923 194.527 50.9166 194.523C52.6767 196.589 54.5319 198.599 56.4839 200.551C57.7979 201.865 59.1385 203.135 60.5049 204.362C63.5184 207.185 66.7158 209.816 70.0979 212.227C72.4694 213.874 74.9094 215.409 77.4067 216.822C79.8927 218.229 82.4359 219.514 85.0268 220.669C87.2304 221.709 89.4632 222.665 91.7209 223.538C97.8205 225.896 104.102 227.646 110.471 228.786C112.694 230.379 114.951 231.93 117.249 233.413C120.934 233.799 124.639 233.993 128.341 233.993C155.383 233.994 182.422 223.683 203.054 203.05C182.422 223.683 155.379 234 128.336 234Z" fill="#D73D3D"/>
<path d="M110.469 228.787C104.1 227.646 97.8179 225.897 91.7183 223.538C89.4606 222.665 87.2279 221.709 85.0242 220.67C85.0363 220.674 85.0476 220.68 85.0597 220.685C87.1384 221.666 89.2339 222.568 91.3416 223.377C97.1476 225.245 103.06 226.714 109.035 227.751C109.511 228.098 109.99 228.444 110.469 228.787ZM90.0712 212.702C87.0004 211.899 83.9901 210.878 81.0565 209.659C78.4559 208.569 75.9159 207.323 73.4517 205.915C68.5709 202.617 64.0756 198.871 59.9417 194.782C63.861 195.128 67.6659 195.902 71.2271 197.586C76.0353 199.861 79.953 203.617 83.8804 207.204C85.9188 209.066 87.9821 210.898 90.0712 212.702ZM60.5023 204.362C59.1359 203.135 57.7953 201.865 56.4813 200.551C54.5293 198.599 52.6741 196.589 50.9141 194.523C51.0528 194.522 51.1907 194.522 51.3295 194.521C54.1663 197.998 57.2258 201.294 60.5023 204.362Z" fill="#C63838"/>
<path d="M203.171 202.933C203.173 202.931 203.175 202.93 203.177 202.927C203.175 202.93 203.172 202.931 203.171 202.933ZM203.289 202.815C203.293 202.811 203.296 202.807 203.299 202.804C203.296 202.808 203.293 202.811 203.289 202.815ZM203.408 202.695C203.413 202.69 203.418 202.685 203.423 202.68C203.418 202.685 203.413 202.69 203.408 202.695ZM203.525 202.577C203.532 202.569 203.539 202.562 203.546 202.555C203.539 202.563 203.533 202.569 203.525 202.577ZM203.647 202.453C203.653 202.447 203.661 202.439 203.668 202.432C203.66 202.439 203.654 202.446 203.647 202.453ZM203.766 202.331C203.774 202.323 203.782 202.315 203.79 202.307C203.782 202.315 203.773 202.324 203.766 202.331ZM204.006 202.086C204.015 202.076 204.024 202.068 204.035 202.057C204.025 202.067 204.015 202.077 204.006 202.086ZM204.126 201.963C204.136 201.953 204.146 201.942 204.156 201.932C204.146 201.943 204.136 201.953 204.126 201.963ZM204.244 201.841C204.256 201.83 204.266 201.818 204.278 201.807C204.267 201.818 204.255 201.83 204.244 201.841ZM204.465 201.613C204.485 201.593 204.505 201.571 204.524 201.551C204.505 201.572 204.485 201.593 204.465 201.613ZM204.581 201.492C204.603 201.468 204.626 201.445 204.649 201.422C204.626 201.446 204.604 201.468 204.581 201.492ZM204.696 201.372C204.722 201.345 204.749 201.317 204.774 201.29C204.749 201.317 204.723 201.345 204.696 201.372ZM204.931 201.125C204.97 201.085 205.008 201.046 205.045 201.005C205.008 201.046 204.969 201.086 204.931 201.125ZM205.05 201C214.418 191.119 221.51 179.871 226.33 167.921C226.331 167.923 226.331 167.924 226.332 167.926C221.511 179.874 214.418 191.121 205.05 201ZM145.145 171.336C141.154 171.336 137.215 170.798 133.538 169.28C126.897 166.537 121.44 159.772 122.348 152.645C122.55 151.052 123.051 149.518 123.552 147.986C128.965 146.725 134.118 144.342 138.557 140.997C139.365 140.388 140.184 139.702 140.535 138.753C141.434 136.32 138.676 133.943 136.092 133.71C135.814 133.685 135.536 133.674 135.259 133.674C134.192 133.674 133.126 133.838 132.06 134.003C130.994 134.168 129.928 134.333 128.857 134.333C128.69 134.333 128.522 134.329 128.354 134.32C121.328 133.955 117.498 123.539 122.612 118.708C126.229 115.293 131.835 115.411 136.461 113.582C140.88 111.834 144.317 105.592 141.054 102.564C144.749 102.505 148.444 102.444 152.14 102.384C153.591 102.361 155.092 102.326 156.411 101.718C158.968 100.539 160.132 97.5835 160.8 94.8475C161.468 92.113 161.968 89.1439 163.923 87.1177C164.888 86.1175 166.361 85.5593 167.745 85.5593C169.165 85.5593 170.49 86.1481 171.072 87.45C174.017 80.3808 184.924 79.2128 187.49 72.038C191.465 78.1739 194.834 84.5478 197.509 90.8563C198.353 93.4794 199.114 96.1316 199.803 98.7999C201.179 104.137 202.263 109.542 203.094 114.927C203.192 117.338 203.185 119.782 203.093 122.226C202.814 129.559 201.777 136.86 199.881 143.972C198.945 146.564 197.821 149.1 196.556 151.568C196.349 151.97 196.137 152.37 195.923 152.769C195.244 151.321 194.792 149.772 194.618 148.17C194.314 145.374 194.76 142.492 194.043 139.774C193.881 139.157 193.662 138.567 193.393 138.001C194.301 136.232 194.966 134.025 195.26 131.471C196.287 126.698 193.462 123.782 191.549 123.753C191.277 123.817 191.002 123.89 190.726 123.974C190.424 123.816 190.124 123.732 189.847 123.728C187.271 124.39 184.418 126.179 182.576 130.417C180.4 129.964 178.168 129.826 175.926 129.826C174.209 129.826 172.486 129.907 170.777 129.99C168.715 130.09 166.148 130.573 165.622 132.57C165.482 133.102 165.525 133.642 165.652 134.177C164.41 134.76 163.075 136.095 161.982 138.088C160.546 140.239 161.16 142.178 161.979 142.539C162.221 142.572 162.473 142.591 162.735 142.591C164.117 142.591 165.751 142.067 167.407 140.387C168.51 147.002 167.172 154.018 165.813 160.695C165.379 162.833 164.903 165.058 163.535 166.758C161.495 169.29 158.007 170.041 154.79 170.517C151.617 170.985 148.364 171.335 145.145 171.336ZM173.951 112.915C171.388 112.915 168.433 114.194 166.883 116.362C166.262 117.408 166.292 118.576 166.845 119.584C168.414 121.106 169.825 122.072 171.71 122.072C171.739 122.072 171.77 122.072 171.801 122.071C175.185 121.519 179.574 118.461 178.182 114.999C177.402 113.563 175.776 112.915 173.951 112.915Z" fill="#D73D3D"/>
<path d="M193.393 138.001C192.974 137.121 192.435 136.305 191.802 135.557C192.331 134.161 192.72 132.528 192.915 130.697C193.623 127.137 192.153 124.723 190.727 123.974C191.002 123.891 191.277 123.817 191.549 123.753C193.462 123.782 196.287 126.698 195.26 131.471C194.966 134.025 194.301 136.233 193.393 138.001Z" fill="#D94B4B"/>
<path d="M191.796 135.557C189.915 133.337 187.209 131.724 184.389 130.876C183.788 130.696 183.181 130.544 182.57 130.417C184.413 126.179 187.266 124.39 189.842 123.728C190.119 123.732 190.419 123.816 190.721 123.974C192.148 124.723 193.618 127.137 192.91 130.696C192.714 132.527 192.326 134.161 191.796 135.557Z" fill="#CC3333"/>
<path d="M162.733 142.591C162.47 142.591 162.218 142.571 161.976 142.538C161.157 142.178 160.543 140.239 161.979 138.087C163.072 136.095 164.407 134.759 165.649 134.177C165.781 134.736 166.003 135.29 166.202 135.827C166.757 137.319 167.147 138.842 167.404 140.387C165.749 142.067 164.114 142.591 162.733 142.591Z" fill="#BF3030"/>
<path d="M171.704 122.072C169.82 122.072 168.408 121.106 166.839 119.584C166.287 118.576 166.256 117.408 166.877 116.363C168.427 114.194 171.382 112.915 173.945 112.915C175.77 112.915 177.396 113.563 178.176 114.999C179.568 118.461 175.18 121.519 171.795 122.071C171.764 122.072 171.734 122.072 171.704 122.072Z" fill="#CC3333"/>
<path d="M210.224 162.151C210.091 162.151 209.959 162.15 209.827 162.147C203.922 162.007 198.407 158.072 195.921 152.769C196.135 152.37 196.347 151.969 196.554 151.568C197.819 149.1 198.943 146.564 199.879 143.972C201.775 136.86 202.812 129.559 203.091 122.226C203.183 119.782 203.19 117.337 203.092 114.926C202.261 109.542 201.177 104.137 199.801 98.7998C199.112 96.1315 198.351 93.4794 197.507 90.8563C194.832 84.5477 191.463 78.1739 187.488 72.0379C187.504 71.9912 187.521 71.9444 187.537 71.8968C189.364 66.5021 185.718 59.5007 189.355 55.2845C200.947 68.4953 208.898 85.4068 214.194 102.2C214.635 103.956 215.04 105.717 215.412 107.485C214.398 107.556 213.4 107.731 212.449 108.094C208.579 109.573 206.463 113.834 205.819 117.926C204.086 128.932 210.131 138.945 216.329 148.904C215.306 153.387 213.972 157.784 212.307 162.051C211.609 162.111 210.914 162.151 210.224 162.151Z" fill="#C63838"/>
<path d="M224.536 163.354C224.468 163.302 224.398 163.25 224.328 163.2C224.348 163.143 224.368 163.088 224.389 163.031C224.439 163.139 224.488 163.246 224.536 163.354Z" fill="#D73D3D"/>
<path d="M224.329 163.2C224.017 162.973 223.686 162.767 223.336 162.583C223.459 162.251 223.581 161.921 223.703 161.589C223.938 162.069 224.168 162.55 224.389 163.031C224.369 163.088 224.349 163.143 224.329 163.2Z" fill="#C63838"/>
<mask id="mask1_36_5058" style="mask-type:luminance" maskUnits="userSpaceOnUse" x="202" y="53" width="11" height="12">
<path d="M212.222 64.0637C212.219 64.0613 212.214 64.0532 212.211 64.0508C212.215 64.0548 212.219 64.0597 212.222 64.0637ZM211.921 63.6741C211.915 63.666 211.909 63.6588 211.902 63.6507C211.908 63.658 211.915 63.6668 211.921 63.6741ZM211.682 63.3684C211.681 63.3652 211.682 63.3684 211.681 63.3652C211.681 63.3668 211.681 63.3668 211.682 63.3684ZM211.618 63.2845C211.609 63.274 211.6 63.2635 211.592 63.2522C211.601 63.2635 211.609 63.2732 211.618 63.2845ZM211.531 63.1756C211.523 63.1643 211.515 63.1546 211.506 63.1442C211.514 63.1538 211.523 63.1651 211.531 63.1756ZM211.391 62.9973C211.385 62.9893 211.376 62.9772 211.369 62.9691C211.377 62.978 211.384 62.9885 211.391 62.9973ZM211.312 62.8973C211.302 62.8836 211.289 62.8683 211.279 62.8546C211.289 62.8675 211.302 62.8836 211.312 62.8973ZM211.224 62.7852C211.211 62.7691 211.201 62.7562 211.188 62.74C211.2 62.7554 211.212 62.7699 211.224 62.7852ZM211.097 62.6263C211.085 62.6102 211.068 62.5892 211.055 62.5731C211.069 62.59 211.084 62.6094 211.097 62.6263ZM211.005 62.5102C210.992 62.494 210.977 62.4755 210.964 62.4593C210.978 62.4763 210.991 62.4932 211.005 62.5102ZM210.914 62.3956C210.898 62.3771 210.885 62.3601 210.87 62.3416C210.885 62.3593 210.899 62.3771 210.914 62.3956ZM210.793 62.2464C210.774 62.2222 210.759 62.2045 210.74 62.1795C210.758 62.202 210.776 62.2238 210.793 62.2464ZM210.695 62.1238C210.68 62.1052 210.662 62.0834 210.647 62.0641C210.664 62.0843 210.679 62.1036 210.695 62.1238ZM210.601 62.0076C210.584 61.9859 210.563 61.9608 210.546 61.9391C210.565 61.9625 210.582 61.9842 210.601 62.0076ZM210.493 61.8729C210.468 61.8431 210.447 61.8173 210.423 61.7874C210.446 61.8157 210.469 61.8447 210.493 61.8729ZM210.384 61.739C210.366 61.7172 210.345 61.6914 210.327 61.6697C210.346 61.6922 210.365 61.7164 210.384 61.739ZM210.287 61.6205C210.265 61.5938 210.244 61.568 210.221 61.5406C210.243 61.5672 210.266 61.5946 210.287 61.6205ZM210.068 61.3535C210.048 61.3293 210.026 61.3026 210.006 61.2776C210.027 61.3035 210.047 61.3285 210.068 61.3535ZM209.971 61.2357C209.944 61.2026 209.92 61.1728 209.893 61.1405C209.919 61.172 209.946 61.2042 209.971 61.2357ZM209.876 61.1204C209.845 61.0824 209.813 61.0445 209.782 61.0066C209.813 61.0437 209.845 61.0824 209.876 61.1204ZM209.752 60.9703C209.729 60.9429 209.706 60.9147 209.683 60.8881C209.707 60.9163 209.729 60.9421 209.752 60.9703ZM209.652 60.8501C209.623 60.8146 209.593 60.7792 209.564 60.7445C209.593 60.78 209.623 60.8146 209.652 60.8501ZM209.556 60.7348C209.522 60.6945 209.493 60.659 209.459 60.6186C209.492 60.6582 209.523 60.6953 209.556 60.7348ZM209.433 60.5872C209.408 60.5573 209.382 60.5267 209.358 60.4968C209.383 60.5275 209.408 60.5565 209.433 60.5872ZM209.332 60.467C209.264 60.3863 209.201 60.3113 209.133 60.2315C209.2 60.3097 209.266 60.3887 209.332 60.467ZM209.008 60.0831C208.94 60.0024 208.874 59.9249 208.806 59.8451C208.873 59.9241 208.941 60.004 209.008 60.0831ZM208.788 59.8241C208.761 59.7927 208.728 59.7547 208.702 59.7233C208.73 59.7572 208.759 59.7902 208.788 59.8241ZM208.682 59.7015C208.615 59.6217 208.545 59.541 208.477 59.4611C208.546 59.5418 208.614 59.6208 208.682 59.7015ZM208.461 59.4426C208.428 59.4055 208.403 59.3756 208.37 59.3385C208.401 59.3732 208.431 59.4079 208.461 59.4426ZM208.355 59.32C208.286 59.2409 208.214 59.157 208.145 59.078C208.215 59.1587 208.286 59.2401 208.355 59.32ZM208.133 59.0643C208.101 59.0272 208.07 58.9917 208.038 58.9546C208.069 58.9917 208.101 59.0272 208.133 59.0643ZM208.025 58.9401C207.956 58.861 207.882 58.7755 207.812 58.6965C207.883 58.7779 207.954 58.8586 208.025 58.9401ZM207.801 58.6844C207.769 58.6481 207.735 58.6102 207.703 58.5731C207.736 58.6102 207.769 58.6473 207.801 58.6844ZM207.693 58.561C207.621 58.4795 207.548 58.398 207.477 58.3166C207.548 58.398 207.62 58.4795 207.693 58.561ZM207.468 58.3069C207.435 58.2698 207.4 58.2302 207.367 58.1931C207.4 58.2302 207.435 58.2698 207.468 58.3069ZM207.357 58.1827C207.285 58.1012 207.21 58.0181 207.138 57.9366C207.211 58.0181 207.285 58.1012 207.357 58.1827ZM207.021 57.806C206.946 57.7221 206.874 57.643 206.799 57.5592C206.873 57.6414 206.947 57.7229 207.021 57.806ZM206.681 57.4301C206.606 57.3462 206.535 57.268 206.459 57.1849C206.533 57.2655 206.608 57.3486 206.681 57.4301ZM206.452 57.1776C206.419 57.1405 206.38 57.0978 206.346 57.0615C206.38 57.0994 206.417 57.1389 206.452 57.1776ZM206.34 57.055C206.263 56.9711 206.192 56.8937 206.116 56.8106C206.19 56.8913 206.266 56.9736 206.34 57.055ZM206.109 56.8025C206.075 56.7662 206.038 56.7259 206.004 56.6896C206.039 56.7275 206.074 56.7646 206.109 56.8025ZM205.995 56.6791C205.921 56.5985 205.846 56.5178 205.771 56.4371C205.846 56.5178 205.92 56.5985 205.995 56.6791ZM205.763 56.4291C205.729 56.3928 205.692 56.3524 205.658 56.3161C205.693 56.3541 205.728 56.3912 205.763 56.4291ZM205.649 56.3065C205.572 56.2242 205.5 56.1476 205.423 56.0653C205.499 56.146 205.574 56.2266 205.649 56.3065ZM205.416 56.0572C205.382 56.0209 205.344 55.9806 205.31 55.9451C205.346 55.9822 205.38 56.0193 205.416 56.0572ZM205.3 55.9354C205.225 55.8556 205.15 55.7757 205.074 55.6959C205.15 55.7757 205.225 55.8548 205.3 55.9354ZM205.064 55.6846C205.03 55.6491 204.995 55.612 204.961 55.5765C204.995 55.612 205.03 55.6491 205.064 55.6846ZM204.949 55.5636C204.876 55.487 204.798 55.4047 204.724 55.3272C204.799 55.4063 204.874 55.4845 204.949 55.5636ZM204.711 55.3135C204.676 55.278 204.645 55.245 204.611 55.2095C204.645 55.245 204.677 55.278 204.711 55.3135ZM204.595 55.1933C204.522 55.1167 204.446 55.0385 204.373 54.9618C204.447 55.0393 204.521 55.1159 204.595 55.1933ZM204.353 54.9417C204.324 54.911 204.289 54.8747 204.259 54.8449C204.29 54.8771 204.322 54.9094 204.353 54.9417ZM204.24 54.8239C204.165 54.7473 204.092 54.6723 204.017 54.5957C204.092 54.6723 204.165 54.7481 204.24 54.8239ZM203.996 54.5739C203.966 54.5432 203.934 54.5101 203.904 54.4803C203.936 54.5117 203.965 54.5424 203.996 54.5739ZM203.636 54.2069C203.606 54.177 203.577 54.1472 203.548 54.1173C203.577 54.1464 203.607 54.1778 203.636 54.2069ZM203.522 54.0899C203.447 54.0141 203.377 53.9439 203.302 53.8681C203.375 53.9423 203.448 54.0165 203.522 54.0899ZM203.273 53.8398C203.245 53.8116 203.218 53.7834 203.189 53.756C203.218 53.7842 203.245 53.8108 203.273 53.8398ZM203.159 53.7245C203.123 53.6898 203.085 53.6511 203.05 53.6156C203.086 53.6527 203.122 53.6882 203.159 53.7245Z" fill="white"/>
</mask>
<g mask="url(#mask1_36_5058)">
<path d="M212.222 64.0637C212.219 64.0613 212.214 64.0532 212.211 64.0508C212.215 64.0548 212.219 64.0597 212.222 64.0637ZM211.921 63.6741C211.915 63.666 211.909 63.6588 211.902 63.6507C211.908 63.658 211.915 63.6668 211.921 63.6741ZM211.682 63.3684C211.681 63.3652 211.682 63.3684 211.681 63.3652C211.681 63.3668 211.681 63.3668 211.682 63.3684ZM211.618 63.2845C211.609 63.274 211.6 63.2635 211.592 63.2522C211.601 63.2635 211.609 63.2732 211.618 63.2845ZM211.531 63.1756C211.523 63.1643 211.515 63.1546 211.506 63.1442C211.514 63.1538 211.523 63.1651 211.531 63.1756ZM211.391 62.9973C211.385 62.9893 211.376 62.9772 211.369 62.9691C211.377 62.978 211.384 62.9885 211.391 62.9973ZM211.312 62.8973C211.302 62.8836 211.289 62.8683 211.279 62.8546C211.289 62.8675 211.302 62.8836 211.312 62.8973ZM211.224 62.7852C211.211 62.7691 211.201 62.7562 211.188 62.74C211.2 62.7554 211.212 62.7699 211.224 62.7852ZM211.097 62.6263C211.085 62.6102 211.068 62.5892 211.055 62.5731C211.069 62.59 211.084 62.6094 211.097 62.6263ZM211.005 62.5102C210.992 62.494 210.977 62.4755 210.964 62.4593C210.978 62.4763 210.991 62.4932 211.005 62.5102ZM210.914 62.3956C210.898 62.3771 210.885 62.3601 210.87 62.3416C210.885 62.3593 210.899 62.3771 210.914 62.3956ZM210.793 62.2464C210.774 62.2222 210.759 62.2045 210.74 62.1795C210.758 62.202 210.776 62.2238 210.793 62.2464ZM210.695 62.1238C210.68 62.1052 210.662 62.0834 210.647 62.0641C210.664 62.0843 210.679 62.1036 210.695 62.1238ZM210.601 62.0076C210.584 61.9859 210.563 61.9608 210.546 61.9391C210.565 61.9625 210.582 61.9842 210.601 62.0076ZM210.493 61.8729C210.468 61.8431 210.447 61.8173 210.423 61.7874C210.446 61.8157 210.469 61.8447 210.493 61.8729ZM210.384 61.739C210.366 61.7172 210.345 61.6914 210.327 61.6697C210.346 61.6922 210.365 61.7164 210.384 61.739ZM210.287 61.6205C210.265 61.5938 210.244 61.568 210.221 61.5406C210.243 61.5672 210.266 61.5946 210.287 61.6205ZM210.068 61.3535C210.048 61.3293 210.026 61.3026 210.006 61.2776C210.027 61.3035 210.047 61.3285 210.068 61.3535ZM209.971 61.2357C209.944 61.2026 209.92 61.1728 209.893 61.1405C209.919 61.172 209.946 61.2042 209.971 61.2357ZM209.876 61.1204C209.845 61.0824 209.813 61.0445 209.782 61.0066C209.813 61.0437 209.845 61.0824 209.876 61.1204ZM209.752 60.9703C209.729 60.9429 209.706 60.9147 209.683 60.8881C209.707 60.9163 209.729 60.9421 209.752 60.9703ZM209.652 60.8501C209.623 60.8146 209.593 60.7792 209.564 60.7445C209.593 60.78 209.623 60.8146 209.652 60.8501ZM209.556 60.7348C209.522 60.6945 209.493 60.659 209.459 60.6186C209.492 60.6582 209.523 60.6953 209.556 60.7348ZM209.433 60.5872C209.408 60.5573 209.382 60.5267 209.358 60.4968C209.383 60.5275 209.408 60.5565 209.433 60.5872ZM209.332 60.467C209.264 60.3863 209.201 60.3113 209.133 60.2315C209.2 60.3097 209.266 60.3887 209.332 60.467ZM209.008 60.0831C208.94 60.0024 208.874 59.9249 208.806 59.8451C208.873 59.9241 208.941 60.004 209.008 60.0831ZM208.788 59.8241C208.761 59.7927 208.728 59.7547 208.702 59.7233C208.73 59.7572 208.759 59.7902 208.788 59.8241ZM208.682 59.7015C208.615 59.6217 208.545 59.541 208.477 59.4611C208.546 59.5418 208.614 59.6208 208.682 59.7015ZM208.461 59.4426C208.428 59.4055 208.403 59.3756 208.37 59.3385C208.401 59.3732 208.431 59.4079 208.461 59.4426ZM208.355 59.32C208.286 59.2409 208.214 59.157 208.145 59.078C208.215 59.1587 208.286 59.2401 208.355 59.32ZM208.133 59.0643C208.101 59.0272 208.07 58.9917 208.038 58.9546C208.069 58.9917 208.101 59.0272 208.133 59.0643ZM208.025 58.9401C207.956 58.861 207.882 58.7755 207.812 58.6965C207.883 58.7779 207.954 58.8586 208.025 58.9401ZM207.801 58.6844C207.769 58.6481 207.735 58.6102 207.703 58.5731C207.736 58.6102 207.769 58.6473 207.801 58.6844ZM207.693 58.561C207.621 58.4795 207.548 58.398 207.477 58.3166C207.548 58.398 207.62 58.4795 207.693 58.561ZM207.468 58.3069C207.435 58.2698 207.4 58.2302 207.367 58.1931C207.4 58.2302 207.435 58.2698 207.468 58.3069ZM207.357 58.1827C207.285 58.1012 207.21 58.0181 207.138 57.9366C207.211 58.0181 207.285 58.1012 207.357 58.1827ZM207.021 57.806C206.946 57.7221 206.874 57.643 206.799 57.5592C206.873 57.6414 206.947 57.7229 207.021 57.806ZM206.681 57.4301C206.606 57.3462 206.535 57.268 206.459 57.1849C206.533 57.2655 206.608 57.3486 206.681 57.4301ZM206.452 57.1776C206.419 57.1405 206.38 57.0978 206.346 57.0615C206.38 57.0994 206.417 57.1389 206.452 57.1776ZM206.34 57.055C206.263 56.9711 206.192 56.8937 206.116 56.8106C206.19 56.8913 206.266 56.9736 206.34 57.055ZM206.109 56.8025C206.075 56.7662 206.038 56.7259 206.004 56.6896C206.039 56.7275 206.074 56.7646 206.109 56.8025ZM205.995 56.6791C205.921 56.5985 205.846 56.5178 205.771 56.4371C205.846 56.5178 205.92 56.5985 205.995 56.6791ZM205.763 56.4291C205.729 56.3928 205.692 56.3524 205.658 56.3161C205.693 56.3541 205.728 56.3912 205.763 56.4291ZM205.649 56.3065C205.572 56.2242 205.5 56.1476 205.423 56.0653C205.499 56.146 205.574 56.2266 205.649 56.3065ZM205.416 56.0572C205.382 56.0209 205.344 55.9806 205.31 55.9451C205.346 55.9822 205.38 56.0193 205.416 56.0572ZM205.3 55.9354C205.225 55.8556 205.15 55.7757 205.074 55.6959C205.15 55.7757 205.225 55.8548 205.3 55.9354ZM205.064 55.6846C205.03 55.6491 204.995 55.612 204.961 55.5765C204.995 55.612 205.03 55.6491 205.064 55.6846ZM204.949 55.5636C204.876 55.487 204.798 55.4047 204.724 55.3272C204.799 55.4063 204.874 55.4845 204.949 55.5636ZM204.711 55.3135C204.676 55.278 204.645 55.245 204.611 55.2095C204.645 55.245 204.677 55.278 204.711 55.3135ZM204.595 55.1933C204.522 55.1167 204.446 55.0385 204.373 54.9618C204.447 55.0393 204.521 55.1159 204.595 55.1933ZM204.353 54.9417C204.324 54.911 204.289 54.8747 204.259 54.8449C204.29 54.8771 204.322 54.9094 204.353 54.9417ZM204.24 54.8239C204.165 54.7473 204.092 54.6723 204.017 54.5957C204.092 54.6723 204.165 54.7481 204.24 54.8239ZM203.996 54.5739C203.966 54.5432 203.934 54.5101 203.904 54.4803C203.936 54.5117 203.965 54.5424 203.996 54.5739ZM203.636 54.2069C203.606 54.177 203.577 54.1472 203.548 54.1173C203.577 54.1464 203.607 54.1778 203.636 54.2069ZM203.522 54.0899C203.447 54.0141 203.377 53.9439 203.302 53.8681C203.375 53.9423 203.448 54.0165 203.522 54.0899ZM203.273 53.8398C203.245 53.8116 203.218 53.7834 203.189 53.756C203.218 53.7842 203.245 53.8108 203.273 53.8398ZM203.159 53.7245C203.123 53.6898 203.085 53.6511 203.05 53.6156C203.086 53.6527 203.122 53.6882 203.159 53.7245Z" fill="url(#paint1_linear_36_5058)"/>
</g>
<path d="M232.059 108.125C230.806 108.066 229.554 108.007 228.302 107.948C227.355 103.333 226.086 98.7694 224.494 94.2967C223.512 91.5357 222.407 88.8077 221.178 86.1225C217.679 78.9629 213.448 72.2205 208.552 66.0079C206.917 63.9365 205.206 61.9248 203.399 59.9801C201.553 58.1571 199.652 56.3931 197.704 54.6935C197.013 53.9571 196.305 53.2343 195.578 52.5245C195.97 52.464 196.362 52.4108 196.749 52.36C198.228 52.1656 199.717 51.9784 201.209 51.822C201.787 52.3729 202.362 52.9294 202.93 53.4965C202.97 53.536 203.009 53.5755 203.05 53.6159C203.085 53.6514 203.123 53.6901 203.159 53.7248C203.168 53.7344 203.18 53.7465 203.189 53.7562C203.218 53.7836 203.245 53.8119 203.273 53.8401C203.282 53.849 203.292 53.8595 203.301 53.8684C203.376 53.9442 203.447 54.0143 203.522 54.0902C203.531 54.0998 203.539 54.1079 203.547 54.1176C203.577 54.1474 203.606 54.1773 203.636 54.2071C203.644 54.2152 203.652 54.2233 203.66 54.2305C203.735 54.3063 203.807 54.3806 203.881 54.4572C203.889 54.4644 203.897 54.4725 203.904 54.4806C203.934 54.5104 203.966 54.5435 203.996 54.5741C204.002 54.5806 204.01 54.5895 204.017 54.5959C204.092 54.6725 204.165 54.7475 204.24 54.8242C204.246 54.8314 204.252 54.8379 204.259 54.8452C204.289 54.875 204.323 54.9113 204.353 54.9419C204.36 54.9484 204.366 54.9548 204.373 54.9621C204.446 55.0387 204.522 55.117 204.595 55.1936C204.6 55.1985 204.606 55.2049 204.611 55.2097C204.645 55.2452 204.676 55.2783 204.711 55.3138C204.715 55.3178 204.72 55.3243 204.724 55.3275C204.798 55.4049 204.876 55.4872 204.949 55.5639C204.953 55.5687 204.957 55.5719 204.961 55.5768C204.995 55.6122 205.03 55.6494 205.064 55.6848C205.068 55.6889 205.071 55.6921 205.074 55.6961C205.15 55.776 205.225 55.8558 205.3 55.9357C205.303 55.9381 205.307 55.9422 205.31 55.9454C205.344 55.9809 205.382 56.0212 205.416 56.0575C205.418 56.0607 205.42 56.0631 205.423 56.0656C205.5 56.1478 205.572 56.2245 205.649 56.3067C205.652 56.31 205.655 56.3132 205.658 56.3164C205.691 56.3527 205.729 56.3931 205.762 56.4294C205.766 56.4318 205.768 56.435 205.771 56.4374C205.846 56.5181 205.921 56.5987 205.995 56.6794C205.997 56.6826 206.001 56.6867 206.004 56.6899C206.038 56.7262 206.075 56.7665 206.108 56.8028C206.111 56.806 206.113 56.8077 206.116 56.8109C206.192 56.894 206.263 56.9714 206.34 57.0553C206.342 57.0577 206.343 57.0585 206.346 57.0617C206.38 57.098 206.419 57.1408 206.452 57.1779C206.455 57.1803 206.456 57.1819 206.459 57.1851C206.535 57.2682 206.606 57.3465 206.681 57.4304C206.684 57.4328 206.685 57.4336 206.688 57.4368C206.723 57.4763 206.759 57.5167 206.795 57.5554C206.796 57.5562 206.798 57.5586 206.799 57.5594C206.874 57.6433 206.946 57.7223 207.021 57.8062C207.023 57.8087 207.026 57.8119 207.028 57.8143C207.064 57.8538 207.098 57.8925 207.134 57.9321C207.135 57.9337 207.136 57.9345 207.138 57.9369C207.21 58.0184 207.285 58.1015 207.357 58.1829C207.361 58.187 207.364 58.1894 207.367 58.1934C207.4 58.2305 207.435 58.2701 207.468 58.3072C207.471 58.3104 207.473 58.3136 207.477 58.3168C207.548 58.3983 207.621 58.4798 207.693 58.5612C207.696 58.5653 207.699 58.5693 207.703 58.5733C207.735 58.6104 207.769 58.6483 207.801 58.6846C207.805 58.6887 207.808 58.6927 207.812 58.6967C207.881 58.7758 207.956 58.8613 208.025 58.9403C208.028 58.9444 208.034 58.9508 208.038 58.9549C208.07 58.992 208.101 59.0275 208.133 59.0646C208.137 59.0694 208.14 59.0734 208.145 59.0783C208.214 59.1573 208.286 59.2412 208.355 59.3203C208.36 59.3267 208.365 59.3323 208.37 59.3388C208.403 59.3759 208.428 59.4058 208.461 59.4429C208.466 59.4493 208.472 59.4558 208.477 59.4614C208.545 59.5413 208.615 59.6219 208.682 59.7018C208.689 59.7082 208.695 59.7163 208.702 59.7236C208.728 59.755 208.761 59.7929 208.788 59.8244C208.794 59.8316 208.799 59.8381 208.806 59.8454C208.874 59.9252 208.94 60.0027 209.007 60.0833C209.016 60.0922 209.024 60.1019 209.031 60.1107C209.058 60.143 209.083 60.1729 209.111 60.2043C209.118 60.214 209.126 60.2229 209.133 60.2317C209.201 60.3116 209.264 60.3866 209.332 60.4673C209.34 60.4769 209.349 60.4874 209.358 60.4971C209.382 60.527 209.408 60.5576 209.433 60.5875C209.441 60.5971 209.45 60.6092 209.459 60.6189C209.493 60.6592 209.522 60.6947 209.556 60.7351C209.558 60.7383 209.562 60.7415 209.564 60.7447C209.593 60.7794 209.623 60.8149 209.652 60.8504C209.662 60.8625 209.674 60.8762 209.683 60.8883C209.706 60.9149 209.729 60.9432 209.752 60.9706C209.762 60.9827 209.772 60.9948 209.782 61.0069C209.813 61.0448 209.845 61.0827 209.876 61.1206C209.882 61.1271 209.887 61.1335 209.893 61.1408C209.92 61.1731 209.944 61.2029 209.971 61.236C209.983 61.2497 209.995 61.2642 210.006 61.2779C210.026 61.3029 210.048 61.3295 210.068 61.3537C210.08 61.3691 210.092 61.382 210.104 61.3973C210.13 61.4295 210.159 61.4634 210.184 61.4957C210.197 61.511 210.209 61.5255 210.221 61.5409C210.244 61.5683 210.265 61.5941 210.287 61.6207C210.301 61.6385 210.313 61.653 210.327 61.6699C210.345 61.6917 210.366 61.7175 210.384 61.7393C210.396 61.7554 210.409 61.7716 210.423 61.7877C210.447 61.8175 210.468 61.8434 210.492 61.8732C210.51 61.8958 210.528 61.9175 210.546 61.9393C210.563 61.9611 210.584 61.9861 210.601 62.0079C210.616 62.0265 210.632 62.0458 210.647 62.0644C210.662 62.0837 210.68 62.1055 210.695 62.124C210.709 62.1426 210.726 62.162 210.74 62.1797C210.759 62.2047 210.774 62.2225 210.793 62.2467C210.819 62.2781 210.844 62.3096 210.87 62.3418C210.885 62.3604 210.898 62.3773 210.914 62.3959C210.93 62.4161 210.947 62.4386 210.964 62.4596C210.977 62.4757 210.992 62.4943 211.005 62.5104C211.022 62.5322 211.038 62.5516 211.055 62.5733C211.068 62.5895 211.085 62.6104 211.097 62.6266C211.127 62.6645 211.158 62.7024 211.188 62.7403C211.201 62.7564 211.211 62.7694 211.224 62.7855C211.243 62.8089 211.26 62.8315 211.279 62.8548C211.289 62.8686 211.301 62.8839 211.312 62.8976C211.331 62.9218 211.35 62.9444 211.369 62.9694C211.376 62.9774 211.385 62.9896 211.391 62.9976C211.43 63.0468 211.468 63.0952 211.506 63.1444C211.515 63.1549 211.523 63.1646 211.531 63.1759C211.552 63.2017 211.572 63.2267 211.592 63.2525C211.6 63.2638 211.609 63.2743 211.618 63.2848C211.638 63.3114 211.66 63.3388 211.681 63.3654C211.682 63.3687 211.681 63.3654 211.682 63.3687C211.73 63.4292 211.778 63.4913 211.826 63.5518C211.83 63.5574 211.832 63.5606 211.836 63.5663C211.859 63.5945 211.881 63.6228 211.902 63.651C211.909 63.659 211.915 63.6663 211.921 63.6744C212.018 63.8002 212.115 63.9252 212.211 64.0511C212.214 64.0535 212.219 64.0615 212.222 64.064C212.321 64.1938 212.419 64.3221 212.519 64.4528L212.52 64.4544C222.536 77.6207 229.049 92.5996 232.059 108.125Z" fill="#D73D3D"/>
<path d="M228.301 107.948C228.14 107.94 227.978 107.933 227.816 107.925C226.439 102.449 224.59 97.073 222.385 91.8364C221.441 89.636 220.439 87.463 219.353 85.3077C215.876 75.9034 208.617 69.4504 203.545 60.9172C202.119 59.3056 200.621 57.7351 199.073 56.2042C198.625 55.6944 198.169 55.1911 197.703 54.6934C199.652 56.3929 201.552 58.157 203.399 59.98C205.205 61.9247 206.916 63.9364 208.551 66.0078C213.447 72.2203 217.678 78.9628 221.178 86.1224C222.407 88.8076 223.512 91.5356 224.494 94.2966C226.085 98.7693 227.354 103.333 228.301 107.948Z" fill="#C63838"/>
<path d="M85.0219 220.67C82.4311 219.515 79.8878 218.229 77.4018 216.822C74.9045 215.409 72.4645 213.874 70.0931 212.228C66.7109 209.817 63.5135 207.186 60.5 204.363C63.4425 207.007 66.5012 209.448 69.6599 211.689C71.9725 213.329 74.3383 214.861 76.7493 216.286C79.161 217.711 81.618 219.027 84.1153 220.237C84.4169 220.383 84.7194 220.527 85.0219 220.67Z" fill="#C63838"/>
<path d="M109.033 227.751C103.059 226.714 97.1463 225.245 91.3403 223.378C89.2326 222.568 87.137 221.666 85.0584 220.685C85.0463 220.68 85.035 220.675 85.0229 220.67C84.7204 220.527 84.4179 220.383 84.1162 220.237C81.6189 219.027 79.162 217.711 76.7502 216.286C74.3392 214.861 71.9734 213.329 69.6609 211.689C66.5022 209.448 63.4435 207.006 60.501 204.362C57.2245 201.294 54.165 197.998 51.3281 194.521C51.7266 194.519 52.1243 194.518 52.5219 194.518C55.0184 194.518 57.502 194.568 59.9404 194.782C64.0743 198.871 68.5695 202.617 73.4504 205.915C75.9146 207.323 78.4546 208.569 81.0551 209.659C83.9888 210.878 86.9991 211.899 90.0699 212.702C95.8323 217.676 101.789 222.426 107.919 226.936C108.29 227.209 108.662 227.481 109.033 227.751ZM223.335 162.583C223.204 162.514 223.071 162.448 222.935 162.385C221.513 161.73 220.009 161.521 218.463 161.521C217.118 161.521 215.741 161.679 214.359 161.836C213.675 161.914 212.989 161.992 212.305 162.051C213.97 157.784 215.304 153.387 216.327 148.904C218.951 153.119 221.601 157.323 223.702 161.589C223.58 161.921 223.458 162.251 223.335 162.583Z" fill="#B73333"/>
<path d="M197.706 54.6934C196.885 53.9779 196.057 53.2753 195.219 52.5824C195.34 52.5623 195.46 52.5429 195.581 52.5244C196.308 53.2342 197.016 53.9569 197.706 54.6934Z" fill="#C63838"/>
<path d="M227.819 107.925C224.852 107.786 221.885 107.647 218.917 107.508C218.194 107.474 217.462 107.442 216.733 107.442C216.292 107.442 215.85 107.454 215.413 107.484C215.041 105.717 214.636 103.955 214.194 102.199C208.899 85.4065 200.948 68.495 189.355 55.2843C189.435 55.1923 189.518 55.1012 189.605 55.0117C191.053 53.5162 193.126 52.9298 195.219 52.5821C196.057 53.275 196.885 53.9776 197.706 54.693C198.172 55.1907 198.628 55.6941 199.076 56.2038C200.625 57.7348 202.122 59.3053 203.548 60.9169C208.62 69.4501 215.879 75.903 219.357 85.3073C220.442 87.4626 221.444 89.6356 222.388 91.8361C224.593 97.0726 226.442 102.449 227.819 107.925Z" fill="#B73333"/>
<mask id="mask2_36_5058" style="mask-type:luminance" maskUnits="userSpaceOnUse" x="203" y="202" width="1" height="2">
<path d="M203.051 203.051C203.089 203.013 203.127 202.975 203.165 202.937C203.127 202.975 203.089 203.013 203.051 203.051Z" fill="white"/>
</mask>
<g mask="url(#mask2_36_5058)">
<path d="M203.051 203.051C203.089 203.013 203.127 202.975 203.165 202.937C203.127 202.975 203.089 203.013 203.051 203.051Z" fill="url(#paint2_linear_36_5058)"/>
</g>
<path d="M203.051 203.051C203.089 203.011 203.129 202.973 203.168 202.933C203.167 202.934 203.165 202.936 203.165 202.936C203.127 202.974 203.089 203.013 203.051 203.051Z" fill="#D73D3D"/>
<mask id="mask3_36_5058" style="mask-type:luminance" maskUnits="userSpaceOnUse" x="203" y="202" width="1" height="1">
<path d="M203.176 202.927C203.211 202.892 203.246 202.857 203.281 202.821C203.246 202.857 203.211 202.891 203.176 202.927Z" fill="white"/>
</mask>
<g mask="url(#mask3_36_5058)">
<path d="M203.176 202.927C203.211 202.892 203.246 202.857 203.281 202.821C203.246 202.857 203.211 202.891 203.176 202.927Z" fill="url(#paint3_linear_36_5058)"/>
</g>
<path d="M203.176 202.927C203.213 202.89 203.251 202.852 203.289 202.814C203.286 202.817 203.284 202.819 203.282 202.821C203.247 202.856 203.212 202.892 203.177 202.926L203.176 202.927Z" fill="#D73D3D"/>
<mask id="mask4_36_5058" style="mask-type:luminance" maskUnits="userSpaceOnUse" x="203" y="202" width="1" height="1">
<path d="M203.297 202.802C203.329 202.769 203.363 202.735 203.396 202.702C203.362 202.736 203.33 202.768 203.297 202.802Z" fill="white"/>
</mask>
<g mask="url(#mask4_36_5058)">
<path d="M203.297 202.802C203.329 202.769 203.363 202.735 203.396 202.702C203.362 202.736 203.33 202.768 203.297 202.802Z" fill="url(#paint4_linear_36_5058)"/>
</g>
<path d="M203.297 202.804C203.333 202.768 203.369 202.732 203.406 202.695C203.403 202.697 203.4 202.7 203.399 202.703C203.365 202.736 203.332 202.77 203.299 202.803C203.298 202.803 203.298 202.803 203.297 202.804Z" fill="#D73D3D"/>
<mask id="mask5_36_5058" style="mask-type:luminance" maskUnits="userSpaceOnUse" x="203" y="202" width="1" height="1">
<path d="M203.422 202.678C203.452 202.648 203.483 202.616 203.513 202.586C203.483 202.616 203.453 202.647 203.422 202.678Z" fill="white"/>
</mask>
<g mask="url(#mask5_36_5058)">
<path d="M203.422 202.678C203.452 202.648 203.483 202.616 203.513 202.586C203.483 202.616 203.453 202.647 203.422 202.678Z" fill="url(#paint5_linear_36_5058)"/>
</g>
<path d="M203.422 202.68C203.456 202.646 203.49 202.61 203.524 202.576C203.521 202.58 203.519 202.582 203.515 202.585C203.486 202.615 203.454 202.647 203.424 202.677C203.423 202.678 203.423 202.68 203.422 202.68Z" fill="#D73D3D"/>
<mask id="mask6_36_5058" style="mask-type:luminance" maskUnits="userSpaceOnUse" x="203" y="202" width="1" height="1">
<path d="M203.547 202.55C203.574 202.523 203.605 202.491 203.632 202.464C203.605 202.492 203.575 202.522 203.547 202.55Z" fill="white"/>
</mask>
<g mask="url(#mask6_36_5058)">
<path d="M203.547 202.55C203.574 202.523 203.605 202.491 203.632 202.464C203.605 202.492 203.575 202.522 203.547 202.55Z" fill="url(#paint6_linear_36_5058)"/>
</g>
<path d="M203.543 202.555C203.576 202.522 203.611 202.487 203.644 202.453C203.64 202.457 203.637 202.46 203.633 202.464C203.605 202.492 203.574 202.523 203.547 202.551C203.545 202.553 203.545 202.553 203.543 202.555Z" fill="#D73D3D"/>
<mask id="mask7_36_5058" style="mask-type:luminance" maskUnits="userSpaceOnUse" x="203" y="202" width="1" height="1">
<path d="M203.672 202.425C203.697 202.4 203.727 202.369 203.752 202.344C203.725 202.371 203.698 202.398 203.672 202.425Z" fill="white"/>
</mask>
<g mask="url(#mask7_36_5058)">
<path d="M203.672 202.425C203.697 202.4 203.727 202.369 203.752 202.344C203.725 202.371 203.698 202.398 203.672 202.425Z" fill="url(#paint7_linear_36_5058)"/>
</g>
<path d="M203.664 202.432C203.697 202.398 203.729 202.365 203.762 202.331C203.758 202.336 203.754 202.339 203.75 202.344C203.725 202.369 203.696 202.4 203.671 202.425C203.668 202.428 203.666 202.43 203.664 202.432Z" fill="#D73D3D"/>
<mask id="mask8_36_5058" style="mask-type:luminance" maskUnits="userSpaceOnUse" x="203" y="202" width="1" height="1">
<path d="M203.801 202.298C203.826 202.273 203.848 202.249 203.873 202.224C203.849 202.249 203.825 202.274 203.801 202.298Z" fill="white"/>
</mask>
<g mask="url(#mask8_36_5058)">
<path d="M203.801 202.298C203.826 202.273 203.848 202.249 203.873 202.224C203.849 202.249 203.825 202.274 203.801 202.298Z" fill="url(#paint8_linear_36_5058)"/>
</g>
<path d="M203.785 202.307C203.818 202.274 203.85 202.242 203.883 202.208C203.878 202.213 203.872 202.219 203.867 202.223C203.842 202.249 203.82 202.272 203.795 202.297C203.792 202.301 203.789 202.304 203.785 202.307Z" fill="#D73D3D"/>
<mask id="mask9_36_5058" style="mask-type:luminance" maskUnits="userSpaceOnUse" x="203" y="202" width="1" height="1">
<path d="M203.918 202.169C203.933 202.154 203.945 202.142 203.959 202.127C203.945 202.141 203.932 202.154 203.918 202.169Z" fill="white"/>
</mask>
<g mask="url(#mask9_36_5058)">
<path d="M203.918 202.169C203.933 202.154 203.945 202.142 203.959 202.127C203.945 202.141 203.932 202.154 203.918 202.169Z" fill="url(#paint9_linear_36_5058)"/>
</g>
<path d="M203.906 202.183C203.938 202.151 203.969 202.119 204.001 202.086C203.988 202.1 203.974 202.114 203.961 202.127C203.947 202.143 203.935 202.154 203.92 202.169C203.916 202.174 203.911 202.179 203.906 202.183Z" fill="#D73D3D"/>
<mask id="mask10_36_5058" style="mask-type:luminance" maskUnits="userSpaceOnUse" x="204" y="202" width="1" height="1">
<path d="M204.047 202.04C204.057 202.03 204.063 202.023 204.073 202.013C204.064 202.021 204.055 202.031 204.047 202.04Z" fill="white"/>
</mask>
<g mask="url(#mask10_36_5058)">
<path d="M204.047 202.04C204.057 202.03 204.063 202.023 204.073 202.013C204.064 202.021 204.055 202.031 204.047 202.04Z" fill="url(#paint10_linear_36_5058)"/>
</g>
<path d="M204.031 202.057C204.061 202.025 204.093 201.994 204.122 201.962C204.106 201.979 204.09 201.996 204.074 202.012C204.064 202.023 204.058 202.029 204.048 202.04C204.042 202.045 204.037 202.051 204.031 202.057Z" fill="#D73D3D"/>
<path d="M204.155 201.932C204.184 201.901 204.214 201.872 204.243 201.841C204.225 201.86 204.207 201.879 204.188 201.898C204.185 201.901 204.183 201.904 204.18 201.906C204.172 201.915 204.164 201.923 204.155 201.932ZM204.398 201.68C204.421 201.658 204.442 201.636 204.464 201.613C204.442 201.635 204.421 201.658 204.398 201.68ZM204.523 201.551C204.542 201.531 204.561 201.511 204.58 201.492C204.56 201.512 204.543 201.53 204.523 201.551ZM204.904 201.153C204.913 201.144 204.922 201.135 204.93 201.126C204.922 201.134 204.913 201.144 204.904 201.153ZM205.044 201.005C205.047 201.004 205.047 201.003 205.049 201C205.048 201.002 205.046 201.004 205.044 201.005ZM40.227 186.69C21.1901 158.014 17.6353 122.097 29.566 90.7168C29.9548 90.5023 30.346 90.2909 30.7445 90.0909C34.4573 88.2195 38.7009 87.1072 42.8501 87.1072C43.6438 87.1072 44.4343 87.1484 45.2167 87.2323C44.6287 88.3631 44.0617 89.4851 43.5156 90.5966C39.5543 105.349 32.3609 135.414 47.2276 135.414C48.4424 135.414 49.8064 135.213 51.3301 134.786C65.5701 130.718 79.2398 120.949 95.2156 113.626C96.073 114.297 96.8296 115.12 97.462 116.138C98.1202 117.199 98.5614 118.448 98.413 119.688C98.1291 122.059 95.9004 123.632 94.5614 125.61C91.4842 130.156 93.7968 137.006 98.576 139.706C100.487 140.785 102.633 141.275 104.812 141.275C108.081 141.274 111.42 140.17 114.133 138.301C115.904 137.083 117.684 135.493 119.817 135.493C119.866 135.493 119.914 135.494 119.963 135.495C123.296 135.607 125.156 139.647 124.813 142.965C124.635 144.686 124.092 146.335 123.551 147.986C120.918 148.6 118.224 148.948 115.521 149.013C115.125 149.021 114.728 149.025 114.329 149.025C113.465 149.025 112.596 149.008 111.725 148.99C110.857 148.971 109.987 148.954 109.121 148.954C105.995 148.954 102.921 149.188 100.121 150.499C93.3725 153.659 90.1372 162.186 84.3384 166.321C83.335 165.85 81.9831 165.567 80.3844 165.567C80.169 165.567 79.9488 165.573 79.7254 165.584C79.6423 165.58 79.5616 165.579 79.481 165.579C77.0571 165.579 75.81 167.044 75.9254 167.902C76.0278 168.137 76.1504 168.374 76.2956 168.608C72.582 168.406 68.8231 167.036 65.0482 166.985C64.9724 166.984 64.8949 166.983 64.8191 166.983C64.3505 166.983 63.8859 167.002 63.4277 167.04C62.2331 165.74 61.1337 165.137 60.5295 165.137C60.3948 165.137 60.2843 165.167 60.2028 165.225C59.8987 165.832 59.7132 166.652 59.7802 167.751C55.9278 168.942 52.5085 171.419 49.47 174.492C49.2377 174.222 49.0062 173.948 48.7771 173.674C47.1075 171.636 45.5418 169.543 44.0802 167.399C30.93 148.104 26.2314 124.774 29.9862 102.596C22.9106 129.598 27.0897 158.941 42.5267 183.179C42.0121 183.94 41.512 184.7 41.0264 185.455C40.7626 185.865 40.4964 186.277 40.227 186.69ZM58.0113 144.477C56.9417 144.477 55.9657 144.645 55.1518 145.079C52.5957 147.022 54.9897 149.208 56.0488 150.952C58.6808 153.861 63.3527 157.812 67.6052 157.812C68.5892 157.812 69.5507 157.601 70.459 157.116C75.506 154.883 68.2924 149.15 64.6699 146.247C63.5882 145.637 62.467 145.173 61.366 144.867C60.1996 144.638 59.0607 144.477 58.0113 144.477Z" fill="#D73D3D"/>
<path d="M59.7793 167.751C59.7123 166.652 59.8978 165.832 60.2019 165.225C60.2834 165.167 60.3939 165.137 60.5286 165.137C61.1328 165.137 62.2322 165.74 63.4268 167.04C62.1693 167.144 60.9545 167.388 59.7793 167.751Z" fill="#BF3030"/>
<path d="M77.1812 168.632C76.886 168.632 76.5916 168.624 76.2955 168.608C76.1504 168.374 76.0277 168.137 75.9253 167.902C75.81 167.044 77.057 165.579 79.4809 165.579C79.5615 165.579 79.6422 165.58 79.7253 165.584C79.9487 165.573 80.1689 165.568 80.3843 165.568C81.983 165.568 83.3349 165.85 84.3383 166.321C83.0308 167.253 81.5926 167.962 79.9543 168.337C79.0332 168.546 78.108 168.632 77.1812 168.632Z" fill="#BF3030"/>
<path d="M67.6045 157.812C63.352 157.812 58.6801 153.861 56.0481 150.952C54.989 149.207 52.595 147.021 55.1511 145.079C55.965 144.644 56.941 144.477 58.0106 144.477C59.06 144.477 60.1989 144.638 61.3653 144.866C62.4663 145.173 63.5875 145.636 64.6692 146.247C68.2917 149.15 75.5053 154.883 70.4583 157.115C69.55 157.6 68.5885 157.812 67.6045 157.812Z" fill="#CC3333"/>
<path d="M42.525 183.179C27.088 158.941 22.9089 129.598 29.9846 102.596C26.2298 124.774 30.9283 148.104 44.0786 167.399C45.5402 169.543 47.1058 171.637 48.7755 173.674C49.0046 173.948 49.2361 174.222 49.4684 174.492C48.3214 175.652 47.2284 176.897 46.1871 178.19C39.7793 168.834 34.6605 158.677 30.6629 148.524C30.083 146.373 29.5853 144.199 29.1634 142.012C27.0542 131.079 26.8517 119.851 28.5545 108.861C26.2596 120.587 26.0386 132.638 27.8906 144.427C28.2608 146.782 28.7142 149.126 29.261 151.438C32.3512 162.292 36.9045 172.914 42.8953 182.637C42.771 182.818 42.6476 182.999 42.525 183.179Z" fill="#C63838"/>
<path d="M226.326 167.921C225.824 166.388 225.219 164.866 224.535 163.355C225.537 164.127 226.343 165.107 226.995 166.22C226.777 166.788 226.554 167.355 226.326 167.921Z" fill="#D73D3D"/>
<path d="M42.8939 182.637C36.9032 172.914 32.3499 162.292 29.2597 151.438C28.7128 149.126 28.2595 146.782 27.8893 144.427C26.0373 132.638 26.2583 120.587 28.5531 108.861C26.8503 119.851 27.0528 131.079 29.1621 142.012C29.584 144.199 30.0817 146.373 30.6616 148.524C34.6592 158.678 39.778 168.834 46.1857 178.19C45.0258 179.63 43.9304 181.13 42.8939 182.637Z" fill="#B73333"/>
<path d="M47.2285 135.414C32.3618 135.414 39.5552 105.349 43.5164 90.5964C44.0625 89.4849 44.6296 88.3629 45.2176 87.232C48.1408 87.545 50.9543 88.4621 53.4265 90.1116C60.5022 94.8311 63.5197 104.469 71.2059 108.111C72.7208 108.829 74.3687 109.292 76.0811 109.613C78.4622 111.713 80.7054 113.007 83.5955 113.007C85.3919 112.751 87.3511 112.086 89.1104 111.117C91.4141 111.564 93.5129 112.293 95.2164 113.625C79.2406 120.949 65.5709 130.717 51.3309 134.786C49.8072 135.213 48.4433 135.414 47.2285 135.414Z" fill="#D84242"/>
<path d="M83.5925 113.007C80.7024 113.007 78.4593 111.713 76.0781 109.613C80.3604 110.416 85.0509 110.33 89.1074 111.117C87.3481 112.086 85.3889 112.751 83.5925 113.007Z" fill="#CD3939"/>
<path d="M128.339 233.994C124.636 233.994 120.931 233.8 117.246 233.414C114.948 231.93 112.692 230.379 110.469 228.787C116.433 229.855 122.476 230.39 128.517 230.39C143.004 230.39 157.489 227.319 170.915 221.177C178.885 217.9 185.995 213.406 192.322 208.018C202.674 199.833 210.608 190.023 217.128 178.826C218.602 176.237 219.952 173.594 221.18 170.909C222.339 168.375 223.389 165.802 224.329 163.2C224.399 163.251 224.468 163.303 224.537 163.355C225.221 164.867 225.826 166.389 226.328 167.921C221.507 179.871 214.416 191.12 205.048 201.001C205.045 201.003 205.045 201.004 205.043 201.005C205.005 201.046 204.967 201.085 204.928 201.126C204.92 201.135 204.911 201.144 204.902 201.153C204.872 201.185 204.842 201.217 204.811 201.249C204.798 201.263 204.785 201.277 204.772 201.29C204.746 201.318 204.719 201.345 204.694 201.373C204.678 201.389 204.661 201.406 204.646 201.422C204.623 201.445 204.601 201.468 204.578 201.492C204.56 201.511 204.54 201.531 204.522 201.551C204.502 201.571 204.482 201.593 204.463 201.613C204.44 201.636 204.419 201.658 204.397 201.681C204.382 201.696 204.368 201.711 204.352 201.727C204.326 201.754 204.301 201.781 204.275 201.807C204.264 201.819 204.253 201.83 204.242 201.841C204.212 201.872 204.183 201.902 204.153 201.932C204.143 201.942 204.133 201.953 204.123 201.963C204.093 201.994 204.062 202.026 204.032 202.057C204.022 202.068 204.013 202.077 204.003 202.086C203.972 202.119 203.94 202.151 203.909 202.183C203.901 202.192 203.893 202.2 203.884 202.208C203.852 202.242 203.82 202.274 203.787 202.307C203.78 202.315 203.772 202.324 203.763 202.332C203.73 202.365 203.698 202.399 203.665 202.432C203.659 202.439 203.651 202.447 203.644 202.453C203.611 202.487 203.576 202.522 203.543 202.555C203.537 202.562 203.53 202.57 203.522 202.577C203.488 202.611 203.454 202.646 203.42 202.68C203.415 202.686 203.41 202.69 203.405 202.695C203.369 202.732 203.333 202.768 203.296 202.804C203.293 202.807 203.29 202.812 203.287 202.815C203.249 202.853 203.211 202.891 203.174 202.928C203.172 202.93 203.171 202.932 203.168 202.933C203.129 202.973 203.09 203.012 203.051 203.051C182.419 223.683 155.38 233.994 128.339 233.994Z" fill="#CF3B3B"/>
<path d="M128.517 230.39C122.477 230.39 116.433 229.855 110.469 228.787C109.99 228.444 109.512 228.098 109.035 227.751C115.961 228.955 122.973 229.579 130.011 229.58C138.322 229.58 146.665 228.709 154.945 226.887C157.577 226.212 160.173 225.408 162.736 224.496C165.497 223.513 168.225 222.408 170.91 221.18C170.912 221.179 170.913 221.179 170.915 221.177C157.489 227.319 143.004 230.39 128.517 230.39ZM192.323 208.018C201.681 200.05 209.33 190.128 215.516 179.312C216.811 177.047 218.044 174.738 219.208 172.39C220.705 169.193 222.089 165.919 223.337 162.583C223.687 162.768 224.017 162.974 224.33 163.2C223.39 165.802 222.34 168.375 221.18 170.909C219.953 173.594 218.603 176.237 217.129 178.826C210.609 190.023 202.674 199.833 192.323 208.018Z" fill="#BE3636"/>
<path d="M118.722 203.886C115.785 203.705 112.838 203.396 109.9 202.984C108.874 200.701 107.12 199.779 105.904 199.779C105.558 199.779 105.254 199.854 105.024 199.994C104.513 200.536 104.038 201.186 103.66 201.958C96.9663 200.706 90.3835 199.004 84.1161 197.15C81.4027 196.203 78.7134 195.196 76.058 194.147C73.447 192.938 70.9045 191.614 68.4403 190.168C61.3655 186.008 54.9287 180.84 49.4688 174.492C52.5073 171.418 55.9265 168.941 59.7789 167.751C59.8846 169.495 60.6283 171.943 62.5464 175.364C63.6192 176.99 64.8687 178.266 65.9874 178.979C66.6472 179.327 67.1893 179.49 67.6168 179.49C69.7971 179.49 68.9646 175.23 65.2599 169.557C64.6581 168.532 64.0306 167.697 63.4264 167.04C63.8846 167.002 64.3492 166.983 64.8178 166.983C64.8937 166.983 64.9711 166.984 65.0469 166.984C68.8219 167.035 72.5807 168.406 76.2943 168.607C77.2042 170.072 79.0143 171.438 82.5263 171.699C83.7539 171.631 84.8154 171.182 85.5091 170.522C86.9199 168.859 86.2819 167.234 84.3371 166.321C90.1359 162.186 93.3712 153.658 100.119 150.499C102.92 149.187 105.994 148.953 109.12 148.953C109.986 148.953 110.855 148.971 111.724 148.99C112.594 149.007 113.464 149.025 114.328 149.025C114.726 149.025 115.124 149.021 115.52 149.012C118.223 148.948 120.917 148.599 123.55 147.985C123.048 149.518 122.548 151.051 122.346 152.644C121.437 159.772 126.894 166.537 133.536 169.279C137.212 170.797 141.152 171.335 145.143 171.335C148.361 171.334 151.614 170.984 154.788 170.517C158.004 170.041 161.493 169.29 163.532 166.758C164.9 165.058 165.376 162.833 165.811 160.695C167.17 154.018 168.507 147.002 167.405 140.387C167.823 139.964 168.242 139.466 168.659 138.885C169.241 137.803 169.412 136.663 169.211 135.726C168.79 134.451 167.976 133.846 166.993 133.846C166.571 133.846 166.117 133.958 165.65 134.177C165.523 133.641 165.479 133.102 165.62 132.57C166.146 130.573 168.713 130.09 170.775 129.99C172.483 129.907 174.206 129.826 175.923 129.826C178.166 129.826 180.398 129.964 182.573 130.416C182.138 131.419 181.758 132.557 181.453 133.851C181.408 134.311 181.397 134.763 181.42 135.201C181.247 137.4 181.86 139.4 182.995 140.823C184.331 142.166 185.771 142.789 187.183 142.789C189.548 142.789 191.83 141.04 193.391 138.001C193.659 138.567 193.879 139.157 194.041 139.773C194.758 142.492 194.312 145.374 194.615 148.169C194.789 149.772 195.242 151.321 195.92 152.769C194.818 154.814 193.62 156.811 192.323 158.749C190.746 161.216 189.066 163.636 187.309 165.995C180.282 175.438 172.029 183.933 163.817 191.164C161.731 192.719 159.604 194.2 157.437 195.592C155.929 196.536 154.386 197.39 152.814 198.158C157.106 193.98 157.84 189.203 156.374 187.159C153.235 184.738 148.898 182.849 143.072 182.849C138.544 182.849 133.116 183.99 126.655 186.911C122.48 189.454 119.551 192.961 118.275 196.481C117.529 199.502 117.74 201.984 118.722 203.886ZM114.204 177.136C111.019 177.953 107.411 180.494 105.812 187.259C105.608 189.337 106.117 191.233 107.093 192.567C108.198 193.777 109.39 194.338 110.559 194.338C113.664 194.338 116.602 190.379 117.273 184.103C118.13 179.79 115.79 177.159 114.204 177.136ZM177.854 145.467C176.294 146.272 174.536 148.695 173.784 155.042C173.694 156.989 173.953 158.757 174.438 159.991C174.978 161.094 175.558 161.604 176.124 161.604C177.658 161.604 179.093 157.856 179.394 151.946C179.794 147.901 178.633 145.469 177.854 145.467Z" fill="#CF3B3B"/>
<path d="M110.556 194.338C109.388 194.338 108.195 193.777 107.09 192.567C106.115 191.233 105.606 189.337 105.81 187.259C107.409 180.494 111.017 177.953 114.201 177.136C115.788 177.159 118.128 179.79 117.271 184.103C116.599 190.38 113.662 194.338 110.556 194.338Z" fill="#C43131"/>
<path d="M187.183 142.79C185.771 142.79 184.331 142.167 182.995 140.823C181.86 139.4 181.247 137.401 181.419 135.201C181.497 136.742 181.973 138.122 182.733 139.16C183.837 140.37 185.03 140.931 186.199 140.931C188.398 140.931 190.514 138.945 191.799 135.557C192.432 136.305 192.971 137.121 193.39 138.001C191.83 141.041 189.548 142.79 187.183 142.79Z" fill="#D04848"/>
<path d="M186.198 140.931C185.028 140.931 183.835 140.369 182.731 139.159C181.971 138.121 181.495 136.742 181.418 135.2C181.395 134.762 181.406 134.311 181.451 133.851C181.757 132.557 182.136 131.419 182.571 130.416C183.182 130.544 183.789 130.696 184.39 130.876C187.21 131.724 189.916 133.336 191.797 135.557C190.512 138.945 188.397 140.931 186.198 140.931Z" fill="#C43131"/>
<path d="M67.6152 179.49C67.1877 179.49 66.6457 179.327 65.9859 178.979C64.8671 178.266 63.6176 176.99 62.5448 175.364C60.6267 171.944 59.883 169.495 59.7773 167.751C60.9526 167.388 62.1674 167.144 63.4249 167.04C64.029 167.698 64.6566 168.532 65.2583 169.558C68.9631 175.23 69.7955 179.49 67.6152 179.49Z" fill="#B82E2E"/>
<path d="M176.123 161.604C175.557 161.604 174.977 161.094 174.437 159.991C173.952 158.757 173.693 156.989 173.783 155.043C174.535 148.695 176.294 146.272 177.853 145.467C178.632 145.469 179.794 147.901 179.393 151.946C179.093 157.856 177.657 161.604 176.123 161.604Z" fill="#B82E2E"/>
<path d="M109.899 202.984C107.813 202.691 105.732 202.347 103.66 201.959C104.038 201.186 104.513 200.537 105.024 199.995C105.254 199.854 105.557 199.779 105.904 199.779C107.12 199.779 108.873 200.701 109.899 202.984Z" fill="#C43131"/>
<path d="M82.5249 171.699C79.0129 171.438 77.2028 170.072 76.293 168.607C76.589 168.624 76.8834 168.632 77.1786 168.632C78.1054 168.632 79.0306 168.546 79.9518 168.336C81.59 167.962 83.0282 167.253 84.3357 166.321C86.2805 167.235 86.9185 168.859 85.5077 170.522C84.8141 171.182 83.7525 171.631 82.5249 171.699Z" fill="#B82E2E"/>
<path d="M167.404 140.387C167.146 138.842 166.756 137.319 166.201 135.827C166.002 135.29 165.78 134.736 165.648 134.177C166.115 133.958 166.57 133.846 166.992 133.846C167.975 133.846 168.789 134.451 169.21 135.727C169.411 136.663 169.24 137.803 168.658 138.885C168.241 139.466 167.821 139.964 167.404 140.387Z" fill="#B82E2E"/>
<path d="M121.029 204.002C120.261 203.973 119.493 203.934 118.722 203.886C117.741 201.984 117.53 199.502 118.276 196.481C119.552 192.961 122.481 189.454 126.656 186.911C133.117 183.99 138.545 182.849 143.073 182.849C148.899 182.849 153.236 184.738 156.375 187.159C157.841 189.203 157.107 193.98 152.815 198.159C152.718 198.205 152.621 198.253 152.524 198.299C154.893 195.07 155.09 191.691 153.928 190.069C150.92 187.656 146.756 185.737 141.179 185.737C137.342 185.737 132.836 186.647 127.582 188.931C123.96 191.109 121.471 194.199 120.449 197.354C119.89 200.029 120.136 202.259 121.029 204.002Z" fill="#D04848"/>
<path d="M124.588 204.072C123.405 204.073 122.217 204.048 121.027 204.002C120.134 202.259 119.888 200.029 120.446 197.353C121.469 194.199 123.958 191.109 127.579 188.931C132.834 186.646 137.34 185.737 141.177 185.737C146.753 185.737 150.918 187.656 153.926 190.069C155.088 191.691 154.891 195.07 152.522 198.299C143.884 202.456 134.352 204.072 124.588 204.072Z" fill="#C43131"/>
<path d="M124.861 215.748C121.12 215.748 117.377 215.641 113.646 215.422C111.022 215.267 108.402 215.058 105.789 214.79C100.428 214.762 95.1652 214.033 90.0714 212.702C87.9823 210.899 85.919 209.066 83.8806 207.204C79.9532 203.617 76.0355 199.862 71.2273 197.586C67.6661 195.902 63.8612 195.129 59.9419 194.783C54.8134 189.711 50.2415 184.11 46.1875 178.19C47.2288 176.897 48.3218 175.652 49.4688 174.492C54.9288 180.841 61.3656 186.009 68.4404 190.169C70.9046 191.614 73.4471 192.939 76.0581 194.148C78.7135 195.196 81.4027 196.204 84.1162 197.151C90.3836 199.004 96.9664 200.706 103.66 201.959C102.707 203.913 102.378 206.653 103.672 210.418C104.421 211.909 105.574 212.974 106.802 213.459C107.282 213.591 107.731 213.654 108.146 213.654C111.723 213.654 112.815 208.98 110.071 203.396C110.017 203.254 109.959 203.116 109.9 202.984C112.838 203.396 115.785 203.705 118.722 203.887C120.243 206.835 123.615 208.388 128.144 208.388C128.257 208.388 128.37 208.387 128.483 208.385C129.028 208.44 129.593 208.468 130.178 208.468C134.659 208.468 140.268 206.826 146.194 203.33C148.874 202.052 150.831 200.433 152.179 198.749C152.399 198.554 152.611 198.357 152.814 198.159C154.386 197.39 155.929 196.536 157.437 195.592C159.604 194.2 161.731 192.719 163.817 191.165C172.029 183.934 180.282 175.438 187.309 165.996C189.066 163.637 190.746 161.217 192.323 158.749C193.62 156.811 194.818 154.815 195.92 152.769C198.407 158.073 203.922 162.007 209.826 162.147C209.959 162.15 210.091 162.152 210.224 162.152C210.914 162.152 211.609 162.111 212.307 162.051C210.276 167.256 207.754 172.265 204.706 176.99C203.126 179.21 201.454 181.364 199.698 183.446C190.923 193.862 180.081 202.525 168.482 208.962C165.848 210.292 163.199 211.524 160.487 212.595C148.92 214.64 136.9 215.748 124.861 215.748Z" fill="#BE3636"/>
<path d="M108.147 213.654C107.732 213.654 107.283 213.591 106.803 213.459C105.575 212.974 104.422 211.909 103.673 210.418C102.379 206.652 102.708 203.913 103.662 201.959C105.733 202.347 107.815 202.691 109.901 202.984C109.96 203.116 110.018 203.253 110.073 203.395C112.816 208.979 111.724 213.654 108.147 213.654Z" fill="#B42D2D"/>
<path d="M128.146 208.387C123.616 208.387 120.244 206.834 118.723 203.886C119.493 203.934 120.261 203.973 121.03 204.002C122.323 206.524 124.967 208.027 128.484 208.385C128.371 208.386 128.258 208.387 128.146 208.387ZM152.18 198.749C152.3 198.6 152.415 198.45 152.525 198.299C152.621 198.253 152.718 198.205 152.815 198.159C152.612 198.356 152.4 198.554 152.18 198.749Z" fill="#C04242"/>
<path d="M130.177 208.468C129.592 208.468 129.027 208.44 128.482 208.385C124.964 208.027 122.32 206.524 121.027 204.002C122.217 204.048 123.405 204.073 124.589 204.072C134.352 204.072 143.884 202.456 152.522 198.299C152.413 198.45 152.297 198.6 152.178 198.749C150.829 200.432 148.873 202.051 146.193 203.33C140.267 206.826 134.658 208.468 130.177 208.468Z" fill="#B42D2D"/>
<path d="M46.1197 194.554C46.0761 194.554 46.0318 194.554 45.9882 194.554C43.9321 192.002 42.0108 189.378 40.2266 186.69C40.496 186.277 40.7621 185.865 41.0259 185.455C41.5115 184.7 42.0116 183.939 42.5262 183.179C45.0267 187.105 47.8233 190.897 50.915 194.523C50.3907 194.527 49.8656 194.531 49.3413 194.535C48.2661 194.545 47.1917 194.554 46.1197 194.554Z" fill="#CF3B3B"/>
<path d="M50.9161 194.523C47.8244 190.897 45.0279 187.106 42.5273 183.179C42.6499 182.999 42.7734 182.818 42.8976 182.637C45.4489 186.779 48.2616 190.758 51.3316 194.521C51.1928 194.522 51.0549 194.523 50.9161 194.523Z" fill="#BE3636"/>
<path d="M170.914 221.177C173.598 219.95 176.237 218.601 178.828 217.128C181.419 215.65 183.96 214.049 186.44 212.313C188.484 210.936 190.442 209.504 192.322 208.018C185.995 213.406 178.884 217.9 170.914 221.177Z" fill="#BE3636"/>
<path d="M130.01 229.58C122.972 229.579 115.959 228.954 109.034 227.751C108.662 227.481 108.291 227.209 107.92 226.936C101.79 222.426 95.8327 217.676 90.0702 212.702C95.164 214.033 100.426 214.761 105.788 214.789C108.401 215.058 111.02 215.267 113.644 215.422C117.376 215.64 121.118 215.748 124.86 215.748C136.899 215.748 148.918 214.639 160.486 212.595C163.198 211.524 165.847 210.292 168.481 208.962C180.08 202.525 190.921 193.862 199.697 183.446C201.453 181.363 203.125 179.21 204.705 176.99C207.753 172.265 210.275 167.256 212.306 162.051C212.99 161.992 213.675 161.914 214.359 161.836C215.741 161.679 217.119 161.521 218.463 161.521C220.01 161.521 221.514 161.73 222.935 162.385C223.071 162.448 223.205 162.514 223.335 162.583C222.087 165.918 220.704 169.193 219.207 172.39C218.042 174.738 216.81 177.046 215.514 179.312C209.328 190.128 201.68 200.049 192.322 208.018C190.442 209.504 188.484 210.936 186.44 212.313C183.96 214.049 181.419 215.65 178.828 217.128C176.237 218.601 173.598 219.95 170.914 221.177C170.912 221.179 170.911 221.179 170.908 221.18C168.224 222.408 165.496 223.513 162.735 224.496C160.172 225.408 157.576 226.212 154.944 226.887C146.664 228.708 138.32 229.58 130.01 229.58ZM59.9407 194.782C57.5023 194.568 55.0188 194.518 52.5223 194.518C52.1246 194.518 51.727 194.519 51.3285 194.521C48.2585 190.758 45.4459 186.779 42.8945 182.637C43.931 181.129 45.0264 179.63 46.1863 178.19C50.2404 184.11 54.8123 189.71 59.9407 194.782Z" fill="#B03131"/>
<defs>
<linearGradient id="paint0_linear_36_5058" x1="31.7322" y1="31.733" x2="186.151" y2="186.152" gradientUnits="userSpaceOnUse">
<stop stop-color="#172030"/>
<stop offset="1" stop-color="#240F34"/>
</linearGradient>
<linearGradient id="paint1_linear_36_5058" x1="31.733" y1="31.7337" x2="186.152" y2="186.153" gradientUnits="userSpaceOnUse">
<stop stop-color="#1A2333"/>
<stop offset="1" stop-color="#261237"/>
</linearGradient>
<linearGradient id="paint2_linear_36_5058" x1="31.7444" y1="31.729" x2="186.168" y2="186.139" gradientUnits="userSpaceOnUse">
<stop stop-color="#172030"/>
<stop offset="1" stop-color="#240F34"/>
</linearGradient>
<linearGradient id="paint3_linear_36_5058" x1="31.7596" y1="31.7263" x2="186.186" y2="186.124" gradientUnits="userSpaceOnUse">
<stop stop-color="#172030"/>
<stop offset="1" stop-color="#240F34"/>
</linearGradient>
<linearGradient id="paint4_linear_36_5058" x1="31.7009" y1="31.735" x2="186.119" y2="186.182" gradientUnits="userSpaceOnUse">
<stop stop-color="#172030"/>
<stop offset="1" stop-color="#240F34"/>
</linearGradient>
<linearGradient id="paint5_linear_36_5058" x1="31.7145" y1="31.732" x2="186.136" y2="186.169" gradientUnits="userSpaceOnUse">
<stop stop-color="#172030"/>
<stop offset="1" stop-color="#240F34"/>
</linearGradient>
<linearGradient id="paint6_linear_36_5058" x1="31.7243" y1="31.742" x2="186.136" y2="186.17" gradientUnits="userSpaceOnUse">
<stop stop-color="#172030"/>
<stop offset="1" stop-color="#240F34"/>
</linearGradient>
<linearGradient id="paint7_linear_36_5058" x1="31.7363" y1="31.7337" x2="186.156" y2="186.151" gradientUnits="userSpaceOnUse">
<stop stop-color="#172030"/>
<stop offset="1" stop-color="#240F34"/>
</linearGradient>
<linearGradient id="paint8_linear_36_5058" x1="31.7571" y1="31.7487" x2="186.163" y2="186.151" gradientUnits="userSpaceOnUse">
<stop stop-color="#172030"/>
<stop offset="1" stop-color="#240F34"/>
</linearGradient>
<linearGradient id="paint9_linear_36_5058" x1="31.7265" y1="31.7271" x2="186.152" y2="186.149" gradientUnits="userSpaceOnUse">
<stop stop-color="#172030"/>
<stop offset="1" stop-color="#240F34"/>
</linearGradient>
<linearGradient id="paint10_linear_36_5058" x1="31.6952" y1="31.6897" x2="186.154" y2="186.142" gradientUnits="userSpaceOnUse">
<stop stop-color="#172030"/>
<stop offset="1" stop-color="#240F34"/>
</linearGradient>
</defs>
</svg>
